%TF.GenerationSoftware,KiCad,Pcbnew,7.0.6*%
%TF.CreationDate,2023-09-01T14:16:42+02:00*%
%TF.ProjectId,gs,67732e6b-6963-4616-945f-706362585858,rev?*%
%TF.SameCoordinates,Original*%
%TF.FileFunction,Profile,NP*%
%FSLAX46Y46*%
G04 Gerber Fmt 4.6, Leading zero omitted, Abs format (unit mm)*
G04 Created by KiCad (PCBNEW 7.0.6) date 2023-09-01 14:16:42*
%MOMM*%
%LPD*%
G01*
G04 APERTURE LIST*
%TA.AperFunction,Profile*%
%ADD10C,0.100000*%
%TD*%
G04 APERTURE END LIST*
D10*
X217144194Y-45587943D02*
X219123109Y-45678203D01*
X221099820Y-45808039D01*
X223073539Y-45977400D01*
X225043473Y-46186220D01*
X227008834Y-46434414D01*
X228968837Y-46721884D01*
X230922695Y-47048512D01*
X232869626Y-47414170D01*
X234808851Y-47818710D01*
X236739593Y-48261971D01*
X238661081Y-48743775D01*
X240572543Y-49263930D01*
X242473214Y-49822225D01*
X244362334Y-50418440D01*
X246068041Y-50998002D01*
X245218557Y-53331940D01*
G75*
G03*
X248037635Y-54358000I1409543J-513060D01*
G01*
X248887236Y-52023741D01*
X249952848Y-52432132D01*
X251788250Y-53177482D01*
X253608371Y-53959408D01*
X255412481Y-54777596D01*
X257199860Y-55631717D01*
X258969790Y-56521432D01*
X260721566Y-57446383D01*
X262454482Y-58406199D01*
X264167847Y-59400495D01*
X265860975Y-60428876D01*
X267533186Y-61490929D01*
X269183812Y-62586228D01*
X270812193Y-63714335D01*
X272417676Y-64874797D01*
X273999617Y-66067151D01*
X275557384Y-67290919D01*
X276099597Y-67735195D01*
X274503089Y-69637839D01*
G75*
G03*
X276801223Y-71566201I1149111J-964161D01*
G01*
X278397951Y-69663296D01*
X278597910Y-69830726D01*
X280079452Y-71145747D01*
X281534386Y-72490148D01*
X282962128Y-73863393D01*
X284362107Y-75264929D01*
X285733763Y-76694197D01*
X287076547Y-78150624D01*
X288389920Y-79633626D01*
X289673358Y-81142612D01*
X290926345Y-82676975D01*
X292148381Y-84236101D01*
X293338975Y-85819367D01*
X294497652Y-87426138D01*
X295623947Y-89055772D01*
X296717411Y-90707615D01*
X297777604Y-92381006D01*
X298595573Y-93734408D01*
X296444604Y-94976270D01*
G75*
G03*
X297944603Y-97574347I749996J-1299030D01*
G01*
X300095869Y-96332313D01*
X300754383Y-97523728D01*
X301677385Y-99276529D01*
X302565131Y-101047449D01*
X303417266Y-102835776D01*
X304233447Y-104640795D01*
X305013349Y-106461784D01*
X305756659Y-108298013D01*
X306463079Y-110148747D01*
X307132327Y-112013246D01*
X307764134Y-113890761D01*
X308358248Y-115780543D01*
X308914431Y-117681834D01*
X309432460Y-119593873D01*
X309912128Y-121515895D01*
X310353242Y-123447129D01*
X310755627Y-125386803D01*
X310842619Y-125859754D01*
X308396628Y-126291048D01*
G75*
G03*
X308917572Y-129245471I260472J-1477252D01*
G01*
X311363901Y-128814118D01*
X311443576Y-129288359D01*
X311728866Y-131248680D01*
X311974875Y-133214316D01*
X312181505Y-135184481D01*
X312348673Y-137158387D01*
X312476311Y-139135242D01*
X312564370Y-141114255D01*
X312612814Y-143094633D01*
X312621623Y-145075585D01*
X312590794Y-147056316D01*
X312520338Y-149036034D01*
X312410284Y-151013946D01*
X312260678Y-152989260D01*
X312071578Y-154961185D01*
X311843060Y-156928932D01*
X311575214Y-158891712D01*
X311363564Y-160236441D01*
X308917572Y-159805146D01*
G75*
G03*
X308396628Y-162759570I-260472J-1477254D01*
G01*
X310842956Y-163190924D01*
X310536871Y-164742407D01*
X310112949Y-166677488D01*
X309650393Y-168603699D01*
X309149390Y-170520270D01*
X308610137Y-172426432D01*
X308032853Y-174321422D01*
X307417768Y-176204483D01*
X306765128Y-178074859D01*
X306075194Y-179931803D01*
X305348244Y-181774570D01*
X304584568Y-183602423D01*
X303784471Y-185414629D01*
X302948275Y-187210463D01*
X302076313Y-188989208D01*
X301168935Y-190750148D01*
X300226505Y-192492581D01*
X300095572Y-192718133D01*
X297944603Y-191476271D01*
G75*
G03*
X296444603Y-194074347I-750003J-1299029D01*
G01*
X298595868Y-195316380D01*
X298238010Y-195919140D01*
X297192741Y-197601894D01*
X296114011Y-199263396D01*
X295002252Y-200902981D01*
X293857911Y-202519994D01*
X292681443Y-204113785D01*
X291473322Y-205683718D01*
X290234029Y-207229164D01*
X288964063Y-208749503D01*
X287663931Y-210244127D01*
X286334152Y-211712439D01*
X284975262Y-213153849D01*
X283587802Y-214567780D01*
X282172329Y-215953667D01*
X280729410Y-217310955D01*
X279259621Y-218639100D01*
X278397731Y-219387060D01*
X276801224Y-217484417D01*
G75*
G03*
X274503090Y-219412780I-1149024J-964183D01*
G01*
X276099818Y-221315685D01*
X274694979Y-222443420D01*
X273123705Y-223649795D01*
X271528606Y-224824489D01*
X269910322Y-225967033D01*
X268269502Y-227076968D01*
X266606801Y-228153850D01*
X264922887Y-229197247D01*
X263218433Y-230206743D01*
X261494120Y-231181932D01*
X259750641Y-232122425D01*
X257988692Y-233027845D01*
X256208981Y-233897829D01*
X254412217Y-234732028D01*
X252599122Y-235530109D01*
X250770421Y-236291754D01*
X248926848Y-237016655D01*
X248887118Y-237026554D01*
X248037635Y-234692617D01*
G75*
G03*
X245218557Y-235718676I-1409535J-512983D01*
G01*
X246068158Y-238052937D01*
X245198038Y-238355084D01*
X243314294Y-238968075D01*
X241418663Y-239543252D01*
X239511902Y-240080385D01*
X237594776Y-240579258D01*
X235668052Y-241039672D01*
X233732501Y-241461443D01*
X231788899Y-241844401D01*
X229838023Y-242188393D01*
X227880655Y-242493281D01*
X225917579Y-242758944D01*
X223949579Y-242985275D01*
X221977445Y-243172183D01*
X220001966Y-243319594D01*
X218023933Y-243427448D01*
X216044138Y-243495703D01*
X215123152Y-243509034D01*
X215123151Y-241025308D01*
G75*
G03*
X212123152Y-241025309I-1499951J8D01*
G01*
X212123151Y-243509376D01*
X212082433Y-243513319D01*
X210102110Y-243462674D01*
X208123195Y-243372415D01*
X206146484Y-243242579D01*
X204172765Y-243073217D01*
X202202831Y-242864397D01*
X200237469Y-242616203D01*
X198277467Y-242328734D01*
X196323609Y-242002105D01*
X194376678Y-241636447D01*
X192437453Y-241231907D01*
X190506710Y-240788646D01*
X188585223Y-240306842D01*
X186673761Y-239786688D01*
X184773089Y-239228392D01*
X182883970Y-238632178D01*
X181178263Y-238052616D01*
X182027747Y-235718677D01*
G75*
G03*
X179208668Y-234692617I-1409547J513077D01*
G01*
X178359068Y-237026876D01*
X177293456Y-236618486D01*
X175458054Y-235873135D01*
X173637933Y-235091210D01*
X171833823Y-234273022D01*
X170046444Y-233418900D01*
X168276513Y-232529186D01*
X166524738Y-231604235D01*
X164791822Y-230644419D01*
X163078457Y-229650122D01*
X161385329Y-228621741D01*
X159713118Y-227559689D01*
X158062492Y-226464390D01*
X156434111Y-225336283D01*
X154828628Y-224175821D01*
X153246687Y-222983467D01*
X151688920Y-221759698D01*
X151146707Y-221315423D01*
X152743215Y-219412779D01*
G75*
G03*
X150445081Y-217484416I-1149115J964179D01*
G01*
X148848353Y-219387322D01*
X148648394Y-219219892D01*
X147166852Y-217904871D01*
X145711918Y-216560470D01*
X144284176Y-215187225D01*
X142884197Y-213785688D01*
X141512541Y-212356421D01*
X140169757Y-210899994D01*
X138856384Y-209416991D01*
X137572946Y-207908006D01*
X136319959Y-206373643D01*
X135097923Y-204814516D01*
X133907329Y-203231250D01*
X132748651Y-201624479D01*
X131622357Y-199994845D01*
X130528893Y-198343002D01*
X129468700Y-196669611D01*
X128650731Y-195316210D01*
X130801700Y-194074347D01*
G75*
G03*
X129301701Y-191476271I-750000J1299047D01*
G01*
X127150435Y-192718304D01*
X126491921Y-191526890D01*
X125568918Y-189774089D01*
X124681173Y-188003169D01*
X123829038Y-186214842D01*
X123012857Y-184409823D01*
X122232955Y-182588833D01*
X121489645Y-180752604D01*
X120783225Y-178901870D01*
X120113977Y-177037372D01*
X119482170Y-175159856D01*
X118888056Y-173270074D01*
X118331873Y-171368783D01*
X117813844Y-169456744D01*
X117334176Y-167534723D01*
X116893062Y-165603489D01*
X116490677Y-163663815D01*
X116403684Y-163190864D01*
X118849676Y-162759570D01*
G75*
G03*
X118328731Y-159805146I-260476J1477170D01*
G01*
X115882403Y-160236500D01*
X115802727Y-159762259D01*
X115517438Y-157801938D01*
X115271429Y-155836302D01*
X115064799Y-153866136D01*
X114897631Y-151892231D01*
X114769993Y-149915376D01*
X114681934Y-147936363D01*
X114633490Y-145955984D01*
X114624681Y-143975033D01*
X114655510Y-141994302D01*
X114725966Y-140014584D01*
X114836019Y-138036671D01*
X114985626Y-136061358D01*
X115174726Y-134089433D01*
X115403244Y-132121686D01*
X115671089Y-130158906D01*
X115882740Y-128814177D01*
X118328732Y-129245471D01*
G75*
G03*
X118849676Y-126291048I260468J1477171D01*
G01*
X116403348Y-125859694D01*
X116709432Y-124308210D01*
X117133355Y-122373130D01*
X117595911Y-120446918D01*
X118096914Y-118530348D01*
X118636167Y-116624186D01*
X119213451Y-114729195D01*
X119828536Y-112846135D01*
X120481176Y-110975758D01*
X121171109Y-109118814D01*
X121898059Y-107276048D01*
X122661736Y-105448195D01*
X123461833Y-103635989D01*
X124298029Y-101840154D01*
X125169991Y-100061410D01*
X126077369Y-98300469D01*
X127019799Y-96558037D01*
X127150731Y-96332485D01*
X129301701Y-97574347D01*
G75*
G03*
X130801701Y-94976271I749999J1299047D01*
G01*
X128650435Y-93734238D01*
X129008294Y-93131478D01*
X130053563Y-91448724D01*
X131132292Y-89787222D01*
X132244052Y-88147637D01*
X133388393Y-86530624D01*
X134564860Y-84936832D01*
X135772982Y-83366899D01*
X137012274Y-81821454D01*
X138282241Y-80301115D01*
X139582373Y-78806491D01*
X140912152Y-77338179D01*
X142271042Y-75896769D01*
X143658502Y-74482837D01*
X145073975Y-73096950D01*
X146516894Y-71739663D01*
X147986683Y-70411518D01*
X148848574Y-69663557D01*
X150445081Y-71566201D01*
G75*
G03*
X152743215Y-69637838I1149019J964201D01*
G01*
X151146487Y-67734932D01*
X152551325Y-66607198D01*
X154122599Y-65400823D01*
X155717698Y-64226128D01*
X157335981Y-63083585D01*
X158976802Y-61973650D01*
X160639502Y-60896768D01*
X162323417Y-59853370D01*
X164027871Y-58843874D01*
X165752184Y-57868685D01*
X167495663Y-56928192D01*
X169257612Y-56022773D01*
X171037323Y-55152789D01*
X172834087Y-54318590D01*
X174647182Y-53520509D01*
X176475882Y-52758864D01*
X178359185Y-52024064D01*
X179208669Y-54358001D01*
G75*
G03*
X182027747Y-53331941I1409531J513001D01*
G01*
X181178146Y-50997681D01*
X182048266Y-50695534D01*
X183932010Y-50082543D01*
X185827641Y-49507366D01*
X187734402Y-48970233D01*
X189651528Y-48471359D01*
X191578252Y-48010945D01*
X193513803Y-47589175D01*
X195457404Y-47206217D01*
X197408281Y-46862225D01*
X199365649Y-46557337D01*
X201328725Y-46291674D01*
X203296725Y-46065343D01*
X205268859Y-45878435D01*
X207244338Y-45731024D01*
X209222371Y-45623170D01*
X211202166Y-45554915D01*
X212123152Y-45541584D01*
X212123152Y-48025309D01*
G75*
G03*
X215123152Y-48025309I1500000J0D01*
G01*
X215123152Y-45541242D01*
X217144194Y-45587943D01*
X278892000Y-122936000D02*
X248666000Y-153670000D01*
X180086000Y-153670000D01*
X149860000Y-122682000D01*
X182880000Y-81280000D01*
X213360000Y-107950000D01*
X244094000Y-81026000D01*
X278892000Y-122936000D01*
M02*
