%TF.GenerationSoftware,KiCad,Pcbnew,7.0.6*%
%TF.CreationDate,2023-09-01T14:16:42+02:00*%
%TF.ProjectId,gs,67732e6b-6963-4616-945f-706362585858,rev?*%
%TF.SameCoordinates,Original*%
%TF.FileFunction,Paste,Top*%
%TF.FilePolarity,Positive*%
%FSLAX46Y46*%
G04 Gerber Fmt 4.6, Leading zero omitted, Abs format (unit mm)*
G04 Created by KiCad (PCBNEW 7.0.6) date 2023-09-01 14:16:42*
%MOMM*%
%LPD*%
G01*
G04 APERTURE LIST*
G04 Aperture macros list*
%AMRoundRect*
0 Rectangle with rounded corners*
0 $1 Rounding radius*
0 $2 $3 $4 $5 $6 $7 $8 $9 X,Y pos of 4 corners*
0 Add a 4 corners polygon primitive as box body*
4,1,4,$2,$3,$4,$5,$6,$7,$8,$9,$2,$3,0*
0 Add four circle primitives for the rounded corners*
1,1,$1+$1,$2,$3*
1,1,$1+$1,$4,$5*
1,1,$1+$1,$6,$7*
1,1,$1+$1,$8,$9*
0 Add four rect primitives between the rounded corners*
20,1,$1+$1,$2,$3,$4,$5,0*
20,1,$1+$1,$4,$5,$6,$7,0*
20,1,$1+$1,$6,$7,$8,$9,0*
20,1,$1+$1,$8,$9,$2,$3,0*%
G04 Aperture macros list end*
%ADD10RoundRect,0.042000X-0.258000X0.993000X-0.258000X-0.993000X0.258000X-0.993000X0.258000X0.993000X0*%
G04 APERTURE END LIST*
D10*
%TO.C,U8*%
X217297000Y-205169000D03*
X216027000Y-205169000D03*
X214757000Y-205169000D03*
X213487000Y-205169000D03*
X212217000Y-205169000D03*
X210947000Y-205169000D03*
X209677000Y-205169000D03*
X208407000Y-205169000D03*
X207137000Y-205169000D03*
X205867000Y-205169000D03*
X204597000Y-205169000D03*
X203327000Y-205169000D03*
X203327000Y-214439000D03*
X204597000Y-214439000D03*
X205867000Y-214439000D03*
X207137000Y-214439000D03*
X208407000Y-214439000D03*
X209677000Y-214439000D03*
X210947000Y-214439000D03*
X212217000Y-214439000D03*
X213487000Y-214439000D03*
X214757000Y-214439000D03*
X216027000Y-214439000D03*
X217297000Y-214439000D03*
%TD*%
%TO.C,U6*%
X175641000Y-188123000D03*
X174371000Y-188123000D03*
X173101000Y-188123000D03*
X171831000Y-188123000D03*
X170561000Y-188123000D03*
X169291000Y-188123000D03*
X168021000Y-188123000D03*
X166751000Y-188123000D03*
X165481000Y-188123000D03*
X164211000Y-188123000D03*
X162941000Y-188123000D03*
X161671000Y-188123000D03*
X161671000Y-197393000D03*
X162941000Y-197393000D03*
X164211000Y-197393000D03*
X165481000Y-197393000D03*
X166751000Y-197393000D03*
X168021000Y-197393000D03*
X169291000Y-197393000D03*
X170561000Y-197393000D03*
X171831000Y-197393000D03*
X173101000Y-197393000D03*
X174371000Y-197393000D03*
X175641000Y-197393000D03*
%TD*%
M02*
