%TF.GenerationSoftware,KiCad,Pcbnew,7.0.6*%
%TF.CreationDate,2023-09-01T14:16:42+02:00*%
%TF.ProjectId,gs,67732e6b-6963-4616-945f-706362585858,rev?*%
%TF.SameCoordinates,Original*%
%TF.FileFunction,Soldermask,Top*%
%TF.FilePolarity,Negative*%
%FSLAX46Y46*%
G04 Gerber Fmt 4.6, Leading zero omitted, Abs format (unit mm)*
G04 Created by KiCad (PCBNEW 7.0.6) date 2023-09-01 14:16:42*
%MOMM*%
%LPD*%
G01*
G04 APERTURE LIST*
G04 Aperture macros list*
%AMRoundRect*
0 Rectangle with rounded corners*
0 $1 Rounding radius*
0 $2 $3 $4 $5 $6 $7 $8 $9 X,Y pos of 4 corners*
0 Add a 4 corners polygon primitive as box body*
4,1,4,$2,$3,$4,$5,$6,$7,$8,$9,$2,$3,0*
0 Add four circle primitives for the rounded corners*
1,1,$1+$1,$2,$3*
1,1,$1+$1,$4,$5*
1,1,$1+$1,$6,$7*
1,1,$1+$1,$8,$9*
0 Add four rect primitives between the rounded corners*
20,1,$1+$1,$2,$3,$4,$5,0*
20,1,$1+$1,$4,$5,$6,$7,0*
20,1,$1+$1,$6,$7,$8,$9,0*
20,1,$1+$1,$8,$9,$2,$3,0*%
%AMHorizOval*
0 Thick line with rounded ends*
0 $1 width*
0 $2 $3 position (X,Y) of the first rounded end (center of the circle)*
0 $4 $5 position (X,Y) of the second rounded end (center of the circle)*
0 Add line between two ends*
20,1,$1,$2,$3,$4,$5,0*
0 Add two circle primitives to create the rounded ends*
1,1,$1,$2,$3*
1,1,$1,$4,$5*%
%AMRotRect*
0 Rectangle, with rotation*
0 The origin of the aperture is its center*
0 $1 length*
0 $2 width*
0 $3 Rotation angle, in degrees counterclockwise*
0 Add horizontal line*
21,1,$1,$2,0,0,$3*%
G04 Aperture macros list end*
%ADD10C,0.100000*%
%ADD11R,1.700000X1.700000*%
%ADD12O,1.700000X1.700000*%
%ADD13C,1.600000*%
%ADD14O,1.600000X1.600000*%
%ADD15R,4.500000X2.000000*%
%ADD16O,4.000000X2.000000*%
%ADD17O,2.000000X4.000000*%
%ADD18RotRect,1.700000X1.700000X135.000000*%
%ADD19HorizOval,1.700000X0.000000X0.000000X0.000000X0.000000X0*%
%ADD20R,1.600000X1.600000*%
%ADD21C,1.400000*%
%ADD22RotRect,1.600000X1.600000X315.000000*%
%ADD23HorizOval,1.600000X0.000000X0.000000X0.000000X0.000000X0*%
%ADD24RoundRect,0.042000X-0.258000X0.993000X-0.258000X-0.993000X0.258000X-0.993000X0.258000X0.993000X0*%
%ADD25RoundRect,0.250000X-0.350000X-0.625000X0.350000X-0.625000X0.350000X0.625000X-0.350000X0.625000X0*%
%ADD26O,1.200000X1.750000*%
%ADD27RotRect,1.700000X1.700000X225.000000*%
%ADD28HorizOval,1.700000X0.000000X0.000000X0.000000X0.000000X0*%
%ADD29HorizOval,3.500000X0.000000X0.000000X0.000000X0.000000X0*%
%ADD30RotRect,1.905000X2.000000X135.000000*%
%ADD31HorizOval,1.905000X0.033588X0.033588X-0.033588X-0.033588X0*%
%ADD32RoundRect,0.250000X-0.625000X0.350000X-0.625000X-0.350000X0.625000X-0.350000X0.625000X0.350000X0*%
%ADD33O,1.750000X1.200000*%
%ADD34RotRect,1.700000X1.700000X315.000000*%
%ADD35HorizOval,3.500000X0.000000X0.000000X0.000000X0.000000X0*%
%ADD36RotRect,1.905000X2.000000X315.000000*%
%ADD37HorizOval,1.905000X-0.033588X-0.033588X0.033588X0.033588X0*%
%ADD38RotRect,1.700000X1.700000X45.000000*%
%ADD39HorizOval,1.700000X0.000000X0.000000X0.000000X0.000000X0*%
G04 APERTURE END LIST*
D10*
X312614000Y-144466000D02*
X312614000Y-144466000D01*
X307614000Y-144466000D02*
X307614000Y-144466000D01*
D11*
%TO.C,J5*%
X227838000Y-159004000D03*
D12*
X230378000Y-159004000D03*
X232918000Y-159004000D03*
X235458000Y-159004000D03*
X237998000Y-159004000D03*
%TD*%
D13*
%TO.C,R14*%
X216408000Y-194310000D03*
D14*
X226568000Y-194310000D03*
%TD*%
D11*
%TO.C,JP2*%
X197358000Y-161290000D03*
D12*
X197358000Y-163830000D03*
%TD*%
D15*
%TO.C,J1*%
X213522000Y-65382000D03*
D16*
X213522000Y-59182000D03*
D17*
X208822000Y-62182000D03*
%TD*%
D18*
%TO.C,U9*%
X213287795Y-95068205D03*
D19*
X215083846Y-93272153D03*
X216879898Y-91476102D03*
X218675949Y-89680051D03*
X220472000Y-87884000D03*
%TD*%
D13*
%TO.C,R5*%
X175514000Y-200152000D03*
D14*
X175514000Y-210312000D03*
%TD*%
D20*
%TO.C,C16*%
X222564888Y-215392000D03*
D13*
X224564888Y-215392000D03*
%TD*%
D21*
%TO.C,C17*%
X202184000Y-223774000D03*
X204684000Y-223774000D03*
%TD*%
D11*
%TO.C,J4*%
X295402000Y-145288000D03*
D12*
X292862000Y-145288000D03*
X295402000Y-142748000D03*
X292862000Y-142748000D03*
X295402000Y-140208000D03*
X292862000Y-140208000D03*
X295402000Y-137668000D03*
X292862000Y-137668000D03*
X295402000Y-135128000D03*
X292862000Y-135128000D03*
X295402000Y-132588000D03*
X292862000Y-132588000D03*
X295402000Y-130048000D03*
X292862000Y-130048000D03*
X295402000Y-127508000D03*
X292862000Y-127508000D03*
X295402000Y-124968000D03*
X292862000Y-124968000D03*
X295402000Y-122428000D03*
X292862000Y-122428000D03*
%TD*%
D13*
%TO.C,R2*%
X194564000Y-168402000D03*
D14*
X194564000Y-178562000D03*
%TD*%
D21*
%TO.C,C13*%
X169164000Y-177038000D03*
X166664000Y-177038000D03*
%TD*%
D13*
%TO.C,C14*%
X196977000Y-214439000D03*
X196977000Y-219439000D03*
%TD*%
%TO.C,C2*%
X164592000Y-75438000D03*
X168127534Y-71902466D03*
%TD*%
%TO.C,R3*%
X159004000Y-202438000D03*
D14*
X169164000Y-202438000D03*
%TD*%
D13*
%TO.C,R4*%
X154432000Y-193965000D03*
D14*
X154432000Y-183805000D03*
%TD*%
D21*
%TO.C,C10*%
X159512000Y-206502000D03*
X162012000Y-206502000D03*
%TD*%
D11*
%TO.C,JP3*%
X183896000Y-161285000D03*
D12*
X183896000Y-163825000D03*
%TD*%
D13*
%TO.C,C5*%
X283972000Y-170434000D03*
X287507534Y-173969534D03*
%TD*%
%TO.C,C7*%
X154432000Y-197652000D03*
X154432000Y-202652000D03*
%TD*%
%TO.C,R10*%
X196723000Y-210375000D03*
D14*
X196723000Y-200215000D03*
%TD*%
D11*
%TO.C,JP1*%
X190500000Y-161285000D03*
D12*
X190500000Y-163825000D03*
%TD*%
D22*
%TO.C,C6*%
X279962893Y-174454523D03*
D13*
X281377107Y-175868737D03*
%TD*%
%TO.C,R6*%
X169672000Y-212852000D03*
D14*
X159512000Y-212852000D03*
%TD*%
D13*
%TO.C,R11*%
X217678000Y-218186000D03*
D14*
X217678000Y-228346000D03*
%TD*%
D13*
%TO.C,R15*%
X295474205Y-173046205D03*
D23*
X288290000Y-165862000D03*
%TD*%
D13*
%TO.C,R8*%
X172720000Y-175768000D03*
D14*
X182880000Y-175768000D03*
%TD*%
D21*
%TO.C,C12*%
X168910000Y-209002000D03*
X168910000Y-206502000D03*
%TD*%
D24*
%TO.C,U8*%
X217297000Y-205169000D03*
X216027000Y-205169000D03*
X214757000Y-205169000D03*
X213487000Y-205169000D03*
X212217000Y-205169000D03*
X210947000Y-205169000D03*
X209677000Y-205169000D03*
X208407000Y-205169000D03*
X207137000Y-205169000D03*
X205867000Y-205169000D03*
X204597000Y-205169000D03*
X203327000Y-205169000D03*
X203327000Y-214439000D03*
X204597000Y-214439000D03*
X205867000Y-214439000D03*
X207137000Y-214439000D03*
X208407000Y-214439000D03*
X209677000Y-214439000D03*
X210947000Y-214439000D03*
X212217000Y-214439000D03*
X213487000Y-214439000D03*
X214757000Y-214439000D03*
X216027000Y-214439000D03*
X217297000Y-214439000D03*
%TD*%
D21*
%TO.C,C18*%
X192405000Y-202735000D03*
X192405000Y-200235000D03*
%TD*%
D25*
%TO.C,J6*%
X228950000Y-164592000D03*
D26*
X230950000Y-164592000D03*
X232950000Y-164592000D03*
X234950000Y-164592000D03*
X236950000Y-164592000D03*
%TD*%
D13*
%TO.C,R13*%
X216535000Y-198437000D03*
D14*
X206375000Y-198437000D03*
%TD*%
D27*
%TO.C,U1*%
X282220820Y-194027897D03*
D28*
X280424769Y-192231846D03*
X278628718Y-190435795D03*
X276832666Y-188639743D03*
X275036615Y-186843692D03*
X273240564Y-185047641D03*
X271444513Y-183251590D03*
X269648461Y-181455538D03*
X267852410Y-179659487D03*
X266056359Y-177863436D03*
X264260308Y-176067385D03*
X262464257Y-174271334D03*
X260668205Y-172475282D03*
X258872154Y-170679231D03*
X257076103Y-168883180D03*
D27*
X263270358Y-212978359D03*
D28*
X261474307Y-211182308D03*
X259678256Y-209386256D03*
X257882205Y-207590205D03*
X256086153Y-205794154D03*
X254290102Y-203998103D03*
X252494051Y-202202051D03*
X250698000Y-200406000D03*
X248901948Y-198609949D03*
X247105897Y-196813898D03*
X245309846Y-195017846D03*
X243513795Y-193221795D03*
X241717744Y-191425744D03*
X239921692Y-189629693D03*
X238125641Y-187833642D03*
%TD*%
D13*
%TO.C,R9*%
X202184000Y-219710000D03*
D14*
X212344000Y-219710000D03*
%TD*%
D13*
%TO.C,C4*%
X138938000Y-118872000D03*
X135402466Y-122407534D03*
%TD*%
D21*
%TO.C,C19*%
X212090000Y-226294000D03*
X212090000Y-223794000D03*
%TD*%
D24*
%TO.C,U6*%
X175641000Y-188123000D03*
X174371000Y-188123000D03*
X173101000Y-188123000D03*
X171831000Y-188123000D03*
X170561000Y-188123000D03*
X169291000Y-188123000D03*
X168021000Y-188123000D03*
X166751000Y-188123000D03*
X165481000Y-188123000D03*
X164211000Y-188123000D03*
X162941000Y-188123000D03*
X161671000Y-188123000D03*
X161671000Y-197393000D03*
X162941000Y-197393000D03*
X164211000Y-197393000D03*
X165481000Y-197393000D03*
X166751000Y-197393000D03*
X168021000Y-197393000D03*
X169291000Y-197393000D03*
X170561000Y-197393000D03*
X171831000Y-197393000D03*
X173101000Y-197393000D03*
X174371000Y-197393000D03*
X175641000Y-197393000D03*
%TD*%
D13*
%TO.C,C3*%
X135128000Y-115062000D03*
X131592466Y-118597534D03*
%TD*%
D29*
%TO.C,U4*%
X151210197Y-91105804D03*
D30*
X164786647Y-81121456D03*
D31*
X162990596Y-79325405D03*
X161194545Y-77529354D03*
%TD*%
D13*
%TO.C,C8*%
X180340000Y-197692000D03*
X180340000Y-202692000D03*
%TD*%
D21*
%TO.C,C20*%
X212090000Y-195072000D03*
X209590000Y-195072000D03*
%TD*%
D32*
%TO.C,J2*%
X209042000Y-159798000D03*
D33*
X209042000Y-161798000D03*
X209042000Y-163798000D03*
X209042000Y-165798000D03*
%TD*%
D34*
%TO.C,U7*%
X142168731Y-127827557D03*
X127872163Y-142124125D03*
X174138443Y-159797269D03*
X159841875Y-174093837D03*
%TD*%
D13*
%TO.C,R7*%
X173736000Y-180340000D03*
D14*
X163576000Y-180340000D03*
%TD*%
D35*
%TO.C,U5*%
X150886233Y-101843767D03*
D36*
X137309783Y-111828115D03*
D37*
X139105834Y-113624166D03*
X140901885Y-115420217D03*
%TD*%
D38*
%TO.C,U2*%
X259171539Y-89753539D03*
D39*
X260967590Y-91549590D03*
X262763641Y-93345642D03*
X264559693Y-95141693D03*
X266355744Y-96937744D03*
X268151795Y-98733795D03*
X269947846Y-100529846D03*
X271743897Y-102325898D03*
X273539949Y-104121949D03*
X275336000Y-105918000D03*
%TD*%
D32*
%TO.C,J3*%
X219964000Y-159830000D03*
D33*
X219964000Y-161830000D03*
X219964000Y-163830000D03*
X219964000Y-165830000D03*
%TD*%
D13*
%TO.C,R12*%
X212344000Y-230124000D03*
D14*
X202184000Y-230124000D03*
%TD*%
D13*
%TO.C,C15*%
X222758000Y-219750000D03*
X222758000Y-224750000D03*
%TD*%
D21*
%TO.C,C11*%
X150368000Y-186305000D03*
X150368000Y-183805000D03*
%TD*%
D13*
%TO.C,R1*%
X189484000Y-168402000D03*
D14*
X189484000Y-178562000D03*
%TD*%
D18*
%TO.C,U3*%
X280543641Y-168528358D03*
D19*
X282339693Y-166732307D03*
X284135744Y-164936256D03*
X285931795Y-163140205D03*
X287727846Y-161344154D03*
X289523898Y-159548102D03*
X291319949Y-157752051D03*
X293116000Y-155956000D03*
D18*
X262415191Y-150396373D03*
D19*
X264211243Y-148600322D03*
X266007294Y-146804270D03*
X267803345Y-145008219D03*
X269599396Y-143212168D03*
X271395447Y-141416117D03*
X273191499Y-139620065D03*
X274987550Y-137824014D03*
%TD*%
D13*
%TO.C,C21*%
X216682466Y-98531534D03*
X220218000Y-94996000D03*
%TD*%
%TO.C,C1*%
X174244000Y-75438000D03*
X177779534Y-71902466D03*
%TD*%
D20*
%TO.C,C9*%
X185226888Y-197612000D03*
D13*
X187226888Y-197612000D03*
%TD*%
G36*
X149395334Y-96325180D02*
G01*
X149439681Y-96353681D01*
X156376319Y-103290319D01*
X156409804Y-103351642D01*
X156404820Y-103421334D01*
X156376319Y-103465681D01*
X145375681Y-114466319D01*
X145314358Y-114499804D01*
X145244666Y-114494820D01*
X145200319Y-114466319D01*
X138263681Y-107529681D01*
X138230196Y-107468358D01*
X138235180Y-107398666D01*
X138263681Y-107354319D01*
X149264319Y-96353681D01*
X149325642Y-96320196D01*
X149395334Y-96325180D01*
G37*
G36*
X156761334Y-78545180D02*
G01*
X156805681Y-78573681D01*
X163742319Y-85510319D01*
X163775804Y-85571642D01*
X163770820Y-85641334D01*
X163742319Y-85685681D01*
X152741681Y-96686319D01*
X152680358Y-96719804D01*
X152610666Y-96714820D01*
X152566319Y-96686319D01*
X145629681Y-89749681D01*
X145596196Y-89688358D01*
X145601180Y-89618666D01*
X145629681Y-89574319D01*
X156630319Y-78573681D01*
X156691642Y-78540196D01*
X156761334Y-78545180D01*
G37*
G36*
X212064675Y-45562116D02*
G01*
X212111189Y-45614252D01*
X212123152Y-45667391D01*
X212123152Y-48025309D01*
X212125714Y-48149388D01*
X212166560Y-48394170D01*
X212247136Y-48628881D01*
X212247141Y-48628891D01*
X212365246Y-48847131D01*
X212365252Y-48847140D01*
X212517669Y-49042965D01*
X212517672Y-49042969D01*
X212700252Y-49211046D01*
X212700256Y-49211049D01*
X212908005Y-49346779D01*
X213135267Y-49446465D01*
X213375840Y-49507386D01*
X213623146Y-49527880D01*
X213623158Y-49527880D01*
X213870463Y-49507386D01*
X214111036Y-49446465D01*
X214338298Y-49346779D01*
X214546047Y-49211049D01*
X214546051Y-49211046D01*
X214728631Y-49042969D01*
X214728634Y-49042965D01*
X214881051Y-48847140D01*
X214881057Y-48847131D01*
X214999162Y-48628891D01*
X214999167Y-48628881D01*
X215079743Y-48394170D01*
X215120589Y-48149388D01*
X215123152Y-48025309D01*
X215123152Y-45668140D01*
X215142837Y-45601101D01*
X215195641Y-45555346D01*
X215250017Y-45544173D01*
X217144194Y-45587943D01*
X219123109Y-45678203D01*
X221099820Y-45808039D01*
X223073539Y-45977400D01*
X225043473Y-46186220D01*
X227008834Y-46434414D01*
X228968837Y-46721884D01*
X230922695Y-47048512D01*
X232869626Y-47414170D01*
X234808851Y-47818710D01*
X236739593Y-48261971D01*
X238661081Y-48743775D01*
X240572543Y-49263930D01*
X242473214Y-49822225D01*
X244362334Y-50418440D01*
X245948078Y-50957241D01*
X246005220Y-50997447D01*
X246031555Y-51062164D01*
X246024707Y-51117059D01*
X245218557Y-53331940D01*
X245178386Y-53449381D01*
X245133041Y-53693394D01*
X245128479Y-53941539D01*
X245128479Y-53941547D01*
X245164822Y-54187052D01*
X245164822Y-54187054D01*
X245241082Y-54423242D01*
X245355176Y-54643654D01*
X245355182Y-54643663D01*
X245503992Y-54842279D01*
X245683470Y-55013699D01*
X245683474Y-55013702D01*
X245888720Y-55153243D01*
X245888722Y-55153244D01*
X246114139Y-55257100D01*
X246353569Y-55322435D01*
X246600498Y-55347471D01*
X246848183Y-55331522D01*
X247089850Y-55275024D01*
X247318925Y-55179519D01*
X247318933Y-55179515D01*
X247529160Y-55047611D01*
X247529165Y-55047607D01*
X247714820Y-54882893D01*
X247870832Y-54689866D01*
X247870835Y-54689861D01*
X247992941Y-54473801D01*
X247992947Y-54473787D01*
X248037635Y-54358000D01*
X248844102Y-52142250D01*
X248885528Y-52085987D01*
X248950797Y-52061051D01*
X249004999Y-52068873D01*
X249952848Y-52432132D01*
X251788250Y-53177482D01*
X253608371Y-53959408D01*
X255412481Y-54777596D01*
X257199860Y-55631717D01*
X258969790Y-56521432D01*
X260721566Y-57446383D01*
X262454482Y-58406199D01*
X264167847Y-59400495D01*
X265860975Y-60428876D01*
X267533186Y-61490929D01*
X269183812Y-62586228D01*
X270812193Y-63714335D01*
X272417676Y-64874797D01*
X273999617Y-66067151D01*
X275557384Y-67290919D01*
X276002554Y-67655680D01*
X276041934Y-67713396D01*
X276043858Y-67783239D01*
X276018954Y-67831301D01*
X274503089Y-69637838D01*
X274425298Y-69734538D01*
X274425297Y-69734539D01*
X274299253Y-69948307D01*
X274299252Y-69948309D01*
X274210114Y-70179904D01*
X274210111Y-70179913D01*
X274160307Y-70423019D01*
X274160306Y-70423024D01*
X274151194Y-70671009D01*
X274183025Y-70917124D01*
X274254928Y-71154637D01*
X274364945Y-71377083D01*
X274510072Y-71578381D01*
X274510076Y-71578387D01*
X274686353Y-71753050D01*
X274686353Y-71753051D01*
X274888979Y-71896323D01*
X275112424Y-72004291D01*
X275350589Y-72074008D01*
X275596988Y-72103575D01*
X275844876Y-72092185D01*
X275844889Y-72092184D01*
X276087520Y-72040148D01*
X276087531Y-72040145D01*
X276318292Y-71948885D01*
X276318301Y-71948880D01*
X276530894Y-71820882D01*
X276530905Y-71820874D01*
X276719523Y-71659637D01*
X276719532Y-71659629D01*
X276801223Y-71566201D01*
X278318327Y-69758185D01*
X278376499Y-69719483D01*
X278446360Y-69718375D01*
X278492923Y-69742818D01*
X278597910Y-69830726D01*
X280079452Y-71145747D01*
X281534386Y-72490148D01*
X282962128Y-73863393D01*
X284362107Y-75264929D01*
X285733763Y-76694197D01*
X287076547Y-78150624D01*
X288389920Y-79633626D01*
X289673358Y-81142612D01*
X290926345Y-82676975D01*
X292148381Y-84236101D01*
X293338975Y-85819367D01*
X294497652Y-87426138D01*
X295623947Y-89055772D01*
X296717411Y-90707615D01*
X297777604Y-92381006D01*
X298530136Y-93626136D01*
X298547965Y-93693693D01*
X298526440Y-93760164D01*
X298486012Y-93797662D01*
X296444604Y-94976270D01*
X296338423Y-95040531D01*
X296338422Y-95040532D01*
X296146872Y-95198287D01*
X296146864Y-95198295D01*
X295983891Y-95385427D01*
X295853938Y-95596836D01*
X295853931Y-95596849D01*
X295760550Y-95826759D01*
X295706281Y-96068915D01*
X295706281Y-96068920D01*
X295692610Y-96316710D01*
X295719908Y-96563347D01*
X295719912Y-96563366D01*
X295787430Y-96802141D01*
X295787437Y-96802160D01*
X295893343Y-97026579D01*
X295893345Y-97026583D01*
X296034741Y-97230504D01*
X296034750Y-97230515D01*
X296207788Y-97408388D01*
X296407747Y-97555359D01*
X296629174Y-97667414D01*
X296866013Y-97741491D01*
X296866014Y-97741492D01*
X297111826Y-97775578D01*
X297359886Y-97768741D01*
X297359892Y-97768740D01*
X297603446Y-97721166D01*
X297835858Y-97634150D01*
X297944603Y-97574347D01*
X299986457Y-96395481D01*
X300054357Y-96379008D01*
X300120384Y-96401861D01*
X300156983Y-96442884D01*
X300754383Y-97523728D01*
X301677385Y-99276529D01*
X302565131Y-101047449D01*
X303417266Y-102835776D01*
X304233447Y-104640795D01*
X305013349Y-106461784D01*
X305756659Y-108298013D01*
X306463079Y-110148747D01*
X307132327Y-112013246D01*
X307764134Y-113890761D01*
X308358248Y-115780543D01*
X308914431Y-117681834D01*
X309432460Y-119593873D01*
X309912128Y-121515895D01*
X310344657Y-123409544D01*
X310373601Y-123545270D01*
X310730932Y-125267762D01*
X310794412Y-125597670D01*
X310820021Y-125736897D01*
X310812789Y-125806392D01*
X310769133Y-125860944D01*
X310719599Y-125881445D01*
X308396628Y-126291048D01*
X308274846Y-126314979D01*
X308274841Y-126314981D01*
X308040836Y-126397724D01*
X307823660Y-126517845D01*
X307823654Y-126517849D01*
X307629209Y-126672078D01*
X307629207Y-126672080D01*
X307462793Y-126856221D01*
X307462792Y-126856222D01*
X307328957Y-127065238D01*
X307231348Y-127293438D01*
X307172636Y-127534578D01*
X307172634Y-127534588D01*
X307154412Y-127782097D01*
X307154413Y-127782109D01*
X307177179Y-128029249D01*
X307240316Y-128269282D01*
X307342096Y-128495639D01*
X307342099Y-128495644D01*
X307479748Y-128702163D01*
X307479755Y-128702171D01*
X307649512Y-128883210D01*
X307649512Y-128883211D01*
X307846764Y-129033848D01*
X307846764Y-129033849D01*
X308066129Y-129149969D01*
X308301590Y-129228392D01*
X308301607Y-129228396D01*
X308546768Y-129266994D01*
X308794953Y-129264713D01*
X308917572Y-129245471D01*
X311240794Y-128835825D01*
X311310233Y-128843569D01*
X311364462Y-128887626D01*
X311384612Y-128937396D01*
X311401505Y-129037949D01*
X311551307Y-130028620D01*
X311675461Y-130881721D01*
X311848595Y-132205332D01*
X311918510Y-132763959D01*
X312097954Y-134387843D01*
X312125510Y-134650588D01*
X312297048Y-136550441D01*
X312435673Y-138526556D01*
X312534730Y-140505049D01*
X312594181Y-142485128D01*
X312614000Y-144466000D01*
X312594181Y-146446872D01*
X312534730Y-148426951D01*
X312435673Y-150405444D01*
X312297048Y-152381559D01*
X312118911Y-154354505D01*
X311901333Y-156323491D01*
X311644402Y-158287730D01*
X311369089Y-160108423D01*
X311339603Y-160171765D01*
X311280551Y-160209111D01*
X311224951Y-160211999D01*
X308917572Y-159805146D01*
X308794924Y-159786122D01*
X308794930Y-159786122D01*
X308546768Y-159783845D01*
X308301622Y-159822442D01*
X308301615Y-159822443D01*
X308066167Y-159900865D01*
X308066160Y-159900867D01*
X307846837Y-160016968D01*
X307846833Y-160016971D01*
X307649603Y-160167593D01*
X307479855Y-160348624D01*
X307479850Y-160348631D01*
X307342222Y-160555119D01*
X307342216Y-160555130D01*
X307240446Y-160781465D01*
X307177316Y-161021471D01*
X307177315Y-161021479D01*
X307154552Y-161268590D01*
X307154551Y-161268602D01*
X307172771Y-161516087D01*
X307172773Y-161516097D01*
X307231480Y-161757216D01*
X307329077Y-161985391D01*
X307462900Y-162194392D01*
X307629290Y-162378506D01*
X307629292Y-162378508D01*
X307823721Y-162532728D01*
X307823723Y-162532729D01*
X308040887Y-162652846D01*
X308040892Y-162652848D01*
X308274867Y-162735581D01*
X308396628Y-162759570D01*
X310698662Y-163165480D01*
X310761265Y-163196507D01*
X310797156Y-163256454D01*
X310798896Y-163311026D01*
X310638596Y-164144106D01*
X310225436Y-166081513D01*
X309773594Y-168010266D01*
X309283251Y-169929591D01*
X308754602Y-171838721D01*
X308187860Y-173736892D01*
X307583251Y-175623342D01*
X306941017Y-177497317D01*
X306261416Y-179358067D01*
X305544720Y-181204846D01*
X304791215Y-183036915D01*
X304001203Y-184853541D01*
X303175002Y-186653996D01*
X302312940Y-188437559D01*
X301415365Y-190203516D01*
X300482634Y-191951160D01*
X300125044Y-192590056D01*
X300075124Y-192638942D01*
X300006700Y-192653079D01*
X299954839Y-192636881D01*
X297944603Y-191476271D01*
X297835926Y-191416322D01*
X297603496Y-191329296D01*
X297359916Y-191281716D01*
X297359908Y-191281715D01*
X297111825Y-191274877D01*
X297111823Y-191274877D01*
X296865988Y-191308966D01*
X296865983Y-191308968D01*
X296629124Y-191383050D01*
X296407674Y-191495116D01*
X296207699Y-191642097D01*
X296034640Y-191819991D01*
X296034637Y-191819994D01*
X295893218Y-192023951D01*
X295787302Y-192248389D01*
X295787296Y-192248405D01*
X295719768Y-192487214D01*
X295692466Y-192733888D01*
X295706138Y-192981702D01*
X295706138Y-192981704D01*
X295760413Y-193223885D01*
X295853808Y-193453826D01*
X295983773Y-193665255D01*
X296146774Y-193852417D01*
X296146776Y-193852419D01*
X296338347Y-194010189D01*
X296338359Y-194010198D01*
X296444603Y-194074347D01*
X298457313Y-195236385D01*
X298505529Y-195286952D01*
X298518752Y-195355559D01*
X298501008Y-195408615D01*
X297477316Y-197077256D01*
X296407838Y-198744729D01*
X295305210Y-200390468D01*
X294169874Y-202013816D01*
X293002284Y-203614123D01*
X291802907Y-205190746D01*
X290572224Y-206743056D01*
X289310728Y-208270431D01*
X288018923Y-209772259D01*
X286697327Y-211247939D01*
X285346469Y-212696880D01*
X283966889Y-214118501D01*
X282559141Y-215512235D01*
X281123788Y-216877522D01*
X279661405Y-218213816D01*
X278462046Y-219266509D01*
X278398676Y-219295938D01*
X278329456Y-219286435D01*
X278285258Y-219253021D01*
X276801224Y-217484417D01*
X276719512Y-217391024D01*
X276719502Y-217391014D01*
X276530878Y-217229770D01*
X276530875Y-217229768D01*
X276318285Y-217101770D01*
X276087515Y-217010503D01*
X275844879Y-216958467D01*
X275596995Y-216947075D01*
X275350605Y-216976640D01*
X275112439Y-217046359D01*
X274889008Y-217154320D01*
X274889007Y-217154321D01*
X274686384Y-217297591D01*
X274510112Y-217472250D01*
X274510102Y-217472262D01*
X274364993Y-217673539D01*
X274364985Y-217673552D01*
X274254975Y-217895984D01*
X274254974Y-217895985D01*
X274183076Y-218133489D01*
X274183074Y-218133494D01*
X274151246Y-218379600D01*
X274160359Y-218627578D01*
X274160359Y-218627581D01*
X274210167Y-218870692D01*
X274299305Y-219102280D01*
X274425345Y-219316038D01*
X274425350Y-219316045D01*
X274503090Y-219412780D01*
X275985311Y-221179221D01*
X276013324Y-221243229D01*
X276002285Y-221312221D01*
X275968326Y-221355319D01*
X275117980Y-222043448D01*
X273553434Y-223258539D01*
X271964890Y-224442082D01*
X270352982Y-225593603D01*
X268718357Y-226712641D01*
X267061668Y-227798748D01*
X265383579Y-228851489D01*
X263684761Y-229870443D01*
X261965896Y-230855202D01*
X260227671Y-231805371D01*
X258470783Y-232720570D01*
X256695934Y-233600432D01*
X254903835Y-234444606D01*
X253095204Y-235252753D01*
X251270765Y-236024550D01*
X249431249Y-236759687D01*
X248984631Y-236927888D01*
X248914956Y-236933094D01*
X248853526Y-236899805D01*
X248824406Y-236854255D01*
X248037635Y-234692617D01*
X247992918Y-234576828D01*
X247992917Y-234576826D01*
X247870811Y-234360764D01*
X247870810Y-234360762D01*
X247714804Y-234167738D01*
X247529154Y-234003026D01*
X247318924Y-233871118D01*
X247089846Y-233775609D01*
X246848183Y-233719112D01*
X246600502Y-233703162D01*
X246353579Y-233728197D01*
X246114151Y-233793531D01*
X245888738Y-233897385D01*
X245888736Y-233897386D01*
X245683493Y-234036925D01*
X245683489Y-234036928D01*
X245504018Y-234208342D01*
X245504015Y-234208345D01*
X245355197Y-234406975D01*
X245241113Y-234627370D01*
X245241109Y-234627378D01*
X245164854Y-234863556D01*
X245164853Y-234863559D01*
X245128512Y-235109064D01*
X245128512Y-235109074D01*
X245133076Y-235357214D01*
X245178423Y-235601225D01*
X245218557Y-235718676D01*
X246005731Y-237881423D01*
X246010162Y-237951152D01*
X245976192Y-238012207D01*
X245930582Y-238040727D01*
X245709936Y-238118821D01*
X243829629Y-238742274D01*
X241937224Y-239327979D01*
X240033479Y-239875702D01*
X238119155Y-240385223D01*
X236195020Y-240856339D01*
X234261843Y-241288862D01*
X232320400Y-241682617D01*
X230371466Y-242037447D01*
X228415823Y-242353211D01*
X226454253Y-242629781D01*
X224487542Y-242867047D01*
X222516477Y-243064914D01*
X220541848Y-243223303D01*
X218564445Y-243342150D01*
X216585060Y-243421408D01*
X215248791Y-243439083D01*
X215181497Y-243420287D01*
X215135048Y-243368093D01*
X215123151Y-243315094D01*
X215123151Y-241025308D01*
X215120731Y-240901229D01*
X215120730Y-240901216D01*
X215079883Y-240656427D01*
X214999299Y-240421689D01*
X214999297Y-240421686D01*
X214881182Y-240203428D01*
X214881180Y-240203424D01*
X214728747Y-240007577D01*
X214728744Y-240007574D01*
X214546158Y-239839491D01*
X214546154Y-239839488D01*
X214338393Y-239703750D01*
X214111112Y-239604055D01*
X213870527Y-239543131D01*
X213623205Y-239522638D01*
X213623193Y-239522638D01*
X213375876Y-239543130D01*
X213375868Y-239543132D01*
X213135282Y-239604057D01*
X212908007Y-239703749D01*
X212700244Y-239839489D01*
X212700233Y-239839497D01*
X212517655Y-240007574D01*
X212517651Y-240007578D01*
X212365219Y-240203424D01*
X212247102Y-240421688D01*
X212247099Y-240421695D01*
X212166516Y-240656428D01*
X212125668Y-240901223D01*
X212125668Y-240901225D01*
X212123152Y-241025310D01*
X212123151Y-243313935D01*
X212103466Y-243380975D01*
X212050662Y-243426729D01*
X211997639Y-243437926D01*
X210642940Y-243421408D01*
X208663555Y-243342150D01*
X206686152Y-243223303D01*
X204711523Y-243064914D01*
X202740458Y-242867047D01*
X200773747Y-242629781D01*
X198812177Y-242353211D01*
X196856534Y-242037447D01*
X194907600Y-241682617D01*
X192966157Y-241288862D01*
X191032980Y-240856339D01*
X189108845Y-240385223D01*
X187194521Y-239875702D01*
X185290776Y-239327979D01*
X183398371Y-238742274D01*
X181518064Y-238118821D01*
X181313632Y-238046466D01*
X181257002Y-238005542D01*
X181231487Y-237940498D01*
X181238483Y-237887162D01*
X182027747Y-235718677D01*
X182067915Y-235601246D01*
X182067916Y-235601241D01*
X182113266Y-235357217D01*
X182117830Y-235109071D01*
X182117830Y-235109061D01*
X182081488Y-234863549D01*
X182081487Y-234863546D01*
X182005229Y-234627361D01*
X182005228Y-234627358D01*
X181891136Y-234406950D01*
X181891134Y-234406947D01*
X181742320Y-234208322D01*
X181562835Y-234036893D01*
X181562830Y-234036889D01*
X181357591Y-233897353D01*
X181357578Y-233897346D01*
X181132166Y-233793491D01*
X180892729Y-233728155D01*
X180645798Y-233703119D01*
X180398110Y-233719069D01*
X180156440Y-233775568D01*
X179927353Y-233871081D01*
X179927352Y-233871081D01*
X179717126Y-234002987D01*
X179531463Y-234167711D01*
X179375453Y-234360740D01*
X179375450Y-234360744D01*
X179253343Y-234576809D01*
X179208667Y-234692617D01*
X178419689Y-236860318D01*
X178378263Y-236916581D01*
X178312994Y-236941517D01*
X178259464Y-236933950D01*
X177796751Y-236759687D01*
X175957235Y-236024550D01*
X174132796Y-235252753D01*
X172324165Y-234444606D01*
X170532066Y-233600432D01*
X168757217Y-232720570D01*
X167000329Y-231805371D01*
X165262104Y-230855202D01*
X163543239Y-229870443D01*
X161844421Y-228851489D01*
X160166332Y-227798748D01*
X158509643Y-226712641D01*
X156875018Y-225593603D01*
X155263110Y-224442082D01*
X153674566Y-223258539D01*
X152110020Y-222043448D01*
X151270574Y-221364142D01*
X151230844Y-221306668D01*
X151228493Y-221236838D01*
X151253589Y-221188044D01*
X152743215Y-219412779D01*
X152821005Y-219316081D01*
X152821012Y-219316071D01*
X152947056Y-219102306D01*
X153036197Y-218870708D01*
X153086007Y-218627586D01*
X153086007Y-218627583D01*
X153095120Y-218379595D01*
X153063290Y-218133474D01*
X152991388Y-217895961D01*
X152881371Y-217673517D01*
X152881363Y-217673504D01*
X152736245Y-217472214D01*
X152736235Y-217472203D01*
X152559956Y-217297537D01*
X152559956Y-217297536D01*
X152357332Y-217154266D01*
X152357321Y-217154259D01*
X152133888Y-217046297D01*
X151895709Y-216976575D01*
X151649307Y-216947008D01*
X151401411Y-216958400D01*
X151401403Y-216958401D01*
X151158768Y-217010438D01*
X151158761Y-217010440D01*
X150927994Y-217101704D01*
X150715388Y-217229712D01*
X150715384Y-217229715D01*
X150526749Y-217390967D01*
X150526748Y-217390968D01*
X150445082Y-217484416D01*
X148953280Y-219262273D01*
X148895109Y-219300975D01*
X148825248Y-219302083D01*
X148776493Y-219275761D01*
X147566595Y-218213816D01*
X146104212Y-216877522D01*
X144668859Y-215512235D01*
X143261111Y-214118501D01*
X141881531Y-212696880D01*
X140530673Y-211247939D01*
X139209077Y-209772259D01*
X137917272Y-208270431D01*
X136655776Y-206743056D01*
X135425093Y-205190746D01*
X134225716Y-203614123D01*
X133058126Y-202013816D01*
X131922790Y-200390468D01*
X130820162Y-198744729D01*
X129750684Y-197077256D01*
X128731778Y-195416419D01*
X128713500Y-195348982D01*
X128734583Y-195282369D01*
X128775473Y-195244189D01*
X130801701Y-194074347D01*
X130907952Y-194010206D01*
X131099542Y-193852420D01*
X131099546Y-193852416D01*
X131262534Y-193665268D01*
X131392504Y-193453832D01*
X131392508Y-193453824D01*
X131485899Y-193223890D01*
X131540175Y-192981705D01*
X131540175Y-192981703D01*
X131553847Y-192733887D01*
X131526545Y-192487211D01*
X131459016Y-192248400D01*
X131459010Y-192248384D01*
X131353094Y-192023942D01*
X131211675Y-191819989D01*
X131211670Y-191819983D01*
X131038614Y-191642091D01*
X130838633Y-191495104D01*
X130617182Y-191383038D01*
X130380317Y-191308953D01*
X130380316Y-191308952D01*
X130134478Y-191274863D01*
X129886392Y-191281701D01*
X129886384Y-191281702D01*
X129642799Y-191329283D01*
X129410371Y-191416306D01*
X129410370Y-191416307D01*
X129301702Y-191476271D01*
X127277629Y-192644867D01*
X127209729Y-192661340D01*
X127143702Y-192638487D01*
X127107424Y-192598042D01*
X126745366Y-191951160D01*
X125812635Y-190203516D01*
X124915060Y-188437559D01*
X124052998Y-186653996D01*
X123226797Y-184853541D01*
X122436785Y-183036915D01*
X121683280Y-181204846D01*
X120966584Y-179358067D01*
X120286983Y-177497317D01*
X119644749Y-175623342D01*
X119040140Y-173736892D01*
X118473398Y-171838721D01*
X117944749Y-169929591D01*
X117454406Y-168010266D01*
X117002564Y-166081513D01*
X116622811Y-164300761D01*
X116577763Y-164083609D01*
X116429703Y-163314147D01*
X116436365Y-163244596D01*
X116479572Y-163189688D01*
X116529937Y-163168601D01*
X118849676Y-162759570D01*
X118971411Y-162735502D01*
X118971428Y-162735497D01*
X119205380Y-162652770D01*
X119205382Y-162652769D01*
X119422538Y-162532656D01*
X119616946Y-162378453D01*
X119616949Y-162378450D01*
X119783341Y-162194332D01*
X119917148Y-161985356D01*
X119917149Y-161985354D01*
X120014741Y-161757189D01*
X120073446Y-161516081D01*
X120073448Y-161516073D01*
X120091666Y-161268602D01*
X120091665Y-161268590D01*
X120068903Y-161021490D01*
X120005776Y-160781495D01*
X119904010Y-160555167D01*
X119766380Y-160348675D01*
X119596638Y-160167652D01*
X119399422Y-160017041D01*
X119399413Y-160017035D01*
X119180101Y-159900940D01*
X118944665Y-159822523D01*
X118699528Y-159783926D01*
X118451381Y-159786203D01*
X118328731Y-159805146D01*
X116005509Y-160214793D01*
X115936070Y-160207049D01*
X115881841Y-160162992D01*
X115861691Y-160113222D01*
X115841126Y-159990817D01*
X115704392Y-159086568D01*
X115543291Y-157979585D01*
X115459477Y-157338830D01*
X115283407Y-155932011D01*
X115245272Y-155586907D01*
X115066202Y-153879516D01*
X115061846Y-153831276D01*
X114897631Y-151892231D01*
X114769993Y-149915375D01*
X114681934Y-147936363D01*
X114633490Y-145955984D01*
X114626864Y-144466000D01*
X119614000Y-144466000D01*
X119633815Y-146395993D01*
X119693253Y-148325173D01*
X119792287Y-150252725D01*
X119930877Y-152177838D01*
X120108964Y-154099699D01*
X120326472Y-156017499D01*
X120583311Y-157930429D01*
X120879371Y-159837682D01*
X121214529Y-161738455D01*
X121588642Y-163631945D01*
X122001553Y-165517355D01*
X122453088Y-167393890D01*
X122943057Y-169260758D01*
X123471252Y-171117173D01*
X124037452Y-172962351D01*
X124641417Y-174795516D01*
X125282894Y-176615893D01*
X125961610Y-178422717D01*
X126677282Y-180215224D01*
X127429605Y-181992659D01*
X128218264Y-183754272D01*
X129042927Y-185499322D01*
X129903244Y-187227072D01*
X130798854Y-188936794D01*
X131729379Y-190627767D01*
X132694426Y-192299279D01*
X133693589Y-193950623D01*
X134726447Y-195581105D01*
X135792564Y-197190037D01*
X136891490Y-198776740D01*
X138022763Y-200340546D01*
X139185905Y-201880795D01*
X140380426Y-203396838D01*
X141605822Y-204888035D01*
X142861577Y-206353759D01*
X144147162Y-207793391D01*
X145462033Y-209206323D01*
X146805638Y-210591961D01*
X148177409Y-211949721D01*
X149576768Y-213279029D01*
X151003126Y-214579325D01*
X152455880Y-215850062D01*
X153934418Y-217090703D01*
X155438118Y-218300726D01*
X156966344Y-219479619D01*
X158518453Y-220626887D01*
X160093791Y-221742046D01*
X161691693Y-222824624D01*
X163311485Y-223874167D01*
X164952484Y-224890231D01*
X166614000Y-225872388D01*
X168295331Y-226820224D01*
X169995768Y-227733340D01*
X171714595Y-228611349D01*
X173451086Y-229453883D01*
X175204510Y-230260587D01*
X176974128Y-231031119D01*
X178759193Y-231765155D01*
X180558953Y-232462386D01*
X182372649Y-233122517D01*
X184199516Y-233745271D01*
X186038785Y-234330384D01*
X187889679Y-234877610D01*
X189751419Y-235386719D01*
X191623219Y-235857496D01*
X193504290Y-236289742D01*
X195393840Y-236683275D01*
X197291071Y-237037929D01*
X199195184Y-237353554D01*
X201105377Y-237630018D01*
X203020842Y-237867205D01*
X204940774Y-238065013D01*
X206864363Y-238223359D01*
X208790797Y-238342178D01*
X210719264Y-238421418D01*
X213733644Y-238458750D01*
X216508736Y-238421418D01*
X218437203Y-238342178D01*
X220363637Y-238223359D01*
X222287226Y-238065013D01*
X224207158Y-237867205D01*
X226122623Y-237630018D01*
X228032816Y-237353554D01*
X229936929Y-237037929D01*
X231834160Y-236683275D01*
X233723710Y-236289742D01*
X235604781Y-235857496D01*
X237476581Y-235386719D01*
X239338321Y-234877610D01*
X241189215Y-234330384D01*
X243028484Y-233745271D01*
X244855351Y-233122517D01*
X246669047Y-232462386D01*
X248468807Y-231765155D01*
X250253872Y-231031119D01*
X252023490Y-230260587D01*
X253776914Y-229453883D01*
X255513405Y-228611349D01*
X257232232Y-227733340D01*
X258932669Y-226820224D01*
X260614000Y-225872388D01*
X262275516Y-224890231D01*
X263916515Y-223874167D01*
X265536307Y-222824624D01*
X267134209Y-221742046D01*
X268709547Y-220626887D01*
X270261656Y-219479619D01*
X271789882Y-218300726D01*
X273293582Y-217090703D01*
X274772120Y-215850062D01*
X276224874Y-214579325D01*
X277651232Y-213279029D01*
X279050591Y-211949721D01*
X280422362Y-210591961D01*
X281765967Y-209206323D01*
X283080838Y-207793391D01*
X284366423Y-206353759D01*
X285622178Y-204888035D01*
X286847574Y-203396838D01*
X288042095Y-201880795D01*
X289205237Y-200340546D01*
X290336510Y-198776740D01*
X291435436Y-197190037D01*
X292501553Y-195581105D01*
X293534411Y-193950623D01*
X294533574Y-192299279D01*
X295498621Y-190627767D01*
X296429146Y-188936794D01*
X297324756Y-187227072D01*
X298185073Y-185499322D01*
X299009736Y-183754272D01*
X299798395Y-181992659D01*
X300550718Y-180215224D01*
X301266390Y-178422717D01*
X301945106Y-176615893D01*
X302586583Y-174795516D01*
X303190548Y-172962351D01*
X303756748Y-171117173D01*
X304284943Y-169260758D01*
X304774912Y-167393890D01*
X305226447Y-165517355D01*
X305639358Y-163631945D01*
X306013471Y-161738455D01*
X306348629Y-159837682D01*
X306644689Y-157930429D01*
X306901528Y-156017499D01*
X307119036Y-154099699D01*
X307297123Y-152177838D01*
X307435713Y-150252725D01*
X307534747Y-148325173D01*
X307594185Y-146395993D01*
X307614000Y-144466000D01*
X307594185Y-142536007D01*
X307534747Y-140606827D01*
X307435713Y-138679275D01*
X307297123Y-136754162D01*
X307119036Y-134832301D01*
X306901528Y-132914501D01*
X306644689Y-131001571D01*
X306348629Y-129094318D01*
X306013471Y-127193545D01*
X305639358Y-125300055D01*
X305226447Y-123414645D01*
X304774912Y-121538110D01*
X304284943Y-119671242D01*
X303756748Y-117814827D01*
X303190548Y-115969649D01*
X302586583Y-114136484D01*
X301945106Y-112316107D01*
X301266390Y-110509283D01*
X300550718Y-108716776D01*
X299798395Y-106939341D01*
X299009736Y-105177728D01*
X298185073Y-103432678D01*
X297324756Y-101704928D01*
X296429146Y-99995206D01*
X295498621Y-98304233D01*
X294533574Y-96632721D01*
X293534411Y-94981377D01*
X292501553Y-93350895D01*
X291435436Y-91741963D01*
X290336510Y-90155260D01*
X289205237Y-88591454D01*
X288042095Y-87051205D01*
X286847574Y-85535162D01*
X285622178Y-84043965D01*
X284366423Y-82578241D01*
X283080838Y-81138609D01*
X281765967Y-79725677D01*
X280422362Y-78340039D01*
X279050591Y-76982279D01*
X277651232Y-75652971D01*
X276224874Y-74352675D01*
X274772120Y-73081938D01*
X273293582Y-71841297D01*
X271789882Y-70631274D01*
X270261656Y-69452381D01*
X268709547Y-68305113D01*
X267134209Y-67189954D01*
X265536307Y-66107376D01*
X263916515Y-65057833D01*
X262275516Y-64041769D01*
X260614000Y-63059612D01*
X258932669Y-62111776D01*
X257232232Y-61198660D01*
X255513405Y-60320651D01*
X253776914Y-59478117D01*
X252023490Y-58671413D01*
X250253872Y-57900881D01*
X248468807Y-57166845D01*
X246669047Y-56469614D01*
X244855351Y-55809483D01*
X243028484Y-55186729D01*
X241189215Y-54601616D01*
X239338321Y-54054390D01*
X237476581Y-53545281D01*
X235604781Y-53074504D01*
X233723710Y-52642258D01*
X231834160Y-52248725D01*
X229936929Y-51894071D01*
X228032816Y-51578446D01*
X226122623Y-51301982D01*
X224207158Y-51064795D01*
X222287226Y-50866987D01*
X220363637Y-50708641D01*
X218437203Y-50589822D01*
X216508736Y-50510582D01*
X214579047Y-50470954D01*
X212648953Y-50470954D01*
X210719264Y-50510582D01*
X208790797Y-50589822D01*
X206864363Y-50708641D01*
X204940774Y-50866987D01*
X203020842Y-51064795D01*
X201105377Y-51301982D01*
X199195184Y-51578446D01*
X197291071Y-51894071D01*
X195393840Y-52248725D01*
X193504290Y-52642258D01*
X191623219Y-53074504D01*
X189751419Y-53545281D01*
X187889679Y-54054390D01*
X186038785Y-54601616D01*
X184199516Y-55186729D01*
X182372649Y-55809483D01*
X180558953Y-56469614D01*
X178759193Y-57166845D01*
X176974128Y-57900881D01*
X175204510Y-58671413D01*
X173451086Y-59478117D01*
X171714595Y-60320651D01*
X169995768Y-61198660D01*
X168295331Y-62111776D01*
X166614000Y-63059612D01*
X164952484Y-64041769D01*
X163311485Y-65057833D01*
X161691693Y-66107376D01*
X160093791Y-67189954D01*
X158518453Y-68305113D01*
X156966344Y-69452381D01*
X155438118Y-70631274D01*
X153934418Y-71841297D01*
X152455880Y-73081938D01*
X151003126Y-74352675D01*
X149576768Y-75652971D01*
X148177409Y-76982279D01*
X146805638Y-78340039D01*
X145462033Y-79725677D01*
X144147162Y-81138609D01*
X142861577Y-82578241D01*
X141605822Y-84043965D01*
X140380426Y-85535162D01*
X139185905Y-87051205D01*
X138022763Y-88591454D01*
X136891490Y-90155260D01*
X135792564Y-91741963D01*
X134726447Y-93350895D01*
X133693589Y-94981377D01*
X132694426Y-96632721D01*
X131729379Y-98304233D01*
X130798854Y-99995206D01*
X129903244Y-101704928D01*
X129042927Y-103432678D01*
X128218264Y-105177728D01*
X127429605Y-106939341D01*
X126677282Y-108716776D01*
X125961610Y-110509283D01*
X125282894Y-112316107D01*
X124641417Y-114136484D01*
X124037452Y-115969649D01*
X123471252Y-117814827D01*
X122943057Y-119671242D01*
X122453088Y-121538110D01*
X122001553Y-123414645D01*
X121588642Y-125300055D01*
X121214529Y-127193545D01*
X120879371Y-129094318D01*
X120583311Y-131001571D01*
X120326472Y-132914501D01*
X120108964Y-134832301D01*
X119930877Y-136754162D01*
X119792287Y-138679275D01*
X119693253Y-140606827D01*
X119633815Y-142536007D01*
X119614000Y-144466000D01*
X114626864Y-144466000D01*
X114624681Y-143975033D01*
X114655510Y-141994302D01*
X114725966Y-140014584D01*
X114836019Y-138036671D01*
X114985626Y-136061358D01*
X115174726Y-134089433D01*
X115403244Y-132121686D01*
X115671089Y-130158906D01*
X115863102Y-128938946D01*
X115892970Y-128875782D01*
X115952246Y-128838793D01*
X116007126Y-128836109D01*
X118328732Y-129245471D01*
X118451355Y-129264634D01*
X118699529Y-129266914D01*
X118944676Y-129228318D01*
X118944689Y-129228315D01*
X119180148Y-129149893D01*
X119399484Y-129033786D01*
X119399493Y-129033781D01*
X119596732Y-128883152D01*
X119766494Y-128702108D01*
X119904128Y-128495611D01*
X119904136Y-128495596D01*
X120005906Y-128269260D01*
X120005907Y-128269259D01*
X120069041Y-128029236D01*
X120069042Y-128029231D01*
X120091806Y-127782109D01*
X120091807Y-127782097D01*
X120073586Y-127534601D01*
X120073584Y-127534591D01*
X120014875Y-127293465D01*
X120014871Y-127293453D01*
X119917271Y-127065274D01*
X119783448Y-126856275D01*
X119617040Y-126672142D01*
X119422605Y-126517919D01*
X119422594Y-126517911D01*
X119205433Y-126397799D01*
X119205427Y-126397796D01*
X118971446Y-126315060D01*
X118971444Y-126315059D01*
X118849676Y-126291048D01*
X116527962Y-125881666D01*
X116465359Y-125850639D01*
X116429468Y-125790692D01*
X116427839Y-125735549D01*
X116709432Y-124308210D01*
X117133355Y-122373130D01*
X117595911Y-120446918D01*
X118096914Y-118530348D01*
X118636167Y-116624186D01*
X119213451Y-114729195D01*
X119828536Y-112846135D01*
X120481176Y-110975758D01*
X121171109Y-109118814D01*
X121898059Y-107276048D01*
X122661736Y-105448195D01*
X123461833Y-103635989D01*
X124298029Y-101840154D01*
X125169991Y-100061410D01*
X126077369Y-98300469D01*
X127019799Y-96558037D01*
X127088624Y-96439473D01*
X127139305Y-96391377D01*
X127207943Y-96378316D01*
X127257865Y-96394339D01*
X129301701Y-97574347D01*
X129410438Y-97634168D01*
X129642849Y-97721183D01*
X129886407Y-97768757D01*
X129886415Y-97768758D01*
X130134475Y-97775595D01*
X130134476Y-97775595D01*
X130380289Y-97741508D01*
X130380291Y-97741507D01*
X130617132Y-97667429D01*
X130838562Y-97555373D01*
X131038523Y-97408401D01*
X131211562Y-97230526D01*
X131211571Y-97230515D01*
X131352965Y-97026596D01*
X131352967Y-97026593D01*
X131458880Y-96802162D01*
X131458884Y-96802151D01*
X131526406Y-96563366D01*
X131526407Y-96563358D01*
X131553706Y-96316711D01*
X131540036Y-96068920D01*
X131540036Y-96068918D01*
X131485768Y-95826763D01*
X131392380Y-95596835D01*
X131262425Y-95385422D01*
X131099443Y-95198279D01*
X131099442Y-95198278D01*
X130907887Y-95040519D01*
X130907886Y-95040518D01*
X130801701Y-94976271D01*
X128759137Y-93796997D01*
X128710921Y-93746430D01*
X128697698Y-93677823D01*
X128714513Y-93626307D01*
X129008294Y-93131478D01*
X130053563Y-91448724D01*
X131132292Y-89787222D01*
X132244052Y-88147637D01*
X133388393Y-86530624D01*
X134564860Y-84936832D01*
X135772982Y-83366899D01*
X137012274Y-81821454D01*
X138282241Y-80301115D01*
X139582373Y-78806491D01*
X140912152Y-77338179D01*
X142271042Y-75896769D01*
X143658502Y-74482837D01*
X145073975Y-73096950D01*
X146516894Y-71739663D01*
X147986683Y-70411518D01*
X148753352Y-69746191D01*
X148816886Y-69717118D01*
X148886052Y-69727010D01*
X148929615Y-69760137D01*
X150445081Y-71566201D01*
X150526803Y-71659603D01*
X150526805Y-71659605D01*
X150715424Y-71820840D01*
X150715434Y-71820848D01*
X150928019Y-71948841D01*
X150928024Y-71948844D01*
X151158784Y-72040104D01*
X151158793Y-72040107D01*
X151401417Y-72092140D01*
X151401430Y-72092142D01*
X151649312Y-72103532D01*
X151895701Y-72073965D01*
X152133867Y-72004246D01*
X152357297Y-71896285D01*
X152357298Y-71896284D01*
X152559920Y-71753014D01*
X152736190Y-71578358D01*
X152736194Y-71578352D01*
X152881316Y-71377061D01*
X152991330Y-71154622D01*
X153063231Y-70917116D01*
X153095061Y-70671008D01*
X153085949Y-70423033D01*
X153085948Y-70423023D01*
X153036147Y-70179928D01*
X153036143Y-70179917D01*
X152947008Y-69948329D01*
X152947007Y-69948327D01*
X152820971Y-69734572D01*
X152820966Y-69734565D01*
X152743215Y-69637838D01*
X151227942Y-67832006D01*
X151199930Y-67767997D01*
X151210969Y-67699005D01*
X151245308Y-67655602D01*
X152551325Y-66607198D01*
X154122599Y-65400823D01*
X155717698Y-64226128D01*
X157335981Y-63083585D01*
X158976802Y-61973650D01*
X160639502Y-60896768D01*
X162323417Y-59853370D01*
X164027871Y-58843874D01*
X165752184Y-57868685D01*
X167495663Y-56928192D01*
X169257612Y-56022773D01*
X171037323Y-55152789D01*
X172834087Y-54318590D01*
X174647182Y-53520510D01*
X176475882Y-52758864D01*
X178240986Y-52070180D01*
X178310595Y-52064151D01*
X178372413Y-52096712D01*
X178402579Y-52143288D01*
X179208669Y-54358001D01*
X179253384Y-54473779D01*
X179253390Y-54473792D01*
X179375491Y-54689845D01*
X179375495Y-54689850D01*
X179531503Y-54882872D01*
X179717154Y-55047582D01*
X179927385Y-55179488D01*
X179927392Y-55179492D01*
X180156461Y-55274995D01*
X180398123Y-55331490D01*
X180398121Y-55331490D01*
X180645801Y-55347439D01*
X180892720Y-55322404D01*
X180892724Y-55322403D01*
X181132151Y-55257069D01*
X181132157Y-55257067D01*
X181357562Y-55153216D01*
X181562810Y-55013673D01*
X181742281Y-54842261D01*
X181891094Y-54643641D01*
X181891096Y-54643638D01*
X182005187Y-54423231D01*
X182081446Y-54187048D01*
X182081446Y-54187046D01*
X182117788Y-53941547D01*
X182117788Y-53941538D01*
X182113227Y-53693399D01*
X182067882Y-53449389D01*
X182027747Y-53331942D01*
X181221190Y-51115946D01*
X181216759Y-51046216D01*
X181250729Y-50985161D01*
X181297036Y-50956396D01*
X182048266Y-50695534D01*
X183932010Y-50082543D01*
X185827641Y-49507366D01*
X187734402Y-48970233D01*
X189651528Y-48471359D01*
X191578252Y-48010945D01*
X193513803Y-47589175D01*
X195457404Y-47206217D01*
X197408281Y-46862225D01*
X199365649Y-46557338D01*
X201328725Y-46291674D01*
X203296725Y-46065343D01*
X205268859Y-45878435D01*
X207244338Y-45731024D01*
X209222371Y-45623170D01*
X211202166Y-45554915D01*
X211997357Y-45543404D01*
X212064675Y-45562116D01*
G37*
M02*
