M48
; DRILL file {KiCad 7.0.6} date Fri Sep  1 12:51:14 2023
; FORMAT={-:-/ absolute / inch / decimal}
; #@! TF.CreationDate,2023-09-01T12:51:14+02:00
; #@! TF.GenerationSoftware,Kicad,Pcbnew,7.0.6
; #@! TF.FileFunction,Plated,1,2,PTH
FMAT,2
INCH
; #@! TA.AperFunction,Plated,PTH,ComponentDrill
T1C0.0276
; #@! TA.AperFunction,Plated,PTH,ComponentDrill
T2C0.0295
; #@! TA.AperFunction,Plated,PTH,ViaDrill
T3C0.0315
; #@! TA.AperFunction,Plated,PTH,ComponentDrill
T4C0.0315
; #@! TA.AperFunction,Plated,PTH,ComponentDrill
T5C0.0394
; #@! TA.AperFunction,Plated,PTH,ComponentDrill
T6C0.0433
%
G90
G05
T1
X5.92Y-7.2364
X5.92Y-7.3348
X6.28Y-8.13
X6.3784Y-8.13
X6.5616Y-6.97
X6.65Y-8.13
X6.65Y-8.2284
X6.66Y-6.97
X7.575Y-7.8833
X7.575Y-7.9817
X7.96Y-8.81
X8.0584Y-8.81
X8.2516Y-7.68
X8.35Y-7.68
X8.35Y-8.8108
X8.35Y-8.9092
T2
X8.23Y-6.2913
X8.23Y-6.37
X8.23Y-6.4487
X8.23Y-6.5275
X8.66Y-6.2925
X8.66Y-6.3713
X8.66Y-6.45
X8.66Y-6.5287
X9.0138Y-6.48
X9.0925Y-6.48
X9.1713Y-6.48
X9.25Y-6.48
X9.3287Y-6.48
T3
X4.57Y-5.63
X4.58Y-6.11
X4.6Y-5.24
X4.67Y-4.87
X4.67Y-5.42
X4.67Y-5.89
X4.69Y-6.6
X4.8Y-4.61
X4.81Y-4.39
X4.82Y-6.85
X4.84Y-7.08
X4.95Y-4.18
X5.01Y-3.91
X5.01Y-7.27
X5.01Y-7.46
X5.2Y-7.79
X5.21Y-3.59
X5.38Y-3.45
X5.43Y-3.27
X5.43Y-7.99
X5.48Y-8.19
X5.4969Y-4.2231
X5.61Y-4.11
X5.61Y-4.3363
X5.62Y-3.17
X5.7Y-8.29
X5.7231Y-3.9969
X5.7231Y-4.4494
X5.74Y-2.94
X5.8104Y-3.5033
X5.8363Y-4.3363
X5.84Y-8.54
X5.8433Y-3.8767
X5.9306Y-3.3831
X5.9494Y-4.2231
X6.0367Y-3.7296
X6.0437Y-3.27
X6.0696Y-4.1029
X6.08Y-2.65
X6.12Y-8.78
X6.1569Y-3.1569
X6.1569Y-3.6094
X6.27Y-3.27
X6.27Y-3.4963
X6.32Y-7.27
X6.33Y-2.55
X6.36Y-8.85
X6.3831Y-3.3831
X6.49Y-2.38
X6.55Y-9.03
X6.72Y-2.33
X6.72Y-7.21
X6.72Y-7.88
X6.8Y-9.08
X6.9Y-2.17
X6.94Y-9.23
X7.03Y-8.64
X7.09Y-7.26
X7.09Y-7.35
X7.26Y-2.03
X7.3Y-9.35
X7.38Y-8.15
X7.5Y-2.02
X7.54Y-9.36
X7.72Y-1.9
X7.74Y-9.46
X7.96Y-1.94
X7.99Y-9.43
X8.21Y-1.87
X8.26Y-9.52
X8.3526Y-7.907
X8.38Y-8.54
X8.52Y-7.98
X8.61Y-1.88
X8.62Y-7.98
X8.64Y-9.51
X8.82Y-1.95
X8.9Y-9.42
X9.14Y-1.93
X9.16Y-9.45
X9.36Y-9.33
X9.37Y-2.03
X9.56Y-9.34
X9.57Y-2.02
X9.9Y-9.23
X9.92Y-2.18
X10.09Y-2.32
X10.09Y-6.86
X10.12Y-9.06
X10.31Y-2.36
X10.36Y-6.06
X10.37Y-8.99
X10.47Y-2.53
X10.53Y-8.81
X10.57Y-3.45
X10.69Y-2.61
X10.74Y-8.74
X10.765Y-3.385
X10.84Y-6.02
X10.88Y-5.9
X10.89Y-6.18
X11.03Y-8.49
X11.05Y-2.89
X11.16Y-8.3
X11.17Y-3.15
X11.22Y-3.9579
X11.29Y-4.0993
X11.3476Y-6.1594
X11.36Y-8.15
X11.38Y-3.25
X11.43Y-4.19
X11.45Y-7.93
X11.48Y-3.49
X11.64Y-3.64
X11.66Y-7.76
X11.83Y-3.94
X11.84Y-4.15
X11.86Y-7.38
X11.9Y-7.12
X12.0Y-4.31
X12.01Y-4.58
X12.05Y-6.91
X12.06Y-6.69
X12.14Y-4.82
X12.16Y-5.41
X12.16Y-6.5
X12.17Y-5.87
X12.21Y-5.2
X12.22Y-6.13
X12.25Y-5.63
T4
X5.1808Y-4.6692
X5.32Y-4.53
X5.3308Y-4.8192
X5.47Y-4.68
X6.08Y-7.2364
X6.08Y-7.6364
X6.08Y-7.7816
X6.08Y-7.9784
X6.26Y-7.97
X6.28Y-8.38
X6.44Y-7.1
X6.48Y-2.97
X6.6192Y-2.8308
X6.66Y-7.97
X6.68Y-8.38
X6.8Y-6.92
X6.84Y-7.1
X6.86Y-2.97
X6.87Y-7.88
X6.87Y-8.28
X6.9992Y-2.8308
X7.1Y-7.7831
X7.1Y-7.98
X7.2Y-6.92
X7.2924Y-7.78
X7.3711Y-7.78
X7.46Y-6.63
X7.46Y-7.03
X7.66Y-6.63
X7.66Y-7.03
X7.745Y-7.8825
X7.745Y-8.2825
X7.755Y-8.4425
X7.755Y-8.6393
X7.96Y-8.65
X7.96Y-9.06
X8.125Y-7.8125
X8.36Y-8.65
X8.36Y-9.06
X8.52Y-7.65
X8.525Y-7.8125
X8.55Y-8.59
X8.55Y-8.99
X8.56Y-3.91
X8.6992Y-3.7708
X8.7624Y-8.48
X8.77Y-8.6516
X8.77Y-8.8484
X8.8411Y-8.48
X8.92Y-7.65
X11.0222Y-6.8683
X11.0778Y-6.924
X11.18Y-6.71
X11.3192Y-6.8492
X11.35Y-6.53
X11.6328Y-6.8128
T5
X5.0343Y-5.5954
X5.5972Y-5.0326
X6.293Y-6.8541
X6.8558Y-6.2912
X7.24Y-6.3498
X7.24Y-6.4498
X7.5Y-6.3498
X7.5Y-6.4498
X7.77Y-6.35
X7.77Y-6.45
X8.3972Y-3.7428
X8.4679Y-3.6721
X8.5386Y-3.6014
X8.6093Y-3.5307
X8.68Y-3.46
X8.97Y-6.26
X9.07Y-6.26
X9.17Y-6.26
X9.27Y-6.26
X9.37Y-6.26
X9.375Y-7.395
X9.4457Y-7.4657
X9.5164Y-7.5364
X9.5872Y-7.6072
X9.6579Y-7.6779
X9.7286Y-7.7486
X9.7993Y-7.8193
X9.87Y-7.89
X9.9407Y-7.9607
X10.0114Y-8.0314
X10.0821Y-8.1021
X10.1211Y-6.6489
X10.1528Y-8.1728
X10.1918Y-6.7197
X10.2036Y-3.5336
X10.2236Y-8.2436
X10.2625Y-6.7904
X10.2743Y-3.6043
X10.2943Y-8.3143
X10.3313Y-5.9211
X10.3332Y-6.8611
X10.345Y-3.675
X10.365Y-8.385
X10.402Y-5.8504
X10.4039Y-6.9318
X10.4157Y-3.7457
X10.4727Y-5.7797
X10.4747Y-7.0025
X10.4864Y-3.8164
X10.5434Y-5.709
X10.5454Y-7.0732
X10.5572Y-3.8872
X10.6141Y-5.6383
X10.6161Y-7.1439
X10.6279Y-3.9579
X10.6849Y-5.5676
X10.6868Y-7.2146
X10.6986Y-4.0286
X10.7556Y-5.4969
X10.7575Y-7.2853
X10.7693Y-4.0993
X10.8263Y-5.4261
X10.8282Y-7.3561
X10.84Y-4.17
X10.8989Y-7.4268
X10.9696Y-7.4975
X11.0403Y-7.5682
X11.045Y-6.635
X11.1111Y-7.6389
X11.1157Y-6.5643
X11.1864Y-6.4936
X11.2572Y-6.4228
X11.3279Y-6.3521
X11.3986Y-6.2814
X11.4693Y-6.2107
X11.53Y-4.82
X11.53Y-4.92
X11.53Y-5.02
X11.53Y-5.12
X11.53Y-5.22
X11.53Y-5.32
X11.53Y-5.42
X11.53Y-5.52
X11.53Y-5.62
X11.53Y-5.72
X11.54Y-6.14
X11.63Y-4.82
X11.63Y-4.92
X11.63Y-5.02
X11.63Y-5.12
X11.63Y-5.22
X11.63Y-5.32
X11.63Y-5.42
X11.63Y-5.52
X11.63Y-5.62
X11.63Y-5.72
T6
X5.4059Y-4.4027
X5.4766Y-4.4734
X5.5473Y-4.5441
X6.3462Y-3.0523
X6.417Y-3.123
X6.4877Y-3.1938
T5
G00X8.2213Y-2.4087
M15
G01X8.2213Y-2.4875
M16
G05
G00X8.4457Y-2.33
M15
G01X8.367Y-2.33
M16
G05
G00X8.4556Y-2.5741
M15
G01X8.3572Y-2.5741
M16
G05
T0
M30
