%TF.GenerationSoftware,KiCad,Pcbnew,7.0.6*%
%TF.CreationDate,2023-09-03T22:14:53+02:00*%
%TF.ProjectId,pqunit,7071756e-6974-42e6-9b69-6361645f7063,rev?*%
%TF.SameCoordinates,Original*%
%TF.FileFunction,Copper,L1,Top*%
%TF.FilePolarity,Positive*%
%FSLAX46Y46*%
G04 Gerber Fmt 4.6, Leading zero omitted, Abs format (unit mm)*
G04 Created by KiCad (PCBNEW 7.0.6) date 2023-09-03 22:14:53*
%MOMM*%
%LPD*%
G01*
G04 APERTURE LIST*
G04 Aperture macros list*
%AMRoundRect*
0 Rectangle with rounded corners*
0 $1 Rounding radius*
0 $2 $3 $4 $5 $6 $7 $8 $9 X,Y pos of 4 corners*
0 Add a 4 corners polygon primitive as box body*
4,1,4,$2,$3,$4,$5,$6,$7,$8,$9,$2,$3,0*
0 Add four circle primitives for the rounded corners*
1,1,$1+$1,$2,$3*
1,1,$1+$1,$4,$5*
1,1,$1+$1,$6,$7*
1,1,$1+$1,$8,$9*
0 Add four rect primitives between the rounded corners*
20,1,$1+$1,$2,$3,$4,$5,0*
20,1,$1+$1,$4,$5,$6,$7,0*
20,1,$1+$1,$6,$7,$8,$9,0*
20,1,$1+$1,$8,$9,$2,$3,0*%
G04 Aperture macros list end*
%TA.AperFunction,SMDPad,CuDef*%
%ADD10RoundRect,0.250000X0.650000X-0.412500X0.650000X0.412500X-0.650000X0.412500X-0.650000X-0.412500X0*%
%TD*%
%TA.AperFunction,ComponentPad*%
%ADD11C,1.400000*%
%TD*%
%TA.AperFunction,SMDPad,CuDef*%
%ADD12R,2.000000X1.500000*%
%TD*%
%TA.AperFunction,ComponentPad*%
%ADD13R,1.700000X1.700000*%
%TD*%
%TA.AperFunction,ComponentPad*%
%ADD14O,1.700000X1.700000*%
%TD*%
%TA.AperFunction,SMDPad,CuDef*%
%ADD15RoundRect,0.250000X0.475000X-0.337500X0.475000X0.337500X-0.475000X0.337500X-0.475000X-0.337500X0*%
%TD*%
%TA.AperFunction,ViaPad*%
%ADD16C,1.600000*%
%TD*%
%TA.AperFunction,Conductor*%
%ADD17C,0.330200*%
%TD*%
%TA.AperFunction,Conductor*%
%ADD18C,0.400000*%
%TD*%
G04 APERTURE END LIST*
D10*
%TO.P,C10,1*%
%TO.N,+3V3*%
X131267714Y-104109900D03*
%TO.P,C10,2*%
%TO.N,GND*%
X131267714Y-100984900D03*
%TD*%
D11*
%TO.P,JP1,1,A*%
%TO.N,+3V3*%
X139243817Y-117513117D03*
%TO.P,JP1,2,B*%
%TO.N,3V3_Bus*%
X141039868Y-119309168D03*
%TD*%
D12*
%TO.P,U6,1,ANT*%
%TO.N,unconnected-(U6-ANT-Pad1)*%
X136445700Y-100221000D03*
%TO.P,U6,2,GND*%
%TO.N,GND*%
X136445700Y-102221000D03*
%TO.P,U6,3,VDD*%
%TO.N,+3V3*%
X136445700Y-104221000D03*
%TO.P,U6,4,~{RESET}*%
%TO.N,RF_NRESET*%
X136445700Y-106221000D03*
%TO.P,U6,5,DIO0*%
%TO.N,RF_DIO0*%
X136445700Y-108221000D03*
%TO.P,U6,6,DIO1*%
%TO.N,RF_DIO1*%
X136445700Y-110221000D03*
%TO.P,U6,7,DIO2*%
%TO.N,RF_DIO2*%
X136445700Y-112221000D03*
%TO.P,U6,8,DIO3*%
%TO.N,unconnected-(U6-DIO3-Pad8)*%
X136445700Y-114221000D03*
%TO.P,U6,9,GND*%
%TO.N,GND*%
X152445700Y-114221000D03*
%TO.P,U6,10,DIO4*%
%TO.N,unconnected-(U6-DIO4-Pad10)*%
X152445700Y-112221000D03*
%TO.P,U6,11,DIO5*%
%TO.N,unconnected-(U6-DIO5-Pad11)*%
X152445700Y-110221000D03*
%TO.P,U6,12,SCK*%
%TO.N,SPI_SCK*%
X152445700Y-108221000D03*
%TO.P,U6,13,MISO*%
%TO.N,SPI_MISO*%
X152445700Y-106221000D03*
%TO.P,U6,14,MOSI*%
%TO.N,SPI_MOSI*%
X152445700Y-104221000D03*
%TO.P,U6,15,~{NSS}*%
%TO.N,RF_NSS*%
X152445700Y-102221000D03*
%TO.P,U6,16,GND*%
%TO.N,GND*%
X152445700Y-100221000D03*
%TD*%
D13*
%TO.P,J1,1,SDA*%
%TO.N,RS485_SDA*%
X154350000Y-124390000D03*
D14*
%TO.P,J1,2,GND*%
%TO.N,GND*%
X154350000Y-126930000D03*
%TO.P,J1,3,SDB*%
%TO.N,RS485_SDB*%
X151810000Y-124390000D03*
%TO.P,J1,4,V1*%
%TO.N,unconnected-(J1-V1-Pad4)*%
X151810000Y-126930000D03*
%TO.P,J1,5,VBat*%
%TO.N,unconnected-(J1-VBat-Pad5)*%
X149270000Y-124390000D03*
%TO.P,J1,6,5V*%
%TO.N,unconnected-(J1-5V-Pad6)*%
X149270000Y-126930000D03*
%TO.P,J1,7,3V3*%
%TO.N,3V3_Bus*%
X146730000Y-124390000D03*
%TO.P,J1,8,GND*%
%TO.N,GND*%
X146730000Y-126930000D03*
%TO.P,J1,9,V2*%
%TO.N,unconnected-(J1-V2-Pad9)*%
X144190000Y-124390000D03*
%TO.P,J1,10,V3*%
%TO.N,unconnected-(J1-V3-Pad10)*%
X144190000Y-126930000D03*
%TO.P,J1,11,SDL*%
%TO.N,I2C_SDA*%
X141650000Y-124390000D03*
%TO.P,J1,12,GND*%
%TO.N,GND*%
X141650000Y-126930000D03*
%TO.P,J1,13,SCK*%
%TO.N,I2C_SCL*%
X139110000Y-124390000D03*
%TO.P,J1,14,S1_5V*%
%TO.N,unconnected-(J1-S1_5V-Pad14)*%
X139110000Y-126930000D03*
%TO.P,J1,15,S2_5V*%
%TO.N,unconnected-(J1-S2_5V-Pad15)*%
X136570000Y-124390000D03*
%TO.P,J1,16,S1_3V3*%
%TO.N,unconnected-(J1-S1_3V3-Pad16)*%
X136570000Y-126930000D03*
%TO.P,J1,17,S2_3V3*%
%TO.N,unconnected-(J1-S2_3V3-Pad17)*%
X134030000Y-124390000D03*
%TO.P,J1,18,GND*%
%TO.N,GND*%
X134030000Y-126930000D03*
%TO.P,J1,19,PPS*%
%TO.N,unconnected-(J1-PPS-Pad19)*%
X131490000Y-124390000D03*
%TO.P,J1,20,V4*%
%TO.N,unconnected-(J1-V4-Pad20)*%
X131490000Y-126930000D03*
%TD*%
D15*
%TO.P,C8,1*%
%TO.N,+3V3*%
X133523700Y-104165200D03*
%TO.P,C8,2*%
%TO.N,GND*%
X133523700Y-102090200D03*
%TD*%
D13*
%TO.P,J2,1,Pin_1*%
%TO.N,SPI_MISO*%
X158923700Y-100363000D03*
D14*
%TO.P,J2,2,Pin_2*%
%TO.N,SPI_MOSI*%
X158923700Y-102903000D03*
%TO.P,J2,3,Pin_3*%
%TO.N,SPI_SCK*%
X158923700Y-105443000D03*
%TO.P,J2,4,Pin_4*%
%TO.N,RS485_NRE*%
X158923700Y-107983000D03*
%TO.P,J2,5,Pin_5*%
%TO.N,RS485_DE*%
X158923700Y-110523000D03*
%TO.P,J2,6,Pin_6*%
%TO.N,MCU_NRESET*%
X158923700Y-113063000D03*
%TO.P,J2,7,Pin_7*%
%TO.N,MCU_RX*%
X158923700Y-115603000D03*
%TO.P,J2,8,Pin_8*%
%TO.N,MCU_TX*%
X158923700Y-118143000D03*
%TO.P,J2,9,Pin_9*%
%TO.N,+3V3*%
X158923700Y-120683000D03*
%TO.P,J2,10,Pin_10*%
%TO.N,GND*%
X158923700Y-123223000D03*
%TD*%
D16*
%TO.N,+3V3*%
X131267714Y-106590614D03*
%TO.N,I2C_SDA*%
X148006300Y-100464600D03*
%TO.N,I2C_SCL*%
X147747700Y-98127800D03*
%TO.N,RF_DIO1*%
X142004500Y-110221000D03*
%TO.N,RF_DIO2*%
X139394900Y-112221000D03*
%TO.N,RF_NSS*%
X157856900Y-94317800D03*
%TO.N,RF_NRESET*%
X143074100Y-94317800D03*
%TO.N,RF_DIO0*%
X150592500Y-98737400D03*
%TO.N,RS485_NRE*%
X154910500Y-115044200D03*
%TO.N,RS485_DE*%
X155367700Y-116974600D03*
%TD*%
D17*
%TO.N,+3V3*%
X157552100Y-120886200D02*
X155012100Y-118346200D01*
X139314900Y-117584200D02*
X139243817Y-117513117D01*
X146020500Y-118346200D02*
X145258500Y-117584200D01*
D18*
X131267714Y-104173000D02*
X133320500Y-104173000D01*
X136397700Y-104173000D02*
X136445700Y-104221000D01*
D17*
X145258500Y-117584200D02*
X139314900Y-117584200D01*
X158923700Y-120683000D02*
X158720500Y-120886200D01*
X155012100Y-118346200D02*
X146020500Y-118346200D01*
X158720500Y-120886200D02*
X157552100Y-120886200D01*
X131267714Y-106590614D02*
X131267714Y-104173000D01*
D18*
X133320500Y-104173000D02*
X136397700Y-104173000D01*
D17*
%TO.N,I2C_SDA*%
X127478500Y-114536200D02*
X133777700Y-120835400D01*
X148006300Y-100464600D02*
X148006300Y-100714000D01*
X131186900Y-97670600D02*
X127478500Y-101379000D01*
X141650000Y-123526100D02*
X141650000Y-124390000D01*
X137130500Y-97670600D02*
X131186900Y-97670600D01*
X127478500Y-101379000D02*
X127478500Y-114536200D01*
X133777700Y-120835400D02*
X138959300Y-120835400D01*
X145156900Y-103563400D02*
X143023300Y-103563400D01*
X138959300Y-120835400D02*
X141650000Y-123526100D01*
X148006300Y-100714000D02*
X145156900Y-103563400D01*
X143023300Y-103563400D02*
X137130500Y-97670600D01*
%TO.N,I2C_SCL*%
X146934900Y-97315000D02*
X139670500Y-97315000D01*
X125497300Y-115552200D02*
X131898100Y-121953000D01*
X138705300Y-96349800D02*
X130018500Y-96349800D01*
X139670500Y-97315000D02*
X138705300Y-96349800D01*
X147747700Y-98127800D02*
X146934900Y-97315000D01*
X137790900Y-121953000D02*
X139110000Y-123272100D01*
X130018500Y-96349800D02*
X125497300Y-100871000D01*
X139110000Y-123272100D02*
X139110000Y-124390000D01*
X125497300Y-100871000D02*
X125497300Y-115552200D01*
X131898100Y-121953000D02*
X137790900Y-121953000D01*
%TO.N,RF_DIO1*%
X136445700Y-110221000D02*
X142004500Y-110221000D01*
%TO.N,RF_DIO2*%
X136445700Y-112221000D02*
X139394900Y-112221000D01*
%TO.N,SPI_MOSI*%
X155316900Y-102750600D02*
X153846500Y-104221000D01*
X153846500Y-104221000D02*
X152445700Y-104221000D01*
X159838100Y-96349800D02*
X157501300Y-96349800D01*
X159431700Y-102903000D02*
X161514500Y-100820200D01*
X158923700Y-102903000D02*
X159431700Y-102903000D01*
X161514500Y-98026200D02*
X159838100Y-96349800D01*
X155316900Y-98534200D02*
X155316900Y-102750600D01*
X157501300Y-96349800D02*
X155316900Y-98534200D01*
X161514500Y-100820200D02*
X161514500Y-98026200D01*
%TO.N,SPI_MISO*%
X152445700Y-106221000D02*
X153980100Y-106221000D01*
X156383700Y-103817400D02*
X156383700Y-100871000D01*
X153980100Y-106221000D02*
X156383700Y-103817400D01*
X156383700Y-100871000D02*
X156891700Y-100363000D01*
X156891700Y-100363000D02*
X158923700Y-100363000D01*
%TO.N,SPI_SCK*%
X154469300Y-108221000D02*
X157247300Y-105443000D01*
X152445700Y-108221000D02*
X154469300Y-108221000D01*
X157247300Y-105443000D02*
X158923700Y-105443000D01*
%TO.N,RF_NSS*%
X154250100Y-97467400D02*
X154250100Y-101633000D01*
X153662100Y-102221000D02*
X153306500Y-102221000D01*
X157399700Y-94317800D02*
X154250100Y-97467400D01*
X154250100Y-101633000D02*
X153662100Y-102221000D01*
X157856900Y-94317800D02*
X157399700Y-94317800D01*
%TO.N,RF_NRESET*%
X149220900Y-102852200D02*
X145852100Y-106221000D01*
X145852100Y-106221000D02*
X136445700Y-106221000D01*
X143074100Y-94317800D02*
X146782500Y-94317800D01*
X149220900Y-96756200D02*
X149220900Y-102852200D01*
X146782500Y-94317800D02*
X149220900Y-96756200D01*
%TO.N,RF_DIO0*%
X150440100Y-98889800D02*
X150440100Y-103563400D01*
X145782500Y-108221000D02*
X136445700Y-108221000D01*
X150592500Y-98737400D02*
X150440100Y-98889800D01*
X150440100Y-103563400D02*
X145782500Y-108221000D01*
%TO.N,RS485_NRE*%
X154910500Y-110370600D02*
X157298100Y-107983000D01*
X154910500Y-115044200D02*
X154910500Y-110370600D01*
X157298100Y-107983000D02*
X158923700Y-107983000D01*
%TO.N,RS485_DE*%
X157501300Y-110523000D02*
X158923700Y-110523000D01*
X155367700Y-116974600D02*
X156637700Y-115704600D01*
X156637700Y-115704600D02*
X156637700Y-111386600D01*
X156637700Y-111386600D02*
X157501300Y-110523000D01*
%TD*%
%TA.AperFunction,Conductor*%
%TO.N,GND*%
G36*
X125867145Y-90780185D02*
G01*
X125912900Y-90832989D01*
X125922222Y-90862969D01*
X125930628Y-90910646D01*
X125929311Y-90922448D01*
X125936343Y-90945629D01*
X125938072Y-90952866D01*
X125949899Y-91019940D01*
X125978162Y-91097592D01*
X125978991Y-91110639D01*
X125987128Y-91125862D01*
X125994292Y-91141905D01*
X126009776Y-91184448D01*
X126009777Y-91184449D01*
X126058578Y-91268974D01*
X126062055Y-91283309D01*
X126071792Y-91295173D01*
X126083326Y-91311838D01*
X126097307Y-91336053D01*
X126100414Y-91340491D01*
X126100038Y-91340754D01*
X126109371Y-91354560D01*
X126111254Y-91358082D01*
X126129702Y-91374661D01*
X126168914Y-91421393D01*
X126175484Y-91436406D01*
X126185928Y-91444977D01*
X126202254Y-91461126D01*
X126209837Y-91470163D01*
X126218872Y-91477744D01*
X126235020Y-91494070D01*
X126239146Y-91499098D01*
X126258606Y-91511085D01*
X126305337Y-91550297D01*
X126315234Y-91565172D01*
X126325438Y-91570627D01*
X126339245Y-91579961D01*
X126339509Y-91579586D01*
X126343945Y-91582692D01*
X126368163Y-91596675D01*
X126384824Y-91608206D01*
X126391770Y-91613906D01*
X126411025Y-91621421D01*
X126495547Y-91670221D01*
X126495551Y-91670222D01*
X126495555Y-91670225D01*
X126538103Y-91685711D01*
X126554143Y-91692874D01*
X126564334Y-91698321D01*
X126582407Y-91701836D01*
X126660062Y-91730101D01*
X126727145Y-91741929D01*
X126734379Y-91743657D01*
X126752543Y-91749167D01*
X126769350Y-91749370D01*
X126832468Y-91760500D01*
X126832472Y-91760500D01*
X126922041Y-91760500D01*
X126928121Y-91760799D01*
X126964302Y-91764362D01*
X126987096Y-91760500D01*
X158852903Y-91760500D01*
X158868477Y-91765073D01*
X158911878Y-91760799D01*
X158917958Y-91760500D01*
X159007528Y-91760500D01*
X159007532Y-91760500D01*
X159070646Y-91749371D01*
X159082445Y-91750687D01*
X159105617Y-91743658D01*
X159112843Y-91741931D01*
X159179938Y-91730101D01*
X159179943Y-91730099D01*
X159179944Y-91730099D01*
X159218880Y-91715927D01*
X159257589Y-91701837D01*
X159270637Y-91701008D01*
X159285852Y-91692876D01*
X159301893Y-91685712D01*
X159344445Y-91670225D01*
X159428973Y-91621421D01*
X159443309Y-91617943D01*
X159455172Y-91608208D01*
X159471825Y-91596681D01*
X159496055Y-91582692D01*
X159496060Y-91582687D01*
X159500491Y-91579586D01*
X159500755Y-91579964D01*
X159514566Y-91570623D01*
X159518087Y-91568740D01*
X159534657Y-91550300D01*
X159581395Y-91511083D01*
X159596406Y-91504514D01*
X159604975Y-91494073D01*
X159621128Y-91477744D01*
X159630163Y-91470163D01*
X159637745Y-91461126D01*
X159654073Y-91444975D01*
X159659100Y-91440849D01*
X159671081Y-91421398D01*
X159710298Y-91374660D01*
X159725171Y-91364765D01*
X159730623Y-91354566D01*
X159739964Y-91340755D01*
X159739586Y-91340491D01*
X159742687Y-91336061D01*
X159742687Y-91336060D01*
X159742692Y-91336055D01*
X159756681Y-91311825D01*
X159768208Y-91295172D01*
X159773904Y-91288230D01*
X159781422Y-91268973D01*
X159798084Y-91240115D01*
X159830225Y-91184445D01*
X159845712Y-91141893D01*
X159852876Y-91125852D01*
X159858319Y-91115668D01*
X159861838Y-91097589D01*
X159890099Y-91019944D01*
X159890100Y-91019940D01*
X159890101Y-91019938D01*
X159901931Y-90952843D01*
X159903658Y-90945617D01*
X159909166Y-90927459D01*
X159909370Y-90910649D01*
X159917778Y-90862965D01*
X159948805Y-90800364D01*
X160008753Y-90764474D01*
X160039894Y-90760500D01*
X160918378Y-90760500D01*
X160921619Y-90760584D01*
X161053628Y-90767503D01*
X161237027Y-90777803D01*
X161243212Y-90778465D01*
X161395647Y-90802608D01*
X161558194Y-90830226D01*
X161563811Y-90831453D01*
X161716693Y-90872418D01*
X161809122Y-90899046D01*
X161871724Y-90917082D01*
X161876759Y-90918769D01*
X162026183Y-90976127D01*
X162174007Y-91037358D01*
X162178412Y-91039388D01*
X162244180Y-91072899D01*
X162321921Y-91112511D01*
X162376514Y-91142683D01*
X162461480Y-91189641D01*
X162465215Y-91191882D01*
X162539487Y-91240115D01*
X162600872Y-91279980D01*
X162651032Y-91315570D01*
X162730764Y-91372142D01*
X162733886Y-91374510D01*
X162858748Y-91475621D01*
X162861034Y-91477567D01*
X162891188Y-91504514D01*
X162978669Y-91582692D01*
X162978721Y-91582738D01*
X162981248Y-91585128D01*
X163094870Y-91698750D01*
X163097260Y-91701277D01*
X163202431Y-91818964D01*
X163204385Y-91821260D01*
X163305480Y-91946102D01*
X163307862Y-91949243D01*
X163400019Y-92079127D01*
X163453758Y-92161875D01*
X163488106Y-92214767D01*
X163490364Y-92218531D01*
X163567488Y-92358078D01*
X163640604Y-92501575D01*
X163642643Y-92505997D01*
X163703877Y-92653829D01*
X163761221Y-92803217D01*
X163762916Y-92808273D01*
X163807579Y-92963297D01*
X163848541Y-93116171D01*
X163849778Y-93121835D01*
X163877394Y-93284369D01*
X163901530Y-93436758D01*
X163902196Y-93442985D01*
X163912509Y-93626617D01*
X163919415Y-93758377D01*
X163919500Y-93761623D01*
X163919500Y-129758376D01*
X163919415Y-129761622D01*
X163912509Y-129893382D01*
X163902196Y-130077013D01*
X163901530Y-130083240D01*
X163877394Y-130235630D01*
X163849778Y-130398163D01*
X163848541Y-130403827D01*
X163807579Y-130556702D01*
X163762916Y-130711725D01*
X163761221Y-130716781D01*
X163703877Y-130866170D01*
X163642643Y-131014001D01*
X163640604Y-131018423D01*
X163567488Y-131161921D01*
X163490364Y-131301467D01*
X163488097Y-131305246D01*
X163400019Y-131440872D01*
X163307862Y-131570755D01*
X163305480Y-131573896D01*
X163204385Y-131698738D01*
X163202431Y-131701034D01*
X163097260Y-131818721D01*
X163094870Y-131821248D01*
X162981248Y-131934870D01*
X162978721Y-131937260D01*
X162861034Y-132042431D01*
X162858738Y-132044385D01*
X162733896Y-132145480D01*
X162730755Y-132147862D01*
X162600872Y-132240019D01*
X162465246Y-132328097D01*
X162461467Y-132330364D01*
X162321921Y-132407488D01*
X162178423Y-132480604D01*
X162174001Y-132482643D01*
X162026170Y-132543877D01*
X161876781Y-132601221D01*
X161871725Y-132602916D01*
X161716702Y-132647579D01*
X161563827Y-132688541D01*
X161558163Y-132689778D01*
X161395630Y-132717394D01*
X161243240Y-132741530D01*
X161237013Y-132742196D01*
X161053382Y-132752509D01*
X160921622Y-132759415D01*
X160918376Y-132759500D01*
X124921624Y-132759500D01*
X124918378Y-132759415D01*
X124786617Y-132752509D01*
X124602985Y-132742196D01*
X124596758Y-132741530D01*
X124444369Y-132717394D01*
X124281835Y-132689778D01*
X124276171Y-132688541D01*
X124123297Y-132647579D01*
X123968273Y-132602916D01*
X123963217Y-132601221D01*
X123813829Y-132543877D01*
X123665997Y-132482643D01*
X123661575Y-132480604D01*
X123518078Y-132407488D01*
X123378531Y-132330364D01*
X123374767Y-132328106D01*
X123321875Y-132293758D01*
X123239127Y-132240019D01*
X123109243Y-132147862D01*
X123106102Y-132145480D01*
X122981260Y-132044385D01*
X122978964Y-132042431D01*
X122861277Y-131937260D01*
X122858750Y-131934870D01*
X122745128Y-131821248D01*
X122742738Y-131818721D01*
X122637567Y-131701034D01*
X122635613Y-131698738D01*
X122596848Y-131650867D01*
X122534510Y-131573886D01*
X122532136Y-131570755D01*
X122439980Y-131440872D01*
X122407406Y-131390715D01*
X122351882Y-131305215D01*
X122349641Y-131301480D01*
X122314241Y-131237428D01*
X122272511Y-131161921D01*
X122232899Y-131084180D01*
X122199388Y-131018412D01*
X122197358Y-131014007D01*
X122136122Y-130866170D01*
X122078769Y-130716759D01*
X122077082Y-130711724D01*
X122032420Y-130556702D01*
X122020404Y-130511858D01*
X121991453Y-130403811D01*
X121990226Y-130398194D01*
X121962601Y-130235606D01*
X121938465Y-130083212D01*
X121937803Y-130077027D01*
X121927490Y-129893382D01*
X121920584Y-129761620D01*
X121920542Y-129760002D01*
X123664723Y-129760002D01*
X123683793Y-129977975D01*
X123683793Y-129977979D01*
X123740422Y-130189322D01*
X123740424Y-130189326D01*
X123740425Y-130189330D01*
X123759402Y-130230026D01*
X123832897Y-130387638D01*
X123844233Y-130403827D01*
X123958402Y-130566877D01*
X124113123Y-130721598D01*
X124292361Y-130847102D01*
X124490670Y-130939575D01*
X124490675Y-130939576D01*
X124490679Y-130939578D01*
X124515749Y-130946295D01*
X124525775Y-130948981D01*
X124528882Y-130949902D01*
X124532944Y-130951221D01*
X124532948Y-130951223D01*
X124540977Y-130953054D01*
X124702023Y-130996207D01*
X124743207Y-130999810D01*
X124751594Y-131001128D01*
X124788667Y-131009591D01*
X124820835Y-131006601D01*
X124920000Y-131015277D01*
X124965291Y-131011314D01*
X124973461Y-131011142D01*
X124976194Y-131011265D01*
X124976196Y-131011264D01*
X124981749Y-131011515D01*
X124981763Y-131011514D01*
X125011648Y-131012856D01*
X125041479Y-131004649D01*
X125137977Y-130996207D01*
X125185915Y-130983361D01*
X125193643Y-130981810D01*
X125195356Y-130981577D01*
X125198713Y-130981123D01*
X125198715Y-130981122D01*
X125200819Y-130980837D01*
X125200840Y-130980834D01*
X125231609Y-130976666D01*
X125258282Y-130963971D01*
X125314234Y-130948979D01*
X125349320Y-130939578D01*
X125349323Y-130939576D01*
X125349330Y-130939575D01*
X125398182Y-130916794D01*
X125405193Y-130914032D01*
X125412274Y-130911732D01*
X125412277Y-130911730D01*
X125414252Y-130911089D01*
X125414263Y-130911085D01*
X125441653Y-130902185D01*
X125464517Y-130885862D01*
X125547639Y-130847102D01*
X125595328Y-130813709D01*
X125601502Y-130809904D01*
X125610013Y-130805325D01*
X125610015Y-130805322D01*
X125612472Y-130804001D01*
X125614913Y-130802688D01*
X125614919Y-130802684D01*
X125635152Y-130791796D01*
X125653773Y-130772785D01*
X125726877Y-130721598D01*
X125771182Y-130677292D01*
X125776336Y-130672685D01*
X125785574Y-130665319D01*
X125785578Y-130665313D01*
X125789468Y-130662212D01*
X125790866Y-130661640D01*
X125794299Y-130658359D01*
X125806039Y-130648996D01*
X125820180Y-130628294D01*
X125881598Y-130566877D01*
X125920146Y-130511824D01*
X125924206Y-130506641D01*
X125932456Y-130497198D01*
X125935022Y-130495564D01*
X125940654Y-130487813D01*
X125948945Y-130478322D01*
X125958596Y-130456912D01*
X126007102Y-130387639D01*
X126037462Y-130322531D01*
X126040416Y-130316960D01*
X126041646Y-130314899D01*
X126044777Y-130309659D01*
X126048076Y-130306606D01*
X126054205Y-130293881D01*
X126059395Y-130285194D01*
X126064752Y-130264006D01*
X126099575Y-130189330D01*
X126100105Y-130187354D01*
X126101181Y-130183333D01*
X126119408Y-130115310D01*
X126121239Y-130109604D01*
X126122879Y-130105233D01*
X126126402Y-130100547D01*
X126131308Y-130082772D01*
X126133961Y-130075702D01*
X126135412Y-130055583D01*
X126156205Y-129977983D01*
X126156206Y-129977979D01*
X126156207Y-129977977D01*
X126163316Y-129896708D01*
X126164073Y-129891070D01*
X126167484Y-129872276D01*
X126167484Y-129872274D01*
X126169851Y-129859232D01*
X126168067Y-129846234D01*
X126168138Y-129843047D01*
X126168352Y-129839149D01*
X126175277Y-129760002D01*
X159664723Y-129760002D01*
X159683793Y-129977975D01*
X159683793Y-129977979D01*
X159740422Y-130189322D01*
X159740424Y-130189326D01*
X159740425Y-130189330D01*
X159759402Y-130230026D01*
X159832897Y-130387638D01*
X159844233Y-130403827D01*
X159958402Y-130566877D01*
X160113123Y-130721598D01*
X160292361Y-130847102D01*
X160490670Y-130939575D01*
X160490675Y-130939576D01*
X160490679Y-130939578D01*
X160515749Y-130946295D01*
X160525775Y-130948981D01*
X160528882Y-130949902D01*
X160532944Y-130951221D01*
X160532948Y-130951223D01*
X160540977Y-130953054D01*
X160702023Y-130996207D01*
X160743207Y-130999810D01*
X160751594Y-131001128D01*
X160788667Y-131009591D01*
X160820835Y-131006601D01*
X160920000Y-131015277D01*
X160965291Y-131011314D01*
X160973461Y-131011142D01*
X160976194Y-131011265D01*
X160976196Y-131011264D01*
X160981749Y-131011515D01*
X160981763Y-131011514D01*
X161011648Y-131012856D01*
X161041479Y-131004649D01*
X161137977Y-130996207D01*
X161185915Y-130983361D01*
X161193643Y-130981810D01*
X161195356Y-130981577D01*
X161198713Y-130981123D01*
X161198715Y-130981122D01*
X161200819Y-130980837D01*
X161200840Y-130980834D01*
X161231609Y-130976666D01*
X161258282Y-130963971D01*
X161314234Y-130948979D01*
X161349320Y-130939578D01*
X161349323Y-130939576D01*
X161349330Y-130939575D01*
X161398182Y-130916794D01*
X161405193Y-130914032D01*
X161412274Y-130911732D01*
X161412277Y-130911730D01*
X161414252Y-130911089D01*
X161414263Y-130911085D01*
X161441653Y-130902185D01*
X161464517Y-130885862D01*
X161547639Y-130847102D01*
X161595328Y-130813709D01*
X161601502Y-130809904D01*
X161610013Y-130805325D01*
X161610015Y-130805322D01*
X161612472Y-130804001D01*
X161614913Y-130802688D01*
X161614919Y-130802684D01*
X161635152Y-130791796D01*
X161653773Y-130772785D01*
X161726877Y-130721598D01*
X161771182Y-130677292D01*
X161776336Y-130672685D01*
X161785574Y-130665319D01*
X161785578Y-130665313D01*
X161789468Y-130662212D01*
X161790866Y-130661640D01*
X161794299Y-130658359D01*
X161806039Y-130648996D01*
X161820180Y-130628294D01*
X161881598Y-130566877D01*
X161920146Y-130511824D01*
X161924206Y-130506641D01*
X161932456Y-130497198D01*
X161935022Y-130495564D01*
X161940654Y-130487813D01*
X161948945Y-130478322D01*
X161958596Y-130456912D01*
X162007102Y-130387639D01*
X162037462Y-130322531D01*
X162040416Y-130316960D01*
X162041646Y-130314899D01*
X162044777Y-130309659D01*
X162048076Y-130306606D01*
X162054205Y-130293881D01*
X162059395Y-130285194D01*
X162064752Y-130264006D01*
X162099575Y-130189330D01*
X162100105Y-130187354D01*
X162101181Y-130183333D01*
X162119408Y-130115310D01*
X162121239Y-130109604D01*
X162122879Y-130105233D01*
X162126402Y-130100547D01*
X162131308Y-130082772D01*
X162133961Y-130075702D01*
X162135412Y-130055583D01*
X162156205Y-129977983D01*
X162156206Y-129977979D01*
X162156207Y-129977977D01*
X162163316Y-129896708D01*
X162164073Y-129891070D01*
X162167484Y-129872276D01*
X162167484Y-129872274D01*
X162169851Y-129859232D01*
X162168067Y-129846234D01*
X162168138Y-129843047D01*
X162168352Y-129839149D01*
X162175277Y-129760000D01*
X162168356Y-129680900D01*
X162168140Y-129676963D01*
X162168113Y-129675827D01*
X162168070Y-129673884D01*
X162170554Y-129664641D01*
X162164075Y-129628940D01*
X162163316Y-129623288D01*
X162156207Y-129542023D01*
X162135411Y-129464411D01*
X162135775Y-129449123D01*
X162131308Y-129437222D01*
X162127344Y-129422861D01*
X162122879Y-129414764D01*
X162121244Y-129410409D01*
X162119405Y-129404677D01*
X162099575Y-129330670D01*
X162064752Y-129255994D01*
X162062263Y-129239605D01*
X162054204Y-129226117D01*
X162049268Y-129215869D01*
X162044783Y-129210348D01*
X162040418Y-129203043D01*
X162037455Y-129197455D01*
X162007102Y-129132362D01*
X161958597Y-129063089D01*
X161952903Y-129046205D01*
X161940655Y-129032186D01*
X161936132Y-129025961D01*
X161932453Y-129022797D01*
X161924223Y-129013377D01*
X161920124Y-129008143D01*
X161881599Y-128953124D01*
X161881596Y-128953121D01*
X161820180Y-128891705D01*
X161811061Y-128875005D01*
X161794299Y-128861638D01*
X161791557Y-128859017D01*
X161789468Y-128857786D01*
X161776353Y-128847327D01*
X161771166Y-128842691D01*
X161726878Y-128798403D01*
X161726869Y-128798396D01*
X161653772Y-128747212D01*
X161641162Y-128731436D01*
X161601505Y-128710096D01*
X161595318Y-128706283D01*
X161547643Y-128672900D01*
X161464518Y-128634138D01*
X161448508Y-128620040D01*
X161405216Y-128605974D01*
X161398167Y-128603197D01*
X161349332Y-128580426D01*
X161349330Y-128580425D01*
X161333693Y-128576235D01*
X161258273Y-128556025D01*
X161239119Y-128544349D01*
X161193640Y-128538188D01*
X161185909Y-128536636D01*
X161137985Y-128523794D01*
X161137971Y-128523792D01*
X161041472Y-128515350D01*
X161019575Y-128506784D01*
X160973463Y-128508856D01*
X160965271Y-128508682D01*
X160920006Y-128504723D01*
X160919997Y-128504723D01*
X160820820Y-128513399D01*
X160796749Y-128508561D01*
X160751593Y-128518870D01*
X160743191Y-128520190D01*
X160702020Y-128523793D01*
X160603179Y-128550277D01*
X160577623Y-128549668D01*
X160539030Y-128566169D01*
X160522381Y-128571927D01*
X160490667Y-128580425D01*
X160292361Y-128672898D01*
X160292357Y-128672900D01*
X160113121Y-128798402D01*
X159958402Y-128953121D01*
X159832900Y-129132357D01*
X159832898Y-129132361D01*
X159740426Y-129330668D01*
X159740422Y-129330677D01*
X159683793Y-129542020D01*
X159683793Y-129542024D01*
X159664723Y-129759997D01*
X159664723Y-129760002D01*
X126175277Y-129760002D01*
X126175277Y-129760000D01*
X126168356Y-129680900D01*
X126168140Y-129676963D01*
X126168113Y-129675827D01*
X126168070Y-129673884D01*
X126170554Y-129664641D01*
X126164075Y-129628940D01*
X126163316Y-129623288D01*
X126156207Y-129542023D01*
X126135411Y-129464411D01*
X126135775Y-129449123D01*
X126131308Y-129437222D01*
X126127344Y-129422861D01*
X126122879Y-129414764D01*
X126121244Y-129410409D01*
X126119405Y-129404677D01*
X126099575Y-129330670D01*
X126064752Y-129255994D01*
X126062263Y-129239605D01*
X126054204Y-129226117D01*
X126049268Y-129215869D01*
X126044783Y-129210348D01*
X126040418Y-129203043D01*
X126037455Y-129197455D01*
X126007102Y-129132362D01*
X125958597Y-129063089D01*
X125952903Y-129046205D01*
X125940655Y-129032186D01*
X125936132Y-129025961D01*
X125932453Y-129022797D01*
X125924223Y-129013377D01*
X125920124Y-129008143D01*
X125881599Y-128953124D01*
X125881596Y-128953121D01*
X125820180Y-128891705D01*
X125811061Y-128875005D01*
X125794299Y-128861638D01*
X125791557Y-128859017D01*
X125789468Y-128857786D01*
X125776353Y-128847327D01*
X125771166Y-128842691D01*
X125726878Y-128798403D01*
X125726869Y-128798396D01*
X125653772Y-128747212D01*
X125641162Y-128731436D01*
X125601505Y-128710096D01*
X125595318Y-128706283D01*
X125547643Y-128672900D01*
X125464518Y-128634138D01*
X125448508Y-128620040D01*
X125405216Y-128605974D01*
X125398167Y-128603197D01*
X125349332Y-128580426D01*
X125349330Y-128580425D01*
X125333693Y-128576235D01*
X125258273Y-128556025D01*
X125239119Y-128544349D01*
X125193640Y-128538188D01*
X125185909Y-128536636D01*
X125137985Y-128523794D01*
X125137971Y-128523792D01*
X125041472Y-128515350D01*
X125019575Y-128506784D01*
X124973463Y-128508856D01*
X124965271Y-128508682D01*
X124920006Y-128504723D01*
X124919997Y-128504723D01*
X124820820Y-128513399D01*
X124796749Y-128508561D01*
X124751593Y-128518870D01*
X124743191Y-128520190D01*
X124702020Y-128523793D01*
X124603179Y-128550277D01*
X124577623Y-128549668D01*
X124539030Y-128566169D01*
X124522381Y-128571927D01*
X124490667Y-128580425D01*
X124292361Y-128672898D01*
X124292357Y-128672900D01*
X124113121Y-128798402D01*
X123958402Y-128953121D01*
X123832900Y-129132357D01*
X123832898Y-129132361D01*
X123740426Y-129330668D01*
X123740422Y-129330677D01*
X123683793Y-129542020D01*
X123683793Y-129542024D01*
X123664723Y-129759997D01*
X123664723Y-129760002D01*
X121920542Y-129760002D01*
X121920500Y-129758377D01*
X121920500Y-115592683D01*
X124828035Y-115592683D01*
X124838636Y-115650536D01*
X124839199Y-115654237D01*
X124846293Y-115712656D01*
X124846294Y-115712661D01*
X124849509Y-115721137D01*
X124855534Y-115742747D01*
X124857170Y-115751675D01*
X124881312Y-115805317D01*
X124882745Y-115808777D01*
X124903610Y-115863791D01*
X124908763Y-115871257D01*
X124919784Y-115890797D01*
X124923505Y-115899063D01*
X124923510Y-115899072D01*
X124959788Y-115945378D01*
X124962007Y-115948394D01*
X124995431Y-115996814D01*
X124995432Y-115996816D01*
X125039465Y-116035826D01*
X125042192Y-116038394D01*
X131411897Y-122408098D01*
X131414464Y-122410824D01*
X131453484Y-122454868D01*
X131501897Y-122488285D01*
X131504913Y-122490504D01*
X131551231Y-122526792D01*
X131559494Y-122530511D01*
X131579047Y-122541539D01*
X131586506Y-122546688D01*
X131586507Y-122546688D01*
X131586508Y-122546689D01*
X131641532Y-122567556D01*
X131644970Y-122568981D01*
X131698627Y-122593130D01*
X131707542Y-122594763D01*
X131729164Y-122600791D01*
X131737641Y-122604006D01*
X131796052Y-122611098D01*
X131799756Y-122611662D01*
X131813840Y-122614242D01*
X131857617Y-122622265D01*
X131857618Y-122622264D01*
X131857619Y-122622265D01*
X131916343Y-122618713D01*
X131920087Y-122618600D01*
X137463837Y-122618600D01*
X137530876Y-122638285D01*
X137551518Y-122654919D01*
X138155670Y-123259071D01*
X138189155Y-123320394D01*
X138184171Y-123390086D01*
X138155670Y-123434433D01*
X138071505Y-123518597D01*
X137941575Y-123704158D01*
X137886998Y-123747783D01*
X137817500Y-123754977D01*
X137755145Y-123723454D01*
X137738425Y-123704158D01*
X137608494Y-123518597D01*
X137441402Y-123351506D01*
X137441395Y-123351501D01*
X137247834Y-123215967D01*
X137247830Y-123215965D01*
X137247828Y-123215964D01*
X137033663Y-123116097D01*
X137033659Y-123116096D01*
X137033655Y-123116094D01*
X136805413Y-123054938D01*
X136805403Y-123054936D01*
X136570001Y-123034341D01*
X136569999Y-123034341D01*
X136334596Y-123054936D01*
X136334586Y-123054938D01*
X136106344Y-123116094D01*
X136106335Y-123116098D01*
X135892171Y-123215964D01*
X135892169Y-123215965D01*
X135698597Y-123351505D01*
X135531508Y-123518594D01*
X135401574Y-123704159D01*
X135346997Y-123747784D01*
X135277498Y-123754976D01*
X135215144Y-123723454D01*
X135198424Y-123704158D01*
X135068494Y-123518597D01*
X134901402Y-123351506D01*
X134901395Y-123351501D01*
X134707834Y-123215967D01*
X134707830Y-123215965D01*
X134707830Y-123215964D01*
X134493663Y-123116097D01*
X134493659Y-123116096D01*
X134493655Y-123116094D01*
X134265413Y-123054938D01*
X134265403Y-123054936D01*
X134030001Y-123034341D01*
X134029999Y-123034341D01*
X133794596Y-123054936D01*
X133794586Y-123054938D01*
X133566344Y-123116094D01*
X133566335Y-123116098D01*
X133352171Y-123215964D01*
X133352169Y-123215965D01*
X133158597Y-123351505D01*
X132991505Y-123518597D01*
X132861575Y-123704158D01*
X132806998Y-123747783D01*
X132737500Y-123754977D01*
X132675145Y-123723454D01*
X132658425Y-123704158D01*
X132528494Y-123518597D01*
X132361402Y-123351506D01*
X132361395Y-123351501D01*
X132167834Y-123215967D01*
X132167830Y-123215965D01*
X132167828Y-123215964D01*
X131953663Y-123116097D01*
X131953659Y-123116096D01*
X131953655Y-123116094D01*
X131725413Y-123054938D01*
X131725403Y-123054936D01*
X131490001Y-123034341D01*
X131489999Y-123034341D01*
X131254596Y-123054936D01*
X131254586Y-123054938D01*
X131026344Y-123116094D01*
X131026335Y-123116098D01*
X130812171Y-123215964D01*
X130812169Y-123215965D01*
X130618597Y-123351505D01*
X130451505Y-123518597D01*
X130315965Y-123712169D01*
X130315964Y-123712171D01*
X130216098Y-123926335D01*
X130216094Y-123926344D01*
X130154938Y-124154586D01*
X130154936Y-124154596D01*
X130134341Y-124389999D01*
X130134341Y-124390000D01*
X130154936Y-124625403D01*
X130154938Y-124625413D01*
X130216094Y-124853655D01*
X130216096Y-124853659D01*
X130216097Y-124853663D01*
X130220000Y-124862032D01*
X130315965Y-125067830D01*
X130315967Y-125067834D01*
X130424281Y-125222521D01*
X130451501Y-125261396D01*
X130451506Y-125261402D01*
X130618597Y-125428493D01*
X130618603Y-125428498D01*
X130804158Y-125558425D01*
X130847783Y-125613002D01*
X130854977Y-125682500D01*
X130823454Y-125744855D01*
X130804158Y-125761575D01*
X130618597Y-125891505D01*
X130451505Y-126058597D01*
X130315965Y-126252169D01*
X130315964Y-126252171D01*
X130216098Y-126466335D01*
X130216094Y-126466344D01*
X130154938Y-126694586D01*
X130154936Y-126694596D01*
X130134341Y-126929999D01*
X130134341Y-126930000D01*
X130154936Y-127165403D01*
X130154938Y-127165413D01*
X130216094Y-127393655D01*
X130216096Y-127393659D01*
X130216097Y-127393663D01*
X130220000Y-127402032D01*
X130315965Y-127607830D01*
X130315967Y-127607834D01*
X130424281Y-127762521D01*
X130451505Y-127801401D01*
X130618599Y-127968495D01*
X130715384Y-128036264D01*
X130812165Y-128104032D01*
X130812167Y-128104033D01*
X130812170Y-128104035D01*
X131026337Y-128203903D01*
X131254592Y-128265063D01*
X131442918Y-128281539D01*
X131489999Y-128285659D01*
X131490000Y-128285659D01*
X131490001Y-128285659D01*
X131529234Y-128282226D01*
X131725408Y-128265063D01*
X131953663Y-128203903D01*
X132167830Y-128104035D01*
X132361401Y-127968495D01*
X132528495Y-127801401D01*
X132664035Y-127607830D01*
X132763903Y-127393663D01*
X132825063Y-127165408D01*
X132845659Y-126930000D01*
X132825063Y-126694592D01*
X132763903Y-126466337D01*
X132664035Y-126252171D01*
X132658425Y-126244158D01*
X132528494Y-126058597D01*
X132361402Y-125891506D01*
X132361396Y-125891501D01*
X132175842Y-125761575D01*
X132132217Y-125706998D01*
X132125023Y-125637500D01*
X132156546Y-125575145D01*
X132175842Y-125558425D01*
X132198026Y-125542891D01*
X132361401Y-125428495D01*
X132528495Y-125261401D01*
X132658424Y-125075842D01*
X132713002Y-125032217D01*
X132782500Y-125025023D01*
X132844855Y-125056546D01*
X132861575Y-125075842D01*
X132991500Y-125261395D01*
X132991505Y-125261401D01*
X133158599Y-125428495D01*
X133255384Y-125496264D01*
X133352165Y-125564032D01*
X133352167Y-125564033D01*
X133352170Y-125564035D01*
X133566337Y-125663903D01*
X133794592Y-125725063D01*
X133971034Y-125740500D01*
X134029999Y-125745659D01*
X134030000Y-125745659D01*
X134030001Y-125745659D01*
X134088966Y-125740500D01*
X134265408Y-125725063D01*
X134493663Y-125663903D01*
X134707830Y-125564035D01*
X134901401Y-125428495D01*
X135068495Y-125261401D01*
X135198424Y-125075842D01*
X135253002Y-125032217D01*
X135322500Y-125025023D01*
X135384855Y-125056546D01*
X135401575Y-125075842D01*
X135531501Y-125261396D01*
X135531506Y-125261402D01*
X135698597Y-125428493D01*
X135698603Y-125428498D01*
X135884158Y-125558425D01*
X135927783Y-125613002D01*
X135934977Y-125682500D01*
X135903454Y-125744855D01*
X135884158Y-125761575D01*
X135698597Y-125891505D01*
X135531505Y-126058597D01*
X135395965Y-126252169D01*
X135395964Y-126252171D01*
X135296098Y-126466335D01*
X135296094Y-126466344D01*
X135234938Y-126694586D01*
X135234936Y-126694596D01*
X135214341Y-126929999D01*
X135214341Y-126930000D01*
X135234936Y-127165403D01*
X135234938Y-127165413D01*
X135296094Y-127393655D01*
X135296096Y-127393659D01*
X135296097Y-127393663D01*
X135300000Y-127402032D01*
X135395965Y-127607830D01*
X135395967Y-127607834D01*
X135504281Y-127762521D01*
X135531505Y-127801401D01*
X135698599Y-127968495D01*
X135795384Y-128036264D01*
X135892165Y-128104032D01*
X135892167Y-128104033D01*
X135892170Y-128104035D01*
X136106337Y-128203903D01*
X136334592Y-128265063D01*
X136522918Y-128281539D01*
X136569999Y-128285659D01*
X136570000Y-128285659D01*
X136570001Y-128285659D01*
X136609234Y-128282226D01*
X136805408Y-128265063D01*
X137033663Y-128203903D01*
X137247830Y-128104035D01*
X137441401Y-127968495D01*
X137608495Y-127801401D01*
X137738424Y-127615842D01*
X137793002Y-127572217D01*
X137862500Y-127565023D01*
X137924855Y-127596546D01*
X137941575Y-127615842D01*
X138071500Y-127801395D01*
X138071505Y-127801401D01*
X138238599Y-127968495D01*
X138335384Y-128036264D01*
X138432165Y-128104032D01*
X138432167Y-128104033D01*
X138432170Y-128104035D01*
X138646337Y-128203903D01*
X138874592Y-128265063D01*
X139062918Y-128281539D01*
X139109999Y-128285659D01*
X139110000Y-128285659D01*
X139110001Y-128285659D01*
X139149234Y-128282226D01*
X139345408Y-128265063D01*
X139573663Y-128203903D01*
X139787830Y-128104035D01*
X139981401Y-127968495D01*
X140148495Y-127801401D01*
X140284035Y-127607830D01*
X140383903Y-127393663D01*
X140445063Y-127165408D01*
X140465659Y-126930000D01*
X140445063Y-126694592D01*
X140383903Y-126466337D01*
X140284035Y-126252171D01*
X140278425Y-126244158D01*
X140148494Y-126058597D01*
X139981402Y-125891506D01*
X139981396Y-125891501D01*
X139795842Y-125761575D01*
X139752217Y-125706998D01*
X139745023Y-125637500D01*
X139776546Y-125575145D01*
X139795842Y-125558425D01*
X139818026Y-125542891D01*
X139981401Y-125428495D01*
X140148495Y-125261401D01*
X140278424Y-125075842D01*
X140333002Y-125032217D01*
X140402500Y-125025023D01*
X140464855Y-125056546D01*
X140481575Y-125075842D01*
X140611500Y-125261395D01*
X140611505Y-125261401D01*
X140778599Y-125428495D01*
X140875384Y-125496264D01*
X140972165Y-125564032D01*
X140972167Y-125564033D01*
X140972170Y-125564035D01*
X141186337Y-125663903D01*
X141414592Y-125725063D01*
X141591034Y-125740500D01*
X141649999Y-125745659D01*
X141650000Y-125745659D01*
X141650001Y-125745659D01*
X141708966Y-125740500D01*
X141885408Y-125725063D01*
X142113663Y-125663903D01*
X142327830Y-125564035D01*
X142521401Y-125428495D01*
X142688495Y-125261401D01*
X142818424Y-125075842D01*
X142873002Y-125032217D01*
X142942500Y-125025023D01*
X143004855Y-125056546D01*
X143021575Y-125075842D01*
X143151501Y-125261396D01*
X143151506Y-125261402D01*
X143318597Y-125428493D01*
X143318603Y-125428498D01*
X143504158Y-125558425D01*
X143547783Y-125613002D01*
X143554977Y-125682500D01*
X143523454Y-125744855D01*
X143504158Y-125761575D01*
X143318597Y-125891505D01*
X143151505Y-126058597D01*
X143015965Y-126252169D01*
X143015964Y-126252171D01*
X142916098Y-126466335D01*
X142916094Y-126466344D01*
X142854938Y-126694586D01*
X142854936Y-126694596D01*
X142834341Y-126929999D01*
X142834341Y-126930000D01*
X142854936Y-127165403D01*
X142854938Y-127165413D01*
X142916094Y-127393655D01*
X142916096Y-127393659D01*
X142916097Y-127393663D01*
X142920000Y-127402032D01*
X143015965Y-127607830D01*
X143015967Y-127607834D01*
X143124281Y-127762521D01*
X143151505Y-127801401D01*
X143318599Y-127968495D01*
X143415384Y-128036264D01*
X143512165Y-128104032D01*
X143512167Y-128104033D01*
X143512170Y-128104035D01*
X143726337Y-128203903D01*
X143954592Y-128265063D01*
X144142918Y-128281539D01*
X144189999Y-128285659D01*
X144190000Y-128285659D01*
X144190001Y-128285659D01*
X144229234Y-128282226D01*
X144425408Y-128265063D01*
X144653663Y-128203903D01*
X144867830Y-128104035D01*
X145061401Y-127968495D01*
X145228495Y-127801401D01*
X145364035Y-127607830D01*
X145463903Y-127393663D01*
X145525063Y-127165408D01*
X145545659Y-126930000D01*
X145525063Y-126694592D01*
X145463903Y-126466337D01*
X145364035Y-126252171D01*
X145358425Y-126244158D01*
X145228494Y-126058597D01*
X145061402Y-125891506D01*
X145061396Y-125891501D01*
X144875842Y-125761575D01*
X144832217Y-125706998D01*
X144825023Y-125637500D01*
X144856546Y-125575145D01*
X144875842Y-125558425D01*
X144898026Y-125542891D01*
X145061401Y-125428495D01*
X145228495Y-125261401D01*
X145358424Y-125075842D01*
X145413002Y-125032217D01*
X145482500Y-125025023D01*
X145544855Y-125056546D01*
X145561575Y-125075842D01*
X145691500Y-125261395D01*
X145691505Y-125261401D01*
X145858599Y-125428495D01*
X145955384Y-125496264D01*
X146052165Y-125564032D01*
X146052167Y-125564033D01*
X146052170Y-125564035D01*
X146266337Y-125663903D01*
X146494592Y-125725063D01*
X146671034Y-125740500D01*
X146729999Y-125745659D01*
X146730000Y-125745659D01*
X146730001Y-125745659D01*
X146788966Y-125740500D01*
X146965408Y-125725063D01*
X147193663Y-125663903D01*
X147407830Y-125564035D01*
X147601401Y-125428495D01*
X147768495Y-125261401D01*
X147898424Y-125075842D01*
X147953002Y-125032217D01*
X148022500Y-125025023D01*
X148084855Y-125056546D01*
X148101575Y-125075842D01*
X148231501Y-125261396D01*
X148231506Y-125261402D01*
X148398597Y-125428493D01*
X148398603Y-125428498D01*
X148584158Y-125558425D01*
X148627783Y-125613002D01*
X148634977Y-125682500D01*
X148603454Y-125744855D01*
X148584158Y-125761575D01*
X148398597Y-125891505D01*
X148231505Y-126058597D01*
X148095965Y-126252169D01*
X148095964Y-126252171D01*
X147996098Y-126466335D01*
X147996094Y-126466344D01*
X147934938Y-126694586D01*
X147934936Y-126694596D01*
X147914341Y-126929999D01*
X147914341Y-126930000D01*
X147934936Y-127165403D01*
X147934938Y-127165413D01*
X147996094Y-127393655D01*
X147996096Y-127393659D01*
X147996097Y-127393663D01*
X148000000Y-127402032D01*
X148095965Y-127607830D01*
X148095967Y-127607834D01*
X148204281Y-127762521D01*
X148231505Y-127801401D01*
X148398599Y-127968495D01*
X148495384Y-128036264D01*
X148592165Y-128104032D01*
X148592167Y-128104033D01*
X148592170Y-128104035D01*
X148806337Y-128203903D01*
X149034592Y-128265063D01*
X149222918Y-128281539D01*
X149269999Y-128285659D01*
X149270000Y-128285659D01*
X149270001Y-128285659D01*
X149309234Y-128282226D01*
X149505408Y-128265063D01*
X149733663Y-128203903D01*
X149947830Y-128104035D01*
X150141401Y-127968495D01*
X150308495Y-127801401D01*
X150438424Y-127615842D01*
X150493002Y-127572217D01*
X150562500Y-127565023D01*
X150624855Y-127596546D01*
X150641575Y-127615842D01*
X150771500Y-127801395D01*
X150771505Y-127801401D01*
X150938599Y-127968495D01*
X151035384Y-128036264D01*
X151132165Y-128104032D01*
X151132167Y-128104033D01*
X151132170Y-128104035D01*
X151346337Y-128203903D01*
X151574592Y-128265063D01*
X151762918Y-128281539D01*
X151809999Y-128285659D01*
X151810000Y-128285659D01*
X151810001Y-128285659D01*
X151849234Y-128282226D01*
X152045408Y-128265063D01*
X152273663Y-128203903D01*
X152487830Y-128104035D01*
X152681401Y-127968495D01*
X152848495Y-127801401D01*
X152984035Y-127607830D01*
X153083903Y-127393663D01*
X153145063Y-127165408D01*
X153165659Y-126930000D01*
X153145063Y-126694592D01*
X153083903Y-126466337D01*
X152984035Y-126252171D01*
X152978425Y-126244158D01*
X152848494Y-126058597D01*
X152681402Y-125891506D01*
X152681396Y-125891501D01*
X152495842Y-125761575D01*
X152452217Y-125706998D01*
X152445023Y-125637500D01*
X152476546Y-125575145D01*
X152495842Y-125558425D01*
X152518026Y-125542891D01*
X152681401Y-125428495D01*
X152803329Y-125306566D01*
X152864648Y-125273084D01*
X152934340Y-125278068D01*
X152990274Y-125319939D01*
X153007189Y-125350917D01*
X153056202Y-125482328D01*
X153056206Y-125482335D01*
X153142452Y-125597544D01*
X153142455Y-125597547D01*
X153257664Y-125683793D01*
X153257671Y-125683797D01*
X153392517Y-125734091D01*
X153392516Y-125734091D01*
X153399444Y-125734835D01*
X153452127Y-125740500D01*
X155247872Y-125740499D01*
X155307483Y-125734091D01*
X155442331Y-125683796D01*
X155557546Y-125597546D01*
X155643796Y-125482331D01*
X155694091Y-125347483D01*
X155700500Y-125287873D01*
X155700499Y-123492128D01*
X155694091Y-123432517D01*
X155692810Y-123429083D01*
X155643797Y-123297671D01*
X155643793Y-123297664D01*
X155557547Y-123182455D01*
X155557544Y-123182452D01*
X155442335Y-123096206D01*
X155442328Y-123096202D01*
X155307482Y-123045908D01*
X155307483Y-123045908D01*
X155247883Y-123039501D01*
X155247881Y-123039500D01*
X155247873Y-123039500D01*
X155247864Y-123039500D01*
X153452129Y-123039500D01*
X153452123Y-123039501D01*
X153392516Y-123045908D01*
X153257671Y-123096202D01*
X153257664Y-123096206D01*
X153142455Y-123182452D01*
X153142452Y-123182455D01*
X153056206Y-123297664D01*
X153056203Y-123297669D01*
X153007189Y-123429083D01*
X152965317Y-123485016D01*
X152899853Y-123509433D01*
X152831580Y-123494581D01*
X152803326Y-123473430D01*
X152681402Y-123351506D01*
X152681395Y-123351501D01*
X152487834Y-123215967D01*
X152487830Y-123215965D01*
X152487828Y-123215964D01*
X152273663Y-123116097D01*
X152273659Y-123116096D01*
X152273655Y-123116094D01*
X152045413Y-123054938D01*
X152045403Y-123054936D01*
X151810001Y-123034341D01*
X151809999Y-123034341D01*
X151574596Y-123054936D01*
X151574586Y-123054938D01*
X151346344Y-123116094D01*
X151346335Y-123116098D01*
X151132171Y-123215964D01*
X151132169Y-123215965D01*
X150938597Y-123351505D01*
X150771505Y-123518597D01*
X150641575Y-123704158D01*
X150586998Y-123747783D01*
X150517500Y-123754977D01*
X150455145Y-123723454D01*
X150438425Y-123704158D01*
X150308494Y-123518597D01*
X150141402Y-123351506D01*
X150141395Y-123351501D01*
X149947834Y-123215967D01*
X149947830Y-123215965D01*
X149947828Y-123215964D01*
X149733663Y-123116097D01*
X149733659Y-123116096D01*
X149733655Y-123116094D01*
X149505413Y-123054938D01*
X149505403Y-123054936D01*
X149270001Y-123034341D01*
X149269999Y-123034341D01*
X149034596Y-123054936D01*
X149034586Y-123054938D01*
X148806344Y-123116094D01*
X148806335Y-123116098D01*
X148592171Y-123215964D01*
X148592169Y-123215965D01*
X148398597Y-123351505D01*
X148231508Y-123518594D01*
X148101574Y-123704159D01*
X148046997Y-123747784D01*
X147977498Y-123754976D01*
X147915144Y-123723454D01*
X147898424Y-123704158D01*
X147768494Y-123518597D01*
X147601402Y-123351506D01*
X147601395Y-123351501D01*
X147407834Y-123215967D01*
X147407830Y-123215965D01*
X147407828Y-123215964D01*
X147193663Y-123116097D01*
X147193659Y-123116096D01*
X147193655Y-123116094D01*
X146965413Y-123054938D01*
X146965403Y-123054936D01*
X146730001Y-123034341D01*
X146729999Y-123034341D01*
X146494596Y-123054936D01*
X146494586Y-123054938D01*
X146266344Y-123116094D01*
X146266335Y-123116098D01*
X146052171Y-123215964D01*
X146052169Y-123215965D01*
X145858597Y-123351505D01*
X145691505Y-123518597D01*
X145561575Y-123704158D01*
X145506998Y-123747783D01*
X145437500Y-123754977D01*
X145375145Y-123723454D01*
X145358425Y-123704158D01*
X145228494Y-123518597D01*
X145061402Y-123351506D01*
X145061395Y-123351501D01*
X144867834Y-123215967D01*
X144867830Y-123215965D01*
X144867830Y-123215964D01*
X144653663Y-123116097D01*
X144653659Y-123116096D01*
X144653655Y-123116094D01*
X144425413Y-123054938D01*
X144425403Y-123054936D01*
X144190001Y-123034341D01*
X144189999Y-123034341D01*
X143954596Y-123054936D01*
X143954586Y-123054938D01*
X143726344Y-123116094D01*
X143726335Y-123116098D01*
X143512171Y-123215964D01*
X143512169Y-123215965D01*
X143318597Y-123351505D01*
X143151505Y-123518597D01*
X143021575Y-123704158D01*
X142966998Y-123747783D01*
X142897500Y-123754977D01*
X142835145Y-123723454D01*
X142818425Y-123704158D01*
X142688494Y-123518597D01*
X142521402Y-123351506D01*
X142521395Y-123351501D01*
X142327831Y-123215965D01*
X142327829Y-123215964D01*
X142236150Y-123173213D01*
X142190953Y-123137315D01*
X142190694Y-123136985D01*
X142187496Y-123132903D01*
X142185293Y-123129908D01*
X142162030Y-123096206D01*
X142151868Y-123081484D01*
X142141869Y-123072626D01*
X142107825Y-123042465D01*
X142105098Y-123039897D01*
X141473299Y-122408098D01*
X139445460Y-120380259D01*
X139442943Y-120377585D01*
X139403916Y-120333532D01*
X139392537Y-120325678D01*
X139355494Y-120300107D01*
X139352478Y-120297888D01*
X139306172Y-120261610D01*
X139306170Y-120261609D01*
X139306169Y-120261608D01*
X139306165Y-120261606D01*
X139306163Y-120261605D01*
X139297897Y-120257884D01*
X139278357Y-120246863D01*
X139270891Y-120241710D01*
X139270892Y-120241710D01*
X139215877Y-120220845D01*
X139212417Y-120219412D01*
X139158775Y-120195270D01*
X139158776Y-120195270D01*
X139149847Y-120193634D01*
X139128237Y-120187609D01*
X139119761Y-120184394D01*
X139119756Y-120184393D01*
X139061337Y-120177299D01*
X139057636Y-120176736D01*
X138999786Y-120166135D01*
X138999779Y-120166135D01*
X138941057Y-120169687D01*
X138937313Y-120169800D01*
X134104763Y-120169800D01*
X134037724Y-120150115D01*
X134017082Y-120133481D01*
X128180419Y-114296818D01*
X128146934Y-114235495D01*
X128144100Y-114209137D01*
X128144100Y-107982999D01*
X128144100Y-101706058D01*
X128163784Y-101639023D01*
X128180413Y-101618386D01*
X131426280Y-98372519D01*
X131487604Y-98339034D01*
X131513962Y-98336200D01*
X136803437Y-98336200D01*
X136870476Y-98355885D01*
X136891118Y-98372519D01*
X137277418Y-98758819D01*
X137310903Y-98820142D01*
X137305919Y-98889834D01*
X137264047Y-98945767D01*
X137198583Y-98970184D01*
X137189737Y-98970500D01*
X135397829Y-98970500D01*
X135397823Y-98970501D01*
X135338216Y-98976908D01*
X135203371Y-99027202D01*
X135203364Y-99027206D01*
X135088155Y-99113452D01*
X135088152Y-99113455D01*
X135001906Y-99228664D01*
X135001902Y-99228671D01*
X134951608Y-99363517D01*
X134945201Y-99423116D01*
X134945200Y-99423135D01*
X134945200Y-101018870D01*
X134945201Y-101018876D01*
X134951608Y-101078483D01*
X135001902Y-101213328D01*
X135001906Y-101213335D01*
X135088152Y-101328544D01*
X135088155Y-101328547D01*
X135203364Y-101414793D01*
X135203371Y-101414797D01*
X135338217Y-101465091D01*
X135338216Y-101465091D01*
X135345144Y-101465835D01*
X135397827Y-101471500D01*
X137493572Y-101471499D01*
X137553183Y-101465091D01*
X137688031Y-101414796D01*
X137803246Y-101328546D01*
X137889496Y-101213331D01*
X137939791Y-101078483D01*
X137946200Y-101018873D01*
X137946199Y-99726960D01*
X137965884Y-99659922D01*
X138018687Y-99614167D01*
X138087846Y-99604223D01*
X138151402Y-99633248D01*
X138157880Y-99639280D01*
X142537089Y-104018489D01*
X142539656Y-104021215D01*
X142578684Y-104065268D01*
X142627090Y-104098680D01*
X142630105Y-104100897D01*
X142639262Y-104108072D01*
X142676429Y-104137192D01*
X142676430Y-104137192D01*
X142676431Y-104137193D01*
X142684699Y-104140914D01*
X142704248Y-104151939D01*
X142711708Y-104157089D01*
X142766715Y-104177950D01*
X142770169Y-104179381D01*
X142823828Y-104203531D01*
X142832750Y-104205165D01*
X142854365Y-104211191D01*
X142862841Y-104214406D01*
X142901480Y-104219097D01*
X142921245Y-104221497D01*
X142924937Y-104222058D01*
X142982817Y-104232665D01*
X142982818Y-104232664D01*
X142982819Y-104232665D01*
X143041548Y-104229113D01*
X143045292Y-104229000D01*
X145134913Y-104229000D01*
X145138657Y-104229113D01*
X145197380Y-104232665D01*
X145197380Y-104232664D01*
X145197383Y-104232665D01*
X145255257Y-104222059D01*
X145258949Y-104221498D01*
X145273132Y-104219775D01*
X145317359Y-104214406D01*
X145325840Y-104211189D01*
X145347455Y-104205163D01*
X145356373Y-104203530D01*
X145410065Y-104179364D01*
X145413451Y-104177962D01*
X145468492Y-104157089D01*
X145475950Y-104151940D01*
X145495506Y-104140911D01*
X145498531Y-104139549D01*
X145503769Y-104137192D01*
X145550102Y-104100891D01*
X145553067Y-104098709D01*
X145601516Y-104065268D01*
X145640558Y-104021197D01*
X145643077Y-104018522D01*
X147859880Y-101801719D01*
X147921201Y-101768236D01*
X147958367Y-101765874D01*
X148006300Y-101770068D01*
X148006302Y-101770068D01*
X148062973Y-101765109D01*
X148232992Y-101750235D01*
X148399207Y-101705698D01*
X148469057Y-101707361D01*
X148526919Y-101746524D01*
X148554423Y-101810752D01*
X148555300Y-101825473D01*
X148555300Y-102525136D01*
X148535615Y-102592175D01*
X148518981Y-102612817D01*
X145612718Y-105519081D01*
X145551395Y-105552566D01*
X145525037Y-105555400D01*
X138070199Y-105555400D01*
X138003160Y-105535715D01*
X137957405Y-105482911D01*
X137946199Y-105431400D01*
X137946199Y-105423129D01*
X137946198Y-105423123D01*
X137946197Y-105423116D01*
X137939791Y-105363517D01*
X137902796Y-105264330D01*
X137897813Y-105194641D01*
X137902797Y-105177668D01*
X137939791Y-105078483D01*
X137946200Y-105018873D01*
X137946199Y-103423128D01*
X137939791Y-103363517D01*
X137911512Y-103287698D01*
X137889497Y-103228671D01*
X137889493Y-103228664D01*
X137803247Y-103113455D01*
X137803244Y-103113452D01*
X137688035Y-103027206D01*
X137688028Y-103027202D01*
X137553182Y-102976908D01*
X137553183Y-102976908D01*
X137493583Y-102970501D01*
X137493581Y-102970500D01*
X137493573Y-102970500D01*
X137493564Y-102970500D01*
X135397829Y-102970500D01*
X135397823Y-102970501D01*
X135338216Y-102976908D01*
X135203371Y-103027202D01*
X135203364Y-103027206D01*
X135088155Y-103113452D01*
X135088152Y-103113455D01*
X135001906Y-103228664D01*
X135001902Y-103228671D01*
X134951608Y-103363517D01*
X134949826Y-103371062D01*
X134948111Y-103370657D01*
X134925058Y-103426309D01*
X134867664Y-103466156D01*
X134828509Y-103472500D01*
X134730599Y-103472500D01*
X134663560Y-103452815D01*
X134625060Y-103413597D01*
X134591412Y-103359044D01*
X134467356Y-103234988D01*
X134318034Y-103142886D01*
X134151497Y-103087701D01*
X134151495Y-103087700D01*
X134048710Y-103077200D01*
X132998698Y-103077200D01*
X132998680Y-103077201D01*
X132895903Y-103087700D01*
X132895900Y-103087701D01*
X132729368Y-103142885D01*
X132729359Y-103142889D01*
X132624295Y-103207693D01*
X132556902Y-103226133D01*
X132490239Y-103205210D01*
X132471518Y-103189836D01*
X132471517Y-103189836D01*
X132386370Y-103104688D01*
X132260748Y-103027204D01*
X132237050Y-103012587D01*
X132237045Y-103012585D01*
X132216026Y-103005620D01*
X132070511Y-102957401D01*
X132070509Y-102957400D01*
X131967724Y-102946900D01*
X130567712Y-102946900D01*
X130567695Y-102946901D01*
X130464917Y-102957400D01*
X130464914Y-102957401D01*
X130298382Y-103012585D01*
X130298377Y-103012587D01*
X130149056Y-103104689D01*
X130025003Y-103228742D01*
X129932901Y-103378063D01*
X129932899Y-103378068D01*
X129916914Y-103426309D01*
X129877715Y-103544603D01*
X129877715Y-103544604D01*
X129877714Y-103544604D01*
X129867214Y-103647383D01*
X129867214Y-104572401D01*
X129867215Y-104572419D01*
X129877714Y-104675196D01*
X129877715Y-104675199D01*
X129932899Y-104841731D01*
X129932901Y-104841736D01*
X129956140Y-104879413D01*
X130025002Y-104991056D01*
X130149058Y-105115112D01*
X130298380Y-105207214D01*
X130464917Y-105262399D01*
X130490715Y-105265034D01*
X130555406Y-105291428D01*
X130595559Y-105348608D01*
X130602114Y-105388392D01*
X130602114Y-105404503D01*
X130582429Y-105471542D01*
X130549238Y-105506078D01*
X130428570Y-105590570D01*
X130267668Y-105751472D01*
X130137146Y-105937879D01*
X130137145Y-105937881D01*
X130040975Y-106144116D01*
X130040972Y-106144125D01*
X129982080Y-106363916D01*
X129982078Y-106363927D01*
X129962246Y-106590612D01*
X129962246Y-106590615D01*
X129982078Y-106817300D01*
X129982080Y-106817311D01*
X130040972Y-107037102D01*
X130040975Y-107037111D01*
X130137145Y-107243346D01*
X130137146Y-107243348D01*
X130267668Y-107429755D01*
X130428572Y-107590659D01*
X130428575Y-107590661D01*
X130614980Y-107721182D01*
X130821218Y-107817353D01*
X131041022Y-107876249D01*
X131202944Y-107890415D01*
X131267712Y-107896082D01*
X131267714Y-107896082D01*
X131267716Y-107896082D01*
X131324387Y-107891123D01*
X131494406Y-107876249D01*
X131714210Y-107817353D01*
X131920448Y-107721182D01*
X132106853Y-107590661D01*
X132267761Y-107429753D01*
X132398282Y-107243348D01*
X132494453Y-107037110D01*
X132553349Y-106817306D01*
X132573182Y-106590614D01*
X132553349Y-106363922D01*
X132494453Y-106144118D01*
X132398282Y-105937880D01*
X132267761Y-105751475D01*
X132267759Y-105751472D01*
X132106857Y-105590570D01*
X131986190Y-105506078D01*
X131942566Y-105451501D01*
X131933314Y-105404503D01*
X131933314Y-105388392D01*
X131952999Y-105321353D01*
X132005803Y-105275598D01*
X132044712Y-105265034D01*
X132070511Y-105262399D01*
X132237048Y-105207214D01*
X132386370Y-105115112D01*
X132405376Y-105096106D01*
X132466699Y-105062621D01*
X132536391Y-105067605D01*
X132573811Y-105091654D01*
X132574381Y-105090934D01*
X132580041Y-105095409D01*
X132580044Y-105095412D01*
X132729366Y-105187514D01*
X132895903Y-105242699D01*
X132998691Y-105253200D01*
X134048708Y-105253199D01*
X134048716Y-105253198D01*
X134048719Y-105253198D01*
X134105888Y-105247358D01*
X134151497Y-105242699D01*
X134318034Y-105187514D01*
X134467356Y-105095412D01*
X134591412Y-104971356D01*
X134615438Y-104932402D01*
X134667386Y-104885679D01*
X134720977Y-104873500D01*
X134821201Y-104873500D01*
X134888240Y-104893185D01*
X134933995Y-104945989D01*
X134945201Y-104997500D01*
X134945201Y-105018876D01*
X134951609Y-105078484D01*
X134988601Y-105177668D01*
X134993585Y-105247360D01*
X134988601Y-105264332D01*
X134951609Y-105363514D01*
X134951608Y-105363516D01*
X134947202Y-105404503D01*
X134945201Y-105423123D01*
X134945200Y-105423135D01*
X134945200Y-107018870D01*
X134945201Y-107018876D01*
X134951609Y-107078484D01*
X134988601Y-107177667D01*
X134993585Y-107247358D01*
X134988601Y-107264331D01*
X134951609Y-107363514D01*
X134951608Y-107363516D01*
X134945201Y-107423116D01*
X134945201Y-107423123D01*
X134945200Y-107423135D01*
X134945200Y-109018870D01*
X134945201Y-109018876D01*
X134951609Y-109078484D01*
X134988601Y-109177668D01*
X134993585Y-109247360D01*
X134988601Y-109264332D01*
X134951609Y-109363514D01*
X134951608Y-109363516D01*
X134945201Y-109423116D01*
X134945201Y-109423123D01*
X134945200Y-109423135D01*
X134945200Y-111018870D01*
X134945201Y-111018876D01*
X134951609Y-111078484D01*
X134988601Y-111177667D01*
X134993585Y-111247358D01*
X134988601Y-111264331D01*
X134951609Y-111363514D01*
X134951608Y-111363516D01*
X134946965Y-111406709D01*
X134945201Y-111423123D01*
X134945200Y-111423135D01*
X134945200Y-113018870D01*
X134945201Y-113018876D01*
X134951609Y-113078484D01*
X134988601Y-113177668D01*
X134993585Y-113247360D01*
X134988601Y-113264332D01*
X134951609Y-113363514D01*
X134951608Y-113363516D01*
X134945201Y-113423116D01*
X134945201Y-113423123D01*
X134945200Y-113423135D01*
X134945200Y-115018870D01*
X134945201Y-115018876D01*
X134951608Y-115078483D01*
X135001902Y-115213328D01*
X135001906Y-115213335D01*
X135088152Y-115328544D01*
X135088155Y-115328547D01*
X135203364Y-115414793D01*
X135203371Y-115414797D01*
X135338217Y-115465091D01*
X135338216Y-115465091D01*
X135345144Y-115465835D01*
X135397827Y-115471500D01*
X137493572Y-115471499D01*
X137553183Y-115465091D01*
X137688031Y-115414796D01*
X137803246Y-115328546D01*
X137889496Y-115213331D01*
X137939791Y-115078483D01*
X137946200Y-115018873D01*
X137946199Y-113423128D01*
X137939791Y-113363517D01*
X137902796Y-113264330D01*
X137897813Y-113194641D01*
X137902797Y-113177668D01*
X137939791Y-113078483D01*
X137946200Y-113018873D01*
X137946200Y-113010600D01*
X137965885Y-112943561D01*
X138018689Y-112897806D01*
X138070200Y-112886600D01*
X138208790Y-112886600D01*
X138275829Y-112906285D01*
X138310365Y-112939477D01*
X138394854Y-113060141D01*
X138555758Y-113221045D01*
X138555761Y-113221047D01*
X138742166Y-113351568D01*
X138948404Y-113447739D01*
X139168208Y-113506635D01*
X139330130Y-113520801D01*
X139394898Y-113526468D01*
X139394900Y-113526468D01*
X139394902Y-113526468D01*
X139451572Y-113521509D01*
X139621592Y-113506635D01*
X139841396Y-113447739D01*
X140047634Y-113351568D01*
X140234039Y-113221047D01*
X140394947Y-113060139D01*
X140525468Y-112873734D01*
X140621639Y-112667496D01*
X140680535Y-112447692D01*
X140700368Y-112221000D01*
X140680535Y-111994308D01*
X140621639Y-111774504D01*
X140525468Y-111568266D01*
X140394947Y-111381861D01*
X140394945Y-111381858D01*
X140234041Y-111220954D01*
X140151489Y-111163151D01*
X140078685Y-111112174D01*
X140035061Y-111057599D01*
X140027867Y-110988100D01*
X140059389Y-110925746D01*
X140119619Y-110890331D01*
X140149809Y-110886600D01*
X140818390Y-110886600D01*
X140885429Y-110906285D01*
X140919965Y-110939477D01*
X141004454Y-111060141D01*
X141165358Y-111221045D01*
X141165361Y-111221047D01*
X141351766Y-111351568D01*
X141558004Y-111447739D01*
X141777808Y-111506635D01*
X141939730Y-111520801D01*
X142004498Y-111526468D01*
X142004500Y-111526468D01*
X142004502Y-111526468D01*
X142061173Y-111521509D01*
X142231192Y-111506635D01*
X142450996Y-111447739D01*
X142657234Y-111351568D01*
X142843639Y-111221047D01*
X143004547Y-111060139D01*
X143135068Y-110873734D01*
X143231239Y-110667496D01*
X143290135Y-110447692D01*
X143309968Y-110221000D01*
X143307354Y-110191127D01*
X143295824Y-110059335D01*
X143290135Y-109994308D01*
X143231239Y-109774504D01*
X143135068Y-109568266D01*
X143004547Y-109381861D01*
X143004545Y-109381858D01*
X142843641Y-109220954D01*
X142744342Y-109151425D01*
X142688285Y-109112174D01*
X142644661Y-109057599D01*
X142637467Y-108988100D01*
X142668989Y-108925746D01*
X142729219Y-108890331D01*
X142759409Y-108886600D01*
X145760513Y-108886600D01*
X145764257Y-108886713D01*
X145822980Y-108890265D01*
X145822980Y-108890264D01*
X145822983Y-108890265D01*
X145880857Y-108879659D01*
X145884549Y-108879098D01*
X145898732Y-108877375D01*
X145942959Y-108872006D01*
X145951440Y-108868789D01*
X145973055Y-108862763D01*
X145981973Y-108861130D01*
X146035665Y-108836964D01*
X146039051Y-108835562D01*
X146094092Y-108814689D01*
X146101550Y-108809540D01*
X146121106Y-108798511D01*
X146124131Y-108797149D01*
X146129369Y-108794792D01*
X146175702Y-108758491D01*
X146178667Y-108756309D01*
X146227116Y-108722868D01*
X146266158Y-108678797D01*
X146268677Y-108676122D01*
X150733521Y-104211278D01*
X150794842Y-104177795D01*
X150864534Y-104182779D01*
X150920467Y-104224651D01*
X150944884Y-104290115D01*
X150945200Y-104298961D01*
X150945200Y-105018870D01*
X150945201Y-105018876D01*
X150951609Y-105078484D01*
X150988601Y-105177667D01*
X150993585Y-105247358D01*
X150988601Y-105264331D01*
X150951609Y-105363514D01*
X150951608Y-105363516D01*
X150947202Y-105404503D01*
X150945201Y-105423123D01*
X150945200Y-105423135D01*
X150945200Y-107018870D01*
X150945201Y-107018876D01*
X150951609Y-107078484D01*
X150988601Y-107177667D01*
X150993585Y-107247358D01*
X150988601Y-107264331D01*
X150951609Y-107363514D01*
X150951608Y-107363516D01*
X150945201Y-107423116D01*
X150945201Y-107423123D01*
X150945200Y-107423135D01*
X150945200Y-109018870D01*
X150945201Y-109018876D01*
X150951609Y-109078484D01*
X150988601Y-109177667D01*
X150993585Y-109247358D01*
X150988601Y-109264331D01*
X150951609Y-109363514D01*
X150951608Y-109363516D01*
X150945201Y-109423116D01*
X150945201Y-109423123D01*
X150945200Y-109423135D01*
X150945200Y-111018870D01*
X150945201Y-111018876D01*
X150951609Y-111078484D01*
X150988601Y-111177667D01*
X150993585Y-111247358D01*
X150988601Y-111264331D01*
X150951609Y-111363514D01*
X150951608Y-111363516D01*
X150946965Y-111406709D01*
X150945201Y-111423123D01*
X150945200Y-111423135D01*
X150945200Y-113018870D01*
X150945201Y-113018876D01*
X150951608Y-113078483D01*
X151001902Y-113213328D01*
X151001906Y-113213335D01*
X151088152Y-113328544D01*
X151088155Y-113328547D01*
X151203364Y-113414793D01*
X151203371Y-113414797D01*
X151338217Y-113465091D01*
X151338216Y-113465091D01*
X151345144Y-113465835D01*
X151397827Y-113471500D01*
X153493572Y-113471499D01*
X153553183Y-113465091D01*
X153688031Y-113414796D01*
X153803246Y-113328546D01*
X153889496Y-113213331D01*
X153939791Y-113078483D01*
X153946200Y-113018873D01*
X153946199Y-111423128D01*
X153939791Y-111363517D01*
X153902796Y-111264330D01*
X153897813Y-111194641D01*
X153902795Y-111177671D01*
X153939791Y-111078483D01*
X153946200Y-111018873D01*
X153946199Y-109423128D01*
X153939791Y-109363517D01*
X153902796Y-109264330D01*
X153897813Y-109194641D01*
X153902797Y-109177668D01*
X153939791Y-109078483D01*
X153946200Y-109018873D01*
X153946200Y-109010600D01*
X153965885Y-108943561D01*
X154018689Y-108897806D01*
X154070200Y-108886600D01*
X154447313Y-108886600D01*
X154451057Y-108886713D01*
X154509780Y-108890265D01*
X154509780Y-108890264D01*
X154509783Y-108890265D01*
X154567657Y-108879659D01*
X154571349Y-108879098D01*
X154585532Y-108877375D01*
X154629759Y-108872006D01*
X154638240Y-108868789D01*
X154659855Y-108862763D01*
X154668773Y-108861130D01*
X154722465Y-108836964D01*
X154725851Y-108835562D01*
X154780892Y-108814689D01*
X154788350Y-108809540D01*
X154807906Y-108798511D01*
X154810931Y-108797149D01*
X154816169Y-108794792D01*
X154862502Y-108758491D01*
X154865467Y-108756309D01*
X154913916Y-108722868D01*
X154952958Y-108678797D01*
X154955477Y-108676122D01*
X157486681Y-106144919D01*
X157548005Y-106111434D01*
X157574363Y-106108600D01*
X157676551Y-106108600D01*
X157743590Y-106128285D01*
X157778126Y-106161477D01*
X157885201Y-106314395D01*
X157885206Y-106314402D01*
X158052297Y-106481493D01*
X158052303Y-106481498D01*
X158237858Y-106611425D01*
X158281483Y-106666002D01*
X158288677Y-106735500D01*
X158257154Y-106797855D01*
X158237858Y-106814575D01*
X158052297Y-106944505D01*
X157885206Y-107111596D01*
X157778127Y-107264523D01*
X157723550Y-107308148D01*
X157676552Y-107317400D01*
X157320087Y-107317400D01*
X157316343Y-107317287D01*
X157257620Y-107313735D01*
X157257613Y-107313735D01*
X157218658Y-107320873D01*
X157199753Y-107324337D01*
X157196064Y-107324899D01*
X157137641Y-107331993D01*
X157129157Y-107335211D01*
X157107553Y-107341233D01*
X157098634Y-107342867D01*
X157098624Y-107342871D01*
X157044978Y-107367014D01*
X157041520Y-107368446D01*
X156986507Y-107389311D01*
X156986506Y-107389311D01*
X156979037Y-107394467D01*
X156959505Y-107405483D01*
X156951230Y-107409207D01*
X156904914Y-107445492D01*
X156901900Y-107447710D01*
X156853484Y-107481131D01*
X156814466Y-107525172D01*
X156811899Y-107527898D01*
X154455398Y-109884399D01*
X154452672Y-109886966D01*
X154408631Y-109925984D01*
X154375210Y-109974400D01*
X154372992Y-109977414D01*
X154336707Y-110023730D01*
X154332983Y-110032005D01*
X154321967Y-110051537D01*
X154316811Y-110059006D01*
X154316811Y-110059007D01*
X154295946Y-110114020D01*
X154294514Y-110117478D01*
X154270371Y-110171124D01*
X154270367Y-110171134D01*
X154268733Y-110180053D01*
X154262711Y-110201657D01*
X154259493Y-110210141D01*
X154252399Y-110268564D01*
X154251837Y-110272253D01*
X154248373Y-110291158D01*
X154241235Y-110330113D01*
X154241235Y-110330117D01*
X154244787Y-110388842D01*
X154244900Y-110392586D01*
X154244900Y-113858089D01*
X154225215Y-113925128D01*
X154192024Y-113959664D01*
X154071356Y-114044156D01*
X153910454Y-114205058D01*
X153779932Y-114391465D01*
X153779931Y-114391467D01*
X153683761Y-114597702D01*
X153683758Y-114597711D01*
X153624866Y-114817502D01*
X153624864Y-114817513D01*
X153605032Y-115044198D01*
X153605032Y-115044201D01*
X153624864Y-115270886D01*
X153624866Y-115270897D01*
X153683758Y-115490688D01*
X153683761Y-115490697D01*
X153779931Y-115696932D01*
X153779932Y-115696934D01*
X153910454Y-115883341D01*
X154071358Y-116044245D01*
X154211458Y-116142343D01*
X154255083Y-116196919D01*
X154262277Y-116266418D01*
X154241911Y-116315039D01*
X154237135Y-116321859D01*
X154237134Y-116321861D01*
X154140961Y-116528102D01*
X154140958Y-116528111D01*
X154082066Y-116747902D01*
X154082064Y-116747913D01*
X154062232Y-116974598D01*
X154062232Y-116974601D01*
X154082064Y-117201286D01*
X154082066Y-117201297D01*
X154140958Y-117421088D01*
X154140960Y-117421092D01*
X154140961Y-117421096D01*
X154161513Y-117465169D01*
X154179711Y-117504195D01*
X154190203Y-117573273D01*
X154161683Y-117637057D01*
X154103207Y-117675296D01*
X154067329Y-117680600D01*
X146347562Y-117680600D01*
X146280523Y-117660915D01*
X146259881Y-117644281D01*
X146036688Y-117421088D01*
X145744684Y-117129083D01*
X145742134Y-117126374D01*
X145703116Y-117082332D01*
X145691737Y-117074478D01*
X145654694Y-117048907D01*
X145651678Y-117046688D01*
X145605372Y-117010410D01*
X145605370Y-117010409D01*
X145605369Y-117010408D01*
X145605365Y-117010406D01*
X145605363Y-117010405D01*
X145597097Y-117006684D01*
X145577557Y-116995663D01*
X145570091Y-116990510D01*
X145570092Y-116990510D01*
X145515077Y-116969645D01*
X145511617Y-116968212D01*
X145457975Y-116944070D01*
X145457976Y-116944070D01*
X145449047Y-116942434D01*
X145427437Y-116936409D01*
X145418961Y-116933194D01*
X145418956Y-116933193D01*
X145360537Y-116926099D01*
X145356836Y-116925536D01*
X145298986Y-116914935D01*
X145298979Y-116914935D01*
X145240257Y-116918487D01*
X145236513Y-116918600D01*
X140360956Y-116918600D01*
X140293917Y-116898915D01*
X140262002Y-116869327D01*
X140134796Y-116700878D01*
X139970379Y-116550993D01*
X139970377Y-116550991D01*
X139781221Y-116433871D01*
X139781215Y-116433869D01*
X139573757Y-116353499D01*
X139355060Y-116312617D01*
X139132574Y-116312617D01*
X138913877Y-116353499D01*
X138782681Y-116404324D01*
X138706418Y-116433869D01*
X138706412Y-116433871D01*
X138517256Y-116550991D01*
X138517254Y-116550993D01*
X138352837Y-116700878D01*
X138218760Y-116878425D01*
X138218755Y-116878433D01*
X138119592Y-117077578D01*
X138119586Y-117077593D01*
X138058702Y-117291579D01*
X138058701Y-117291581D01*
X138038174Y-117513116D01*
X138038174Y-117513117D01*
X138058701Y-117734652D01*
X138058702Y-117734654D01*
X138119586Y-117948640D01*
X138119592Y-117948655D01*
X138218755Y-118147800D01*
X138218760Y-118147808D01*
X138352837Y-118325355D01*
X138517254Y-118475240D01*
X138517256Y-118475242D01*
X138706412Y-118592362D01*
X138706413Y-118592362D01*
X138706416Y-118592364D01*
X138913877Y-118672735D01*
X139132574Y-118713617D01*
X139132576Y-118713617D01*
X139355058Y-118713617D01*
X139355060Y-118713617D01*
X139573757Y-118672735D01*
X139781218Y-118592364D01*
X139807507Y-118576086D01*
X139874865Y-118557530D01*
X139941565Y-118578337D01*
X139986427Y-118631902D01*
X139995208Y-118701217D01*
X139983784Y-118736784D01*
X139915645Y-118873624D01*
X139915637Y-118873644D01*
X139854753Y-119087630D01*
X139854752Y-119087632D01*
X139834225Y-119309167D01*
X139834225Y-119309168D01*
X139854752Y-119530703D01*
X139854753Y-119530705D01*
X139915637Y-119744691D01*
X139915643Y-119744706D01*
X140014806Y-119943851D01*
X140014811Y-119943859D01*
X140148888Y-120121406D01*
X140313305Y-120271291D01*
X140313307Y-120271293D01*
X140502463Y-120388413D01*
X140502464Y-120388413D01*
X140502467Y-120388415D01*
X140709928Y-120468786D01*
X140928625Y-120509668D01*
X140928627Y-120509668D01*
X141151109Y-120509668D01*
X141151111Y-120509668D01*
X141369808Y-120468786D01*
X141577269Y-120388415D01*
X141766430Y-120271292D01*
X141930849Y-120121404D01*
X142064926Y-119943857D01*
X142164097Y-119744696D01*
X142224983Y-119530704D01*
X142245511Y-119309168D01*
X142224983Y-119087632D01*
X142164097Y-118873640D01*
X142164092Y-118873629D01*
X142064929Y-118674484D01*
X142064924Y-118674476D01*
X141930847Y-118496929D01*
X141896301Y-118465437D01*
X141860019Y-118405726D01*
X141861780Y-118335879D01*
X141901023Y-118278071D01*
X141965290Y-118250656D01*
X141979839Y-118249800D01*
X144931437Y-118249800D01*
X144998476Y-118269485D01*
X145019118Y-118286119D01*
X145534289Y-118801289D01*
X145536856Y-118804015D01*
X145575884Y-118848068D01*
X145624298Y-118881485D01*
X145627308Y-118883700D01*
X145673629Y-118919992D01*
X145673630Y-118919992D01*
X145673631Y-118919993D01*
X145681899Y-118923714D01*
X145701448Y-118934739D01*
X145708908Y-118939889D01*
X145763910Y-118960748D01*
X145767360Y-118962176D01*
X145821027Y-118986331D01*
X145826730Y-118987375D01*
X145829945Y-118987965D01*
X145851568Y-118993992D01*
X145860041Y-118997206D01*
X145911210Y-119003418D01*
X145918445Y-119004297D01*
X145922131Y-119004857D01*
X145980017Y-119015465D01*
X145980018Y-119015464D01*
X145980019Y-119015465D01*
X146038748Y-119011913D01*
X146042492Y-119011800D01*
X154685037Y-119011800D01*
X154752076Y-119031485D01*
X154772718Y-119048119D01*
X157065897Y-121341298D01*
X157068464Y-121344024D01*
X157107484Y-121388068D01*
X157155897Y-121421485D01*
X157158913Y-121423704D01*
X157205231Y-121459992D01*
X157213494Y-121463711D01*
X157233047Y-121474739D01*
X157240506Y-121479888D01*
X157240507Y-121479888D01*
X157240508Y-121479889D01*
X157295532Y-121500756D01*
X157298970Y-121502181D01*
X157352627Y-121526330D01*
X157361544Y-121527964D01*
X157383167Y-121533992D01*
X157391641Y-121537206D01*
X157450050Y-121544298D01*
X157453730Y-121544857D01*
X157511616Y-121555465D01*
X157562668Y-121552377D01*
X157570342Y-121551913D01*
X157574086Y-121551800D01*
X157831241Y-121551800D01*
X157898280Y-121571485D01*
X157918922Y-121588118D01*
X158052299Y-121721495D01*
X158052302Y-121721497D01*
X158052303Y-121721498D01*
X158245865Y-121857032D01*
X158245867Y-121857033D01*
X158245870Y-121857035D01*
X158460037Y-121956903D01*
X158688292Y-122018063D01*
X158876618Y-122034539D01*
X158923699Y-122038659D01*
X158923700Y-122038659D01*
X158923701Y-122038659D01*
X158962934Y-122035226D01*
X159159108Y-122018063D01*
X159387363Y-121956903D01*
X159601530Y-121857035D01*
X159795101Y-121721495D01*
X159962195Y-121554401D01*
X160097735Y-121360830D01*
X160197603Y-121146663D01*
X160258763Y-120918408D01*
X160279359Y-120683000D01*
X160258763Y-120447592D01*
X160206693Y-120253263D01*
X160197605Y-120219344D01*
X160197604Y-120219343D01*
X160197603Y-120219337D01*
X160097735Y-120005171D01*
X160081110Y-119981427D01*
X159962194Y-119811597D01*
X159795102Y-119644506D01*
X159795096Y-119644501D01*
X159609542Y-119514575D01*
X159565917Y-119459998D01*
X159558723Y-119390500D01*
X159590246Y-119328145D01*
X159609542Y-119311425D01*
X159631726Y-119295891D01*
X159795101Y-119181495D01*
X159962195Y-119014401D01*
X160097735Y-118820830D01*
X160197603Y-118606663D01*
X160258763Y-118378408D01*
X160279359Y-118143000D01*
X160258763Y-117907592D01*
X160212326Y-117734285D01*
X160197605Y-117679344D01*
X160197604Y-117679343D01*
X160197603Y-117679337D01*
X160097735Y-117465171D01*
X160066875Y-117421097D01*
X159962194Y-117271597D01*
X159795102Y-117104506D01*
X159795096Y-117104501D01*
X159609542Y-116974575D01*
X159565917Y-116919998D01*
X159558723Y-116850500D01*
X159590246Y-116788145D01*
X159609542Y-116771425D01*
X159710293Y-116700878D01*
X159795101Y-116641495D01*
X159962195Y-116474401D01*
X160097735Y-116280830D01*
X160197603Y-116066663D01*
X160258763Y-115838408D01*
X160279359Y-115603000D01*
X160258763Y-115367592D01*
X160197603Y-115139337D01*
X160097735Y-114925171D01*
X160055273Y-114864528D01*
X159962194Y-114731597D01*
X159795102Y-114564506D01*
X159795096Y-114564501D01*
X159609542Y-114434575D01*
X159565917Y-114379998D01*
X159558723Y-114310500D01*
X159590246Y-114248145D01*
X159609542Y-114231425D01*
X159641372Y-114209137D01*
X159795101Y-114101495D01*
X159962195Y-113934401D01*
X160097735Y-113740830D01*
X160197603Y-113526663D01*
X160258763Y-113298408D01*
X160279359Y-113063000D01*
X160258763Y-112827592D01*
X160197603Y-112599337D01*
X160097735Y-112385171D01*
X159982783Y-112221001D01*
X159962194Y-112191597D01*
X159795102Y-112024506D01*
X159795096Y-112024501D01*
X159609542Y-111894575D01*
X159565917Y-111839998D01*
X159558723Y-111770500D01*
X159590246Y-111708145D01*
X159609542Y-111691425D01*
X159673526Y-111646623D01*
X159795101Y-111561495D01*
X159962195Y-111394401D01*
X160097735Y-111200830D01*
X160197603Y-110986663D01*
X160258763Y-110758408D01*
X160279359Y-110523000D01*
X160258763Y-110287592D01*
X160199541Y-110066568D01*
X160197605Y-110059344D01*
X160197604Y-110059343D01*
X160197603Y-110059337D01*
X160097735Y-109845171D01*
X160048253Y-109774502D01*
X159962194Y-109651597D01*
X159795102Y-109484506D01*
X159795096Y-109484501D01*
X159609542Y-109354575D01*
X159565917Y-109299998D01*
X159558723Y-109230500D01*
X159590246Y-109168145D01*
X159609542Y-109151425D01*
X159713712Y-109078484D01*
X159795101Y-109021495D01*
X159962195Y-108854401D01*
X160097735Y-108660830D01*
X160197603Y-108446663D01*
X160258763Y-108218408D01*
X160279359Y-107983000D01*
X160258763Y-107747592D01*
X160206507Y-107552566D01*
X160197605Y-107519344D01*
X160197604Y-107519343D01*
X160197603Y-107519337D01*
X160097735Y-107305171D01*
X160054447Y-107243348D01*
X159962194Y-107111597D01*
X159795102Y-106944506D01*
X159795096Y-106944501D01*
X159609542Y-106814575D01*
X159565917Y-106759998D01*
X159558723Y-106690500D01*
X159590246Y-106628145D01*
X159609542Y-106611425D01*
X159639266Y-106590612D01*
X159795101Y-106481495D01*
X159962195Y-106314401D01*
X160097735Y-106120830D01*
X160197603Y-105906663D01*
X160258763Y-105678408D01*
X160279359Y-105443000D01*
X160277620Y-105423129D01*
X160272405Y-105363514D01*
X160258763Y-105207592D01*
X160199541Y-104986568D01*
X160197605Y-104979344D01*
X160197604Y-104979343D01*
X160197603Y-104979337D01*
X160097735Y-104765171D01*
X160092260Y-104757351D01*
X159962194Y-104571597D01*
X159795102Y-104404506D01*
X159795096Y-104404501D01*
X159609542Y-104274575D01*
X159565917Y-104219998D01*
X159558723Y-104150500D01*
X159590246Y-104088145D01*
X159609542Y-104071425D01*
X159681248Y-104021216D01*
X159795101Y-103941495D01*
X159962195Y-103774401D01*
X160097735Y-103580830D01*
X160197603Y-103366663D01*
X160258763Y-103138408D01*
X160266446Y-103050579D01*
X160291898Y-102985512D01*
X160302285Y-102973714D01*
X161969622Y-101306377D01*
X161972297Y-101303858D01*
X162016368Y-101264816D01*
X162049809Y-101216367D01*
X162051991Y-101213402D01*
X162088292Y-101167069D01*
X162092011Y-101158806D01*
X162103040Y-101139251D01*
X162103077Y-101139195D01*
X162108189Y-101131792D01*
X162129062Y-101076751D01*
X162130464Y-101073365D01*
X162154630Y-101019673D01*
X162156263Y-101010755D01*
X162162289Y-100989140D01*
X162165506Y-100980659D01*
X162172598Y-100922249D01*
X162173161Y-100918545D01*
X162183765Y-100860683D01*
X162181940Y-100830517D01*
X162180213Y-100801956D01*
X162180100Y-100798212D01*
X162180100Y-98048203D01*
X162180213Y-98044459D01*
X162183766Y-97985717D01*
X162173159Y-97927836D01*
X162172595Y-97924131D01*
X162169454Y-97898258D01*
X162165506Y-97865741D01*
X162162292Y-97857267D01*
X162156265Y-97835645D01*
X162154631Y-97826729D01*
X162130481Y-97773069D01*
X162129047Y-97769608D01*
X162118994Y-97743101D01*
X162108189Y-97714608D01*
X162103039Y-97707148D01*
X162092013Y-97687597D01*
X162088292Y-97679329D01*
X162052000Y-97633008D01*
X162049779Y-97629989D01*
X162033795Y-97606832D01*
X162016368Y-97581584D01*
X161972315Y-97542556D01*
X161969589Y-97539989D01*
X161149036Y-96719436D01*
X160324284Y-95894683D01*
X160321734Y-95891974D01*
X160282716Y-95847932D01*
X160271337Y-95840078D01*
X160234294Y-95814507D01*
X160231278Y-95812288D01*
X160184972Y-95776010D01*
X160184970Y-95776009D01*
X160184969Y-95776008D01*
X160184965Y-95776006D01*
X160184963Y-95776005D01*
X160176697Y-95772284D01*
X160157157Y-95761263D01*
X160149691Y-95756110D01*
X160149692Y-95756110D01*
X160094677Y-95735245D01*
X160091217Y-95733812D01*
X160037575Y-95709670D01*
X160037576Y-95709670D01*
X160028647Y-95708034D01*
X160007037Y-95702009D01*
X159998561Y-95698794D01*
X159998556Y-95698793D01*
X159940137Y-95691699D01*
X159936436Y-95691136D01*
X159878586Y-95680535D01*
X159878579Y-95680535D01*
X159819857Y-95684087D01*
X159816113Y-95684200D01*
X158563218Y-95684200D01*
X158496179Y-95664515D01*
X158450424Y-95611711D01*
X158440480Y-95542553D01*
X158469505Y-95478997D01*
X158505414Y-95451892D01*
X158504943Y-95451076D01*
X158509625Y-95448372D01*
X158509634Y-95448368D01*
X158696039Y-95317847D01*
X158856947Y-95156939D01*
X158987468Y-94970534D01*
X159083639Y-94764296D01*
X159142535Y-94544492D01*
X159162368Y-94317800D01*
X159142535Y-94091108D01*
X159088935Y-93891070D01*
X159083641Y-93871311D01*
X159083638Y-93871302D01*
X159079006Y-93861368D01*
X159031738Y-93760002D01*
X159664723Y-93760002D01*
X159683793Y-93977975D01*
X159683793Y-93977979D01*
X159740422Y-94189322D01*
X159740424Y-94189326D01*
X159740425Y-94189330D01*
X159775245Y-94264002D01*
X159832897Y-94387638D01*
X159857998Y-94423486D01*
X159958402Y-94566877D01*
X160113123Y-94721598D01*
X160292361Y-94847102D01*
X160490670Y-94939575D01*
X160490675Y-94939576D01*
X160490679Y-94939578D01*
X160515749Y-94946295D01*
X160525775Y-94948981D01*
X160528882Y-94949902D01*
X160532944Y-94951221D01*
X160532948Y-94951223D01*
X160540977Y-94953054D01*
X160702023Y-94996207D01*
X160743207Y-94999810D01*
X160751594Y-95001128D01*
X160788667Y-95009591D01*
X160820835Y-95006601D01*
X160920000Y-95015277D01*
X160965291Y-95011314D01*
X160973461Y-95011142D01*
X160976194Y-95011265D01*
X160976196Y-95011264D01*
X160981749Y-95011515D01*
X160981763Y-95011514D01*
X161011648Y-95012856D01*
X161041479Y-95004649D01*
X161137977Y-94996207D01*
X161185915Y-94983361D01*
X161193643Y-94981810D01*
X161195356Y-94981577D01*
X161198713Y-94981123D01*
X161198715Y-94981122D01*
X161200819Y-94980837D01*
X161200840Y-94980834D01*
X161231609Y-94976666D01*
X161258282Y-94963971D01*
X161314234Y-94948979D01*
X161349320Y-94939578D01*
X161349323Y-94939576D01*
X161349330Y-94939575D01*
X161398182Y-94916794D01*
X161405193Y-94914032D01*
X161412274Y-94911732D01*
X161412277Y-94911730D01*
X161414252Y-94911089D01*
X161414263Y-94911085D01*
X161441653Y-94902185D01*
X161464517Y-94885862D01*
X161547639Y-94847102D01*
X161595328Y-94813709D01*
X161601502Y-94809904D01*
X161610013Y-94805325D01*
X161610015Y-94805322D01*
X161612472Y-94804001D01*
X161614913Y-94802688D01*
X161614919Y-94802684D01*
X161635152Y-94791796D01*
X161653773Y-94772785D01*
X161726877Y-94721598D01*
X161771182Y-94677292D01*
X161776336Y-94672685D01*
X161785574Y-94665319D01*
X161785578Y-94665313D01*
X161789468Y-94662212D01*
X161790866Y-94661640D01*
X161794299Y-94658359D01*
X161806039Y-94648996D01*
X161820180Y-94628294D01*
X161881598Y-94566877D01*
X161920146Y-94511824D01*
X161924206Y-94506641D01*
X161932456Y-94497198D01*
X161935022Y-94495564D01*
X161940654Y-94487813D01*
X161948945Y-94478322D01*
X161958596Y-94456912D01*
X162007102Y-94387639D01*
X162037462Y-94322531D01*
X162040416Y-94316960D01*
X162041646Y-94314899D01*
X162044777Y-94309659D01*
X162048076Y-94306606D01*
X162054205Y-94293881D01*
X162059395Y-94285194D01*
X162064752Y-94264006D01*
X162099575Y-94189330D01*
X162100105Y-94187354D01*
X162101181Y-94183333D01*
X162119408Y-94115310D01*
X162121239Y-94109604D01*
X162122879Y-94105233D01*
X162126402Y-94100547D01*
X162131308Y-94082772D01*
X162133961Y-94075702D01*
X162135412Y-94055583D01*
X162156205Y-93977983D01*
X162156206Y-93977979D01*
X162156207Y-93977977D01*
X162163316Y-93896708D01*
X162164073Y-93891070D01*
X162167484Y-93872276D01*
X162167484Y-93872274D01*
X162169851Y-93859232D01*
X162168067Y-93846234D01*
X162168138Y-93843047D01*
X162168352Y-93839149D01*
X162175277Y-93760000D01*
X162168356Y-93680900D01*
X162168140Y-93676963D01*
X162168113Y-93675827D01*
X162168070Y-93673884D01*
X162170554Y-93664641D01*
X162164075Y-93628940D01*
X162163316Y-93623288D01*
X162156207Y-93542023D01*
X162135411Y-93464411D01*
X162135775Y-93449123D01*
X162131308Y-93437222D01*
X162127344Y-93422861D01*
X162122879Y-93414764D01*
X162121244Y-93410409D01*
X162119405Y-93404677D01*
X162099575Y-93330670D01*
X162064752Y-93255994D01*
X162062263Y-93239605D01*
X162054204Y-93226117D01*
X162049268Y-93215869D01*
X162044783Y-93210348D01*
X162040418Y-93203043D01*
X162037455Y-93197455D01*
X162007102Y-93132362D01*
X161958597Y-93063089D01*
X161952903Y-93046205D01*
X161940655Y-93032186D01*
X161936132Y-93025961D01*
X161932453Y-93022797D01*
X161924223Y-93013377D01*
X161920124Y-93008143D01*
X161881599Y-92953124D01*
X161881596Y-92953121D01*
X161820180Y-92891705D01*
X161811061Y-92875005D01*
X161794299Y-92861638D01*
X161791557Y-92859017D01*
X161789468Y-92857786D01*
X161776353Y-92847327D01*
X161771166Y-92842691D01*
X161726878Y-92798403D01*
X161726869Y-92798396D01*
X161653772Y-92747212D01*
X161641162Y-92731436D01*
X161601505Y-92710096D01*
X161595318Y-92706283D01*
X161547643Y-92672900D01*
X161464518Y-92634138D01*
X161448508Y-92620040D01*
X161405216Y-92605974D01*
X161398167Y-92603197D01*
X161349332Y-92580426D01*
X161349330Y-92580425D01*
X161333693Y-92576235D01*
X161258273Y-92556025D01*
X161239119Y-92544349D01*
X161193640Y-92538188D01*
X161185909Y-92536636D01*
X161137985Y-92523794D01*
X161137971Y-92523792D01*
X161041472Y-92515350D01*
X161019575Y-92506784D01*
X160973463Y-92508856D01*
X160965271Y-92508682D01*
X160920006Y-92504723D01*
X160919997Y-92504723D01*
X160820820Y-92513399D01*
X160796749Y-92508561D01*
X160751593Y-92518870D01*
X160743191Y-92520190D01*
X160702020Y-92523793D01*
X160603179Y-92550277D01*
X160577623Y-92549668D01*
X160539030Y-92566169D01*
X160522381Y-92571927D01*
X160490667Y-92580425D01*
X160292361Y-92672898D01*
X160292357Y-92672900D01*
X160113121Y-92798402D01*
X159958402Y-92953121D01*
X159832900Y-93132357D01*
X159832898Y-93132361D01*
X159740426Y-93330668D01*
X159740422Y-93330677D01*
X159683793Y-93542020D01*
X159683793Y-93542024D01*
X159664723Y-93759997D01*
X159664723Y-93760002D01*
X159031738Y-93760002D01*
X158987468Y-93665066D01*
X158856947Y-93478661D01*
X158856945Y-93478658D01*
X158696041Y-93317754D01*
X158509634Y-93187232D01*
X158509632Y-93187231D01*
X158303397Y-93091061D01*
X158303388Y-93091058D01*
X158083597Y-93032166D01*
X158083593Y-93032165D01*
X158083592Y-93032165D01*
X158083591Y-93032164D01*
X158083586Y-93032164D01*
X157856902Y-93012332D01*
X157856898Y-93012332D01*
X157630213Y-93032164D01*
X157630202Y-93032166D01*
X157410411Y-93091058D01*
X157410402Y-93091061D01*
X157204167Y-93187231D01*
X157204165Y-93187232D01*
X157017758Y-93317754D01*
X156856854Y-93478658D01*
X156726332Y-93665065D01*
X156726331Y-93665067D01*
X156630161Y-93871302D01*
X156630158Y-93871311D01*
X156571266Y-94091102D01*
X156571264Y-94091112D01*
X156564284Y-94170888D01*
X156538830Y-94235957D01*
X156528437Y-94247760D01*
X153794998Y-96981199D01*
X153792272Y-96983766D01*
X153748231Y-97022784D01*
X153714810Y-97071200D01*
X153712592Y-97074214D01*
X153676307Y-97120530D01*
X153672583Y-97128805D01*
X153661567Y-97148337D01*
X153656411Y-97155806D01*
X153656411Y-97155807D01*
X153635546Y-97210820D01*
X153634114Y-97214278D01*
X153609971Y-97267924D01*
X153609967Y-97267934D01*
X153608333Y-97276853D01*
X153602311Y-97298457D01*
X153599093Y-97306941D01*
X153591999Y-97365364D01*
X153591436Y-97369065D01*
X153580835Y-97426913D01*
X153580835Y-97426917D01*
X153584387Y-97485642D01*
X153584500Y-97489386D01*
X153584500Y-100846500D01*
X153564815Y-100913539D01*
X153512011Y-100959294D01*
X153460500Y-100970500D01*
X151397829Y-100970500D01*
X151397823Y-100970501D01*
X151338214Y-100976909D01*
X151273032Y-101001220D01*
X151203340Y-101006204D01*
X151142017Y-100972718D01*
X151108533Y-100911394D01*
X151105700Y-100885038D01*
X151105700Y-100012030D01*
X151125385Y-99944991D01*
X151177296Y-99899648D01*
X151245234Y-99867968D01*
X151431639Y-99737447D01*
X151592547Y-99576539D01*
X151723068Y-99390134D01*
X151819239Y-99183896D01*
X151878135Y-98964092D01*
X151897968Y-98737400D01*
X151878135Y-98510708D01*
X151819239Y-98290904D01*
X151723068Y-98084666D01*
X151613255Y-97927836D01*
X151592545Y-97898258D01*
X151431641Y-97737354D01*
X151245234Y-97606832D01*
X151245232Y-97606831D01*
X151038997Y-97510661D01*
X151038988Y-97510658D01*
X150819197Y-97451766D01*
X150819193Y-97451765D01*
X150819192Y-97451765D01*
X150819191Y-97451764D01*
X150819186Y-97451764D01*
X150592502Y-97431932D01*
X150592498Y-97431932D01*
X150365813Y-97451764D01*
X150365802Y-97451766D01*
X150146011Y-97510658D01*
X150146002Y-97510662D01*
X150062905Y-97549411D01*
X149993827Y-97559903D01*
X149930043Y-97531383D01*
X149891804Y-97472907D01*
X149886500Y-97437029D01*
X149886500Y-96778185D01*
X149886613Y-96774441D01*
X149890165Y-96715716D01*
X149879557Y-96657830D01*
X149878998Y-96654150D01*
X149878421Y-96649400D01*
X149871906Y-96595741D01*
X149868692Y-96587266D01*
X149862664Y-96565644D01*
X149861030Y-96556727D01*
X149836881Y-96503070D01*
X149835453Y-96499623D01*
X149814588Y-96444606D01*
X149809439Y-96437147D01*
X149798409Y-96417591D01*
X149794692Y-96409331D01*
X149758404Y-96363013D01*
X149756185Y-96359997D01*
X149722768Y-96311584D01*
X149678724Y-96272564D01*
X149675998Y-96269997D01*
X148562940Y-95156939D01*
X147268677Y-93862676D01*
X147266126Y-93859965D01*
X147251138Y-93843047D01*
X147227116Y-93815932D01*
X147215737Y-93808078D01*
X147178694Y-93782507D01*
X147175678Y-93780288D01*
X147129372Y-93744010D01*
X147129370Y-93744009D01*
X147129369Y-93744008D01*
X147129365Y-93744006D01*
X147129363Y-93744005D01*
X147121097Y-93740284D01*
X147101557Y-93729263D01*
X147094091Y-93724110D01*
X147094092Y-93724110D01*
X147039077Y-93703245D01*
X147035617Y-93701812D01*
X146981975Y-93677670D01*
X146981976Y-93677670D01*
X146973047Y-93676034D01*
X146951437Y-93670009D01*
X146942961Y-93666794D01*
X146942956Y-93666793D01*
X146884537Y-93659699D01*
X146880836Y-93659136D01*
X146822986Y-93648535D01*
X146822979Y-93648535D01*
X146764257Y-93652087D01*
X146760513Y-93652200D01*
X144260210Y-93652200D01*
X144193171Y-93632515D01*
X144158635Y-93599323D01*
X144074145Y-93478658D01*
X143913241Y-93317754D01*
X143726834Y-93187232D01*
X143726832Y-93187231D01*
X143520597Y-93091061D01*
X143520588Y-93091058D01*
X143300797Y-93032166D01*
X143300793Y-93032165D01*
X143300792Y-93032165D01*
X143300791Y-93032164D01*
X143300786Y-93032164D01*
X143074102Y-93012332D01*
X143074098Y-93012332D01*
X142847413Y-93032164D01*
X142847402Y-93032166D01*
X142627611Y-93091058D01*
X142627602Y-93091061D01*
X142421367Y-93187231D01*
X142421365Y-93187232D01*
X142234958Y-93317754D01*
X142074054Y-93478658D01*
X141943532Y-93665065D01*
X141943531Y-93665067D01*
X141847361Y-93871302D01*
X141847358Y-93871311D01*
X141788466Y-94091102D01*
X141788464Y-94091113D01*
X141768632Y-94317798D01*
X141768632Y-94317801D01*
X141788464Y-94544486D01*
X141788466Y-94544497D01*
X141847358Y-94764288D01*
X141847361Y-94764297D01*
X141943531Y-94970532D01*
X141943532Y-94970534D01*
X142074054Y-95156941D01*
X142234958Y-95317845D01*
X142234961Y-95317847D01*
X142421366Y-95448368D01*
X142627604Y-95544539D01*
X142847408Y-95603435D01*
X143009330Y-95617601D01*
X143074098Y-95623268D01*
X143074100Y-95623268D01*
X143074102Y-95623268D01*
X143130773Y-95618309D01*
X143300792Y-95603435D01*
X143520596Y-95544539D01*
X143726834Y-95448368D01*
X143913239Y-95317847D01*
X144074147Y-95156939D01*
X144158633Y-95036277D01*
X144213212Y-94992652D01*
X144260210Y-94983400D01*
X146455437Y-94983400D01*
X146522476Y-95003085D01*
X146543118Y-95019719D01*
X148181512Y-96658113D01*
X148214997Y-96719436D01*
X148210013Y-96789128D01*
X148168141Y-96845061D01*
X148102677Y-96869478D01*
X148061738Y-96865569D01*
X147974397Y-96842166D01*
X147974393Y-96842165D01*
X147974392Y-96842165D01*
X147974391Y-96842164D01*
X147974386Y-96842164D01*
X147747702Y-96822332D01*
X147747699Y-96822332D01*
X147521013Y-96842164D01*
X147521009Y-96842164D01*
X147521008Y-96842165D01*
X147521003Y-96842166D01*
X147521000Y-96842167D01*
X147501505Y-96847390D01*
X147431655Y-96845724D01*
X147386648Y-96816391D01*
X147385130Y-96818106D01*
X147379519Y-96813135D01*
X147379516Y-96813132D01*
X147368137Y-96805278D01*
X147331094Y-96779707D01*
X147328078Y-96777488D01*
X147281772Y-96741210D01*
X147281770Y-96741209D01*
X147281769Y-96741208D01*
X147281765Y-96741206D01*
X147281763Y-96741205D01*
X147273497Y-96737484D01*
X147253957Y-96726463D01*
X147246491Y-96721310D01*
X147246492Y-96721310D01*
X147191477Y-96700445D01*
X147188017Y-96699012D01*
X147134375Y-96674870D01*
X147134376Y-96674870D01*
X147125447Y-96673234D01*
X147103837Y-96667209D01*
X147095361Y-96663994D01*
X147095356Y-96663993D01*
X147036937Y-96656899D01*
X147033236Y-96656336D01*
X146975386Y-96645735D01*
X146975379Y-96645735D01*
X146916657Y-96649287D01*
X146912913Y-96649400D01*
X139997563Y-96649400D01*
X139930524Y-96629715D01*
X139909882Y-96613081D01*
X139566798Y-96269997D01*
X139191477Y-95894676D01*
X139188926Y-95891965D01*
X139149916Y-95847932D01*
X139138537Y-95840078D01*
X139101494Y-95814507D01*
X139098478Y-95812288D01*
X139052172Y-95776010D01*
X139052170Y-95776009D01*
X139052169Y-95776008D01*
X139052165Y-95776006D01*
X139052163Y-95776005D01*
X139043897Y-95772284D01*
X139024357Y-95761263D01*
X139016891Y-95756110D01*
X139016892Y-95756110D01*
X138961877Y-95735245D01*
X138958417Y-95733812D01*
X138904775Y-95709670D01*
X138904776Y-95709670D01*
X138895847Y-95708034D01*
X138874237Y-95702009D01*
X138865761Y-95698794D01*
X138865756Y-95698793D01*
X138807337Y-95691699D01*
X138803636Y-95691136D01*
X138745786Y-95680535D01*
X138745779Y-95680535D01*
X138687057Y-95684087D01*
X138683313Y-95684200D01*
X130040486Y-95684200D01*
X130036742Y-95684087D01*
X129978019Y-95680535D01*
X129978012Y-95680535D01*
X129938852Y-95687711D01*
X129920151Y-95691137D01*
X129916462Y-95691699D01*
X129858040Y-95698794D01*
X129849557Y-95702011D01*
X129827953Y-95708033D01*
X129819034Y-95709667D01*
X129819024Y-95709671D01*
X129765378Y-95733814D01*
X129761920Y-95735246D01*
X129706907Y-95756111D01*
X129706906Y-95756111D01*
X129699437Y-95761267D01*
X129679905Y-95772283D01*
X129671630Y-95776007D01*
X129625314Y-95812292D01*
X129622300Y-95814510D01*
X129573884Y-95847931D01*
X129534866Y-95891972D01*
X129532299Y-95894698D01*
X125042198Y-100384799D01*
X125039472Y-100387366D01*
X124995431Y-100426384D01*
X124962010Y-100474800D01*
X124959792Y-100477814D01*
X124923507Y-100524130D01*
X124919783Y-100532405D01*
X124908767Y-100551937D01*
X124903611Y-100559406D01*
X124903611Y-100559407D01*
X124882746Y-100614420D01*
X124881314Y-100617878D01*
X124857171Y-100671524D01*
X124857167Y-100671534D01*
X124855533Y-100680453D01*
X124849511Y-100702057D01*
X124846293Y-100710541D01*
X124839199Y-100768964D01*
X124838636Y-100772665D01*
X124828035Y-100830513D01*
X124828035Y-100830517D01*
X124831587Y-100889242D01*
X124831700Y-100892986D01*
X124831700Y-115530212D01*
X124831587Y-115533956D01*
X124828035Y-115592679D01*
X124828035Y-115592683D01*
X121920500Y-115592683D01*
X121920500Y-93761622D01*
X121920542Y-93760002D01*
X123664723Y-93760002D01*
X123683793Y-93977975D01*
X123683793Y-93977979D01*
X123740422Y-94189322D01*
X123740424Y-94189326D01*
X123740425Y-94189330D01*
X123775245Y-94264002D01*
X123832897Y-94387638D01*
X123857998Y-94423486D01*
X123958402Y-94566877D01*
X124113123Y-94721598D01*
X124292361Y-94847102D01*
X124490670Y-94939575D01*
X124490675Y-94939576D01*
X124490679Y-94939578D01*
X124515749Y-94946295D01*
X124525775Y-94948981D01*
X124528882Y-94949902D01*
X124532944Y-94951221D01*
X124532948Y-94951223D01*
X124540977Y-94953054D01*
X124702023Y-94996207D01*
X124743207Y-94999810D01*
X124751594Y-95001128D01*
X124788667Y-95009591D01*
X124820835Y-95006601D01*
X124920000Y-95015277D01*
X124965291Y-95011314D01*
X124973461Y-95011142D01*
X124976194Y-95011265D01*
X124976196Y-95011264D01*
X124981749Y-95011515D01*
X124981763Y-95011514D01*
X125011648Y-95012856D01*
X125041479Y-95004649D01*
X125137977Y-94996207D01*
X125185915Y-94983361D01*
X125193643Y-94981810D01*
X125195356Y-94981577D01*
X125198713Y-94981123D01*
X125198715Y-94981122D01*
X125200819Y-94980837D01*
X125200840Y-94980834D01*
X125231609Y-94976666D01*
X125258282Y-94963971D01*
X125314234Y-94948979D01*
X125349320Y-94939578D01*
X125349323Y-94939576D01*
X125349330Y-94939575D01*
X125398182Y-94916794D01*
X125405193Y-94914032D01*
X125412274Y-94911732D01*
X125412277Y-94911730D01*
X125414252Y-94911089D01*
X125414263Y-94911085D01*
X125441653Y-94902185D01*
X125464517Y-94885862D01*
X125547639Y-94847102D01*
X125595328Y-94813709D01*
X125601502Y-94809904D01*
X125610013Y-94805325D01*
X125610015Y-94805322D01*
X125612472Y-94804001D01*
X125614913Y-94802688D01*
X125614919Y-94802684D01*
X125635152Y-94791796D01*
X125653773Y-94772785D01*
X125726877Y-94721598D01*
X125771182Y-94677292D01*
X125776336Y-94672685D01*
X125785574Y-94665319D01*
X125785578Y-94665313D01*
X125789468Y-94662212D01*
X125790866Y-94661640D01*
X125794299Y-94658359D01*
X125806039Y-94648996D01*
X125820180Y-94628294D01*
X125881598Y-94566877D01*
X125920146Y-94511824D01*
X125924206Y-94506641D01*
X125932456Y-94497198D01*
X125935022Y-94495564D01*
X125940654Y-94487813D01*
X125948945Y-94478322D01*
X125958596Y-94456912D01*
X126007102Y-94387639D01*
X126037462Y-94322531D01*
X126040416Y-94316960D01*
X126041646Y-94314899D01*
X126044777Y-94309659D01*
X126048076Y-94306606D01*
X126054205Y-94293881D01*
X126059395Y-94285194D01*
X126064752Y-94264006D01*
X126099575Y-94189330D01*
X126100105Y-94187354D01*
X126101181Y-94183333D01*
X126119408Y-94115310D01*
X126121239Y-94109604D01*
X126122879Y-94105233D01*
X126126402Y-94100547D01*
X126131308Y-94082772D01*
X126133961Y-94075702D01*
X126135412Y-94055583D01*
X126156205Y-93977983D01*
X126156206Y-93977979D01*
X126156207Y-93977977D01*
X126163316Y-93896708D01*
X126164073Y-93891070D01*
X126167484Y-93872276D01*
X126167484Y-93872274D01*
X126169851Y-93859232D01*
X126168067Y-93846234D01*
X126168138Y-93843047D01*
X126168352Y-93839149D01*
X126175277Y-93760000D01*
X126168356Y-93680900D01*
X126168140Y-93676963D01*
X126168113Y-93675827D01*
X126168070Y-93673884D01*
X126170554Y-93664641D01*
X126164075Y-93628940D01*
X126163316Y-93623288D01*
X126156207Y-93542023D01*
X126135411Y-93464411D01*
X126135775Y-93449123D01*
X126131308Y-93437222D01*
X126127344Y-93422861D01*
X126122879Y-93414764D01*
X126121244Y-93410409D01*
X126119405Y-93404677D01*
X126099575Y-93330670D01*
X126064752Y-93255994D01*
X126062263Y-93239605D01*
X126054204Y-93226117D01*
X126049268Y-93215869D01*
X126044783Y-93210348D01*
X126040418Y-93203043D01*
X126037455Y-93197455D01*
X126007102Y-93132362D01*
X125958597Y-93063089D01*
X125952903Y-93046205D01*
X125940655Y-93032186D01*
X125936132Y-93025961D01*
X125932453Y-93022797D01*
X125924223Y-93013377D01*
X125920124Y-93008143D01*
X125881599Y-92953124D01*
X125881596Y-92953121D01*
X125820180Y-92891705D01*
X125811061Y-92875005D01*
X125794299Y-92861638D01*
X125791557Y-92859017D01*
X125789468Y-92857786D01*
X125776353Y-92847327D01*
X125771166Y-92842691D01*
X125726878Y-92798403D01*
X125726869Y-92798396D01*
X125653772Y-92747212D01*
X125641162Y-92731436D01*
X125601505Y-92710096D01*
X125595318Y-92706283D01*
X125547643Y-92672900D01*
X125464518Y-92634138D01*
X125448508Y-92620040D01*
X125405216Y-92605974D01*
X125398167Y-92603197D01*
X125349332Y-92580426D01*
X125349330Y-92580425D01*
X125333693Y-92576235D01*
X125258273Y-92556025D01*
X125239119Y-92544349D01*
X125193640Y-92538188D01*
X125185909Y-92536636D01*
X125137985Y-92523794D01*
X125137971Y-92523792D01*
X125041472Y-92515350D01*
X125019575Y-92506784D01*
X124973463Y-92508856D01*
X124965271Y-92508682D01*
X124920006Y-92504723D01*
X124919997Y-92504723D01*
X124820820Y-92513399D01*
X124796749Y-92508561D01*
X124751593Y-92518870D01*
X124743191Y-92520190D01*
X124702020Y-92523793D01*
X124603179Y-92550277D01*
X124577623Y-92549668D01*
X124539030Y-92566169D01*
X124522381Y-92571927D01*
X124490667Y-92580425D01*
X124292361Y-92672898D01*
X124292357Y-92672900D01*
X124113121Y-92798402D01*
X123958402Y-92953121D01*
X123832900Y-93132357D01*
X123832898Y-93132361D01*
X123740426Y-93330668D01*
X123740422Y-93330677D01*
X123683793Y-93542020D01*
X123683793Y-93542024D01*
X123664723Y-93759997D01*
X123664723Y-93760002D01*
X121920542Y-93760002D01*
X121920585Y-93758376D01*
X121923509Y-93702582D01*
X121927497Y-93626486D01*
X121937803Y-93442968D01*
X121938464Y-93436791D01*
X121962611Y-93284331D01*
X121967426Y-93255995D01*
X121990227Y-93121796D01*
X121991451Y-93116196D01*
X122032425Y-92963279D01*
X122077083Y-92808268D01*
X122078764Y-92803254D01*
X122136127Y-92653815D01*
X122197366Y-92505972D01*
X122199379Y-92501606D01*
X122272511Y-92358078D01*
X122279688Y-92345090D01*
X122349655Y-92218494D01*
X122351867Y-92214808D01*
X122439980Y-92079127D01*
X122454130Y-92059182D01*
X122532154Y-91949220D01*
X122534486Y-91946143D01*
X122635655Y-91821209D01*
X122637537Y-91818998D01*
X122742773Y-91701239D01*
X122745092Y-91698787D01*
X122858787Y-91585092D01*
X122861239Y-91582773D01*
X122978998Y-91477537D01*
X122981209Y-91475655D01*
X123106143Y-91374486D01*
X123109220Y-91372154D01*
X123219182Y-91294130D01*
X123239127Y-91279980D01*
X123256076Y-91268973D01*
X123374808Y-91191867D01*
X123378494Y-91189655D01*
X123518078Y-91112511D01*
X123539003Y-91101849D01*
X123661606Y-91039379D01*
X123665972Y-91037366D01*
X123813815Y-90976127D01*
X123963254Y-90918764D01*
X123968268Y-90917083D01*
X124123279Y-90872425D01*
X124276196Y-90831451D01*
X124281796Y-90830227D01*
X124444284Y-90802618D01*
X124596791Y-90778464D01*
X124602968Y-90777803D01*
X124786566Y-90767493D01*
X124918380Y-90760584D01*
X124921622Y-90760500D01*
X125800106Y-90760500D01*
X125867145Y-90780185D01*
G37*
%TD.AperFunction*%
%TD*%
M02*
