%TF.GenerationSoftware,KiCad,Pcbnew,7.0.6*%
%TF.CreationDate,2023-09-14T12:48:26+02:00*%
%TF.ProjectId,pqunit,7071756e-6974-42e6-9b69-6361645f7063,rev?*%
%TF.SameCoordinates,Original*%
%TF.FileFunction,Soldermask,Bot*%
%TF.FilePolarity,Negative*%
%FSLAX46Y46*%
G04 Gerber Fmt 4.6, Leading zero omitted, Abs format (unit mm)*
G04 Created by KiCad (PCBNEW 7.0.6) date 2023-09-14 12:48:26*
%MOMM*%
%LPD*%
G01*
G04 APERTURE LIST*
G04 Aperture macros list*
%AMRoundRect*
0 Rectangle with rounded corners*
0 $1 Rounding radius*
0 $2 $3 $4 $5 $6 $7 $8 $9 X,Y pos of 4 corners*
0 Add a 4 corners polygon primitive as box body*
4,1,4,$2,$3,$4,$5,$6,$7,$8,$9,$2,$3,0*
0 Add four circle primitives for the rounded corners*
1,1,$1+$1,$2,$3*
1,1,$1+$1,$4,$5*
1,1,$1+$1,$6,$7*
1,1,$1+$1,$8,$9*
0 Add four rect primitives between the rounded corners*
20,1,$1+$1,$2,$3,$4,$5,0*
20,1,$1+$1,$4,$5,$6,$7,0*
20,1,$1+$1,$6,$7,$8,$9,0*
20,1,$1+$1,$8,$9,$2,$3,0*%
G04 Aperture macros list end*
%ADD10R,1.700000X1.700000*%
%ADD11O,1.700000X1.700000*%
%ADD12RoundRect,0.250000X-0.650000X0.412500X-0.650000X-0.412500X0.650000X-0.412500X0.650000X0.412500X0*%
%ADD13RoundRect,0.250000X-0.450000X0.350000X-0.450000X-0.350000X0.450000X-0.350000X0.450000X0.350000X0*%
%ADD14RoundRect,0.250000X-0.475000X0.337500X-0.475000X-0.337500X0.475000X-0.337500X0.475000X0.337500X0*%
%ADD15R,1.600000X0.550000*%
%ADD16R,0.550000X1.600000*%
%ADD17RoundRect,0.102000X-1.104900X0.304800X-1.104900X-0.304800X1.104900X-0.304800X1.104900X0.304800X0*%
%ADD18RoundRect,0.250000X-0.337500X-0.475000X0.337500X-0.475000X0.337500X0.475000X-0.337500X0.475000X0*%
%ADD19RoundRect,0.250000X0.337500X0.475000X-0.337500X0.475000X-0.337500X-0.475000X0.337500X-0.475000X0*%
G04 APERTURE END LIST*
D10*
%TO.C,J1*%
X154350000Y-124390000D03*
D11*
X154350000Y-126930000D03*
X151810000Y-124390000D03*
X151810000Y-126930000D03*
X149270000Y-124390000D03*
X149270000Y-126930000D03*
X146730000Y-124390000D03*
X146730000Y-126930000D03*
X144190000Y-124390000D03*
X144190000Y-126930000D03*
X141650000Y-124390000D03*
X141650000Y-126930000D03*
X139110000Y-124390000D03*
X139110000Y-126930000D03*
X136570000Y-124390000D03*
X136570000Y-126930000D03*
X134030000Y-124390000D03*
X134030000Y-126930000D03*
X131490000Y-124390000D03*
X131490000Y-126930000D03*
%TD*%
D10*
%TO.C,J2*%
X161086800Y-100431600D03*
D11*
X161086800Y-102971600D03*
X161086800Y-105511600D03*
X161086800Y-108051600D03*
X161086800Y-110591600D03*
X161086800Y-113131600D03*
X161086800Y-115671600D03*
X161086800Y-118211600D03*
X161086800Y-120751600D03*
X161086800Y-123291600D03*
%TD*%
D12*
%TO.C,C1*%
X137769600Y-98716700D03*
X137769600Y-101841700D03*
%TD*%
%TO.C,C2*%
X135382000Y-98716700D03*
X135382000Y-101841700D03*
%TD*%
D13*
%TO.C,R4*%
X147290500Y-109557800D03*
X147290500Y-111557800D03*
%TD*%
D14*
%TO.C,C5*%
X140004800Y-98632100D03*
X140004800Y-100707100D03*
%TD*%
D15*
%TO.C,U1*%
X144068000Y-102350000D03*
X144068000Y-101550000D03*
X144068000Y-100750000D03*
X144068000Y-99950000D03*
X144068000Y-99150000D03*
X144068000Y-98350000D03*
X144068000Y-97550000D03*
X144068000Y-96750000D03*
D16*
X145518000Y-95300000D03*
X146318000Y-95300000D03*
X147118000Y-95300000D03*
X147918000Y-95300000D03*
X148718000Y-95300000D03*
X149518000Y-95300000D03*
X150318000Y-95300000D03*
X151118000Y-95300000D03*
D15*
X152568000Y-96750000D03*
X152568000Y-97550000D03*
X152568000Y-98350000D03*
X152568000Y-99150000D03*
X152568000Y-99950000D03*
X152568000Y-100750000D03*
X152568000Y-101550000D03*
X152568000Y-102350000D03*
D16*
X151118000Y-103800000D03*
X150318000Y-103800000D03*
X149518000Y-103800000D03*
X148718000Y-103800000D03*
X147918000Y-103800000D03*
X147118000Y-103800000D03*
X146318000Y-103800000D03*
X145518000Y-103800000D03*
%TD*%
D17*
%TO.C,U4*%
X152116500Y-115145800D03*
X152116500Y-116415800D03*
X152116500Y-117685800D03*
X152116500Y-118955800D03*
X146884100Y-118955800D03*
X146884100Y-117685800D03*
X146884100Y-116415800D03*
X146884100Y-115145800D03*
%TD*%
D18*
%TO.C,C4*%
X154707300Y-98653600D03*
X156782300Y-98653600D03*
%TD*%
D19*
%TO.C,C9*%
X144058200Y-115093900D03*
X141983200Y-115093900D03*
%TD*%
D13*
%TO.C,R3*%
X150063200Y-109490000D03*
X150063200Y-111490000D03*
%TD*%
M02*
