%TF.GenerationSoftware,KiCad,Pcbnew,7.0.6*%
%TF.CreationDate,2023-09-14T12:48:26+02:00*%
%TF.ProjectId,pqunit,7071756e-6974-42e6-9b69-6361645f7063,rev?*%
%TF.SameCoordinates,Original*%
%TF.FileFunction,Legend,Bot*%
%TF.FilePolarity,Positive*%
%FSLAX46Y46*%
G04 Gerber Fmt 4.6, Leading zero omitted, Abs format (unit mm)*
G04 Created by KiCad (PCBNEW 7.0.6) date 2023-09-14 12:48:26*
%MOMM*%
%LPD*%
G01*
G04 APERTURE LIST*
%ADD10C,0.150000*%
%ADD11C,0.120000*%
%ADD12C,0.203200*%
G04 APERTURE END LIST*
D10*
X137834666Y-97184380D02*
X137882285Y-97232000D01*
X137882285Y-97232000D02*
X138025142Y-97279619D01*
X138025142Y-97279619D02*
X138120380Y-97279619D01*
X138120380Y-97279619D02*
X138263237Y-97232000D01*
X138263237Y-97232000D02*
X138358475Y-97136761D01*
X138358475Y-97136761D02*
X138406094Y-97041523D01*
X138406094Y-97041523D02*
X138453713Y-96851047D01*
X138453713Y-96851047D02*
X138453713Y-96708190D01*
X138453713Y-96708190D02*
X138406094Y-96517714D01*
X138406094Y-96517714D02*
X138358475Y-96422476D01*
X138358475Y-96422476D02*
X138263237Y-96327238D01*
X138263237Y-96327238D02*
X138120380Y-96279619D01*
X138120380Y-96279619D02*
X138025142Y-96279619D01*
X138025142Y-96279619D02*
X137882285Y-96327238D01*
X137882285Y-96327238D02*
X137834666Y-96374857D01*
X136882285Y-97279619D02*
X137453713Y-97279619D01*
X137167999Y-97279619D02*
X137167999Y-96279619D01*
X137167999Y-96279619D02*
X137263237Y-96422476D01*
X137263237Y-96422476D02*
X137358475Y-96517714D01*
X137358475Y-96517714D02*
X137453713Y-96565333D01*
X135548666Y-97235180D02*
X135596285Y-97282800D01*
X135596285Y-97282800D02*
X135739142Y-97330419D01*
X135739142Y-97330419D02*
X135834380Y-97330419D01*
X135834380Y-97330419D02*
X135977237Y-97282800D01*
X135977237Y-97282800D02*
X136072475Y-97187561D01*
X136072475Y-97187561D02*
X136120094Y-97092323D01*
X136120094Y-97092323D02*
X136167713Y-96901847D01*
X136167713Y-96901847D02*
X136167713Y-96758990D01*
X136167713Y-96758990D02*
X136120094Y-96568514D01*
X136120094Y-96568514D02*
X136072475Y-96473276D01*
X136072475Y-96473276D02*
X135977237Y-96378038D01*
X135977237Y-96378038D02*
X135834380Y-96330419D01*
X135834380Y-96330419D02*
X135739142Y-96330419D01*
X135739142Y-96330419D02*
X135596285Y-96378038D01*
X135596285Y-96378038D02*
X135548666Y-96425657D01*
X135167713Y-96425657D02*
X135120094Y-96378038D01*
X135120094Y-96378038D02*
X135024856Y-96330419D01*
X135024856Y-96330419D02*
X134786761Y-96330419D01*
X134786761Y-96330419D02*
X134691523Y-96378038D01*
X134691523Y-96378038D02*
X134643904Y-96425657D01*
X134643904Y-96425657D02*
X134596285Y-96520895D01*
X134596285Y-96520895D02*
X134596285Y-96616133D01*
X134596285Y-96616133D02*
X134643904Y-96758990D01*
X134643904Y-96758990D02*
X135215332Y-97330419D01*
X135215332Y-97330419D02*
X134596285Y-97330419D01*
X147435866Y-108201619D02*
X147769199Y-107725428D01*
X148007294Y-108201619D02*
X148007294Y-107201619D01*
X148007294Y-107201619D02*
X147626342Y-107201619D01*
X147626342Y-107201619D02*
X147531104Y-107249238D01*
X147531104Y-107249238D02*
X147483485Y-107296857D01*
X147483485Y-107296857D02*
X147435866Y-107392095D01*
X147435866Y-107392095D02*
X147435866Y-107534952D01*
X147435866Y-107534952D02*
X147483485Y-107630190D01*
X147483485Y-107630190D02*
X147531104Y-107677809D01*
X147531104Y-107677809D02*
X147626342Y-107725428D01*
X147626342Y-107725428D02*
X148007294Y-107725428D01*
X146578723Y-107534952D02*
X146578723Y-108201619D01*
X146816818Y-107154000D02*
X147054913Y-107868285D01*
X147054913Y-107868285D02*
X146435866Y-107868285D01*
X140222266Y-97285980D02*
X140269885Y-97333600D01*
X140269885Y-97333600D02*
X140412742Y-97381219D01*
X140412742Y-97381219D02*
X140507980Y-97381219D01*
X140507980Y-97381219D02*
X140650837Y-97333600D01*
X140650837Y-97333600D02*
X140746075Y-97238361D01*
X140746075Y-97238361D02*
X140793694Y-97143123D01*
X140793694Y-97143123D02*
X140841313Y-96952647D01*
X140841313Y-96952647D02*
X140841313Y-96809790D01*
X140841313Y-96809790D02*
X140793694Y-96619314D01*
X140793694Y-96619314D02*
X140746075Y-96524076D01*
X140746075Y-96524076D02*
X140650837Y-96428838D01*
X140650837Y-96428838D02*
X140507980Y-96381219D01*
X140507980Y-96381219D02*
X140412742Y-96381219D01*
X140412742Y-96381219D02*
X140269885Y-96428838D01*
X140269885Y-96428838D02*
X140222266Y-96476457D01*
X139317504Y-96381219D02*
X139793694Y-96381219D01*
X139793694Y-96381219D02*
X139841313Y-96857409D01*
X139841313Y-96857409D02*
X139793694Y-96809790D01*
X139793694Y-96809790D02*
X139698456Y-96762171D01*
X139698456Y-96762171D02*
X139460361Y-96762171D01*
X139460361Y-96762171D02*
X139365123Y-96809790D01*
X139365123Y-96809790D02*
X139317504Y-96857409D01*
X139317504Y-96857409D02*
X139269885Y-96952647D01*
X139269885Y-96952647D02*
X139269885Y-97190742D01*
X139269885Y-97190742D02*
X139317504Y-97285980D01*
X139317504Y-97285980D02*
X139365123Y-97333600D01*
X139365123Y-97333600D02*
X139460361Y-97381219D01*
X139460361Y-97381219D02*
X139698456Y-97381219D01*
X139698456Y-97381219D02*
X139793694Y-97333600D01*
X139793694Y-97333600D02*
X139841313Y-97285980D01*
X149079904Y-105054819D02*
X149079904Y-105864342D01*
X149079904Y-105864342D02*
X149032285Y-105959580D01*
X149032285Y-105959580D02*
X148984666Y-106007200D01*
X148984666Y-106007200D02*
X148889428Y-106054819D01*
X148889428Y-106054819D02*
X148698952Y-106054819D01*
X148698952Y-106054819D02*
X148603714Y-106007200D01*
X148603714Y-106007200D02*
X148556095Y-105959580D01*
X148556095Y-105959580D02*
X148508476Y-105864342D01*
X148508476Y-105864342D02*
X148508476Y-105054819D01*
X147508476Y-106054819D02*
X148079904Y-106054819D01*
X147794190Y-106054819D02*
X147794190Y-105054819D01*
X147794190Y-105054819D02*
X147889428Y-105197676D01*
X147889428Y-105197676D02*
X147984666Y-105292914D01*
X147984666Y-105292914D02*
X148079904Y-105340533D01*
X150211404Y-120061619D02*
X150211404Y-120871142D01*
X150211404Y-120871142D02*
X150163785Y-120966380D01*
X150163785Y-120966380D02*
X150116166Y-121014000D01*
X150116166Y-121014000D02*
X150020928Y-121061619D01*
X150020928Y-121061619D02*
X149830452Y-121061619D01*
X149830452Y-121061619D02*
X149735214Y-121014000D01*
X149735214Y-121014000D02*
X149687595Y-120966380D01*
X149687595Y-120966380D02*
X149639976Y-120871142D01*
X149639976Y-120871142D02*
X149639976Y-120061619D01*
X148735214Y-120394952D02*
X148735214Y-121061619D01*
X148973309Y-120014000D02*
X149211404Y-120728285D01*
X149211404Y-120728285D02*
X148592357Y-120728285D01*
X155868666Y-100791180D02*
X155916285Y-100838800D01*
X155916285Y-100838800D02*
X156059142Y-100886419D01*
X156059142Y-100886419D02*
X156154380Y-100886419D01*
X156154380Y-100886419D02*
X156297237Y-100838800D01*
X156297237Y-100838800D02*
X156392475Y-100743561D01*
X156392475Y-100743561D02*
X156440094Y-100648323D01*
X156440094Y-100648323D02*
X156487713Y-100457847D01*
X156487713Y-100457847D02*
X156487713Y-100314990D01*
X156487713Y-100314990D02*
X156440094Y-100124514D01*
X156440094Y-100124514D02*
X156392475Y-100029276D01*
X156392475Y-100029276D02*
X156297237Y-99934038D01*
X156297237Y-99934038D02*
X156154380Y-99886419D01*
X156154380Y-99886419D02*
X156059142Y-99886419D01*
X156059142Y-99886419D02*
X155916285Y-99934038D01*
X155916285Y-99934038D02*
X155868666Y-99981657D01*
X155011523Y-100219752D02*
X155011523Y-100886419D01*
X155249618Y-99838800D02*
X155487713Y-100553085D01*
X155487713Y-100553085D02*
X154868666Y-100553085D01*
X143168666Y-117555180D02*
X143216285Y-117602800D01*
X143216285Y-117602800D02*
X143359142Y-117650419D01*
X143359142Y-117650419D02*
X143454380Y-117650419D01*
X143454380Y-117650419D02*
X143597237Y-117602800D01*
X143597237Y-117602800D02*
X143692475Y-117507561D01*
X143692475Y-117507561D02*
X143740094Y-117412323D01*
X143740094Y-117412323D02*
X143787713Y-117221847D01*
X143787713Y-117221847D02*
X143787713Y-117078990D01*
X143787713Y-117078990D02*
X143740094Y-116888514D01*
X143740094Y-116888514D02*
X143692475Y-116793276D01*
X143692475Y-116793276D02*
X143597237Y-116698038D01*
X143597237Y-116698038D02*
X143454380Y-116650419D01*
X143454380Y-116650419D02*
X143359142Y-116650419D01*
X143359142Y-116650419D02*
X143216285Y-116698038D01*
X143216285Y-116698038D02*
X143168666Y-116745657D01*
X142692475Y-117650419D02*
X142501999Y-117650419D01*
X142501999Y-117650419D02*
X142406761Y-117602800D01*
X142406761Y-117602800D02*
X142359142Y-117555180D01*
X142359142Y-117555180D02*
X142263904Y-117412323D01*
X142263904Y-117412323D02*
X142216285Y-117221847D01*
X142216285Y-117221847D02*
X142216285Y-116840895D01*
X142216285Y-116840895D02*
X142263904Y-116745657D01*
X142263904Y-116745657D02*
X142311523Y-116698038D01*
X142311523Y-116698038D02*
X142406761Y-116650419D01*
X142406761Y-116650419D02*
X142597237Y-116650419D01*
X142597237Y-116650419D02*
X142692475Y-116698038D01*
X142692475Y-116698038D02*
X142740094Y-116745657D01*
X142740094Y-116745657D02*
X142787713Y-116840895D01*
X142787713Y-116840895D02*
X142787713Y-117078990D01*
X142787713Y-117078990D02*
X142740094Y-117174228D01*
X142740094Y-117174228D02*
X142692475Y-117221847D01*
X142692475Y-117221847D02*
X142597237Y-117269466D01*
X142597237Y-117269466D02*
X142406761Y-117269466D01*
X142406761Y-117269466D02*
X142311523Y-117221847D01*
X142311523Y-117221847D02*
X142263904Y-117174228D01*
X142263904Y-117174228D02*
X142216285Y-117078990D01*
X150200366Y-108199819D02*
X150533699Y-107723628D01*
X150771794Y-108199819D02*
X150771794Y-107199819D01*
X150771794Y-107199819D02*
X150390842Y-107199819D01*
X150390842Y-107199819D02*
X150295604Y-107247438D01*
X150295604Y-107247438D02*
X150247985Y-107295057D01*
X150247985Y-107295057D02*
X150200366Y-107390295D01*
X150200366Y-107390295D02*
X150200366Y-107533152D01*
X150200366Y-107533152D02*
X150247985Y-107628390D01*
X150247985Y-107628390D02*
X150295604Y-107676009D01*
X150295604Y-107676009D02*
X150390842Y-107723628D01*
X150390842Y-107723628D02*
X150771794Y-107723628D01*
X149867032Y-107199819D02*
X149247985Y-107199819D01*
X149247985Y-107199819D02*
X149581318Y-107580771D01*
X149581318Y-107580771D02*
X149438461Y-107580771D01*
X149438461Y-107580771D02*
X149343223Y-107628390D01*
X149343223Y-107628390D02*
X149295604Y-107676009D01*
X149295604Y-107676009D02*
X149247985Y-107771247D01*
X149247985Y-107771247D02*
X149247985Y-108009342D01*
X149247985Y-108009342D02*
X149295604Y-108104580D01*
X149295604Y-108104580D02*
X149343223Y-108152200D01*
X149343223Y-108152200D02*
X149438461Y-108199819D01*
X149438461Y-108199819D02*
X149724175Y-108199819D01*
X149724175Y-108199819D02*
X149819413Y-108152200D01*
X149819413Y-108152200D02*
X149867032Y-108104580D01*
D11*
%TO.C,C1*%
X138679600Y-99567948D02*
X138679600Y-100990452D01*
X136859600Y-99567948D02*
X136859600Y-100990452D01*
%TO.C,C2*%
X136292000Y-99567948D02*
X136292000Y-100990452D01*
X134472000Y-99567948D02*
X134472000Y-100990452D01*
%TO.C,R4*%
X148025500Y-110330736D02*
X148025500Y-110784864D01*
X146555500Y-110330736D02*
X146555500Y-110784864D01*
%TO.C,C5*%
X140739800Y-99408348D02*
X140739800Y-99930852D01*
X139269800Y-99408348D02*
X139269800Y-99930852D01*
D10*
%TO.C,U1*%
X144693000Y-95925000D02*
X144693000Y-96250000D01*
X144693000Y-95925000D02*
X145018000Y-95925000D01*
X144693000Y-102950000D02*
X143268000Y-102950000D01*
X144693000Y-103175000D02*
X144693000Y-102950000D01*
X144693000Y-103175000D02*
X145018000Y-103175000D01*
X151943000Y-95925000D02*
X151618000Y-95925000D01*
X151943000Y-95925000D02*
X151943000Y-96250000D01*
X151943000Y-103175000D02*
X151618000Y-103175000D01*
X151943000Y-103175000D02*
X151943000Y-102850000D01*
D12*
%TO.C,U4*%
X150634500Y-115247400D02*
G75*
G03*
X150634500Y-115247400I-143600J0D01*
G01*
D11*
%TO.C,C4*%
X155483548Y-97918600D02*
X156006052Y-97918600D01*
X155483548Y-99388600D02*
X156006052Y-99388600D01*
%TO.C,C9*%
X143281952Y-115828900D02*
X142759448Y-115828900D01*
X143281952Y-114358900D02*
X142759448Y-114358900D01*
%TO.C,R3*%
X150798200Y-110262936D02*
X150798200Y-110717064D01*
X149328200Y-110262936D02*
X149328200Y-110717064D01*
%TD*%
M02*
