M48
; DRILL file {KiCad 7.0.6} date Thu Sep 14 12:48:31 2023
; FORMAT={-:-/ absolute / inch / decimal}
; #@! TF.CreationDate,2023-09-14T12:48:31+02:00
; #@! TF.GenerationSoftware,Kicad,Pcbnew,7.0.6
; #@! TF.FileFunction,Plated,1,2,PTH
FMAT,2
INCH
; #@! TA.AperFunction,Plated,PTH,ViaDrill
T1C0.0315
; #@! TA.AperFunction,Plated,PTH,ComponentDrill
T2C0.0394
%
G90
G05
T1
X4.886Y-4.004
X4.946Y-3.914
X4.996Y-3.996
X5.048Y-3.914
X5.2532Y-4.1315
X5.348Y-4.134
X5.366Y-3.752
X5.5948Y-4.416
X5.6408Y-4.34
X5.668Y-3.752
X5.8168Y-3.8633
X5.8168Y-3.9753
X5.8239Y-3.6709
X5.9288Y-3.8873
X6.0808Y-3.796
X6.166Y-4.608
X6.178Y-4.684
X6.204Y-3.694
T2
X5.1768Y-4.8972
X5.1768Y-4.9972
X5.2768Y-4.8972
X5.2768Y-4.9972
X5.3768Y-4.8972
X5.3768Y-4.9972
X5.4768Y-4.8972
X5.4768Y-4.9972
X5.5768Y-4.8972
X5.5768Y-4.9972
X5.6768Y-4.8972
X5.6768Y-4.9972
X5.7768Y-4.8972
X5.7768Y-4.9972
X5.8768Y-4.8972
X5.8768Y-4.9972
X5.9768Y-4.8972
X5.9768Y-4.9972
X6.0768Y-4.8972
X6.0768Y-4.9972
X6.342Y-3.954
X6.342Y-4.054
X6.342Y-4.154
X6.342Y-4.254
X6.342Y-4.354
X6.342Y-4.454
X6.342Y-4.554
X6.342Y-4.654
X6.342Y-4.754
X6.342Y-4.854
T0
M30
