%TF.GenerationSoftware,KiCad,Pcbnew,7.0.6*%
%TF.CreationDate,2023-09-14T12:48:26+02:00*%
%TF.ProjectId,pqunit,7071756e-6974-42e6-9b69-6361645f7063,rev?*%
%TF.SameCoordinates,Original*%
%TF.FileFunction,Copper,L1,Top*%
%TF.FilePolarity,Positive*%
%FSLAX46Y46*%
G04 Gerber Fmt 4.6, Leading zero omitted, Abs format (unit mm)*
G04 Created by KiCad (PCBNEW 7.0.6) date 2023-09-14 12:48:26*
%MOMM*%
%LPD*%
G01*
G04 APERTURE LIST*
G04 Aperture macros list*
%AMRoundRect*
0 Rectangle with rounded corners*
0 $1 Rounding radius*
0 $2 $3 $4 $5 $6 $7 $8 $9 X,Y pos of 4 corners*
0 Add a 4 corners polygon primitive as box body*
4,1,4,$2,$3,$4,$5,$6,$7,$8,$9,$2,$3,0*
0 Add four circle primitives for the rounded corners*
1,1,$1+$1,$2,$3*
1,1,$1+$1,$4,$5*
1,1,$1+$1,$6,$7*
1,1,$1+$1,$8,$9*
0 Add four rect primitives between the rounded corners*
20,1,$1+$1,$2,$3,$4,$5,0*
20,1,$1+$1,$4,$5,$6,$7,0*
20,1,$1+$1,$6,$7,$8,$9,0*
20,1,$1+$1,$8,$9,$2,$3,0*%
G04 Aperture macros list end*
%TA.AperFunction,SMDPad,CuDef*%
%ADD10R,1.800000X0.800000*%
%TD*%
%TA.AperFunction,SMDPad,CuDef*%
%ADD11R,4.500000X2.000000*%
%TD*%
%TA.AperFunction,SMDPad,CuDef*%
%ADD12RoundRect,0.250000X0.650000X-0.412500X0.650000X0.412500X-0.650000X0.412500X-0.650000X-0.412500X0*%
%TD*%
%TA.AperFunction,SMDPad,CuDef*%
%ADD13R,2.000000X1.500000*%
%TD*%
%TA.AperFunction,ComponentPad*%
%ADD14R,1.700000X1.700000*%
%TD*%
%TA.AperFunction,ComponentPad*%
%ADD15O,1.700000X1.700000*%
%TD*%
%TA.AperFunction,SMDPad,CuDef*%
%ADD16RoundRect,0.250000X0.475000X-0.337500X0.475000X0.337500X-0.475000X0.337500X-0.475000X-0.337500X0*%
%TD*%
%TA.AperFunction,SMDPad,CuDef*%
%ADD17R,1.050000X2.200000*%
%TD*%
%TA.AperFunction,SMDPad,CuDef*%
%ADD18R,1.000000X1.000000*%
%TD*%
%TA.AperFunction,ViaPad*%
%ADD19C,1.600000*%
%TD*%
%TA.AperFunction,Conductor*%
%ADD20C,0.900000*%
%TD*%
%TA.AperFunction,Conductor*%
%ADD21C,0.400000*%
%TD*%
%TA.AperFunction,Conductor*%
%ADD22C,0.330200*%
%TD*%
G04 APERTURE END LIST*
D10*
%TO.P,U3,24,GND_4*%
%TO.N,GND*%
X136808400Y-106842800D03*
%TO.P,U3,23,VCC*%
%TO.N,+3V3*%
X136808400Y-107942800D03*
%TO.P,U3,22,VBAT*%
X136808400Y-109042800D03*
%TO.P,U3,21,RXD1*%
%TO.N,GPS_RX*%
X136808400Y-110142800D03*
%TO.P,U3,20,TXD1*%
%TO.N,GPS_TX*%
X136808400Y-111242800D03*
%TO.P,U3,19,SCL*%
%TO.N,unconnected-(U3-SCL-Pad19)*%
X136808400Y-112342800D03*
%TO.P,U3,18,SDA*%
%TO.N,unconnected-(U3-SDA-Pad18)*%
X136808400Y-113442800D03*
%TO.P,U3,17,RXD2*%
%TO.N,unconnected-(U3-RXD2-Pad17)*%
X136808400Y-116442800D03*
%TO.P,U3,16,TXD2*%
%TO.N,unconnected-(U3-TXD2-Pad16)*%
X136808400Y-117542800D03*
%TO.P,U3,15,NC_6*%
%TO.N,unconnected-(U3-NC_6-Pad15)*%
X136808400Y-118642800D03*
%TO.P,U3,14,NC_5*%
%TO.N,unconnected-(U3-NC_5-Pad14)*%
X136808400Y-119742800D03*
%TO.P,U3,13,GND_3*%
%TO.N,GND*%
X136808400Y-120842800D03*
%TO.P,U3,12,GND_2*%
X124608400Y-120842800D03*
%TO.P,U3,11,RF_IN*%
%TO.N,Net-(J3-In)*%
X124608400Y-119742800D03*
%TO.P,U3,10,GND_1*%
%TO.N,GND*%
X124608400Y-118642800D03*
%TO.P,U3,9,VCC_RF*%
%TO.N,unconnected-(U3-VCC_RF-Pad9)*%
X124608400Y-117542800D03*
%TO.P,U3,8,NRESET*%
%TO.N,unconnected-(U3-NRESET-Pad8)*%
X124608400Y-116442800D03*
%TO.P,U3,7,NC_4*%
%TO.N,unconnected-(U3-NC_4-Pad7)*%
X124608400Y-113442800D03*
%TO.P,U3,6,NC_3*%
%TO.N,unconnected-(U3-NC_3-Pad6)*%
X124608400Y-112342800D03*
%TO.P,U3,5,NC_2*%
%TO.N,unconnected-(U3-NC_2-Pad5)*%
X124608400Y-111242800D03*
%TO.P,U3,4,RESERVED_2*%
%TO.N,unconnected-(U3-RESERVED_2-Pad4)*%
X124608400Y-110142800D03*
%TO.P,U3,3,1PPS*%
%TO.N,unconnected-(U3-1PPS-Pad3)*%
X124608400Y-109042800D03*
%TO.P,U3,2,RESERVED_1*%
%TO.N,unconnected-(U3-RESERVED_1-Pad2)*%
X124608400Y-107942800D03*
%TO.P,U3,1,NC_1*%
%TO.N,unconnected-(U3-NC_1-Pad1)*%
X124608400Y-106842800D03*
%TD*%
D11*
%TO.P,Y1,1,1*%
%TO.N,Net-(U1-PB6(XTAL1{slash}TOSC1))*%
X132063600Y-95300800D03*
%TO.P,Y1,2,2*%
%TO.N,Net-(U1-PB7(XTAL2{slash}TOSC2))*%
X140563600Y-95300800D03*
%TD*%
D12*
%TO.P,C10,1*%
%TO.N,+3V3*%
X134264400Y-102908500D03*
%TO.P,C10,2*%
%TO.N,GND*%
X134264400Y-99783500D03*
%TD*%
D13*
%TO.P,U2,1,ANT*%
%TO.N,unconnected-(U2-ANT-Pad1)*%
X140132800Y-100442000D03*
%TO.P,U2,2,GND*%
%TO.N,GND*%
X140132800Y-102442000D03*
%TO.P,U2,3,VDD*%
%TO.N,+3V3*%
X140132800Y-104442000D03*
%TO.P,U2,4,~{RESET}*%
%TO.N,RF_NRESET*%
X140132800Y-106442000D03*
%TO.P,U2,5,DIO0*%
%TO.N,RF_DIO0*%
X140132800Y-108442000D03*
%TO.P,U2,6,DIO1*%
%TO.N,RF_DIO1*%
X140132800Y-110442000D03*
%TO.P,U2,7,DIO2*%
%TO.N,RF_DIO2*%
X140132800Y-112442000D03*
%TO.P,U2,8,DIO3*%
%TO.N,unconnected-(U2-DIO3-Pad8)*%
X140132800Y-114442000D03*
%TO.P,U2,9,GND*%
%TO.N,GND*%
X156132800Y-114442000D03*
%TO.P,U2,10,DIO4*%
%TO.N,unconnected-(U2-DIO4-Pad10)*%
X156132800Y-112442000D03*
%TO.P,U2,11,DIO5*%
%TO.N,unconnected-(U2-DIO5-Pad11)*%
X156132800Y-110442000D03*
%TO.P,U2,12,SCK*%
%TO.N,SPI_SCK*%
X156132800Y-108442000D03*
%TO.P,U2,13,MISO*%
%TO.N,SPI_MISO*%
X156132800Y-106442000D03*
%TO.P,U2,14,MOSI*%
%TO.N,SPI_MOSI*%
X156132800Y-104442000D03*
%TO.P,U2,15,~{NSS}*%
%TO.N,RF_NSS*%
X156132800Y-102442000D03*
%TO.P,U2,16,GND*%
%TO.N,GND*%
X156132800Y-100442000D03*
%TD*%
D14*
%TO.P,J1,1,SDA*%
%TO.N,RS485_SDA*%
X154350000Y-124390000D03*
D15*
%TO.P,J1,2,GND*%
%TO.N,GND*%
X154350000Y-126930000D03*
%TO.P,J1,3,SDB*%
%TO.N,RS485_SDB*%
X151810000Y-124390000D03*
%TO.P,J1,4,V1*%
%TO.N,unconnected-(J1-V1-Pad4)*%
X151810000Y-126930000D03*
%TO.P,J1,5,VBat*%
%TO.N,unconnected-(J1-VBat-Pad5)*%
X149270000Y-124390000D03*
%TO.P,J1,6,5V*%
%TO.N,unconnected-(J1-5V-Pad6)*%
X149270000Y-126930000D03*
%TO.P,J1,7,3V3*%
%TO.N,+3V3*%
X146730000Y-124390000D03*
%TO.P,J1,8,GND*%
%TO.N,GND*%
X146730000Y-126930000D03*
%TO.P,J1,9,V2*%
%TO.N,unconnected-(J1-V2-Pad9)*%
X144190000Y-124390000D03*
%TO.P,J1,10,V3*%
%TO.N,unconnected-(J1-V3-Pad10)*%
X144190000Y-126930000D03*
%TO.P,J1,11,SDL*%
%TO.N,I2C_SDA*%
X141650000Y-124390000D03*
%TO.P,J1,12,GND*%
%TO.N,GND*%
X141650000Y-126930000D03*
%TO.P,J1,13,SCK*%
%TO.N,I2C_SCL*%
X139110000Y-124390000D03*
%TO.P,J1,14,S1_5V*%
%TO.N,unconnected-(J1-S1_5V-Pad14)*%
X139110000Y-126930000D03*
%TO.P,J1,15,S2_5V*%
%TO.N,unconnected-(J1-S2_5V-Pad15)*%
X136570000Y-124390000D03*
%TO.P,J1,16,S1_3V3*%
%TO.N,unconnected-(J1-S1_3V3-Pad16)*%
X136570000Y-126930000D03*
%TO.P,J1,17,S2_3V3*%
%TO.N,unconnected-(J1-S2_3V3-Pad17)*%
X134030000Y-124390000D03*
%TO.P,J1,18,GND*%
%TO.N,GND*%
X134030000Y-126930000D03*
%TO.P,J1,19,PPS*%
%TO.N,unconnected-(J1-PPS-Pad19)*%
X131490000Y-124390000D03*
%TO.P,J1,20,V4*%
%TO.N,unconnected-(J1-V4-Pad20)*%
X131490000Y-126930000D03*
%TD*%
D16*
%TO.P,C8,2*%
%TO.N,GND*%
X136652000Y-100816500D03*
%TO.P,C8,1*%
%TO.N,+3V3*%
X136652000Y-102891500D03*
%TD*%
D14*
%TO.P,J2,1,Pin_1*%
%TO.N,SPI_MISO*%
X161086800Y-100431600D03*
D15*
%TO.P,J2,2,Pin_2*%
%TO.N,SPI_MOSI*%
X161086800Y-102971600D03*
%TO.P,J2,3,Pin_3*%
%TO.N,SPI_SCK*%
X161086800Y-105511600D03*
%TO.P,J2,4,Pin_4*%
%TO.N,RS485_NRE*%
X161086800Y-108051600D03*
%TO.P,J2,5,Pin_5*%
%TO.N,RS485_DE*%
X161086800Y-110591600D03*
%TO.P,J2,6,Pin_6*%
%TO.N,MCU_NRESET*%
X161086800Y-113131600D03*
%TO.P,J2,7,Pin_7*%
%TO.N,MCU_RX*%
X161086800Y-115671600D03*
%TO.P,J2,8,Pin_8*%
%TO.N,MCU_TX*%
X161086800Y-118211600D03*
%TO.P,J2,9,Pin_9*%
%TO.N,GND*%
X161086800Y-120751600D03*
%TO.P,J2,10,Pin_10*%
X161086800Y-123291600D03*
%TD*%
D17*
%TO.P,J3,2,Ext*%
%TO.N,GND*%
X125169400Y-124612400D03*
D18*
X126644400Y-126112400D03*
D17*
X128119400Y-124612400D03*
D18*
%TO.P,J3,1,In*%
%TO.N,Net-(J3-In)*%
X126644400Y-123112400D03*
%TD*%
D12*
%TO.P,C6,2*%
%TO.N,GND*%
X131724400Y-99783500D03*
%TO.P,C6,1*%
%TO.N,+3V3*%
X131724400Y-102908500D03*
%TD*%
D19*
%TO.N,GND*%
X135839200Y-105003600D03*
%TO.N,I2C_SCL*%
X124104400Y-101701600D03*
%TO.N,I2C_SDA*%
X125628400Y-99415600D03*
%TO.N,GND*%
X154453300Y-96418400D03*
%TO.N,+3V3*%
X133431259Y-104939431D03*
%TO.N,I2C_SDA*%
X147747700Y-100972600D03*
%TO.N,I2C_SCL*%
X147747700Y-98127800D03*
%TO.N,RF_DIO1*%
X143277300Y-110236000D03*
%TO.N,RF_DIO2*%
X142108900Y-112166400D03*
%TO.N,Net-(U1-PB6(XTAL1{slash}TOSC1))*%
X136296400Y-95300800D03*
%TO.N,Net-(U1-PB7(XTAL2{slash}TOSC2))*%
X143967200Y-95300800D03*
%TO.N,RF_NSS*%
X157581600Y-93827600D03*
%TO.N,RF_NRESET*%
X147927665Y-93241235D03*
%TO.N,RF_DIO0*%
X150592500Y-98737400D03*
%TO.N,RS485_NRE*%
X156616400Y-117043200D03*
%TO.N,RS485_DE*%
X156921200Y-118973600D03*
%TO.N,GPS_TX*%
X126898400Y-101498400D03*
%TO.N,GPS_RX*%
X128219200Y-99415600D03*
%TD*%
D20*
%TO.N,Net-(J3-In)*%
X126042000Y-119742800D02*
X124608400Y-119742800D01*
X126644400Y-120345200D02*
X126042000Y-119742800D01*
X126644400Y-123112400D02*
X126644400Y-120345200D01*
D21*
%TO.N,+3V3*%
X138176000Y-107492800D02*
X137726000Y-107942800D01*
X138176000Y-104415500D02*
X138176000Y-107492800D01*
X138202500Y-104442000D02*
X138176000Y-104415500D01*
D22*
%TO.N,GPS_RX*%
X128270000Y-103987600D02*
X134425200Y-110142800D01*
X128270000Y-99466400D02*
X128270000Y-103987600D01*
X128219200Y-99415600D02*
X128270000Y-99466400D01*
%TO.N,GPS_TX*%
X133848800Y-111242800D02*
X136808400Y-111242800D01*
X126898400Y-104292400D02*
X133848800Y-111242800D01*
X126898400Y-101498400D02*
X126898400Y-104292400D01*
D20*
%TO.N,+3V3*%
X136808400Y-107942800D02*
X136808400Y-109042800D01*
D22*
%TO.N,GPS_RX*%
X134425200Y-110142800D02*
X136808400Y-110142800D01*
D21*
%TO.N,+3V3*%
X137726000Y-107942800D02*
X136808400Y-107942800D01*
D22*
%TO.N,SPI_MISO*%
X159867600Y-100431600D02*
X161086800Y-100431600D01*
X159461200Y-100838000D02*
X159867600Y-100431600D01*
X159461200Y-104343200D02*
X159461200Y-100838000D01*
X157583400Y-106221000D02*
X159461200Y-104343200D01*
X156353800Y-106221000D02*
X157583400Y-106221000D01*
X156132800Y-106442000D02*
X156353800Y-106221000D01*
%TO.N,SPI_MOSI*%
X157805400Y-104221000D02*
X156353800Y-104221000D01*
X156353800Y-104221000D02*
X156132800Y-104442000D01*
X158597600Y-99618800D02*
X158597600Y-103428800D01*
X159410400Y-98806000D02*
X158597600Y-99618800D01*
X162712400Y-99568000D02*
X161950400Y-98806000D01*
X161950400Y-98806000D02*
X159410400Y-98806000D01*
X162712400Y-102209600D02*
X162712400Y-99568000D01*
X161950400Y-102971600D02*
X162712400Y-102209600D01*
X158597600Y-103428800D02*
X157805400Y-104221000D01*
X161086800Y-102971600D02*
X161950400Y-102971600D01*
%TO.N,RF_NSS*%
X157146000Y-102442000D02*
X156132800Y-102442000D01*
X157784800Y-101803200D02*
X157146000Y-102442000D01*
X157784800Y-94030800D02*
X157784800Y-101803200D01*
X157581600Y-93827600D02*
X157784800Y-94030800D01*
%TO.N,SPI_SCK*%
X156353800Y-108221000D02*
X157361400Y-108221000D01*
X156132800Y-108442000D02*
X156353800Y-108221000D01*
%TO.N,RF_DIO2*%
X140353800Y-112221000D02*
X142054300Y-112221000D01*
X140132800Y-112442000D02*
X140353800Y-112221000D01*
%TO.N,RF_DIO1*%
X143262300Y-110221000D02*
X143277300Y-110236000D01*
%TO.N,SPI_SCK*%
X160070800Y-105511600D02*
X161086800Y-105511600D01*
%TO.N,RF_DIO1*%
X140353800Y-110221000D02*
X143262300Y-110221000D01*
X140132800Y-110442000D02*
X140353800Y-110221000D01*
%TO.N,RF_DIO0*%
X140353800Y-108221000D02*
X140132800Y-108442000D01*
X150440100Y-103563400D02*
X145782500Y-108221000D01*
X150440100Y-98889800D02*
X150440100Y-103563400D01*
X150592500Y-98737400D02*
X150440100Y-98889800D01*
%TO.N,RF_NRESET*%
X140353800Y-106221000D02*
X140132800Y-106442000D01*
X149220900Y-102852200D02*
X145852100Y-106221000D01*
X149220900Y-96756200D02*
X149220900Y-102852200D01*
X147927665Y-95462965D02*
X149220900Y-96756200D01*
X147927665Y-93241235D02*
X147927665Y-95462965D01*
D21*
%TO.N,+3V3*%
X140132800Y-104442000D02*
X138202500Y-104442000D01*
D22*
%TO.N,RF_DIO0*%
X145782500Y-108221000D02*
X140353800Y-108221000D01*
%TO.N,SPI_SCK*%
X157361400Y-108221000D02*
X160070800Y-105511600D01*
D21*
%TO.N,+3V3*%
X138202500Y-104442000D02*
X136652000Y-102891500D01*
D22*
%TO.N,RF_DIO2*%
X142054300Y-112221000D02*
X142108900Y-112166400D01*
%TO.N,RF_NRESET*%
X145852100Y-106221000D02*
X140353800Y-106221000D01*
%TO.N,RS485_NRE*%
X160223200Y-108051600D02*
X161086800Y-108051600D01*
X157784800Y-110490000D02*
X160223200Y-108051600D01*
X157784800Y-115874800D02*
X157784800Y-110490000D01*
X156616400Y-117043200D02*
X157784800Y-115874800D01*
%TO.N,RS485_DE*%
X156921200Y-118973600D02*
X158851600Y-117043200D01*
X158851600Y-117043200D02*
X158851600Y-111201200D01*
X158851600Y-111201200D02*
X159461200Y-110591600D01*
X159461200Y-110591600D02*
X161086800Y-110591600D01*
%TO.N,+3V3*%
X134264400Y-103530400D02*
X134264400Y-102908500D01*
X133431259Y-104363541D02*
X134264400Y-103530400D01*
X133431259Y-104939431D02*
X133431259Y-104363541D01*
%TO.N,I2C_SCL*%
X146647900Y-97028000D02*
X147747700Y-98127800D01*
X125222000Y-97028000D02*
X146647900Y-97028000D01*
X124104400Y-101701600D02*
X124155200Y-101650800D01*
X124155200Y-101650800D02*
X124155200Y-98094800D01*
X124155200Y-98094800D02*
X125222000Y-97028000D01*
%TO.N,I2C_SDA*%
X144819100Y-98044000D02*
X147747700Y-100972600D01*
X125628400Y-98653600D02*
X126238000Y-98044000D01*
X126238000Y-98044000D02*
X144819100Y-98044000D01*
X125628400Y-99415600D02*
X125628400Y-98653600D01*
%TO.N,+3V3*%
X131724400Y-102908500D02*
X134264400Y-102908500D01*
X134281400Y-102891500D02*
X134264400Y-102908500D01*
X136652000Y-102891500D02*
X134281400Y-102891500D01*
%TO.N,Net-(U1-PB6(XTAL1{slash}TOSC1))*%
X132063600Y-95300800D02*
X136296400Y-95300800D01*
%TO.N,Net-(U1-PB7(XTAL2{slash}TOSC2))*%
X140563600Y-95300800D02*
X143967200Y-95300800D01*
%TD*%
%TA.AperFunction,Conductor*%
%TO.N,GND*%
G36*
X125867145Y-90780185D02*
G01*
X125912900Y-90832989D01*
X125922222Y-90862969D01*
X125930628Y-90910646D01*
X125929311Y-90922448D01*
X125936343Y-90945629D01*
X125938072Y-90952866D01*
X125949899Y-91019940D01*
X125978162Y-91097592D01*
X125978991Y-91110639D01*
X125987128Y-91125862D01*
X125994292Y-91141905D01*
X126009776Y-91184448D01*
X126009777Y-91184449D01*
X126058578Y-91268974D01*
X126062055Y-91283309D01*
X126071792Y-91295173D01*
X126083326Y-91311838D01*
X126097307Y-91336053D01*
X126100414Y-91340491D01*
X126100038Y-91340754D01*
X126109371Y-91354560D01*
X126111254Y-91358082D01*
X126129702Y-91374661D01*
X126168914Y-91421393D01*
X126175484Y-91436406D01*
X126185928Y-91444977D01*
X126202254Y-91461126D01*
X126209837Y-91470163D01*
X126218872Y-91477744D01*
X126235020Y-91494070D01*
X126239146Y-91499098D01*
X126258606Y-91511085D01*
X126305337Y-91550297D01*
X126315234Y-91565172D01*
X126325438Y-91570627D01*
X126339245Y-91579961D01*
X126339509Y-91579586D01*
X126343945Y-91582692D01*
X126368163Y-91596675D01*
X126384824Y-91608206D01*
X126391770Y-91613906D01*
X126411025Y-91621421D01*
X126495547Y-91670221D01*
X126495551Y-91670222D01*
X126495555Y-91670225D01*
X126538103Y-91685711D01*
X126554143Y-91692874D01*
X126564334Y-91698321D01*
X126582407Y-91701836D01*
X126660062Y-91730101D01*
X126727145Y-91741929D01*
X126734379Y-91743657D01*
X126752543Y-91749167D01*
X126769350Y-91749370D01*
X126832468Y-91760500D01*
X126832472Y-91760500D01*
X126922041Y-91760500D01*
X126928121Y-91760799D01*
X126964302Y-91764362D01*
X126987096Y-91760500D01*
X147487220Y-91760500D01*
X147554259Y-91780185D01*
X147600014Y-91832989D01*
X147609958Y-91902147D01*
X147580933Y-91965703D01*
X147522155Y-92003477D01*
X147519313Y-92004275D01*
X147481176Y-92014493D01*
X147481167Y-92014496D01*
X147274932Y-92110666D01*
X147274930Y-92110667D01*
X147088523Y-92241189D01*
X146927619Y-92402093D01*
X146797097Y-92588500D01*
X146797096Y-92588502D01*
X146700926Y-92794737D01*
X146700923Y-92794746D01*
X146642031Y-93014537D01*
X146642029Y-93014548D01*
X146622197Y-93241233D01*
X146622197Y-93241236D01*
X146642029Y-93467921D01*
X146642031Y-93467932D01*
X146700923Y-93687723D01*
X146700926Y-93687732D01*
X146797096Y-93893967D01*
X146797097Y-93893969D01*
X146927619Y-94080376D01*
X147088522Y-94241279D01*
X147088525Y-94241281D01*
X147088526Y-94241282D01*
X147209188Y-94325769D01*
X147252813Y-94380345D01*
X147262065Y-94427344D01*
X147262065Y-95440977D01*
X147261952Y-95444721D01*
X147258400Y-95503444D01*
X147258400Y-95503448D01*
X147269001Y-95561301D01*
X147269564Y-95565002D01*
X147276658Y-95623421D01*
X147276659Y-95623426D01*
X147279874Y-95631902D01*
X147285899Y-95653512D01*
X147287535Y-95662440D01*
X147311677Y-95716082D01*
X147313110Y-95719542D01*
X147333975Y-95774556D01*
X147339128Y-95782022D01*
X147350149Y-95801562D01*
X147353870Y-95809828D01*
X147353875Y-95809837D01*
X147390153Y-95856143D01*
X147392372Y-95859159D01*
X147417943Y-95896202D01*
X147425797Y-95907581D01*
X147469850Y-95946608D01*
X147472524Y-95949125D01*
X148013887Y-96490488D01*
X148181512Y-96658113D01*
X148214997Y-96719436D01*
X148210013Y-96789128D01*
X148168141Y-96845061D01*
X148102677Y-96869478D01*
X148061738Y-96865569D01*
X147974397Y-96842166D01*
X147974393Y-96842165D01*
X147974392Y-96842165D01*
X147974391Y-96842164D01*
X147974386Y-96842164D01*
X147747702Y-96822332D01*
X147747699Y-96822332D01*
X147521013Y-96842164D01*
X147521009Y-96842164D01*
X147521008Y-96842165D01*
X147521003Y-96842166D01*
X147521000Y-96842167D01*
X147497373Y-96848497D01*
X147427523Y-96846832D01*
X147377603Y-96816402D01*
X147276916Y-96715715D01*
X147134077Y-96572876D01*
X147131526Y-96570165D01*
X147092516Y-96526132D01*
X147081137Y-96518278D01*
X147044094Y-96492707D01*
X147041078Y-96490488D01*
X146994772Y-96454210D01*
X146994770Y-96454209D01*
X146994769Y-96454208D01*
X146994765Y-96454206D01*
X146994763Y-96454205D01*
X146986497Y-96450484D01*
X146966957Y-96439463D01*
X146959491Y-96434310D01*
X146959492Y-96434310D01*
X146904477Y-96413445D01*
X146901017Y-96412012D01*
X146847375Y-96387870D01*
X146847376Y-96387870D01*
X146838447Y-96386234D01*
X146816837Y-96380209D01*
X146808361Y-96376994D01*
X146808356Y-96376993D01*
X146749937Y-96369899D01*
X146746236Y-96369336D01*
X146688386Y-96358735D01*
X146688379Y-96358735D01*
X146629657Y-96362287D01*
X146625913Y-96362400D01*
X145044149Y-96362400D01*
X144977110Y-96342715D01*
X144931355Y-96289911D01*
X144921411Y-96220753D01*
X144950436Y-96157197D01*
X144956468Y-96150719D01*
X144967245Y-96139941D01*
X144967244Y-96139941D01*
X144967247Y-96139939D01*
X145097768Y-95953534D01*
X145193939Y-95747296D01*
X145252835Y-95527492D01*
X145272668Y-95300800D01*
X145252835Y-95074108D01*
X145193939Y-94854304D01*
X145097768Y-94648066D01*
X144980322Y-94480334D01*
X144967245Y-94461658D01*
X144806341Y-94300754D01*
X144619934Y-94170232D01*
X144619932Y-94170231D01*
X144413697Y-94074061D01*
X144413688Y-94074058D01*
X144193897Y-94015166D01*
X144193893Y-94015165D01*
X144193892Y-94015165D01*
X144193891Y-94015164D01*
X144193886Y-94015164D01*
X143967202Y-93995332D01*
X143967198Y-93995332D01*
X143740513Y-94015164D01*
X143740502Y-94015166D01*
X143520711Y-94074058D01*
X143520697Y-94074063D01*
X143423031Y-94119606D01*
X143353954Y-94130098D01*
X143290170Y-94101578D01*
X143264407Y-94064746D01*
X143261647Y-94066254D01*
X143257393Y-94058464D01*
X143171147Y-93943255D01*
X143171144Y-93943252D01*
X143055935Y-93857006D01*
X143055928Y-93857002D01*
X142921082Y-93806708D01*
X142921083Y-93806708D01*
X142861483Y-93800301D01*
X142861481Y-93800300D01*
X142861473Y-93800300D01*
X142861464Y-93800300D01*
X138265729Y-93800300D01*
X138265723Y-93800301D01*
X138206116Y-93806708D01*
X138071271Y-93857002D01*
X138071264Y-93857006D01*
X137956055Y-93943252D01*
X137956052Y-93943255D01*
X137869806Y-94058464D01*
X137869802Y-94058471D01*
X137819508Y-94193317D01*
X137814352Y-94241279D01*
X137813101Y-94252923D01*
X137813100Y-94252935D01*
X137813100Y-94994581D01*
X137793415Y-95061620D01*
X137740611Y-95107375D01*
X137671453Y-95117319D01*
X137607897Y-95088294D01*
X137570123Y-95029516D01*
X137569325Y-95026674D01*
X137561161Y-94996207D01*
X137523139Y-94854304D01*
X137426968Y-94648066D01*
X137309522Y-94480334D01*
X137296445Y-94461658D01*
X137135541Y-94300754D01*
X136949134Y-94170232D01*
X136949132Y-94170231D01*
X136742897Y-94074061D01*
X136742888Y-94074058D01*
X136523097Y-94015166D01*
X136523093Y-94015165D01*
X136523092Y-94015165D01*
X136523091Y-94015164D01*
X136523086Y-94015164D01*
X136296402Y-93995332D01*
X136296398Y-93995332D01*
X136069713Y-94015164D01*
X136069702Y-94015166D01*
X135849911Y-94074058D01*
X135849902Y-94074061D01*
X135643667Y-94170231D01*
X135643665Y-94170232D01*
X135457258Y-94300754D01*
X135296354Y-94461658D01*
X135211865Y-94582323D01*
X135157288Y-94625948D01*
X135110290Y-94635200D01*
X134938099Y-94635200D01*
X134871060Y-94615515D01*
X134825305Y-94562711D01*
X134814099Y-94511200D01*
X134814099Y-94252929D01*
X134814098Y-94252923D01*
X134814097Y-94252916D01*
X134807691Y-94193317D01*
X134806204Y-94189331D01*
X134757397Y-94058471D01*
X134757393Y-94058464D01*
X134671147Y-93943255D01*
X134671144Y-93943252D01*
X134555935Y-93857006D01*
X134555928Y-93857002D01*
X134421082Y-93806708D01*
X134421083Y-93806708D01*
X134361483Y-93800301D01*
X134361481Y-93800300D01*
X134361473Y-93800300D01*
X134361464Y-93800300D01*
X129765729Y-93800300D01*
X129765723Y-93800301D01*
X129706116Y-93806708D01*
X129571271Y-93857002D01*
X129571264Y-93857006D01*
X129456055Y-93943252D01*
X129456052Y-93943255D01*
X129369806Y-94058464D01*
X129369802Y-94058471D01*
X129319508Y-94193317D01*
X129314352Y-94241279D01*
X129313100Y-94252927D01*
X129313100Y-95300798D01*
X129313101Y-96238400D01*
X129293416Y-96305439D01*
X129240613Y-96351194D01*
X129189101Y-96362400D01*
X125243987Y-96362400D01*
X125240243Y-96362287D01*
X125181520Y-96358735D01*
X125181513Y-96358735D01*
X125142558Y-96365873D01*
X125123653Y-96369337D01*
X125119964Y-96369899D01*
X125061541Y-96376993D01*
X125053057Y-96380211D01*
X125031453Y-96386233D01*
X125022534Y-96387867D01*
X125022524Y-96387871D01*
X124968878Y-96412014D01*
X124965420Y-96413446D01*
X124910407Y-96434311D01*
X124910406Y-96434311D01*
X124902937Y-96439467D01*
X124883405Y-96450483D01*
X124875130Y-96454207D01*
X124828814Y-96490492D01*
X124825800Y-96492710D01*
X124777384Y-96526131D01*
X124738366Y-96570172D01*
X124735799Y-96572898D01*
X123700098Y-97608599D01*
X123697372Y-97611166D01*
X123653331Y-97650184D01*
X123619910Y-97698600D01*
X123617692Y-97701614D01*
X123581407Y-97747930D01*
X123577683Y-97756205D01*
X123566667Y-97775737D01*
X123561511Y-97783206D01*
X123561511Y-97783207D01*
X123540646Y-97838220D01*
X123539214Y-97841678D01*
X123515071Y-97895324D01*
X123515067Y-97895334D01*
X123513433Y-97904253D01*
X123507411Y-97925857D01*
X123504193Y-97934341D01*
X123497099Y-97992764D01*
X123496536Y-97996465D01*
X123485935Y-98054313D01*
X123485935Y-98054317D01*
X123489487Y-98113042D01*
X123489600Y-98116786D01*
X123489600Y-100479919D01*
X123469915Y-100546958D01*
X123436723Y-100581494D01*
X123265259Y-100701553D01*
X123104354Y-100862458D01*
X122973832Y-101048865D01*
X122973831Y-101048867D01*
X122877661Y-101255102D01*
X122877658Y-101255111D01*
X122818766Y-101474902D01*
X122818764Y-101474913D01*
X122798932Y-101701598D01*
X122798932Y-101701601D01*
X122818764Y-101928286D01*
X122818766Y-101928297D01*
X122877658Y-102148088D01*
X122877661Y-102148097D01*
X122973831Y-102354332D01*
X122973832Y-102354334D01*
X123104354Y-102540741D01*
X123265258Y-102701645D01*
X123265261Y-102701647D01*
X123451666Y-102832168D01*
X123657904Y-102928339D01*
X123877708Y-102987235D01*
X124039630Y-103001401D01*
X124104398Y-103007068D01*
X124104400Y-103007068D01*
X124104402Y-103007068D01*
X124161073Y-103002109D01*
X124331092Y-102987235D01*
X124550896Y-102928339D01*
X124757134Y-102832168D01*
X124943539Y-102701647D01*
X125104447Y-102540739D01*
X125234968Y-102354334D01*
X125331139Y-102148096D01*
X125390035Y-101928292D01*
X125396969Y-101849033D01*
X125422420Y-101783968D01*
X125479010Y-101742989D01*
X125548772Y-101739110D01*
X125609556Y-101773563D01*
X125640271Y-101827749D01*
X125671659Y-101944890D01*
X125671661Y-101944897D01*
X125767831Y-102151132D01*
X125767832Y-102151134D01*
X125898354Y-102337541D01*
X126059257Y-102498444D01*
X126059260Y-102498446D01*
X126059261Y-102498447D01*
X126179923Y-102582934D01*
X126223548Y-102637510D01*
X126232800Y-102684509D01*
X126232800Y-104270412D01*
X126232687Y-104274156D01*
X126229135Y-104332879D01*
X126229135Y-104332883D01*
X126239736Y-104390736D01*
X126240299Y-104394437D01*
X126247393Y-104452856D01*
X126247394Y-104452861D01*
X126250609Y-104461337D01*
X126256634Y-104482947D01*
X126258270Y-104491875D01*
X126282412Y-104545517D01*
X126283845Y-104548977D01*
X126304710Y-104603991D01*
X126309863Y-104611457D01*
X126320884Y-104630997D01*
X126324605Y-104639263D01*
X126324610Y-104639272D01*
X126360888Y-104685578D01*
X126363107Y-104688594D01*
X126379778Y-104712744D01*
X126392145Y-104730661D01*
X126396531Y-104737014D01*
X126396532Y-104737016D01*
X126440565Y-104776026D01*
X126443292Y-104778594D01*
X133362597Y-111697898D01*
X133365164Y-111700624D01*
X133404184Y-111744668D01*
X133452597Y-111778085D01*
X133455613Y-111780304D01*
X133501931Y-111816592D01*
X133510194Y-111820311D01*
X133529747Y-111831339D01*
X133537206Y-111836488D01*
X133537207Y-111836488D01*
X133537208Y-111836489D01*
X133592232Y-111857356D01*
X133595670Y-111858781D01*
X133649327Y-111882930D01*
X133658242Y-111884563D01*
X133679864Y-111890591D01*
X133688341Y-111893806D01*
X133746752Y-111900898D01*
X133750456Y-111901462D01*
X133764540Y-111904042D01*
X133808317Y-111912065D01*
X133808318Y-111912064D01*
X133808319Y-111912065D01*
X133867047Y-111908513D01*
X133870791Y-111908400D01*
X135283900Y-111908400D01*
X135350939Y-111928085D01*
X135396694Y-111980889D01*
X135407900Y-112032400D01*
X135407900Y-112790670D01*
X135407901Y-112790676D01*
X135414308Y-112850279D01*
X135416092Y-112857826D01*
X135414629Y-112858171D01*
X135418985Y-112919171D01*
X135414573Y-112934196D01*
X135414308Y-112935317D01*
X135407901Y-112994916D01*
X135407901Y-112994923D01*
X135407900Y-112994935D01*
X135407900Y-113890670D01*
X135407901Y-113890676D01*
X135414308Y-113950283D01*
X135464602Y-114085128D01*
X135464606Y-114085135D01*
X135550852Y-114200344D01*
X135550855Y-114200347D01*
X135666064Y-114286593D01*
X135666071Y-114286597D01*
X135800917Y-114336891D01*
X135800916Y-114336891D01*
X135807844Y-114337635D01*
X135860527Y-114343300D01*
X137756272Y-114343299D01*
X137815883Y-114336891D01*
X137950731Y-114286596D01*
X138065946Y-114200346D01*
X138152196Y-114085131D01*
X138202491Y-113950283D01*
X138208900Y-113890673D01*
X138208899Y-112994928D01*
X138202491Y-112935317D01*
X138202490Y-112935315D01*
X138202490Y-112935312D01*
X138200708Y-112927769D01*
X138202173Y-112927422D01*
X138197809Y-112866451D01*
X138202219Y-112851433D01*
X138202489Y-112850288D01*
X138202491Y-112850283D01*
X138208900Y-112790673D01*
X138208899Y-111894928D01*
X138202491Y-111835317D01*
X138202490Y-111835315D01*
X138202490Y-111835312D01*
X138200708Y-111827769D01*
X138202173Y-111827422D01*
X138197809Y-111766451D01*
X138202219Y-111751433D01*
X138202489Y-111750288D01*
X138202491Y-111750283D01*
X138208900Y-111690673D01*
X138208899Y-110794928D01*
X138202491Y-110735317D01*
X138202490Y-110735315D01*
X138202490Y-110735312D01*
X138200708Y-110727769D01*
X138202173Y-110727422D01*
X138197809Y-110666451D01*
X138202219Y-110651433D01*
X138202489Y-110650288D01*
X138202491Y-110650283D01*
X138208900Y-110590673D01*
X138208899Y-109694928D01*
X138202491Y-109635317D01*
X138202490Y-109635315D01*
X138202490Y-109635312D01*
X138200708Y-109627769D01*
X138202173Y-109627422D01*
X138197809Y-109566451D01*
X138202219Y-109551433D01*
X138202489Y-109550288D01*
X138202491Y-109550283D01*
X138208900Y-109490673D01*
X138208899Y-108594928D01*
X138202491Y-108535317D01*
X138201662Y-108527604D01*
X138204133Y-108527338D01*
X138207214Y-108469741D01*
X138231345Y-108428747D01*
X138235065Y-108424547D01*
X138237609Y-108421846D01*
X138420621Y-108238834D01*
X138481942Y-108205351D01*
X138551634Y-108210335D01*
X138607567Y-108252207D01*
X138631984Y-108317671D01*
X138632300Y-108326517D01*
X138632300Y-109239870D01*
X138632301Y-109239876D01*
X138638709Y-109299484D01*
X138675701Y-109398668D01*
X138680685Y-109468360D01*
X138675701Y-109485332D01*
X138638709Y-109584514D01*
X138638708Y-109584516D01*
X138632301Y-109644116D01*
X138632300Y-109644135D01*
X138632300Y-111239870D01*
X138632301Y-111239876D01*
X138638709Y-111299484D01*
X138675701Y-111398668D01*
X138680685Y-111468360D01*
X138675701Y-111485332D01*
X138638709Y-111584514D01*
X138638708Y-111584516D01*
X138632301Y-111644116D01*
X138632300Y-111644135D01*
X138632300Y-113239870D01*
X138632301Y-113239876D01*
X138638709Y-113299484D01*
X138675701Y-113398668D01*
X138680685Y-113468360D01*
X138675701Y-113485332D01*
X138638709Y-113584514D01*
X138638708Y-113584516D01*
X138632301Y-113644116D01*
X138632301Y-113644123D01*
X138632300Y-113644135D01*
X138632300Y-115239870D01*
X138632301Y-115239876D01*
X138638708Y-115299483D01*
X138689002Y-115434328D01*
X138689006Y-115434335D01*
X138775252Y-115549544D01*
X138775255Y-115549547D01*
X138890464Y-115635793D01*
X138890471Y-115635797D01*
X139025317Y-115686091D01*
X139025316Y-115686091D01*
X139032244Y-115686835D01*
X139084927Y-115692500D01*
X141180672Y-115692499D01*
X141240283Y-115686091D01*
X141375131Y-115635796D01*
X141490346Y-115549546D01*
X141576596Y-115434331D01*
X141626891Y-115299483D01*
X141633300Y-115239873D01*
X141633299Y-113644128D01*
X141626891Y-113584517D01*
X141626890Y-113584514D01*
X141626890Y-113584512D01*
X141625108Y-113576969D01*
X141626973Y-113576528D01*
X141622708Y-113517003D01*
X141656184Y-113455675D01*
X141717503Y-113422181D01*
X141775970Y-113423568D01*
X141882208Y-113452035D01*
X142044130Y-113466201D01*
X142108898Y-113471868D01*
X142108900Y-113471868D01*
X142108902Y-113471868D01*
X142165572Y-113466909D01*
X142335592Y-113452035D01*
X142555396Y-113393139D01*
X142761634Y-113296968D01*
X142843179Y-113239870D01*
X154632300Y-113239870D01*
X154632301Y-113239876D01*
X154638708Y-113299483D01*
X154689002Y-113434328D01*
X154689006Y-113434335D01*
X154775252Y-113549544D01*
X154775255Y-113549547D01*
X154890464Y-113635793D01*
X154890471Y-113635797D01*
X155025317Y-113686091D01*
X155025316Y-113686091D01*
X155032244Y-113686835D01*
X155084927Y-113692500D01*
X156995200Y-113692499D01*
X157062239Y-113712184D01*
X157107994Y-113764987D01*
X157119200Y-113816499D01*
X157119200Y-115547736D01*
X157099515Y-115614775D01*
X157082881Y-115635418D01*
X156986495Y-115731803D01*
X156925171Y-115765287D01*
X156866722Y-115763896D01*
X156843097Y-115757566D01*
X156843093Y-115757565D01*
X156843092Y-115757565D01*
X156729745Y-115747648D01*
X156616401Y-115737732D01*
X156616398Y-115737732D01*
X156389713Y-115757564D01*
X156389702Y-115757566D01*
X156169911Y-115816458D01*
X156169902Y-115816461D01*
X155963667Y-115912631D01*
X155963665Y-115912632D01*
X155777258Y-116043154D01*
X155616354Y-116204058D01*
X155485832Y-116390465D01*
X155485831Y-116390467D01*
X155389661Y-116596702D01*
X155389658Y-116596711D01*
X155330766Y-116816502D01*
X155330764Y-116816513D01*
X155310932Y-117043198D01*
X155310932Y-117043201D01*
X155330764Y-117269886D01*
X155330766Y-117269897D01*
X155389658Y-117489688D01*
X155389661Y-117489697D01*
X155485831Y-117695932D01*
X155485832Y-117695934D01*
X155616354Y-117882341D01*
X155777259Y-118043246D01*
X155815095Y-118069739D01*
X155858720Y-118124316D01*
X155865914Y-118193814D01*
X155845547Y-118242437D01*
X155790634Y-118320862D01*
X155694461Y-118527102D01*
X155694458Y-118527111D01*
X155635566Y-118746902D01*
X155635564Y-118746913D01*
X155615732Y-118973598D01*
X155615732Y-118973601D01*
X155635564Y-119200286D01*
X155635566Y-119200297D01*
X155694458Y-119420088D01*
X155694461Y-119420097D01*
X155790631Y-119626332D01*
X155790632Y-119626334D01*
X155921154Y-119812741D01*
X156082058Y-119973645D01*
X156082061Y-119973647D01*
X156268466Y-120104168D01*
X156474704Y-120200339D01*
X156694508Y-120259235D01*
X156847922Y-120272657D01*
X156921198Y-120279068D01*
X156921200Y-120279068D01*
X156921202Y-120279068D01*
X156977872Y-120274109D01*
X157147892Y-120259235D01*
X157367696Y-120200339D01*
X157573934Y-120104168D01*
X157760339Y-119973647D01*
X157921247Y-119812739D01*
X158051768Y-119626334D01*
X158147939Y-119420096D01*
X158206835Y-119200292D01*
X158226668Y-118973600D01*
X158206835Y-118746908D01*
X158200503Y-118723275D01*
X158202166Y-118653426D01*
X158232595Y-118603504D01*
X159306722Y-117529377D01*
X159309397Y-117526858D01*
X159353468Y-117487816D01*
X159386892Y-117439391D01*
X159389084Y-117436411D01*
X159425393Y-117390069D01*
X159429112Y-117381802D01*
X159440145Y-117362242D01*
X159445289Y-117354792D01*
X159466154Y-117299773D01*
X159467574Y-117296343D01*
X159491730Y-117242673D01*
X159493363Y-117233755D01*
X159499389Y-117212140D01*
X159502606Y-117203659D01*
X159509698Y-117145249D01*
X159510261Y-117141545D01*
X159520865Y-117083683D01*
X159518416Y-117043198D01*
X159517313Y-117024951D01*
X159517200Y-117021207D01*
X159517200Y-115973578D01*
X159536885Y-115906539D01*
X159589689Y-115860784D01*
X159658847Y-115850840D01*
X159722403Y-115879865D01*
X159760177Y-115938643D01*
X159760975Y-115941485D01*
X159812894Y-116135255D01*
X159812896Y-116135259D01*
X159812897Y-116135263D01*
X159844977Y-116204058D01*
X159912765Y-116349430D01*
X159912767Y-116349434D01*
X160048301Y-116542995D01*
X160048306Y-116543002D01*
X160215397Y-116710093D01*
X160215403Y-116710098D01*
X160400958Y-116840025D01*
X160444583Y-116894602D01*
X160451777Y-116964100D01*
X160420254Y-117026455D01*
X160400958Y-117043175D01*
X160215397Y-117173105D01*
X160048305Y-117340197D01*
X159912765Y-117533769D01*
X159912764Y-117533771D01*
X159812898Y-117747935D01*
X159812894Y-117747944D01*
X159751738Y-117976186D01*
X159751736Y-117976196D01*
X159731141Y-118211599D01*
X159731141Y-118211600D01*
X159751736Y-118447003D01*
X159751738Y-118447013D01*
X159812894Y-118675255D01*
X159812896Y-118675259D01*
X159812897Y-118675263D01*
X159896973Y-118855563D01*
X159912765Y-118889430D01*
X159912767Y-118889434D01*
X159979862Y-118985255D01*
X160048305Y-119083001D01*
X160215399Y-119250095D01*
X160279410Y-119294916D01*
X160408965Y-119385632D01*
X160408967Y-119385633D01*
X160408970Y-119385635D01*
X160623137Y-119485503D01*
X160851392Y-119546663D01*
X161039718Y-119563139D01*
X161086799Y-119567259D01*
X161086800Y-119567259D01*
X161086801Y-119567259D01*
X161126034Y-119563826D01*
X161322208Y-119546663D01*
X161550463Y-119485503D01*
X161764630Y-119385635D01*
X161958201Y-119250095D01*
X162125295Y-119083001D01*
X162260835Y-118889430D01*
X162360703Y-118675263D01*
X162421863Y-118447008D01*
X162442459Y-118211600D01*
X162421863Y-117976192D01*
X162360703Y-117747937D01*
X162260835Y-117533771D01*
X162257771Y-117529394D01*
X162125294Y-117340197D01*
X161958202Y-117173106D01*
X161958196Y-117173101D01*
X161772642Y-117043175D01*
X161729017Y-116988598D01*
X161721823Y-116919100D01*
X161753346Y-116856745D01*
X161772642Y-116840025D01*
X161876221Y-116767498D01*
X161958201Y-116710095D01*
X162125295Y-116543001D01*
X162260835Y-116349430D01*
X162360703Y-116135263D01*
X162421863Y-115907008D01*
X162442459Y-115671600D01*
X162439326Y-115635796D01*
X162436108Y-115599006D01*
X162421863Y-115436192D01*
X162360703Y-115207937D01*
X162260835Y-114993771D01*
X162125295Y-114800199D01*
X162125294Y-114800197D01*
X161958202Y-114633106D01*
X161958196Y-114633101D01*
X161772642Y-114503175D01*
X161729017Y-114448598D01*
X161721823Y-114379100D01*
X161753346Y-114316745D01*
X161772642Y-114300025D01*
X161794826Y-114284491D01*
X161958201Y-114170095D01*
X162125295Y-114003001D01*
X162260835Y-113809430D01*
X162360703Y-113595263D01*
X162421863Y-113367008D01*
X162442459Y-113131600D01*
X162421863Y-112896192D01*
X162360703Y-112667937D01*
X162260835Y-112453771D01*
X162218348Y-112393092D01*
X162125294Y-112260197D01*
X161958202Y-112093106D01*
X161958196Y-112093101D01*
X161772642Y-111963175D01*
X161729017Y-111908598D01*
X161721823Y-111839100D01*
X161753346Y-111776745D01*
X161772642Y-111760025D01*
X161794826Y-111744491D01*
X161958201Y-111630095D01*
X162125295Y-111463001D01*
X162260835Y-111269430D01*
X162360703Y-111055263D01*
X162421863Y-110827008D01*
X162442459Y-110591600D01*
X162421863Y-110356192D01*
X162360703Y-110127937D01*
X162260835Y-109913771D01*
X162255615Y-109906315D01*
X162125294Y-109720197D01*
X161958202Y-109553106D01*
X161958196Y-109553101D01*
X161772642Y-109423175D01*
X161729017Y-109368598D01*
X161721823Y-109299100D01*
X161753346Y-109236745D01*
X161772642Y-109220025D01*
X161794826Y-109204491D01*
X161958201Y-109090095D01*
X162125295Y-108923001D01*
X162260835Y-108729430D01*
X162360703Y-108515263D01*
X162421863Y-108287008D01*
X162442459Y-108051600D01*
X162421863Y-107816192D01*
X162362641Y-107595168D01*
X162360705Y-107587944D01*
X162360704Y-107587943D01*
X162360703Y-107587937D01*
X162260835Y-107373771D01*
X162249671Y-107357826D01*
X162125294Y-107180197D01*
X161958202Y-107013106D01*
X161958196Y-107013101D01*
X161772642Y-106883175D01*
X161729017Y-106828598D01*
X161721823Y-106759100D01*
X161753346Y-106696745D01*
X161772642Y-106680025D01*
X161794826Y-106664491D01*
X161958201Y-106550095D01*
X162125295Y-106383001D01*
X162260835Y-106189430D01*
X162360703Y-105975263D01*
X162421863Y-105747008D01*
X162442459Y-105511600D01*
X162421863Y-105276192D01*
X162360703Y-105047937D01*
X162260835Y-104833771D01*
X162258885Y-104830985D01*
X162125294Y-104640197D01*
X161958202Y-104473106D01*
X161958196Y-104473101D01*
X161772642Y-104343175D01*
X161729017Y-104288598D01*
X161721823Y-104219100D01*
X161753346Y-104156745D01*
X161772642Y-104140025D01*
X161866461Y-104074332D01*
X161958201Y-104010095D01*
X162125295Y-103843001D01*
X162260835Y-103649430D01*
X162303759Y-103557377D01*
X162339670Y-103512171D01*
X162343625Y-103509073D01*
X162346559Y-103506914D01*
X162395016Y-103473468D01*
X162434036Y-103429422D01*
X162436585Y-103426714D01*
X163167513Y-102695785D01*
X163170188Y-102693266D01*
X163214268Y-102654216D01*
X163247707Y-102605769D01*
X163249894Y-102602797D01*
X163286193Y-102556469D01*
X163289912Y-102548203D01*
X163300946Y-102528642D01*
X163306089Y-102521192D01*
X163326954Y-102466170D01*
X163328367Y-102462759D01*
X163352531Y-102409073D01*
X163354165Y-102400150D01*
X163360195Y-102378523D01*
X163363406Y-102370059D01*
X163370497Y-102311654D01*
X163371056Y-102307972D01*
X163381665Y-102250083D01*
X163380732Y-102234663D01*
X163378113Y-102191351D01*
X163378000Y-102187607D01*
X163378000Y-99589991D01*
X163378113Y-99586247D01*
X163381665Y-99527516D01*
X163371418Y-99471600D01*
X163371057Y-99469631D01*
X163370497Y-99465945D01*
X163368520Y-99449664D01*
X163363406Y-99407541D01*
X163360192Y-99399068D01*
X163354165Y-99377445D01*
X163352531Y-99368529D01*
X163352531Y-99368527D01*
X163328376Y-99314860D01*
X163326948Y-99311410D01*
X163306089Y-99256408D01*
X163300942Y-99248952D01*
X163289913Y-99229397D01*
X163286192Y-99221129D01*
X163249900Y-99174808D01*
X163247679Y-99171789D01*
X163232591Y-99149930D01*
X163214268Y-99123384D01*
X163170215Y-99084356D01*
X163167489Y-99081789D01*
X162814985Y-98729285D01*
X162436584Y-98350883D01*
X162434034Y-98348174D01*
X162395016Y-98304132D01*
X162383637Y-98296278D01*
X162346594Y-98270707D01*
X162343578Y-98268488D01*
X162297272Y-98232210D01*
X162297270Y-98232209D01*
X162297269Y-98232208D01*
X162297265Y-98232206D01*
X162297263Y-98232205D01*
X162288997Y-98228484D01*
X162269457Y-98217463D01*
X162261991Y-98212310D01*
X162261992Y-98212310D01*
X162206977Y-98191445D01*
X162203517Y-98190012D01*
X162149875Y-98165870D01*
X162149876Y-98165870D01*
X162140947Y-98164234D01*
X162119337Y-98158209D01*
X162110861Y-98154994D01*
X162110856Y-98154993D01*
X162052437Y-98147899D01*
X162048736Y-98147336D01*
X161990886Y-98136735D01*
X161990879Y-98136735D01*
X161932157Y-98140287D01*
X161928413Y-98140400D01*
X159432392Y-98140400D01*
X159428648Y-98140287D01*
X159369920Y-98136735D01*
X159369913Y-98136735D01*
X159330958Y-98143873D01*
X159312053Y-98147337D01*
X159308364Y-98147899D01*
X159249941Y-98154993D01*
X159241457Y-98158211D01*
X159219853Y-98164233D01*
X159210934Y-98165867D01*
X159210927Y-98165870D01*
X159157274Y-98190016D01*
X159153815Y-98191449D01*
X159098807Y-98212310D01*
X159098806Y-98212311D01*
X159091346Y-98217461D01*
X159071804Y-98228483D01*
X159063532Y-98232205D01*
X159017209Y-98268497D01*
X159014193Y-98270716D01*
X158965785Y-98304131D01*
X158965781Y-98304134D01*
X158926758Y-98348181D01*
X158924191Y-98350907D01*
X158662080Y-98613018D01*
X158600757Y-98646503D01*
X158531065Y-98641519D01*
X158475132Y-98599647D01*
X158450715Y-98534183D01*
X158450400Y-98525364D01*
X158450400Y-94849348D01*
X158470085Y-94782309D01*
X158486714Y-94761671D01*
X158581647Y-94666739D01*
X158712168Y-94480334D01*
X158808339Y-94274096D01*
X158867235Y-94054292D01*
X158887068Y-93827600D01*
X158881154Y-93760002D01*
X159664723Y-93760002D01*
X159683793Y-93977975D01*
X159683793Y-93977979D01*
X159740422Y-94189322D01*
X159740424Y-94189326D01*
X159740425Y-94189330D01*
X159785127Y-94285194D01*
X159832897Y-94387638D01*
X159857998Y-94423486D01*
X159958402Y-94566877D01*
X160113123Y-94721598D01*
X160292361Y-94847102D01*
X160490670Y-94939575D01*
X160490675Y-94939576D01*
X160490679Y-94939578D01*
X160515749Y-94946295D01*
X160525775Y-94948981D01*
X160528882Y-94949902D01*
X160532944Y-94951221D01*
X160532948Y-94951223D01*
X160540977Y-94953054D01*
X160702023Y-94996207D01*
X160743207Y-94999810D01*
X160751594Y-95001128D01*
X160788667Y-95009591D01*
X160820835Y-95006601D01*
X160920000Y-95015277D01*
X160965291Y-95011314D01*
X160973461Y-95011142D01*
X160976194Y-95011265D01*
X160976196Y-95011264D01*
X160981749Y-95011515D01*
X160981763Y-95011514D01*
X161011648Y-95012856D01*
X161041479Y-95004649D01*
X161137977Y-94996207D01*
X161185915Y-94983361D01*
X161193643Y-94981810D01*
X161195356Y-94981577D01*
X161198713Y-94981123D01*
X161198715Y-94981122D01*
X161200819Y-94980837D01*
X161200840Y-94980834D01*
X161231609Y-94976666D01*
X161258282Y-94963971D01*
X161314234Y-94948979D01*
X161349320Y-94939578D01*
X161349323Y-94939576D01*
X161349330Y-94939575D01*
X161398182Y-94916794D01*
X161405193Y-94914032D01*
X161412274Y-94911732D01*
X161412277Y-94911730D01*
X161414252Y-94911089D01*
X161414263Y-94911085D01*
X161441653Y-94902185D01*
X161464517Y-94885862D01*
X161547639Y-94847102D01*
X161595328Y-94813709D01*
X161601502Y-94809904D01*
X161610013Y-94805325D01*
X161610015Y-94805322D01*
X161612472Y-94804001D01*
X161614913Y-94802688D01*
X161614919Y-94802684D01*
X161635152Y-94791796D01*
X161653773Y-94772785D01*
X161726877Y-94721598D01*
X161771182Y-94677292D01*
X161776336Y-94672685D01*
X161785574Y-94665319D01*
X161785578Y-94665313D01*
X161789468Y-94662212D01*
X161790866Y-94661640D01*
X161794299Y-94658359D01*
X161806039Y-94648996D01*
X161820180Y-94628294D01*
X161881598Y-94566877D01*
X161920146Y-94511824D01*
X161924206Y-94506641D01*
X161932456Y-94497198D01*
X161935022Y-94495564D01*
X161940654Y-94487813D01*
X161948945Y-94478322D01*
X161958596Y-94456912D01*
X162007102Y-94387639D01*
X162037462Y-94322531D01*
X162040416Y-94316960D01*
X162041646Y-94314899D01*
X162044777Y-94309659D01*
X162048076Y-94306606D01*
X162054205Y-94293881D01*
X162059395Y-94285194D01*
X162064752Y-94264006D01*
X162099575Y-94189330D01*
X162100105Y-94187354D01*
X162104692Y-94170232D01*
X162119408Y-94115310D01*
X162121239Y-94109604D01*
X162122879Y-94105233D01*
X162126402Y-94100547D01*
X162131308Y-94082772D01*
X162133961Y-94075702D01*
X162135412Y-94055583D01*
X162146243Y-94015164D01*
X162156207Y-93977977D01*
X162163316Y-93896708D01*
X162164073Y-93891070D01*
X162167484Y-93872276D01*
X162167484Y-93872274D01*
X162169851Y-93859232D01*
X162168067Y-93846234D01*
X162168138Y-93843047D01*
X162168352Y-93839149D01*
X162175277Y-93760000D01*
X162168356Y-93680900D01*
X162168140Y-93676963D01*
X162168113Y-93675827D01*
X162168070Y-93673884D01*
X162170554Y-93664641D01*
X162164075Y-93628940D01*
X162163316Y-93623288D01*
X162156207Y-93542023D01*
X162135411Y-93464411D01*
X162135775Y-93449123D01*
X162131308Y-93437222D01*
X162127344Y-93422861D01*
X162122879Y-93414764D01*
X162121244Y-93410409D01*
X162119405Y-93404677D01*
X162099575Y-93330670D01*
X162064752Y-93255994D01*
X162062263Y-93239605D01*
X162054204Y-93226117D01*
X162049268Y-93215869D01*
X162044783Y-93210348D01*
X162040418Y-93203043D01*
X162037455Y-93197455D01*
X162007102Y-93132362D01*
X161958597Y-93063089D01*
X161952903Y-93046205D01*
X161940655Y-93032186D01*
X161936132Y-93025961D01*
X161932453Y-93022797D01*
X161924223Y-93013377D01*
X161920124Y-93008143D01*
X161881599Y-92953124D01*
X161881596Y-92953121D01*
X161820180Y-92891705D01*
X161811061Y-92875005D01*
X161794299Y-92861638D01*
X161791557Y-92859017D01*
X161789468Y-92857786D01*
X161776353Y-92847327D01*
X161771166Y-92842691D01*
X161726878Y-92798403D01*
X161726869Y-92798396D01*
X161653772Y-92747212D01*
X161641162Y-92731436D01*
X161601505Y-92710096D01*
X161595318Y-92706283D01*
X161547643Y-92672900D01*
X161464518Y-92634138D01*
X161448508Y-92620040D01*
X161405216Y-92605974D01*
X161398167Y-92603197D01*
X161349332Y-92580426D01*
X161349330Y-92580425D01*
X161333693Y-92576235D01*
X161258273Y-92556025D01*
X161239119Y-92544349D01*
X161193640Y-92538188D01*
X161185909Y-92536636D01*
X161137985Y-92523794D01*
X161137971Y-92523792D01*
X161041472Y-92515350D01*
X161019575Y-92506784D01*
X160973463Y-92508856D01*
X160965271Y-92508682D01*
X160920006Y-92504723D01*
X160919997Y-92504723D01*
X160820820Y-92513399D01*
X160796749Y-92508561D01*
X160751593Y-92518870D01*
X160743191Y-92520190D01*
X160702020Y-92523793D01*
X160603179Y-92550277D01*
X160577623Y-92549668D01*
X160539030Y-92566169D01*
X160522381Y-92571927D01*
X160490667Y-92580425D01*
X160292361Y-92672898D01*
X160292357Y-92672900D01*
X160113121Y-92798402D01*
X159958402Y-92953121D01*
X159832900Y-93132357D01*
X159832898Y-93132361D01*
X159740426Y-93330668D01*
X159740422Y-93330677D01*
X159683793Y-93542020D01*
X159683793Y-93542024D01*
X159664723Y-93759997D01*
X159664723Y-93760002D01*
X158881154Y-93760002D01*
X158867235Y-93600908D01*
X158808339Y-93381104D01*
X158712168Y-93174866D01*
X158581647Y-92988461D01*
X158581645Y-92988458D01*
X158420741Y-92827554D01*
X158234334Y-92697032D01*
X158234332Y-92697031D01*
X158028097Y-92600861D01*
X158028088Y-92600858D01*
X157808297Y-92541966D01*
X157808293Y-92541965D01*
X157808292Y-92541965D01*
X157808291Y-92541964D01*
X157808286Y-92541964D01*
X157581602Y-92522132D01*
X157581598Y-92522132D01*
X157354913Y-92541964D01*
X157354902Y-92541966D01*
X157135111Y-92600858D01*
X157135102Y-92600861D01*
X156928867Y-92697031D01*
X156928865Y-92697032D01*
X156742458Y-92827554D01*
X156581554Y-92988458D01*
X156451032Y-93174865D01*
X156451031Y-93174867D01*
X156354861Y-93381102D01*
X156354858Y-93381111D01*
X156295966Y-93600902D01*
X156295964Y-93600913D01*
X156276132Y-93827598D01*
X156276132Y-93827601D01*
X156295964Y-94054286D01*
X156295966Y-94054297D01*
X156354858Y-94274088D01*
X156354861Y-94274097D01*
X156451031Y-94480332D01*
X156451032Y-94480334D01*
X156581554Y-94666741D01*
X156742458Y-94827645D01*
X156780529Y-94854302D01*
X156928866Y-94958168D01*
X157047604Y-95013536D01*
X157100044Y-95059708D01*
X157119200Y-95125918D01*
X157119200Y-101067500D01*
X157099515Y-101134539D01*
X157046711Y-101180294D01*
X156995200Y-101191500D01*
X155084929Y-101191500D01*
X155084923Y-101191501D01*
X155025316Y-101197908D01*
X154890471Y-101248202D01*
X154890464Y-101248206D01*
X154775255Y-101334452D01*
X154775252Y-101334455D01*
X154689006Y-101449664D01*
X154689002Y-101449671D01*
X154638708Y-101584517D01*
X154632301Y-101644116D01*
X154632300Y-101644135D01*
X154632300Y-103239870D01*
X154632301Y-103239876D01*
X154638709Y-103299484D01*
X154675701Y-103398668D01*
X154680685Y-103468360D01*
X154675701Y-103485332D01*
X154638709Y-103584514D01*
X154638708Y-103584516D01*
X154632301Y-103644116D01*
X154632301Y-103644123D01*
X154632300Y-103644135D01*
X154632300Y-105239870D01*
X154632301Y-105239876D01*
X154638709Y-105299484D01*
X154675701Y-105398668D01*
X154680685Y-105468360D01*
X154675701Y-105485332D01*
X154638709Y-105584514D01*
X154638708Y-105584516D01*
X154632301Y-105644116D01*
X154632300Y-105644135D01*
X154632300Y-107239870D01*
X154632301Y-107239876D01*
X154638709Y-107299484D01*
X154675701Y-107398668D01*
X154680685Y-107468360D01*
X154675701Y-107485332D01*
X154638709Y-107584514D01*
X154638708Y-107584516D01*
X154632301Y-107644116D01*
X154632300Y-107644135D01*
X154632300Y-109239870D01*
X154632301Y-109239876D01*
X154638709Y-109299484D01*
X154675701Y-109398668D01*
X154680685Y-109468360D01*
X154675701Y-109485332D01*
X154638709Y-109584514D01*
X154638708Y-109584516D01*
X154632301Y-109644116D01*
X154632300Y-109644135D01*
X154632300Y-111239870D01*
X154632301Y-111239876D01*
X154638709Y-111299484D01*
X154675701Y-111398668D01*
X154680685Y-111468360D01*
X154675701Y-111485332D01*
X154638709Y-111584514D01*
X154638708Y-111584516D01*
X154632301Y-111644116D01*
X154632300Y-111644135D01*
X154632300Y-113239870D01*
X142843179Y-113239870D01*
X142948039Y-113166447D01*
X143108947Y-113005539D01*
X143239468Y-112819134D01*
X143335639Y-112612896D01*
X143394535Y-112393092D01*
X143414368Y-112166400D01*
X143394535Y-111939708D01*
X143343778Y-111750279D01*
X143335641Y-111719911D01*
X143335640Y-111719910D01*
X143335639Y-111719904D01*
X143328247Y-111704053D01*
X143317757Y-111634977D01*
X143346277Y-111571193D01*
X143404754Y-111532954D01*
X143429817Y-111528124D01*
X143503992Y-111521635D01*
X143723796Y-111462739D01*
X143930034Y-111366568D01*
X144116439Y-111236047D01*
X144277347Y-111075139D01*
X144407868Y-110888734D01*
X144504039Y-110682496D01*
X144562935Y-110462692D01*
X144582768Y-110236000D01*
X144562935Y-110009308D01*
X144504039Y-109789504D01*
X144407868Y-109583266D01*
X144277347Y-109396861D01*
X144277345Y-109396858D01*
X144116441Y-109235954D01*
X143939664Y-109112175D01*
X143896039Y-109057599D01*
X143888845Y-108988100D01*
X143920367Y-108925745D01*
X143980597Y-108890331D01*
X144010787Y-108886600D01*
X145760513Y-108886600D01*
X145764257Y-108886713D01*
X145822980Y-108890265D01*
X145822980Y-108890264D01*
X145822983Y-108890265D01*
X145880857Y-108879659D01*
X145884549Y-108879098D01*
X145898732Y-108877375D01*
X145942959Y-108872006D01*
X145951440Y-108868789D01*
X145973055Y-108862763D01*
X145981973Y-108861130D01*
X146035665Y-108836964D01*
X146039051Y-108835562D01*
X146094092Y-108814689D01*
X146101550Y-108809540D01*
X146121106Y-108798511D01*
X146124131Y-108797149D01*
X146129369Y-108794792D01*
X146175702Y-108758491D01*
X146178667Y-108756309D01*
X146227116Y-108722868D01*
X146266158Y-108678797D01*
X146268677Y-108676122D01*
X150895222Y-104049577D01*
X150897897Y-104047058D01*
X150941968Y-104008016D01*
X150975409Y-103959567D01*
X150977591Y-103956602D01*
X151013892Y-103910269D01*
X151017611Y-103902006D01*
X151028640Y-103882451D01*
X151028677Y-103882395D01*
X151033789Y-103874992D01*
X151054662Y-103819951D01*
X151056064Y-103816565D01*
X151080230Y-103762873D01*
X151081863Y-103753955D01*
X151087889Y-103732340D01*
X151091106Y-103723859D01*
X151098198Y-103665449D01*
X151098761Y-103661745D01*
X151109365Y-103603883D01*
X151108193Y-103584514D01*
X151105813Y-103545156D01*
X151105700Y-103541412D01*
X151105700Y-100012030D01*
X151125385Y-99944991D01*
X151177296Y-99899648D01*
X151188336Y-99894500D01*
X151245234Y-99867968D01*
X151431639Y-99737447D01*
X151592547Y-99576539D01*
X151723068Y-99390134D01*
X151819239Y-99183896D01*
X151878135Y-98964092D01*
X151897968Y-98737400D01*
X151878135Y-98510708D01*
X151822784Y-98304134D01*
X151819241Y-98290911D01*
X151819238Y-98290902D01*
X151809821Y-98270707D01*
X151723068Y-98084666D01*
X151594544Y-97901113D01*
X151592545Y-97898258D01*
X151431641Y-97737354D01*
X151245234Y-97606832D01*
X151245232Y-97606831D01*
X151038997Y-97510661D01*
X151038988Y-97510658D01*
X150819197Y-97451766D01*
X150819193Y-97451765D01*
X150819192Y-97451765D01*
X150819191Y-97451764D01*
X150819186Y-97451764D01*
X150592502Y-97431932D01*
X150592498Y-97431932D01*
X150365813Y-97451764D01*
X150365802Y-97451766D01*
X150146011Y-97510658D01*
X150146002Y-97510662D01*
X150062905Y-97549411D01*
X149993827Y-97559903D01*
X149930043Y-97531383D01*
X149891804Y-97472907D01*
X149886500Y-97437029D01*
X149886500Y-96778185D01*
X149886613Y-96774441D01*
X149890165Y-96715716D01*
X149879557Y-96657830D01*
X149878998Y-96654150D01*
X149871906Y-96595741D01*
X149868692Y-96587266D01*
X149862664Y-96565644D01*
X149861030Y-96556727D01*
X149836881Y-96503070D01*
X149835453Y-96499623D01*
X149832831Y-96492710D01*
X149814589Y-96444608D01*
X149811040Y-96439467D01*
X149809439Y-96437147D01*
X149798409Y-96417591D01*
X149794692Y-96409331D01*
X149777878Y-96387870D01*
X149758405Y-96363014D01*
X149756185Y-96359997D01*
X149750109Y-96351194D01*
X149722768Y-96311584D01*
X149678724Y-96272564D01*
X149675998Y-96269997D01*
X148629584Y-95223583D01*
X148596099Y-95162260D01*
X148593265Y-95135902D01*
X148593265Y-94427344D01*
X148612950Y-94360305D01*
X148646140Y-94325770D01*
X148766804Y-94241282D01*
X148927712Y-94080374D01*
X149058233Y-93893969D01*
X149154404Y-93687731D01*
X149213300Y-93467927D01*
X149233133Y-93241235D01*
X149232990Y-93239605D01*
X149223958Y-93136369D01*
X149213300Y-93014543D01*
X149155386Y-92798403D01*
X149154406Y-92794746D01*
X149154403Y-92794737D01*
X149058233Y-92588501D01*
X148927712Y-92402096D01*
X148927710Y-92402093D01*
X148766806Y-92241189D01*
X148580399Y-92110667D01*
X148580397Y-92110666D01*
X148374162Y-92014496D01*
X148374153Y-92014493D01*
X148336017Y-92004275D01*
X148276356Y-91967910D01*
X148245827Y-91905063D01*
X148254122Y-91835687D01*
X148298607Y-91781810D01*
X148365159Y-91760535D01*
X148368110Y-91760500D01*
X158852903Y-91760500D01*
X158868477Y-91765073D01*
X158911878Y-91760799D01*
X158917958Y-91760500D01*
X159007528Y-91760500D01*
X159007532Y-91760500D01*
X159070646Y-91749371D01*
X159082445Y-91750687D01*
X159105617Y-91743658D01*
X159112843Y-91741931D01*
X159179938Y-91730101D01*
X159179943Y-91730099D01*
X159179944Y-91730099D01*
X159218880Y-91715927D01*
X159257589Y-91701837D01*
X159270637Y-91701008D01*
X159285852Y-91692876D01*
X159301893Y-91685712D01*
X159344445Y-91670225D01*
X159428973Y-91621421D01*
X159443309Y-91617943D01*
X159455172Y-91608208D01*
X159471825Y-91596681D01*
X159496055Y-91582692D01*
X159496060Y-91582687D01*
X159500491Y-91579586D01*
X159500755Y-91579964D01*
X159514566Y-91570623D01*
X159518087Y-91568740D01*
X159534657Y-91550300D01*
X159581395Y-91511083D01*
X159596406Y-91504514D01*
X159604975Y-91494073D01*
X159621128Y-91477744D01*
X159630163Y-91470163D01*
X159637745Y-91461126D01*
X159654073Y-91444975D01*
X159659100Y-91440849D01*
X159671081Y-91421398D01*
X159710298Y-91374660D01*
X159725171Y-91364765D01*
X159730623Y-91354566D01*
X159739964Y-91340755D01*
X159739586Y-91340491D01*
X159742687Y-91336061D01*
X159742687Y-91336060D01*
X159742692Y-91336055D01*
X159756681Y-91311825D01*
X159768208Y-91295172D01*
X159773904Y-91288230D01*
X159781422Y-91268973D01*
X159798084Y-91240115D01*
X159830225Y-91184445D01*
X159845712Y-91141893D01*
X159852876Y-91125852D01*
X159858319Y-91115668D01*
X159861838Y-91097589D01*
X159890099Y-91019944D01*
X159890100Y-91019940D01*
X159890101Y-91019938D01*
X159901931Y-90952843D01*
X159903658Y-90945617D01*
X159909166Y-90927459D01*
X159909370Y-90910649D01*
X159917778Y-90862965D01*
X159948805Y-90800364D01*
X160008753Y-90764474D01*
X160039894Y-90760500D01*
X160918378Y-90760500D01*
X160921619Y-90760584D01*
X161053628Y-90767503D01*
X161237027Y-90777803D01*
X161243212Y-90778465D01*
X161395647Y-90802608D01*
X161558194Y-90830226D01*
X161563811Y-90831453D01*
X161716693Y-90872418D01*
X161809122Y-90899046D01*
X161871724Y-90917082D01*
X161876759Y-90918769D01*
X162026183Y-90976127D01*
X162174007Y-91037358D01*
X162178412Y-91039388D01*
X162244180Y-91072899D01*
X162321921Y-91112511D01*
X162376514Y-91142683D01*
X162461480Y-91189641D01*
X162465215Y-91191882D01*
X162539487Y-91240115D01*
X162600872Y-91279980D01*
X162651032Y-91315570D01*
X162730764Y-91372142D01*
X162733886Y-91374510D01*
X162858748Y-91475621D01*
X162861034Y-91477567D01*
X162891188Y-91504514D01*
X162978669Y-91582692D01*
X162978721Y-91582738D01*
X162981248Y-91585128D01*
X163094870Y-91698750D01*
X163097260Y-91701277D01*
X163202431Y-91818964D01*
X163204385Y-91821260D01*
X163305480Y-91946102D01*
X163307862Y-91949243D01*
X163400019Y-92079127D01*
X163453758Y-92161875D01*
X163488106Y-92214767D01*
X163490364Y-92218531D01*
X163567488Y-92358078D01*
X163640604Y-92501575D01*
X163642643Y-92505997D01*
X163703877Y-92653829D01*
X163761221Y-92803217D01*
X163762916Y-92808273D01*
X163807579Y-92963297D01*
X163848541Y-93116171D01*
X163849778Y-93121835D01*
X163877394Y-93284369D01*
X163901530Y-93436758D01*
X163902196Y-93442985D01*
X163912509Y-93626617D01*
X163919415Y-93758377D01*
X163919500Y-93761623D01*
X163919500Y-129758376D01*
X163919415Y-129761622D01*
X163912509Y-129893382D01*
X163902196Y-130077013D01*
X163901530Y-130083240D01*
X163877394Y-130235630D01*
X163849778Y-130398163D01*
X163848541Y-130403827D01*
X163807579Y-130556702D01*
X163762916Y-130711725D01*
X163761221Y-130716781D01*
X163703877Y-130866170D01*
X163642643Y-131014001D01*
X163640604Y-131018423D01*
X163567488Y-131161921D01*
X163490364Y-131301467D01*
X163488097Y-131305246D01*
X163400019Y-131440872D01*
X163307862Y-131570755D01*
X163305480Y-131573896D01*
X163204385Y-131698738D01*
X163202431Y-131701034D01*
X163097260Y-131818721D01*
X163094870Y-131821248D01*
X162981248Y-131934870D01*
X162978721Y-131937260D01*
X162861034Y-132042431D01*
X162858738Y-132044385D01*
X162733896Y-132145480D01*
X162730755Y-132147862D01*
X162600872Y-132240019D01*
X162465246Y-132328097D01*
X162461467Y-132330364D01*
X162321921Y-132407488D01*
X162178423Y-132480604D01*
X162174001Y-132482643D01*
X162026170Y-132543877D01*
X161876781Y-132601221D01*
X161871725Y-132602916D01*
X161716702Y-132647579D01*
X161563827Y-132688541D01*
X161558163Y-132689778D01*
X161395630Y-132717394D01*
X161243240Y-132741530D01*
X161237013Y-132742196D01*
X161053382Y-132752509D01*
X160921622Y-132759415D01*
X160918376Y-132759500D01*
X124921624Y-132759500D01*
X124918378Y-132759415D01*
X124786617Y-132752509D01*
X124602985Y-132742196D01*
X124596758Y-132741530D01*
X124444369Y-132717394D01*
X124281835Y-132689778D01*
X124276171Y-132688541D01*
X124123297Y-132647579D01*
X123968273Y-132602916D01*
X123963217Y-132601221D01*
X123813829Y-132543877D01*
X123665997Y-132482643D01*
X123661575Y-132480604D01*
X123518078Y-132407488D01*
X123378531Y-132330364D01*
X123374767Y-132328106D01*
X123321875Y-132293758D01*
X123239127Y-132240019D01*
X123109243Y-132147862D01*
X123106102Y-132145480D01*
X122981260Y-132044385D01*
X122978964Y-132042431D01*
X122861277Y-131937260D01*
X122858750Y-131934870D01*
X122745128Y-131821248D01*
X122742738Y-131818721D01*
X122637567Y-131701034D01*
X122635613Y-131698738D01*
X122596848Y-131650867D01*
X122534510Y-131573886D01*
X122532136Y-131570755D01*
X122439980Y-131440872D01*
X122407406Y-131390715D01*
X122351882Y-131305215D01*
X122349641Y-131301480D01*
X122314241Y-131237428D01*
X122272511Y-131161921D01*
X122232899Y-131084180D01*
X122199388Y-131018412D01*
X122197358Y-131014007D01*
X122136122Y-130866170D01*
X122078769Y-130716759D01*
X122077082Y-130711724D01*
X122032420Y-130556702D01*
X122020404Y-130511858D01*
X121991453Y-130403811D01*
X121990226Y-130398194D01*
X121962601Y-130235606D01*
X121938465Y-130083212D01*
X121937803Y-130077027D01*
X121927490Y-129893382D01*
X121920584Y-129761620D01*
X121920542Y-129760002D01*
X123664723Y-129760002D01*
X123683793Y-129977975D01*
X123683793Y-129977979D01*
X123740422Y-130189322D01*
X123740424Y-130189326D01*
X123740425Y-130189330D01*
X123759402Y-130230026D01*
X123832897Y-130387638D01*
X123844233Y-130403827D01*
X123958402Y-130566877D01*
X124113123Y-130721598D01*
X124292361Y-130847102D01*
X124490670Y-130939575D01*
X124490675Y-130939576D01*
X124490679Y-130939578D01*
X124515749Y-130946295D01*
X124525775Y-130948981D01*
X124528882Y-130949902D01*
X124532944Y-130951221D01*
X124532948Y-130951223D01*
X124540977Y-130953054D01*
X124702023Y-130996207D01*
X124743207Y-130999810D01*
X124751594Y-131001128D01*
X124788667Y-131009591D01*
X124820835Y-131006601D01*
X124920000Y-131015277D01*
X124965291Y-131011314D01*
X124973461Y-131011142D01*
X124976194Y-131011265D01*
X124976196Y-131011264D01*
X124981749Y-131011515D01*
X124981763Y-131011514D01*
X125011648Y-131012856D01*
X125041479Y-131004649D01*
X125137977Y-130996207D01*
X125185915Y-130983361D01*
X125193643Y-130981810D01*
X125195356Y-130981577D01*
X125198713Y-130981123D01*
X125198715Y-130981122D01*
X125200819Y-130980837D01*
X125200840Y-130980834D01*
X125231609Y-130976666D01*
X125258282Y-130963971D01*
X125314234Y-130948979D01*
X125349320Y-130939578D01*
X125349323Y-130939576D01*
X125349330Y-130939575D01*
X125398182Y-130916794D01*
X125405193Y-130914032D01*
X125412274Y-130911732D01*
X125412277Y-130911730D01*
X125414252Y-130911089D01*
X125414263Y-130911085D01*
X125441653Y-130902185D01*
X125464517Y-130885862D01*
X125547639Y-130847102D01*
X125595328Y-130813709D01*
X125601502Y-130809904D01*
X125610013Y-130805325D01*
X125610015Y-130805322D01*
X125612472Y-130804001D01*
X125614913Y-130802688D01*
X125614919Y-130802684D01*
X125635152Y-130791796D01*
X125653773Y-130772785D01*
X125726877Y-130721598D01*
X125771182Y-130677292D01*
X125776336Y-130672685D01*
X125785574Y-130665319D01*
X125785578Y-130665313D01*
X125789468Y-130662212D01*
X125790866Y-130661640D01*
X125794299Y-130658359D01*
X125806039Y-130648996D01*
X125820180Y-130628294D01*
X125881598Y-130566877D01*
X125920146Y-130511824D01*
X125924206Y-130506641D01*
X125932456Y-130497198D01*
X125935022Y-130495564D01*
X125940654Y-130487813D01*
X125948945Y-130478322D01*
X125958596Y-130456912D01*
X126007102Y-130387639D01*
X126037462Y-130322531D01*
X126040416Y-130316960D01*
X126041646Y-130314899D01*
X126044777Y-130309659D01*
X126048076Y-130306606D01*
X126054205Y-130293881D01*
X126059395Y-130285194D01*
X126064752Y-130264006D01*
X126099575Y-130189330D01*
X126100105Y-130187354D01*
X126101181Y-130183333D01*
X126119408Y-130115310D01*
X126121239Y-130109604D01*
X126122879Y-130105233D01*
X126126402Y-130100547D01*
X126131308Y-130082772D01*
X126133961Y-130075702D01*
X126135412Y-130055583D01*
X126156205Y-129977983D01*
X126156206Y-129977979D01*
X126156207Y-129977977D01*
X126163316Y-129896708D01*
X126164073Y-129891070D01*
X126167484Y-129872276D01*
X126167484Y-129872274D01*
X126169851Y-129859232D01*
X126168067Y-129846234D01*
X126168138Y-129843047D01*
X126168352Y-129839149D01*
X126175277Y-129760002D01*
X159664723Y-129760002D01*
X159683793Y-129977975D01*
X159683793Y-129977979D01*
X159740422Y-130189322D01*
X159740424Y-130189326D01*
X159740425Y-130189330D01*
X159759402Y-130230026D01*
X159832897Y-130387638D01*
X159844233Y-130403827D01*
X159958402Y-130566877D01*
X160113123Y-130721598D01*
X160292361Y-130847102D01*
X160490670Y-130939575D01*
X160490675Y-130939576D01*
X160490679Y-130939578D01*
X160515749Y-130946295D01*
X160525775Y-130948981D01*
X160528882Y-130949902D01*
X160532944Y-130951221D01*
X160532948Y-130951223D01*
X160540977Y-130953054D01*
X160702023Y-130996207D01*
X160743207Y-130999810D01*
X160751594Y-131001128D01*
X160788667Y-131009591D01*
X160820835Y-131006601D01*
X160920000Y-131015277D01*
X160965291Y-131011314D01*
X160973461Y-131011142D01*
X160976194Y-131011265D01*
X160976196Y-131011264D01*
X160981749Y-131011515D01*
X160981763Y-131011514D01*
X161011648Y-131012856D01*
X161041479Y-131004649D01*
X161137977Y-130996207D01*
X161185915Y-130983361D01*
X161193643Y-130981810D01*
X161195356Y-130981577D01*
X161198713Y-130981123D01*
X161198715Y-130981122D01*
X161200819Y-130980837D01*
X161200840Y-130980834D01*
X161231609Y-130976666D01*
X161258282Y-130963971D01*
X161314234Y-130948979D01*
X161349320Y-130939578D01*
X161349323Y-130939576D01*
X161349330Y-130939575D01*
X161398182Y-130916794D01*
X161405193Y-130914032D01*
X161412274Y-130911732D01*
X161412277Y-130911730D01*
X161414252Y-130911089D01*
X161414263Y-130911085D01*
X161441653Y-130902185D01*
X161464517Y-130885862D01*
X161547639Y-130847102D01*
X161595328Y-130813709D01*
X161601502Y-130809904D01*
X161610013Y-130805325D01*
X161610015Y-130805322D01*
X161612472Y-130804001D01*
X161614913Y-130802688D01*
X161614919Y-130802684D01*
X161635152Y-130791796D01*
X161653773Y-130772785D01*
X161726877Y-130721598D01*
X161771182Y-130677292D01*
X161776336Y-130672685D01*
X161785574Y-130665319D01*
X161785578Y-130665313D01*
X161789468Y-130662212D01*
X161790866Y-130661640D01*
X161794299Y-130658359D01*
X161806039Y-130648996D01*
X161820180Y-130628294D01*
X161881598Y-130566877D01*
X161920146Y-130511824D01*
X161924206Y-130506641D01*
X161932456Y-130497198D01*
X161935022Y-130495564D01*
X161940654Y-130487813D01*
X161948945Y-130478322D01*
X161958596Y-130456912D01*
X162007102Y-130387639D01*
X162037462Y-130322531D01*
X162040416Y-130316960D01*
X162041646Y-130314899D01*
X162044777Y-130309659D01*
X162048076Y-130306606D01*
X162054205Y-130293881D01*
X162059395Y-130285194D01*
X162064752Y-130264006D01*
X162099575Y-130189330D01*
X162100105Y-130187354D01*
X162101181Y-130183333D01*
X162119408Y-130115310D01*
X162121239Y-130109604D01*
X162122879Y-130105233D01*
X162126402Y-130100547D01*
X162131308Y-130082772D01*
X162133961Y-130075702D01*
X162135412Y-130055583D01*
X162156205Y-129977983D01*
X162156206Y-129977979D01*
X162156207Y-129977977D01*
X162163316Y-129896708D01*
X162164073Y-129891070D01*
X162167484Y-129872276D01*
X162167484Y-129872274D01*
X162169851Y-129859232D01*
X162168067Y-129846234D01*
X162168138Y-129843047D01*
X162168352Y-129839149D01*
X162175277Y-129760000D01*
X162168356Y-129680900D01*
X162168140Y-129676963D01*
X162168113Y-129675827D01*
X162168070Y-129673884D01*
X162170554Y-129664641D01*
X162164075Y-129628940D01*
X162163316Y-129623288D01*
X162156207Y-129542023D01*
X162135411Y-129464411D01*
X162135775Y-129449123D01*
X162131308Y-129437222D01*
X162127344Y-129422861D01*
X162122879Y-129414764D01*
X162121244Y-129410409D01*
X162119405Y-129404677D01*
X162099575Y-129330670D01*
X162064752Y-129255994D01*
X162062263Y-129239605D01*
X162054204Y-129226117D01*
X162049268Y-129215869D01*
X162044783Y-129210348D01*
X162040418Y-129203043D01*
X162037455Y-129197455D01*
X162007102Y-129132362D01*
X161958597Y-129063089D01*
X161952903Y-129046205D01*
X161940655Y-129032186D01*
X161936132Y-129025961D01*
X161932453Y-129022797D01*
X161924223Y-129013377D01*
X161920124Y-129008143D01*
X161881599Y-128953124D01*
X161881596Y-128953121D01*
X161820180Y-128891705D01*
X161811061Y-128875005D01*
X161794299Y-128861638D01*
X161791557Y-128859017D01*
X161789468Y-128857786D01*
X161776353Y-128847327D01*
X161771166Y-128842691D01*
X161726878Y-128798403D01*
X161726869Y-128798396D01*
X161653772Y-128747212D01*
X161641162Y-128731436D01*
X161601505Y-128710096D01*
X161595318Y-128706283D01*
X161547643Y-128672900D01*
X161464518Y-128634138D01*
X161448508Y-128620040D01*
X161405216Y-128605974D01*
X161398167Y-128603197D01*
X161349332Y-128580426D01*
X161349330Y-128580425D01*
X161333693Y-128576235D01*
X161258273Y-128556025D01*
X161239119Y-128544349D01*
X161193640Y-128538188D01*
X161185909Y-128536636D01*
X161137985Y-128523794D01*
X161137971Y-128523792D01*
X161041472Y-128515350D01*
X161019575Y-128506784D01*
X160973463Y-128508856D01*
X160965271Y-128508682D01*
X160920006Y-128504723D01*
X160919997Y-128504723D01*
X160820820Y-128513399D01*
X160796749Y-128508561D01*
X160751593Y-128518870D01*
X160743191Y-128520190D01*
X160702020Y-128523793D01*
X160603179Y-128550277D01*
X160577623Y-128549668D01*
X160539030Y-128566169D01*
X160522381Y-128571927D01*
X160490667Y-128580425D01*
X160292361Y-128672898D01*
X160292357Y-128672900D01*
X160113121Y-128798402D01*
X159958402Y-128953121D01*
X159832900Y-129132357D01*
X159832898Y-129132361D01*
X159740426Y-129330668D01*
X159740422Y-129330677D01*
X159683793Y-129542020D01*
X159683793Y-129542024D01*
X159664723Y-129759997D01*
X159664723Y-129760002D01*
X126175277Y-129760002D01*
X126175277Y-129760000D01*
X126168356Y-129680900D01*
X126168140Y-129676963D01*
X126168113Y-129675827D01*
X126168070Y-129673884D01*
X126170554Y-129664641D01*
X126164075Y-129628940D01*
X126163316Y-129623288D01*
X126156207Y-129542023D01*
X126135411Y-129464411D01*
X126135775Y-129449123D01*
X126131308Y-129437222D01*
X126127344Y-129422861D01*
X126122879Y-129414764D01*
X126121244Y-129410409D01*
X126119405Y-129404677D01*
X126099575Y-129330670D01*
X126064752Y-129255994D01*
X126062263Y-129239605D01*
X126054204Y-129226117D01*
X126049268Y-129215869D01*
X126044783Y-129210348D01*
X126040418Y-129203043D01*
X126037455Y-129197455D01*
X126007102Y-129132362D01*
X125958597Y-129063089D01*
X125952903Y-129046205D01*
X125940655Y-129032186D01*
X125936132Y-129025961D01*
X125932453Y-129022797D01*
X125924223Y-129013377D01*
X125920124Y-129008143D01*
X125881599Y-128953124D01*
X125881596Y-128953121D01*
X125820180Y-128891705D01*
X125811061Y-128875005D01*
X125794299Y-128861638D01*
X125791557Y-128859017D01*
X125789468Y-128857786D01*
X125776353Y-128847327D01*
X125771166Y-128842691D01*
X125726878Y-128798403D01*
X125726869Y-128798396D01*
X125653772Y-128747212D01*
X125641162Y-128731436D01*
X125601505Y-128710096D01*
X125595318Y-128706283D01*
X125547643Y-128672900D01*
X125464518Y-128634138D01*
X125448508Y-128620040D01*
X125405216Y-128605974D01*
X125398167Y-128603197D01*
X125349332Y-128580426D01*
X125349330Y-128580425D01*
X125333693Y-128576235D01*
X125258273Y-128556025D01*
X125239119Y-128544349D01*
X125193640Y-128538188D01*
X125185909Y-128536636D01*
X125137985Y-128523794D01*
X125137971Y-128523792D01*
X125041472Y-128515350D01*
X125019575Y-128506784D01*
X124973463Y-128508856D01*
X124965271Y-128508682D01*
X124920006Y-128504723D01*
X124919997Y-128504723D01*
X124820820Y-128513399D01*
X124796749Y-128508561D01*
X124751593Y-128518870D01*
X124743191Y-128520190D01*
X124702020Y-128523793D01*
X124603179Y-128550277D01*
X124577623Y-128549668D01*
X124539030Y-128566169D01*
X124522381Y-128571927D01*
X124490667Y-128580425D01*
X124292361Y-128672898D01*
X124292357Y-128672900D01*
X124113121Y-128798402D01*
X123958402Y-128953121D01*
X123832900Y-129132357D01*
X123832898Y-129132361D01*
X123740426Y-129330668D01*
X123740422Y-129330677D01*
X123683793Y-129542020D01*
X123683793Y-129542024D01*
X123664723Y-129759997D01*
X123664723Y-129760002D01*
X121920542Y-129760002D01*
X121920500Y-129758377D01*
X121920500Y-126930000D01*
X130134341Y-126930000D01*
X130154936Y-127165403D01*
X130154938Y-127165413D01*
X130216094Y-127393655D01*
X130216096Y-127393659D01*
X130216097Y-127393663D01*
X130220000Y-127402032D01*
X130315965Y-127607830D01*
X130315967Y-127607834D01*
X130424281Y-127762521D01*
X130451505Y-127801401D01*
X130618599Y-127968495D01*
X130715384Y-128036264D01*
X130812165Y-128104032D01*
X130812167Y-128104033D01*
X130812170Y-128104035D01*
X131026337Y-128203903D01*
X131254592Y-128265063D01*
X131442918Y-128281539D01*
X131489999Y-128285659D01*
X131490000Y-128285659D01*
X131490001Y-128285659D01*
X131529234Y-128282226D01*
X131725408Y-128265063D01*
X131953663Y-128203903D01*
X132167830Y-128104035D01*
X132361401Y-127968495D01*
X132528495Y-127801401D01*
X132664035Y-127607830D01*
X132763903Y-127393663D01*
X132825063Y-127165408D01*
X132845659Y-126930000D01*
X132825063Y-126694592D01*
X132763903Y-126466337D01*
X132664035Y-126252171D01*
X132658425Y-126244158D01*
X132528494Y-126058597D01*
X132361402Y-125891506D01*
X132361396Y-125891501D01*
X132175842Y-125761575D01*
X132132217Y-125706998D01*
X132125023Y-125637500D01*
X132156546Y-125575145D01*
X132175842Y-125558425D01*
X132198026Y-125542891D01*
X132361401Y-125428495D01*
X132528495Y-125261401D01*
X132658424Y-125075842D01*
X132713002Y-125032217D01*
X132782500Y-125025023D01*
X132844855Y-125056546D01*
X132861575Y-125075842D01*
X132991500Y-125261395D01*
X132991505Y-125261401D01*
X133158599Y-125428495D01*
X133255384Y-125496264D01*
X133352165Y-125564032D01*
X133352167Y-125564033D01*
X133352170Y-125564035D01*
X133566337Y-125663903D01*
X133794592Y-125725063D01*
X133971034Y-125740500D01*
X134029999Y-125745659D01*
X134030000Y-125745659D01*
X134030001Y-125745659D01*
X134088966Y-125740500D01*
X134265408Y-125725063D01*
X134493663Y-125663903D01*
X134707830Y-125564035D01*
X134901401Y-125428495D01*
X135068495Y-125261401D01*
X135198424Y-125075842D01*
X135253002Y-125032217D01*
X135322500Y-125025023D01*
X135384855Y-125056546D01*
X135401575Y-125075842D01*
X135531501Y-125261396D01*
X135531506Y-125261402D01*
X135698597Y-125428493D01*
X135698603Y-125428498D01*
X135884158Y-125558425D01*
X135927783Y-125613002D01*
X135934977Y-125682500D01*
X135903454Y-125744855D01*
X135884158Y-125761575D01*
X135698597Y-125891505D01*
X135531505Y-126058597D01*
X135395965Y-126252169D01*
X135395964Y-126252171D01*
X135296098Y-126466335D01*
X135296094Y-126466344D01*
X135234938Y-126694586D01*
X135234936Y-126694596D01*
X135214341Y-126929999D01*
X135214341Y-126930000D01*
X135234936Y-127165403D01*
X135234938Y-127165413D01*
X135296094Y-127393655D01*
X135296096Y-127393659D01*
X135296097Y-127393663D01*
X135300000Y-127402032D01*
X135395965Y-127607830D01*
X135395967Y-127607834D01*
X135504281Y-127762521D01*
X135531505Y-127801401D01*
X135698599Y-127968495D01*
X135795384Y-128036264D01*
X135892165Y-128104032D01*
X135892167Y-128104033D01*
X135892170Y-128104035D01*
X136106337Y-128203903D01*
X136334592Y-128265063D01*
X136522918Y-128281539D01*
X136569999Y-128285659D01*
X136570000Y-128285659D01*
X136570001Y-128285659D01*
X136609234Y-128282226D01*
X136805408Y-128265063D01*
X137033663Y-128203903D01*
X137247830Y-128104035D01*
X137441401Y-127968495D01*
X137608495Y-127801401D01*
X137738424Y-127615842D01*
X137793002Y-127572217D01*
X137862500Y-127565023D01*
X137924855Y-127596546D01*
X137941575Y-127615842D01*
X138071500Y-127801395D01*
X138071505Y-127801401D01*
X138238599Y-127968495D01*
X138335384Y-128036264D01*
X138432165Y-128104032D01*
X138432167Y-128104033D01*
X138432170Y-128104035D01*
X138646337Y-128203903D01*
X138874592Y-128265063D01*
X139062918Y-128281539D01*
X139109999Y-128285659D01*
X139110000Y-128285659D01*
X139110001Y-128285659D01*
X139149234Y-128282226D01*
X139345408Y-128265063D01*
X139573663Y-128203903D01*
X139787830Y-128104035D01*
X139981401Y-127968495D01*
X140148495Y-127801401D01*
X140284035Y-127607830D01*
X140383903Y-127393663D01*
X140445063Y-127165408D01*
X140465659Y-126930000D01*
X140445063Y-126694592D01*
X140383903Y-126466337D01*
X140284035Y-126252171D01*
X140278425Y-126244158D01*
X140148494Y-126058597D01*
X139981402Y-125891506D01*
X139981396Y-125891501D01*
X139795842Y-125761575D01*
X139752217Y-125706998D01*
X139745023Y-125637500D01*
X139776546Y-125575145D01*
X139795842Y-125558425D01*
X139818026Y-125542891D01*
X139981401Y-125428495D01*
X140148495Y-125261401D01*
X140278424Y-125075842D01*
X140333002Y-125032217D01*
X140402500Y-125025023D01*
X140464855Y-125056546D01*
X140481575Y-125075842D01*
X140611500Y-125261395D01*
X140611505Y-125261401D01*
X140778599Y-125428495D01*
X140875384Y-125496264D01*
X140972165Y-125564032D01*
X140972167Y-125564033D01*
X140972170Y-125564035D01*
X141186337Y-125663903D01*
X141414592Y-125725063D01*
X141591034Y-125740500D01*
X141649999Y-125745659D01*
X141650000Y-125745659D01*
X141650001Y-125745659D01*
X141708966Y-125740500D01*
X141885408Y-125725063D01*
X142113663Y-125663903D01*
X142327830Y-125564035D01*
X142521401Y-125428495D01*
X142688495Y-125261401D01*
X142818424Y-125075842D01*
X142873002Y-125032217D01*
X142942500Y-125025023D01*
X143004855Y-125056546D01*
X143021575Y-125075842D01*
X143151501Y-125261396D01*
X143151506Y-125261402D01*
X143318597Y-125428493D01*
X143318603Y-125428498D01*
X143504158Y-125558425D01*
X143547783Y-125613002D01*
X143554977Y-125682500D01*
X143523454Y-125744855D01*
X143504158Y-125761575D01*
X143318597Y-125891505D01*
X143151505Y-126058597D01*
X143015965Y-126252169D01*
X143015964Y-126252171D01*
X142916098Y-126466335D01*
X142916094Y-126466344D01*
X142854938Y-126694586D01*
X142854936Y-126694596D01*
X142834341Y-126929999D01*
X142834341Y-126930000D01*
X142854936Y-127165403D01*
X142854938Y-127165413D01*
X142916094Y-127393655D01*
X142916096Y-127393659D01*
X142916097Y-127393663D01*
X142920000Y-127402032D01*
X143015965Y-127607830D01*
X143015967Y-127607834D01*
X143124281Y-127762521D01*
X143151505Y-127801401D01*
X143318599Y-127968495D01*
X143415384Y-128036264D01*
X143512165Y-128104032D01*
X143512167Y-128104033D01*
X143512170Y-128104035D01*
X143726337Y-128203903D01*
X143954592Y-128265063D01*
X144142918Y-128281539D01*
X144189999Y-128285659D01*
X144190000Y-128285659D01*
X144190001Y-128285659D01*
X144229234Y-128282226D01*
X144425408Y-128265063D01*
X144653663Y-128203903D01*
X144867830Y-128104035D01*
X145061401Y-127968495D01*
X145228495Y-127801401D01*
X145364035Y-127607830D01*
X145463903Y-127393663D01*
X145525063Y-127165408D01*
X145545659Y-126930000D01*
X145525063Y-126694592D01*
X145463903Y-126466337D01*
X145364035Y-126252171D01*
X145358425Y-126244158D01*
X145228494Y-126058597D01*
X145061402Y-125891506D01*
X145061396Y-125891501D01*
X144875842Y-125761575D01*
X144832217Y-125706998D01*
X144825023Y-125637500D01*
X144856546Y-125575145D01*
X144875842Y-125558425D01*
X144898026Y-125542891D01*
X145061401Y-125428495D01*
X145228495Y-125261401D01*
X145358424Y-125075842D01*
X145413002Y-125032217D01*
X145482500Y-125025023D01*
X145544855Y-125056546D01*
X145561575Y-125075842D01*
X145691500Y-125261395D01*
X145691505Y-125261401D01*
X145858599Y-125428495D01*
X145955384Y-125496264D01*
X146052165Y-125564032D01*
X146052167Y-125564033D01*
X146052170Y-125564035D01*
X146266337Y-125663903D01*
X146494592Y-125725063D01*
X146671034Y-125740500D01*
X146729999Y-125745659D01*
X146730000Y-125745659D01*
X146730001Y-125745659D01*
X146788966Y-125740500D01*
X146965408Y-125725063D01*
X147193663Y-125663903D01*
X147407830Y-125564035D01*
X147601401Y-125428495D01*
X147768495Y-125261401D01*
X147898424Y-125075842D01*
X147953002Y-125032217D01*
X148022500Y-125025023D01*
X148084855Y-125056546D01*
X148101575Y-125075842D01*
X148231501Y-125261396D01*
X148231506Y-125261402D01*
X148398597Y-125428493D01*
X148398603Y-125428498D01*
X148584158Y-125558425D01*
X148627783Y-125613002D01*
X148634977Y-125682500D01*
X148603454Y-125744855D01*
X148584158Y-125761575D01*
X148398597Y-125891505D01*
X148231505Y-126058597D01*
X148095965Y-126252169D01*
X148095964Y-126252171D01*
X147996098Y-126466335D01*
X147996094Y-126466344D01*
X147934938Y-126694586D01*
X147934936Y-126694596D01*
X147914341Y-126929999D01*
X147914341Y-126930000D01*
X147934936Y-127165403D01*
X147934938Y-127165413D01*
X147996094Y-127393655D01*
X147996096Y-127393659D01*
X147996097Y-127393663D01*
X148000000Y-127402032D01*
X148095965Y-127607830D01*
X148095967Y-127607834D01*
X148204281Y-127762521D01*
X148231505Y-127801401D01*
X148398599Y-127968495D01*
X148495384Y-128036264D01*
X148592165Y-128104032D01*
X148592167Y-128104033D01*
X148592170Y-128104035D01*
X148806337Y-128203903D01*
X149034592Y-128265063D01*
X149222918Y-128281539D01*
X149269999Y-128285659D01*
X149270000Y-128285659D01*
X149270001Y-128285659D01*
X149309234Y-128282226D01*
X149505408Y-128265063D01*
X149733663Y-128203903D01*
X149947830Y-128104035D01*
X150141401Y-127968495D01*
X150308495Y-127801401D01*
X150438424Y-127615842D01*
X150493002Y-127572217D01*
X150562500Y-127565023D01*
X150624855Y-127596546D01*
X150641575Y-127615842D01*
X150771500Y-127801395D01*
X150771505Y-127801401D01*
X150938599Y-127968495D01*
X151035384Y-128036264D01*
X151132165Y-128104032D01*
X151132167Y-128104033D01*
X151132170Y-128104035D01*
X151346337Y-128203903D01*
X151574592Y-128265063D01*
X151762918Y-128281539D01*
X151809999Y-128285659D01*
X151810000Y-128285659D01*
X151810001Y-128285659D01*
X151849234Y-128282226D01*
X152045408Y-128265063D01*
X152273663Y-128203903D01*
X152487830Y-128104035D01*
X152681401Y-127968495D01*
X152848495Y-127801401D01*
X152984035Y-127607830D01*
X153083903Y-127393663D01*
X153145063Y-127165408D01*
X153165659Y-126930000D01*
X153145063Y-126694592D01*
X153083903Y-126466337D01*
X152984035Y-126252171D01*
X152978425Y-126244158D01*
X152848494Y-126058597D01*
X152681402Y-125891506D01*
X152681396Y-125891501D01*
X152495842Y-125761575D01*
X152452217Y-125706998D01*
X152445023Y-125637500D01*
X152476546Y-125575145D01*
X152495842Y-125558425D01*
X152518026Y-125542891D01*
X152681401Y-125428495D01*
X152803329Y-125306566D01*
X152864648Y-125273084D01*
X152934340Y-125278068D01*
X152990274Y-125319939D01*
X153007189Y-125350917D01*
X153056202Y-125482328D01*
X153056206Y-125482335D01*
X153142452Y-125597544D01*
X153142455Y-125597547D01*
X153257664Y-125683793D01*
X153257671Y-125683797D01*
X153392517Y-125734091D01*
X153392516Y-125734091D01*
X153399444Y-125734835D01*
X153452127Y-125740500D01*
X155247872Y-125740499D01*
X155307483Y-125734091D01*
X155442331Y-125683796D01*
X155557546Y-125597546D01*
X155643796Y-125482331D01*
X155694091Y-125347483D01*
X155700500Y-125287873D01*
X155700499Y-123492128D01*
X155694091Y-123432517D01*
X155692810Y-123429083D01*
X155643797Y-123297671D01*
X155643793Y-123297664D01*
X155557547Y-123182455D01*
X155557544Y-123182452D01*
X155442335Y-123096206D01*
X155442328Y-123096202D01*
X155307482Y-123045908D01*
X155307483Y-123045908D01*
X155247883Y-123039501D01*
X155247881Y-123039500D01*
X155247873Y-123039500D01*
X155247864Y-123039500D01*
X153452129Y-123039500D01*
X153452123Y-123039501D01*
X153392516Y-123045908D01*
X153257671Y-123096202D01*
X153257664Y-123096206D01*
X153142455Y-123182452D01*
X153142452Y-123182455D01*
X153056206Y-123297664D01*
X153056203Y-123297669D01*
X153007189Y-123429083D01*
X152965317Y-123485016D01*
X152899853Y-123509433D01*
X152831580Y-123494581D01*
X152803326Y-123473430D01*
X152681402Y-123351506D01*
X152681395Y-123351501D01*
X152487834Y-123215967D01*
X152487830Y-123215965D01*
X152487828Y-123215964D01*
X152273663Y-123116097D01*
X152273659Y-123116096D01*
X152273655Y-123116094D01*
X152045413Y-123054938D01*
X152045403Y-123054936D01*
X151810001Y-123034341D01*
X151809999Y-123034341D01*
X151574596Y-123054936D01*
X151574586Y-123054938D01*
X151346344Y-123116094D01*
X151346335Y-123116098D01*
X151132171Y-123215964D01*
X151132169Y-123215965D01*
X150938597Y-123351505D01*
X150771505Y-123518597D01*
X150641575Y-123704158D01*
X150586998Y-123747783D01*
X150517500Y-123754977D01*
X150455145Y-123723454D01*
X150438425Y-123704158D01*
X150308494Y-123518597D01*
X150141402Y-123351506D01*
X150141395Y-123351501D01*
X149947834Y-123215967D01*
X149947830Y-123215965D01*
X149947828Y-123215964D01*
X149733663Y-123116097D01*
X149733659Y-123116096D01*
X149733655Y-123116094D01*
X149505413Y-123054938D01*
X149505403Y-123054936D01*
X149270001Y-123034341D01*
X149269999Y-123034341D01*
X149034596Y-123054936D01*
X149034586Y-123054938D01*
X148806344Y-123116094D01*
X148806335Y-123116098D01*
X148592171Y-123215964D01*
X148592169Y-123215965D01*
X148398597Y-123351505D01*
X148231508Y-123518594D01*
X148101574Y-123704159D01*
X148046997Y-123747784D01*
X147977498Y-123754976D01*
X147915144Y-123723454D01*
X147898424Y-123704158D01*
X147768494Y-123518597D01*
X147601402Y-123351506D01*
X147601395Y-123351501D01*
X147407834Y-123215967D01*
X147407830Y-123215965D01*
X147407828Y-123215964D01*
X147193663Y-123116097D01*
X147193659Y-123116096D01*
X147193655Y-123116094D01*
X146965413Y-123054938D01*
X146965403Y-123054936D01*
X146730001Y-123034341D01*
X146729999Y-123034341D01*
X146494596Y-123054936D01*
X146494586Y-123054938D01*
X146266344Y-123116094D01*
X146266335Y-123116098D01*
X146052171Y-123215964D01*
X146052169Y-123215965D01*
X145858597Y-123351505D01*
X145691505Y-123518597D01*
X145561575Y-123704158D01*
X145506998Y-123747783D01*
X145437500Y-123754977D01*
X145375145Y-123723454D01*
X145358425Y-123704158D01*
X145228494Y-123518597D01*
X145061402Y-123351506D01*
X145061395Y-123351501D01*
X144867834Y-123215967D01*
X144867830Y-123215965D01*
X144867830Y-123215964D01*
X144653663Y-123116097D01*
X144653659Y-123116096D01*
X144653655Y-123116094D01*
X144425413Y-123054938D01*
X144425403Y-123054936D01*
X144190001Y-123034341D01*
X144189999Y-123034341D01*
X143954596Y-123054936D01*
X143954586Y-123054938D01*
X143726344Y-123116094D01*
X143726335Y-123116098D01*
X143512171Y-123215964D01*
X143512169Y-123215965D01*
X143318597Y-123351505D01*
X143151505Y-123518597D01*
X143021575Y-123704158D01*
X142966998Y-123747783D01*
X142897500Y-123754977D01*
X142835145Y-123723454D01*
X142818425Y-123704158D01*
X142688494Y-123518597D01*
X142521402Y-123351506D01*
X142521395Y-123351501D01*
X142327834Y-123215967D01*
X142327830Y-123215965D01*
X142327828Y-123215964D01*
X142113663Y-123116097D01*
X142113659Y-123116096D01*
X142113655Y-123116094D01*
X141885413Y-123054938D01*
X141885403Y-123054936D01*
X141650001Y-123034341D01*
X141649999Y-123034341D01*
X141414596Y-123054936D01*
X141414586Y-123054938D01*
X141186344Y-123116094D01*
X141186335Y-123116098D01*
X140972171Y-123215964D01*
X140972169Y-123215965D01*
X140778597Y-123351505D01*
X140611505Y-123518597D01*
X140481575Y-123704158D01*
X140426998Y-123747783D01*
X140357500Y-123754977D01*
X140295145Y-123723454D01*
X140278425Y-123704158D01*
X140148494Y-123518597D01*
X139981402Y-123351506D01*
X139981395Y-123351501D01*
X139787834Y-123215967D01*
X139787830Y-123215965D01*
X139787830Y-123215964D01*
X139573663Y-123116097D01*
X139573659Y-123116096D01*
X139573655Y-123116094D01*
X139345413Y-123054938D01*
X139345403Y-123054936D01*
X139110001Y-123034341D01*
X139109999Y-123034341D01*
X138874596Y-123054936D01*
X138874586Y-123054938D01*
X138646344Y-123116094D01*
X138646335Y-123116098D01*
X138432171Y-123215964D01*
X138432169Y-123215965D01*
X138238597Y-123351505D01*
X138071505Y-123518597D01*
X137941575Y-123704158D01*
X137886998Y-123747783D01*
X137817500Y-123754977D01*
X137755145Y-123723454D01*
X137738425Y-123704158D01*
X137608494Y-123518597D01*
X137441402Y-123351506D01*
X137441395Y-123351501D01*
X137247834Y-123215967D01*
X137247830Y-123215965D01*
X137247828Y-123215964D01*
X137033663Y-123116097D01*
X137033659Y-123116096D01*
X137033655Y-123116094D01*
X136805413Y-123054938D01*
X136805403Y-123054936D01*
X136570001Y-123034341D01*
X136569999Y-123034341D01*
X136334596Y-123054936D01*
X136334586Y-123054938D01*
X136106344Y-123116094D01*
X136106335Y-123116098D01*
X135892171Y-123215964D01*
X135892169Y-123215965D01*
X135698597Y-123351505D01*
X135531508Y-123518594D01*
X135401574Y-123704159D01*
X135346997Y-123747784D01*
X135277498Y-123754976D01*
X135215144Y-123723454D01*
X135198424Y-123704158D01*
X135068494Y-123518597D01*
X134901402Y-123351506D01*
X134901395Y-123351501D01*
X134707834Y-123215967D01*
X134707830Y-123215965D01*
X134707830Y-123215964D01*
X134493663Y-123116097D01*
X134493659Y-123116096D01*
X134493655Y-123116094D01*
X134265413Y-123054938D01*
X134265403Y-123054936D01*
X134030001Y-123034341D01*
X134029999Y-123034341D01*
X133794596Y-123054936D01*
X133794586Y-123054938D01*
X133566344Y-123116094D01*
X133566335Y-123116098D01*
X133352171Y-123215964D01*
X133352169Y-123215965D01*
X133158597Y-123351505D01*
X132991505Y-123518597D01*
X132861575Y-123704158D01*
X132806998Y-123747783D01*
X132737500Y-123754977D01*
X132675145Y-123723454D01*
X132658425Y-123704158D01*
X132528494Y-123518597D01*
X132361402Y-123351506D01*
X132361395Y-123351501D01*
X132167834Y-123215967D01*
X132167830Y-123215965D01*
X132167828Y-123215964D01*
X131953663Y-123116097D01*
X131953659Y-123116096D01*
X131953655Y-123116094D01*
X131725413Y-123054938D01*
X131725403Y-123054936D01*
X131490001Y-123034341D01*
X131489999Y-123034341D01*
X131254596Y-123054936D01*
X131254586Y-123054938D01*
X131026344Y-123116094D01*
X131026335Y-123116098D01*
X130812171Y-123215964D01*
X130812169Y-123215965D01*
X130618597Y-123351505D01*
X130451505Y-123518597D01*
X130315965Y-123712169D01*
X130315964Y-123712171D01*
X130216098Y-123926335D01*
X130216094Y-123926344D01*
X130154938Y-124154586D01*
X130154936Y-124154596D01*
X130134341Y-124389999D01*
X130134341Y-124390000D01*
X130154936Y-124625403D01*
X130154938Y-124625413D01*
X130216094Y-124853655D01*
X130216096Y-124853659D01*
X130216097Y-124853663D01*
X130220000Y-124862032D01*
X130315965Y-125067830D01*
X130315967Y-125067834D01*
X130424281Y-125222521D01*
X130451501Y-125261396D01*
X130451506Y-125261402D01*
X130618597Y-125428493D01*
X130618603Y-125428498D01*
X130804158Y-125558425D01*
X130847783Y-125613002D01*
X130854977Y-125682500D01*
X130823454Y-125744855D01*
X130804158Y-125761575D01*
X130618597Y-125891505D01*
X130451505Y-126058597D01*
X130315965Y-126252169D01*
X130315964Y-126252171D01*
X130216098Y-126466335D01*
X130216094Y-126466344D01*
X130154938Y-126694586D01*
X130154936Y-126694596D01*
X130134341Y-126929999D01*
X130134341Y-126930000D01*
X121920500Y-126930000D01*
X121920500Y-120190670D01*
X123207900Y-120190670D01*
X123207901Y-120190676D01*
X123214308Y-120250283D01*
X123264602Y-120385128D01*
X123264606Y-120385135D01*
X123350852Y-120500344D01*
X123350855Y-120500347D01*
X123466064Y-120586593D01*
X123466071Y-120586597D01*
X123511018Y-120603360D01*
X123600917Y-120636891D01*
X123660527Y-120643300D01*
X124271068Y-120643299D01*
X124316361Y-120652606D01*
X124316393Y-120652506D01*
X124317384Y-120652816D01*
X124319965Y-120653347D01*
X124322388Y-120654387D01*
X124511744Y-120693300D01*
X125569900Y-120693300D01*
X125636939Y-120712985D01*
X125682694Y-120765789D01*
X125693900Y-120817300D01*
X125693900Y-122365671D01*
X125686082Y-122409004D01*
X125650308Y-122504917D01*
X125643901Y-122564516D01*
X125643901Y-122564523D01*
X125643900Y-122564535D01*
X125643900Y-123660270D01*
X125643901Y-123660276D01*
X125650308Y-123719883D01*
X125700602Y-123854728D01*
X125700606Y-123854735D01*
X125786852Y-123969944D01*
X125786855Y-123969947D01*
X125902064Y-124056193D01*
X125902071Y-124056197D01*
X126036917Y-124106491D01*
X126036916Y-124106491D01*
X126043844Y-124107235D01*
X126096527Y-124112900D01*
X127192272Y-124112899D01*
X127251883Y-124106491D01*
X127386731Y-124056196D01*
X127501946Y-123969946D01*
X127588196Y-123854731D01*
X127638491Y-123719883D01*
X127644900Y-123660273D01*
X127644899Y-122564528D01*
X127638491Y-122504917D01*
X127602718Y-122409004D01*
X127594900Y-122365671D01*
X127594900Y-120357244D01*
X127597044Y-120272657D01*
X127597043Y-120272656D01*
X127597044Y-120272653D01*
X127586782Y-120215404D01*
X127586129Y-120210737D01*
X127584088Y-120190670D01*
X135407900Y-120190670D01*
X135407901Y-120190676D01*
X135414308Y-120250283D01*
X135464602Y-120385128D01*
X135464606Y-120385135D01*
X135550852Y-120500344D01*
X135550855Y-120500347D01*
X135666064Y-120586593D01*
X135666071Y-120586597D01*
X135800917Y-120636891D01*
X135800916Y-120636891D01*
X135807844Y-120637635D01*
X135860527Y-120643300D01*
X137756272Y-120643299D01*
X137815883Y-120636891D01*
X137950731Y-120586596D01*
X138065946Y-120500346D01*
X138152196Y-120385131D01*
X138202491Y-120250283D01*
X138208900Y-120190673D01*
X138208899Y-119294928D01*
X138202491Y-119235317D01*
X138202490Y-119235315D01*
X138202490Y-119235312D01*
X138200708Y-119227769D01*
X138202173Y-119227422D01*
X138197809Y-119166451D01*
X138202219Y-119151433D01*
X138202489Y-119150288D01*
X138202491Y-119150283D01*
X138208900Y-119090673D01*
X138208899Y-118194928D01*
X138202491Y-118135317D01*
X138202490Y-118135315D01*
X138202490Y-118135312D01*
X138200708Y-118127769D01*
X138202173Y-118127422D01*
X138197809Y-118066451D01*
X138202219Y-118051433D01*
X138202489Y-118050288D01*
X138202491Y-118050283D01*
X138208900Y-117990673D01*
X138208899Y-117094928D01*
X138202491Y-117035317D01*
X138202490Y-117035315D01*
X138202490Y-117035312D01*
X138200708Y-117027769D01*
X138202173Y-117027422D01*
X138197809Y-116966451D01*
X138202219Y-116951433D01*
X138202489Y-116950288D01*
X138202491Y-116950283D01*
X138208900Y-116890673D01*
X138208899Y-115994928D01*
X138202491Y-115935317D01*
X138191934Y-115907013D01*
X138152197Y-115800471D01*
X138152193Y-115800464D01*
X138065947Y-115685255D01*
X138065944Y-115685252D01*
X137950735Y-115599006D01*
X137950728Y-115599002D01*
X137815882Y-115548708D01*
X137815883Y-115548708D01*
X137756283Y-115542301D01*
X137756281Y-115542300D01*
X137756273Y-115542300D01*
X137756264Y-115542300D01*
X135860529Y-115542300D01*
X135860523Y-115542301D01*
X135800916Y-115548708D01*
X135666071Y-115599002D01*
X135666064Y-115599006D01*
X135550855Y-115685252D01*
X135550852Y-115685255D01*
X135464606Y-115800464D01*
X135464602Y-115800471D01*
X135414308Y-115935317D01*
X135410195Y-115973578D01*
X135407901Y-115994923D01*
X135407900Y-115994935D01*
X135407900Y-116890670D01*
X135407901Y-116890676D01*
X135414308Y-116950279D01*
X135416092Y-116957826D01*
X135414629Y-116958171D01*
X135418985Y-117019171D01*
X135414573Y-117034196D01*
X135414308Y-117035317D01*
X135409109Y-117083680D01*
X135407901Y-117094923D01*
X135407900Y-117094935D01*
X135407900Y-117990670D01*
X135407901Y-117990676D01*
X135414308Y-118050279D01*
X135416092Y-118057826D01*
X135414629Y-118058171D01*
X135418985Y-118119171D01*
X135414573Y-118134196D01*
X135414308Y-118135317D01*
X135407901Y-118194916D01*
X135407901Y-118194923D01*
X135407900Y-118194935D01*
X135407900Y-119090670D01*
X135407901Y-119090676D01*
X135414308Y-119150279D01*
X135416092Y-119157826D01*
X135414629Y-119158171D01*
X135418985Y-119219171D01*
X135414573Y-119234196D01*
X135414308Y-119235317D01*
X135407901Y-119294916D01*
X135407901Y-119294923D01*
X135407900Y-119294935D01*
X135407900Y-120190670D01*
X127584088Y-120190670D01*
X127580245Y-120152880D01*
X127580244Y-120152874D01*
X127570532Y-120121923D01*
X127568662Y-120114305D01*
X127562939Y-120082372D01*
X127541363Y-120028357D01*
X127539782Y-120023916D01*
X127522375Y-119968434D01*
X127522374Y-119968433D01*
X127522374Y-119968432D01*
X127506633Y-119940073D01*
X127503263Y-119932975D01*
X127491230Y-119902852D01*
X127491230Y-119902851D01*
X127459222Y-119854285D01*
X127456782Y-119850256D01*
X127428559Y-119799409D01*
X127407430Y-119774797D01*
X127402704Y-119768530D01*
X127384851Y-119741441D01*
X127384850Y-119741439D01*
X127364291Y-119720881D01*
X127343719Y-119700309D01*
X127340528Y-119696866D01*
X127302640Y-119652732D01*
X127276990Y-119632877D01*
X127271096Y-119627686D01*
X126722627Y-119079217D01*
X126664324Y-119017882D01*
X126664320Y-119017879D01*
X126616567Y-118984641D01*
X126612833Y-118981825D01*
X126567751Y-118945066D01*
X126567747Y-118945064D01*
X126567746Y-118945063D01*
X126567745Y-118945062D01*
X126538997Y-118930046D01*
X126532277Y-118925974D01*
X126505659Y-118907447D01*
X126452209Y-118884510D01*
X126447952Y-118882488D01*
X126396409Y-118855564D01*
X126396407Y-118855563D01*
X126396406Y-118855563D01*
X126379689Y-118850779D01*
X126365221Y-118846639D01*
X126357822Y-118844005D01*
X126328011Y-118831212D01*
X126328012Y-118831212D01*
X126271038Y-118819503D01*
X126266463Y-118818380D01*
X126210556Y-118802383D01*
X126210545Y-118802382D01*
X126178208Y-118799920D01*
X126170428Y-118798829D01*
X126138657Y-118792300D01*
X126138656Y-118792300D01*
X126080497Y-118792300D01*
X126075790Y-118792121D01*
X126070850Y-118791744D01*
X126017798Y-118787704D01*
X126000176Y-118789949D01*
X125985614Y-118791803D01*
X125977785Y-118792300D01*
X124560193Y-118792300D01*
X124416079Y-118806954D01*
X124416077Y-118806955D01*
X124321550Y-118836613D01*
X124284429Y-118842300D01*
X123660529Y-118842300D01*
X123660523Y-118842301D01*
X123600916Y-118848708D01*
X123466071Y-118899002D01*
X123466064Y-118899006D01*
X123350855Y-118985252D01*
X123350852Y-118985255D01*
X123264606Y-119100464D01*
X123264602Y-119100471D01*
X123214308Y-119235317D01*
X123207901Y-119294916D01*
X123207901Y-119294923D01*
X123207900Y-119294935D01*
X123207900Y-120190670D01*
X121920500Y-120190670D01*
X121920500Y-117990670D01*
X123207900Y-117990670D01*
X123207901Y-117990676D01*
X123214308Y-118050283D01*
X123264602Y-118185128D01*
X123264606Y-118185135D01*
X123350852Y-118300344D01*
X123350855Y-118300347D01*
X123466064Y-118386593D01*
X123466071Y-118386597D01*
X123600917Y-118436891D01*
X123600916Y-118436891D01*
X123607844Y-118437635D01*
X123660527Y-118443300D01*
X125556272Y-118443299D01*
X125615883Y-118436891D01*
X125750731Y-118386596D01*
X125865946Y-118300346D01*
X125952196Y-118185131D01*
X126002491Y-118050283D01*
X126008900Y-117990673D01*
X126008899Y-117094928D01*
X126002491Y-117035317D01*
X126002490Y-117035315D01*
X126002490Y-117035312D01*
X126000708Y-117027769D01*
X126002173Y-117027422D01*
X125997809Y-116966451D01*
X126002219Y-116951433D01*
X126002489Y-116950288D01*
X126002491Y-116950283D01*
X126008900Y-116890673D01*
X126008899Y-115994928D01*
X126002491Y-115935317D01*
X125991934Y-115907013D01*
X125952197Y-115800471D01*
X125952193Y-115800464D01*
X125865947Y-115685255D01*
X125865944Y-115685252D01*
X125750735Y-115599006D01*
X125750728Y-115599002D01*
X125615882Y-115548708D01*
X125615883Y-115548708D01*
X125556283Y-115542301D01*
X125556281Y-115542300D01*
X125556273Y-115542300D01*
X125556264Y-115542300D01*
X123660529Y-115542300D01*
X123660523Y-115542301D01*
X123600916Y-115548708D01*
X123466071Y-115599002D01*
X123466064Y-115599006D01*
X123350855Y-115685252D01*
X123350852Y-115685255D01*
X123264606Y-115800464D01*
X123264602Y-115800471D01*
X123214308Y-115935317D01*
X123210195Y-115973578D01*
X123207901Y-115994923D01*
X123207900Y-115994935D01*
X123207900Y-116890670D01*
X123207901Y-116890676D01*
X123214308Y-116950279D01*
X123216092Y-116957826D01*
X123214629Y-116958171D01*
X123218985Y-117019171D01*
X123214573Y-117034196D01*
X123214308Y-117035317D01*
X123209109Y-117083680D01*
X123207901Y-117094923D01*
X123207900Y-117094935D01*
X123207900Y-117990670D01*
X121920500Y-117990670D01*
X121920500Y-113890670D01*
X123207900Y-113890670D01*
X123207901Y-113890676D01*
X123214308Y-113950283D01*
X123264602Y-114085128D01*
X123264606Y-114085135D01*
X123350852Y-114200344D01*
X123350855Y-114200347D01*
X123466064Y-114286593D01*
X123466071Y-114286597D01*
X123600917Y-114336891D01*
X123600916Y-114336891D01*
X123607844Y-114337635D01*
X123660527Y-114343300D01*
X125556272Y-114343299D01*
X125615883Y-114336891D01*
X125750731Y-114286596D01*
X125865946Y-114200346D01*
X125952196Y-114085131D01*
X126002491Y-113950283D01*
X126008900Y-113890673D01*
X126008899Y-112994928D01*
X126002491Y-112935317D01*
X126002490Y-112935315D01*
X126002490Y-112935312D01*
X126000708Y-112927769D01*
X126002173Y-112927422D01*
X125997809Y-112866451D01*
X126002219Y-112851433D01*
X126002489Y-112850288D01*
X126002491Y-112850283D01*
X126008900Y-112790673D01*
X126008899Y-111894928D01*
X126002491Y-111835317D01*
X126002490Y-111835315D01*
X126002490Y-111835312D01*
X126000708Y-111827769D01*
X126002173Y-111827422D01*
X125997809Y-111766451D01*
X126002219Y-111751433D01*
X126002489Y-111750288D01*
X126002491Y-111750283D01*
X126008900Y-111690673D01*
X126008899Y-110794928D01*
X126002491Y-110735317D01*
X126002490Y-110735315D01*
X126002490Y-110735312D01*
X126000708Y-110727769D01*
X126002173Y-110727422D01*
X125997809Y-110666451D01*
X126002219Y-110651433D01*
X126002489Y-110650288D01*
X126002491Y-110650283D01*
X126008900Y-110590673D01*
X126008899Y-109694928D01*
X126002491Y-109635317D01*
X126002490Y-109635315D01*
X126002490Y-109635312D01*
X126000708Y-109627769D01*
X126002173Y-109627422D01*
X125997809Y-109566451D01*
X126002219Y-109551433D01*
X126002489Y-109550288D01*
X126002491Y-109550283D01*
X126008900Y-109490673D01*
X126008899Y-108594928D01*
X126002491Y-108535317D01*
X126002490Y-108535315D01*
X126002490Y-108535312D01*
X126000708Y-108527769D01*
X126002173Y-108527422D01*
X125997809Y-108466451D01*
X126002219Y-108451433D01*
X126002489Y-108450288D01*
X126002491Y-108450283D01*
X126008900Y-108390673D01*
X126008899Y-107494928D01*
X126002491Y-107435317D01*
X126002490Y-107435315D01*
X126002490Y-107435312D01*
X126000708Y-107427769D01*
X126002173Y-107427422D01*
X125997809Y-107366451D01*
X126002219Y-107351433D01*
X126002489Y-107350288D01*
X126002491Y-107350283D01*
X126008900Y-107290673D01*
X126008899Y-106394928D01*
X126002491Y-106335317D01*
X125968767Y-106244899D01*
X125952197Y-106200471D01*
X125952193Y-106200464D01*
X125865947Y-106085255D01*
X125865944Y-106085252D01*
X125750735Y-105999006D01*
X125750728Y-105999002D01*
X125615882Y-105948708D01*
X125615883Y-105948708D01*
X125556283Y-105942301D01*
X125556281Y-105942300D01*
X125556273Y-105942300D01*
X125556264Y-105942300D01*
X123660529Y-105942300D01*
X123660523Y-105942301D01*
X123600916Y-105948708D01*
X123466071Y-105999002D01*
X123466064Y-105999006D01*
X123350855Y-106085252D01*
X123350852Y-106085255D01*
X123264606Y-106200464D01*
X123264602Y-106200471D01*
X123214308Y-106335317D01*
X123209183Y-106382995D01*
X123207901Y-106394923D01*
X123207900Y-106394935D01*
X123207900Y-107290670D01*
X123207901Y-107290676D01*
X123214308Y-107350279D01*
X123216092Y-107357826D01*
X123214629Y-107358171D01*
X123218985Y-107419171D01*
X123214573Y-107434196D01*
X123214308Y-107435317D01*
X123208137Y-107492719D01*
X123207901Y-107494923D01*
X123207900Y-107494935D01*
X123207900Y-108390670D01*
X123207901Y-108390676D01*
X123214308Y-108450279D01*
X123216092Y-108457826D01*
X123214629Y-108458171D01*
X123218985Y-108519171D01*
X123214573Y-108534196D01*
X123214308Y-108535317D01*
X123207901Y-108594916D01*
X123207901Y-108594923D01*
X123207900Y-108594935D01*
X123207900Y-109490670D01*
X123207901Y-109490676D01*
X123214308Y-109550279D01*
X123216092Y-109557826D01*
X123214629Y-109558171D01*
X123218985Y-109619171D01*
X123214573Y-109634196D01*
X123214308Y-109635317D01*
X123207901Y-109694916D01*
X123207901Y-109694923D01*
X123207900Y-109694935D01*
X123207900Y-110590670D01*
X123207901Y-110590676D01*
X123214308Y-110650279D01*
X123216092Y-110657826D01*
X123214629Y-110658171D01*
X123218985Y-110719171D01*
X123214573Y-110734196D01*
X123214308Y-110735317D01*
X123207901Y-110794916D01*
X123207901Y-110794923D01*
X123207900Y-110794935D01*
X123207900Y-111690670D01*
X123207901Y-111690676D01*
X123214308Y-111750279D01*
X123216092Y-111757826D01*
X123214629Y-111758171D01*
X123218985Y-111819171D01*
X123214573Y-111834196D01*
X123214308Y-111835317D01*
X123207901Y-111894916D01*
X123207901Y-111894923D01*
X123207900Y-111894935D01*
X123207900Y-112790670D01*
X123207901Y-112790676D01*
X123214308Y-112850279D01*
X123216092Y-112857826D01*
X123214629Y-112858171D01*
X123218985Y-112919171D01*
X123214573Y-112934196D01*
X123214308Y-112935317D01*
X123207901Y-112994916D01*
X123207901Y-112994923D01*
X123207900Y-112994935D01*
X123207900Y-113890670D01*
X121920500Y-113890670D01*
X121920500Y-93761622D01*
X121920542Y-93760002D01*
X123664723Y-93760002D01*
X123683793Y-93977975D01*
X123683793Y-93977979D01*
X123740422Y-94189322D01*
X123740424Y-94189326D01*
X123740425Y-94189330D01*
X123785127Y-94285194D01*
X123832897Y-94387638D01*
X123857998Y-94423486D01*
X123958402Y-94566877D01*
X124113123Y-94721598D01*
X124292361Y-94847102D01*
X124490670Y-94939575D01*
X124490675Y-94939576D01*
X124490679Y-94939578D01*
X124515749Y-94946295D01*
X124525775Y-94948981D01*
X124528882Y-94949902D01*
X124532944Y-94951221D01*
X124532948Y-94951223D01*
X124540977Y-94953054D01*
X124702023Y-94996207D01*
X124743207Y-94999810D01*
X124751594Y-95001128D01*
X124788667Y-95009591D01*
X124820835Y-95006601D01*
X124920000Y-95015277D01*
X124965291Y-95011314D01*
X124973461Y-95011142D01*
X124976194Y-95011265D01*
X124976196Y-95011264D01*
X124981749Y-95011515D01*
X124981763Y-95011514D01*
X125011648Y-95012856D01*
X125041479Y-95004649D01*
X125137977Y-94996207D01*
X125185915Y-94983361D01*
X125193643Y-94981810D01*
X125195356Y-94981577D01*
X125198713Y-94981123D01*
X125198715Y-94981122D01*
X125200819Y-94980837D01*
X125200840Y-94980834D01*
X125231609Y-94976666D01*
X125258282Y-94963971D01*
X125314234Y-94948979D01*
X125349320Y-94939578D01*
X125349323Y-94939576D01*
X125349330Y-94939575D01*
X125398182Y-94916794D01*
X125405193Y-94914032D01*
X125412274Y-94911732D01*
X125412277Y-94911730D01*
X125414252Y-94911089D01*
X125414263Y-94911085D01*
X125441653Y-94902185D01*
X125464517Y-94885862D01*
X125547639Y-94847102D01*
X125595328Y-94813709D01*
X125601502Y-94809904D01*
X125610013Y-94805325D01*
X125610015Y-94805322D01*
X125612472Y-94804001D01*
X125614913Y-94802688D01*
X125614919Y-94802684D01*
X125635152Y-94791796D01*
X125653773Y-94772785D01*
X125726877Y-94721598D01*
X125771182Y-94677292D01*
X125776336Y-94672685D01*
X125785574Y-94665319D01*
X125785578Y-94665313D01*
X125789468Y-94662212D01*
X125790866Y-94661640D01*
X125794299Y-94658359D01*
X125806039Y-94648996D01*
X125820180Y-94628294D01*
X125881598Y-94566877D01*
X125920146Y-94511824D01*
X125924206Y-94506641D01*
X125932456Y-94497198D01*
X125935022Y-94495564D01*
X125940654Y-94487813D01*
X125948945Y-94478322D01*
X125958596Y-94456912D01*
X126007102Y-94387639D01*
X126037462Y-94322531D01*
X126040416Y-94316960D01*
X126041646Y-94314899D01*
X126044777Y-94309659D01*
X126048076Y-94306606D01*
X126054205Y-94293881D01*
X126059395Y-94285194D01*
X126064752Y-94264006D01*
X126099575Y-94189330D01*
X126100105Y-94187354D01*
X126104692Y-94170232D01*
X126119408Y-94115310D01*
X126121239Y-94109604D01*
X126122879Y-94105233D01*
X126126402Y-94100547D01*
X126131308Y-94082772D01*
X126133961Y-94075702D01*
X126135412Y-94055583D01*
X126146243Y-94015164D01*
X126156207Y-93977977D01*
X126163316Y-93896708D01*
X126164073Y-93891070D01*
X126167484Y-93872276D01*
X126167484Y-93872274D01*
X126169851Y-93859232D01*
X126168067Y-93846234D01*
X126168138Y-93843047D01*
X126168352Y-93839149D01*
X126175277Y-93760000D01*
X126168356Y-93680900D01*
X126168140Y-93676963D01*
X126168113Y-93675827D01*
X126168070Y-93673884D01*
X126170554Y-93664641D01*
X126164075Y-93628940D01*
X126163316Y-93623288D01*
X126156207Y-93542023D01*
X126135411Y-93464411D01*
X126135775Y-93449123D01*
X126131308Y-93437222D01*
X126127344Y-93422861D01*
X126122879Y-93414764D01*
X126121244Y-93410409D01*
X126119405Y-93404677D01*
X126099575Y-93330670D01*
X126064752Y-93255994D01*
X126062263Y-93239605D01*
X126054204Y-93226117D01*
X126049268Y-93215869D01*
X126044783Y-93210348D01*
X126040418Y-93203043D01*
X126037455Y-93197455D01*
X126007102Y-93132362D01*
X125958597Y-93063089D01*
X125952903Y-93046205D01*
X125940655Y-93032186D01*
X125936132Y-93025961D01*
X125932453Y-93022797D01*
X125924223Y-93013377D01*
X125920124Y-93008143D01*
X125881599Y-92953124D01*
X125881596Y-92953121D01*
X125820180Y-92891705D01*
X125811061Y-92875005D01*
X125794299Y-92861638D01*
X125791557Y-92859017D01*
X125789468Y-92857786D01*
X125776353Y-92847327D01*
X125771166Y-92842691D01*
X125726878Y-92798403D01*
X125726869Y-92798396D01*
X125653772Y-92747212D01*
X125641162Y-92731436D01*
X125601505Y-92710096D01*
X125595318Y-92706283D01*
X125547643Y-92672900D01*
X125464518Y-92634138D01*
X125448508Y-92620040D01*
X125405216Y-92605974D01*
X125398167Y-92603197D01*
X125349332Y-92580426D01*
X125349330Y-92580425D01*
X125333693Y-92576235D01*
X125258273Y-92556025D01*
X125239119Y-92544349D01*
X125193640Y-92538188D01*
X125185909Y-92536636D01*
X125137985Y-92523794D01*
X125137971Y-92523792D01*
X125041472Y-92515350D01*
X125019575Y-92506784D01*
X124973463Y-92508856D01*
X124965271Y-92508682D01*
X124920006Y-92504723D01*
X124919997Y-92504723D01*
X124820820Y-92513399D01*
X124796749Y-92508561D01*
X124751593Y-92518870D01*
X124743191Y-92520190D01*
X124702020Y-92523793D01*
X124603179Y-92550277D01*
X124577623Y-92549668D01*
X124539030Y-92566169D01*
X124522381Y-92571927D01*
X124490667Y-92580425D01*
X124292361Y-92672898D01*
X124292357Y-92672900D01*
X124113121Y-92798402D01*
X123958402Y-92953121D01*
X123832900Y-93132357D01*
X123832898Y-93132361D01*
X123740426Y-93330668D01*
X123740422Y-93330677D01*
X123683793Y-93542020D01*
X123683793Y-93542024D01*
X123664723Y-93759997D01*
X123664723Y-93760002D01*
X121920542Y-93760002D01*
X121920585Y-93758376D01*
X121927497Y-93626486D01*
X121937803Y-93442968D01*
X121938464Y-93436791D01*
X121962611Y-93284331D01*
X121967426Y-93255995D01*
X121990227Y-93121796D01*
X121991451Y-93116196D01*
X122032425Y-92963279D01*
X122077083Y-92808268D01*
X122078764Y-92803254D01*
X122136127Y-92653815D01*
X122197366Y-92505972D01*
X122199379Y-92501606D01*
X122272511Y-92358078D01*
X122279688Y-92345090D01*
X122349655Y-92218494D01*
X122351867Y-92214808D01*
X122439980Y-92079127D01*
X122493090Y-92004275D01*
X122532154Y-91949220D01*
X122534486Y-91946143D01*
X122635655Y-91821209D01*
X122637537Y-91818998D01*
X122742773Y-91701239D01*
X122745092Y-91698787D01*
X122858787Y-91585092D01*
X122861239Y-91582773D01*
X122978998Y-91477537D01*
X122981209Y-91475655D01*
X123106143Y-91374486D01*
X123109220Y-91372154D01*
X123219182Y-91294130D01*
X123239127Y-91279980D01*
X123256076Y-91268973D01*
X123374808Y-91191867D01*
X123378494Y-91189655D01*
X123518078Y-91112511D01*
X123539003Y-91101849D01*
X123661606Y-91039379D01*
X123665972Y-91037366D01*
X123813815Y-90976127D01*
X123963254Y-90918764D01*
X123968268Y-90917083D01*
X124123279Y-90872425D01*
X124276196Y-90831451D01*
X124281796Y-90830227D01*
X124444284Y-90802618D01*
X124596791Y-90778464D01*
X124602968Y-90777803D01*
X124786566Y-90767493D01*
X124918380Y-90760584D01*
X124921622Y-90760500D01*
X125800106Y-90760500D01*
X125867145Y-90780185D01*
G37*
%TD.AperFunction*%
%TA.AperFunction,Conductor*%
G36*
X144559076Y-98729285D02*
G01*
X144579718Y-98745919D01*
X146436302Y-100602503D01*
X146469787Y-100663826D01*
X146468397Y-100722273D01*
X146462067Y-100745900D01*
X146462064Y-100745913D01*
X146442232Y-100972599D01*
X146442232Y-100972601D01*
X146462064Y-101199286D01*
X146462066Y-101199297D01*
X146520958Y-101419088D01*
X146520961Y-101419097D01*
X146617131Y-101625332D01*
X146617132Y-101625334D01*
X146747654Y-101811741D01*
X146908558Y-101972645D01*
X146908561Y-101972647D01*
X147094966Y-102103168D01*
X147301204Y-102199339D01*
X147521008Y-102258235D01*
X147682930Y-102272401D01*
X147747698Y-102278068D01*
X147747700Y-102278068D01*
X147747702Y-102278068D01*
X147804372Y-102273109D01*
X147974392Y-102258235D01*
X148194196Y-102199339D01*
X148378894Y-102113212D01*
X148447973Y-102102720D01*
X148511757Y-102131240D01*
X148549996Y-102189716D01*
X148555300Y-102225594D01*
X148555300Y-102525137D01*
X148535615Y-102592176D01*
X148518981Y-102612818D01*
X145612718Y-105519081D01*
X145551395Y-105552566D01*
X145525037Y-105555400D01*
X141710034Y-105555400D01*
X141642995Y-105535715D01*
X141597240Y-105482911D01*
X141587296Y-105413753D01*
X141593852Y-105388067D01*
X141626891Y-105299483D01*
X141633300Y-105239873D01*
X141633299Y-103644128D01*
X141626891Y-103584517D01*
X141616770Y-103557382D01*
X141576597Y-103449671D01*
X141576593Y-103449664D01*
X141490347Y-103334455D01*
X141490344Y-103334452D01*
X141375135Y-103248206D01*
X141375128Y-103248202D01*
X141240282Y-103197908D01*
X141240283Y-103197908D01*
X141180683Y-103191501D01*
X141180681Y-103191500D01*
X141180673Y-103191500D01*
X141180664Y-103191500D01*
X139084929Y-103191500D01*
X139084923Y-103191501D01*
X139025316Y-103197908D01*
X138890471Y-103248202D01*
X138890464Y-103248206D01*
X138775255Y-103334452D01*
X138775252Y-103334455D01*
X138689006Y-103449664D01*
X138689002Y-103449671D01*
X138638708Y-103584516D01*
X138636996Y-103600446D01*
X138610257Y-103664996D01*
X138552863Y-103704843D01*
X138483038Y-103707336D01*
X138426026Y-103674869D01*
X137913818Y-103162661D01*
X137880333Y-103101338D01*
X137877499Y-103074980D01*
X137877499Y-102503998D01*
X137877498Y-102503981D01*
X137866999Y-102401203D01*
X137866998Y-102401200D01*
X137847780Y-102343204D01*
X137811814Y-102234666D01*
X137719712Y-102085344D01*
X137595656Y-101961288D01*
X137446334Y-101869186D01*
X137279797Y-101814001D01*
X137279795Y-101814000D01*
X137177010Y-101803500D01*
X136126998Y-101803500D01*
X136126980Y-101803501D01*
X136024203Y-101814000D01*
X136024200Y-101814001D01*
X135857668Y-101869185D01*
X135857663Y-101869187D01*
X135708344Y-101961288D01*
X135662379Y-102007252D01*
X135601055Y-102040736D01*
X135531363Y-102035750D01*
X135487018Y-102007250D01*
X135383057Y-101903289D01*
X135383056Y-101903288D01*
X135238298Y-101814001D01*
X135233736Y-101811187D01*
X135233731Y-101811185D01*
X135210539Y-101803500D01*
X135067197Y-101756001D01*
X135067195Y-101756000D01*
X134964410Y-101745500D01*
X133564398Y-101745500D01*
X133564381Y-101745501D01*
X133461603Y-101756000D01*
X133461600Y-101756001D01*
X133295068Y-101811185D01*
X133295063Y-101811187D01*
X133145742Y-101903289D01*
X133082081Y-101966951D01*
X133020758Y-102000436D01*
X132951066Y-101995452D01*
X132906719Y-101966951D01*
X132843057Y-101903289D01*
X132843056Y-101903289D01*
X132843056Y-101903288D01*
X132698298Y-101814001D01*
X132693736Y-101811187D01*
X132693731Y-101811185D01*
X132670539Y-101803500D01*
X132527197Y-101756001D01*
X132527195Y-101756000D01*
X132424410Y-101745500D01*
X131024398Y-101745500D01*
X131024381Y-101745501D01*
X130921603Y-101756000D01*
X130921600Y-101756001D01*
X130755068Y-101811185D01*
X130755063Y-101811187D01*
X130605742Y-101903289D01*
X130481689Y-102027342D01*
X130389587Y-102176663D01*
X130389585Y-102176668D01*
X130382073Y-102199338D01*
X130334401Y-102343203D01*
X130334401Y-102343204D01*
X130334400Y-102343204D01*
X130323900Y-102445983D01*
X130323900Y-103371001D01*
X130323901Y-103371019D01*
X130334400Y-103473796D01*
X130334401Y-103473799D01*
X130389585Y-103640331D01*
X130389587Y-103640336D01*
X130405077Y-103665449D01*
X130481688Y-103789656D01*
X130605744Y-103913712D01*
X130755066Y-104005814D01*
X130921603Y-104060999D01*
X131024391Y-104071500D01*
X132213172Y-104071499D01*
X132280211Y-104091184D01*
X132325966Y-104143987D01*
X132335910Y-104213146D01*
X132314749Y-104266619D01*
X132300692Y-104286694D01*
X132300690Y-104286698D01*
X132204520Y-104492933D01*
X132204517Y-104492942D01*
X132145625Y-104712733D01*
X132145623Y-104712744D01*
X132125791Y-104939429D01*
X132125791Y-104939432D01*
X132145623Y-105166117D01*
X132145625Y-105166128D01*
X132204517Y-105385919D01*
X132204520Y-105385928D01*
X132300690Y-105592163D01*
X132300691Y-105592165D01*
X132431213Y-105778572D01*
X132592117Y-105939476D01*
X132592120Y-105939478D01*
X132778525Y-106069999D01*
X132984763Y-106166170D01*
X133204567Y-106225066D01*
X133366489Y-106239232D01*
X133431257Y-106244899D01*
X133431259Y-106244899D01*
X133431261Y-106244899D01*
X133487932Y-106239940D01*
X133657951Y-106225066D01*
X133877755Y-106166170D01*
X134083993Y-106069999D01*
X134270398Y-105939478D01*
X134431306Y-105778570D01*
X134561827Y-105592165D01*
X134657998Y-105385927D01*
X134716894Y-105166123D01*
X134736727Y-104939431D01*
X134716894Y-104712739D01*
X134665966Y-104522672D01*
X134658000Y-104492942D01*
X134657997Y-104492933D01*
X134653340Y-104482947D01*
X134562767Y-104288714D01*
X134552276Y-104219639D01*
X134580796Y-104155855D01*
X134587457Y-104148642D01*
X134628282Y-104107817D01*
X134689606Y-104074332D01*
X134715963Y-104071499D01*
X134964402Y-104071499D01*
X134964408Y-104071499D01*
X135067197Y-104060999D01*
X135233734Y-104005814D01*
X135383056Y-103913712D01*
X135504021Y-103792746D01*
X135565340Y-103759264D01*
X135635032Y-103764248D01*
X135679379Y-103792747D01*
X135708344Y-103821712D01*
X135857666Y-103913814D01*
X136024203Y-103968999D01*
X136126991Y-103979500D01*
X136697980Y-103979499D01*
X136765019Y-103999183D01*
X136785661Y-104015818D01*
X137439181Y-104669338D01*
X137472666Y-104730661D01*
X137475500Y-104757019D01*
X137475500Y-106918300D01*
X137455815Y-106985339D01*
X137403011Y-107031094D01*
X137351500Y-107042300D01*
X137138361Y-107042300D01*
X137107280Y-107038342D01*
X137079287Y-107031094D01*
X136953074Y-106998415D01*
X136953076Y-106998415D01*
X136824364Y-106991887D01*
X136760010Y-106988624D01*
X136760009Y-106988624D01*
X136760007Y-106988624D01*
X136568925Y-107017896D01*
X136523872Y-107034582D01*
X136480808Y-107042300D01*
X135860529Y-107042300D01*
X135860523Y-107042301D01*
X135800916Y-107048708D01*
X135666071Y-107099002D01*
X135666064Y-107099006D01*
X135550855Y-107185252D01*
X135550852Y-107185255D01*
X135464606Y-107300464D01*
X135464602Y-107300471D01*
X135414308Y-107435317D01*
X135408137Y-107492719D01*
X135407901Y-107494923D01*
X135407900Y-107494935D01*
X135407900Y-108390670D01*
X135407901Y-108390676D01*
X135414308Y-108450279D01*
X135416092Y-108457826D01*
X135414629Y-108458171D01*
X135418985Y-108519171D01*
X135414573Y-108534196D01*
X135414308Y-108535317D01*
X135407901Y-108594916D01*
X135407900Y-108594927D01*
X135407900Y-109028247D01*
X135407901Y-109353200D01*
X135388217Y-109420239D01*
X135335413Y-109465994D01*
X135283901Y-109477200D01*
X134752263Y-109477200D01*
X134685224Y-109457515D01*
X134664582Y-109440881D01*
X128971919Y-103748218D01*
X128938434Y-103686895D01*
X128935600Y-103660537D01*
X128935600Y-102118905D01*
X128935600Y-101239870D01*
X138632300Y-101239870D01*
X138632301Y-101239876D01*
X138638708Y-101299483D01*
X138689002Y-101434328D01*
X138689006Y-101434335D01*
X138775252Y-101549544D01*
X138775255Y-101549547D01*
X138890464Y-101635793D01*
X138890471Y-101635797D01*
X139025317Y-101686091D01*
X139025316Y-101686091D01*
X139032244Y-101686835D01*
X139084927Y-101692500D01*
X141180672Y-101692499D01*
X141240283Y-101686091D01*
X141375131Y-101635796D01*
X141490346Y-101549546D01*
X141576596Y-101434331D01*
X141626891Y-101299483D01*
X141633300Y-101239873D01*
X141633299Y-99644128D01*
X141626891Y-99584517D01*
X141623916Y-99576541D01*
X141576597Y-99449671D01*
X141576593Y-99449664D01*
X141490347Y-99334455D01*
X141490344Y-99334452D01*
X141375135Y-99248206D01*
X141375128Y-99248202D01*
X141240282Y-99197908D01*
X141240283Y-99197908D01*
X141180683Y-99191501D01*
X141180681Y-99191500D01*
X141180673Y-99191500D01*
X141180664Y-99191500D01*
X139084929Y-99191500D01*
X139084923Y-99191501D01*
X139025316Y-99197908D01*
X138890471Y-99248202D01*
X138890464Y-99248206D01*
X138775255Y-99334452D01*
X138775252Y-99334455D01*
X138689006Y-99449664D01*
X138689002Y-99449671D01*
X138638708Y-99584517D01*
X138633133Y-99636380D01*
X138632301Y-99644123D01*
X138632300Y-99644135D01*
X138632300Y-101239870D01*
X128935600Y-101239870D01*
X128935600Y-100566135D01*
X128955284Y-100499100D01*
X128988474Y-100464565D01*
X129058339Y-100415647D01*
X129219247Y-100254739D01*
X129349768Y-100068334D01*
X129445939Y-99862096D01*
X129504835Y-99642292D01*
X129524668Y-99415600D01*
X129524478Y-99413434D01*
X129517568Y-99334452D01*
X129504835Y-99188908D01*
X129445939Y-98969104D01*
X129407188Y-98886004D01*
X129396697Y-98816927D01*
X129425217Y-98753143D01*
X129483693Y-98714904D01*
X129519571Y-98709600D01*
X144492037Y-98709600D01*
X144559076Y-98729285D01*
G37*
%TD.AperFunction*%
%TD*%
M02*
