%TF.GenerationSoftware,KiCad,Pcbnew,7.0.6*%
%TF.CreationDate,2023-09-04T00:35:45+02:00*%
%TF.ProjectId,pqunit,7071756e-6974-42e6-9b69-6361645f7063,rev?*%
%TF.SameCoordinates,Original*%
%TF.FileFunction,Legend,Top*%
%TF.FilePolarity,Positive*%
%FSLAX46Y46*%
G04 Gerber Fmt 4.6, Leading zero omitted, Abs format (unit mm)*
G04 Created by KiCad (PCBNEW 7.0.6) date 2023-09-04 00:35:45*
%MOMM*%
%LPD*%
G01*
G04 APERTURE LIST*
%ADD10C,0.150000*%
%ADD11C,0.120000*%
G04 APERTURE END LIST*
D10*
X138196745Y-118438243D02*
X137691669Y-118943319D01*
X137691669Y-118943319D02*
X137556982Y-119010662D01*
X137556982Y-119010662D02*
X137422295Y-119010662D01*
X137422295Y-119010662D02*
X137287608Y-118943319D01*
X137287608Y-118943319D02*
X137220264Y-118875975D01*
X137826356Y-119482067D02*
X138533463Y-118774960D01*
X138533463Y-118774960D02*
X138802837Y-119044334D01*
X138802837Y-119044334D02*
X138836508Y-119145350D01*
X138836508Y-119145350D02*
X138836508Y-119212693D01*
X138836508Y-119212693D02*
X138802837Y-119313708D01*
X138802837Y-119313708D02*
X138701821Y-119414724D01*
X138701821Y-119414724D02*
X138600806Y-119448395D01*
X138600806Y-119448395D02*
X138533463Y-119448395D01*
X138533463Y-119448395D02*
X138432447Y-119414724D01*
X138432447Y-119414724D02*
X138163073Y-119145350D01*
X138903852Y-120559563D02*
X138499791Y-120155502D01*
X138701821Y-120357533D02*
X139408928Y-119650426D01*
X139408928Y-119650426D02*
X139240569Y-119684098D01*
X139240569Y-119684098D02*
X139105882Y-119684098D01*
X139105882Y-119684098D02*
X139004867Y-119650426D01*
X129777294Y-103190257D02*
X129824914Y-103237876D01*
X129824914Y-103237876D02*
X129872533Y-103380733D01*
X129872533Y-103380733D02*
X129872533Y-103475971D01*
X129872533Y-103475971D02*
X129824914Y-103618828D01*
X129824914Y-103618828D02*
X129729675Y-103714066D01*
X129729675Y-103714066D02*
X129634437Y-103761685D01*
X129634437Y-103761685D02*
X129443961Y-103809304D01*
X129443961Y-103809304D02*
X129301104Y-103809304D01*
X129301104Y-103809304D02*
X129110628Y-103761685D01*
X129110628Y-103761685D02*
X129015390Y-103714066D01*
X129015390Y-103714066D02*
X128920152Y-103618828D01*
X128920152Y-103618828D02*
X128872533Y-103475971D01*
X128872533Y-103475971D02*
X128872533Y-103380733D01*
X128872533Y-103380733D02*
X128920152Y-103237876D01*
X128920152Y-103237876D02*
X128967771Y-103190257D01*
X129872533Y-102237876D02*
X129872533Y-102809304D01*
X129872533Y-102523590D02*
X128872533Y-102523590D01*
X128872533Y-102523590D02*
X129015390Y-102618828D01*
X129015390Y-102618828D02*
X129110628Y-102714066D01*
X129110628Y-102714066D02*
X129158247Y-102809304D01*
X128872533Y-101618828D02*
X128872533Y-101523590D01*
X128872533Y-101523590D02*
X128920152Y-101428352D01*
X128920152Y-101428352D02*
X128967771Y-101380733D01*
X128967771Y-101380733D02*
X129063009Y-101333114D01*
X129063009Y-101333114D02*
X129253485Y-101285495D01*
X129253485Y-101285495D02*
X129491580Y-101285495D01*
X129491580Y-101285495D02*
X129682056Y-101333114D01*
X129682056Y-101333114D02*
X129777294Y-101380733D01*
X129777294Y-101380733D02*
X129824914Y-101428352D01*
X129824914Y-101428352D02*
X129872533Y-101523590D01*
X129872533Y-101523590D02*
X129872533Y-101618828D01*
X129872533Y-101618828D02*
X129824914Y-101714066D01*
X129824914Y-101714066D02*
X129777294Y-101761685D01*
X129777294Y-101761685D02*
X129682056Y-101809304D01*
X129682056Y-101809304D02*
X129491580Y-101856923D01*
X129491580Y-101856923D02*
X129253485Y-101856923D01*
X129253485Y-101856923D02*
X129063009Y-101809304D01*
X129063009Y-101809304D02*
X128967771Y-101761685D01*
X128967771Y-101761685D02*
X128920152Y-101714066D01*
X128920152Y-101714066D02*
X128872533Y-101618828D01*
X143734595Y-106828219D02*
X143734595Y-107637742D01*
X143734595Y-107637742D02*
X143782214Y-107732980D01*
X143782214Y-107732980D02*
X143829833Y-107780600D01*
X143829833Y-107780600D02*
X143925071Y-107828219D01*
X143925071Y-107828219D02*
X144115547Y-107828219D01*
X144115547Y-107828219D02*
X144210785Y-107780600D01*
X144210785Y-107780600D02*
X144258404Y-107732980D01*
X144258404Y-107732980D02*
X144306023Y-107637742D01*
X144306023Y-107637742D02*
X144306023Y-106828219D01*
X145210785Y-106828219D02*
X145020309Y-106828219D01*
X145020309Y-106828219D02*
X144925071Y-106875838D01*
X144925071Y-106875838D02*
X144877452Y-106923457D01*
X144877452Y-106923457D02*
X144782214Y-107066314D01*
X144782214Y-107066314D02*
X144734595Y-107256790D01*
X144734595Y-107256790D02*
X144734595Y-107637742D01*
X144734595Y-107637742D02*
X144782214Y-107732980D01*
X144782214Y-107732980D02*
X144829833Y-107780600D01*
X144829833Y-107780600D02*
X144925071Y-107828219D01*
X144925071Y-107828219D02*
X145115547Y-107828219D01*
X145115547Y-107828219D02*
X145210785Y-107780600D01*
X145210785Y-107780600D02*
X145258404Y-107732980D01*
X145258404Y-107732980D02*
X145306023Y-107637742D01*
X145306023Y-107637742D02*
X145306023Y-107399647D01*
X145306023Y-107399647D02*
X145258404Y-107304409D01*
X145258404Y-107304409D02*
X145210785Y-107256790D01*
X145210785Y-107256790D02*
X145115547Y-107209171D01*
X145115547Y-107209171D02*
X144925071Y-107209171D01*
X144925071Y-107209171D02*
X144829833Y-107256790D01*
X144829833Y-107256790D02*
X144782214Y-107304409D01*
X144782214Y-107304409D02*
X144734595Y-107399647D01*
X128161166Y-125065419D02*
X128161166Y-125779704D01*
X128161166Y-125779704D02*
X128113547Y-125922561D01*
X128113547Y-125922561D02*
X128018309Y-126017800D01*
X128018309Y-126017800D02*
X127875452Y-126065419D01*
X127875452Y-126065419D02*
X127780214Y-126065419D01*
X129161166Y-126065419D02*
X128589738Y-126065419D01*
X128875452Y-126065419D02*
X128875452Y-125065419D01*
X128875452Y-125065419D02*
X128780214Y-125208276D01*
X128780214Y-125208276D02*
X128684976Y-125303514D01*
X128684976Y-125303514D02*
X128589738Y-125351133D01*
X133984880Y-106574866D02*
X134032500Y-106622485D01*
X134032500Y-106622485D02*
X134080119Y-106765342D01*
X134080119Y-106765342D02*
X134080119Y-106860580D01*
X134080119Y-106860580D02*
X134032500Y-107003437D01*
X134032500Y-107003437D02*
X133937261Y-107098675D01*
X133937261Y-107098675D02*
X133842023Y-107146294D01*
X133842023Y-107146294D02*
X133651547Y-107193913D01*
X133651547Y-107193913D02*
X133508690Y-107193913D01*
X133508690Y-107193913D02*
X133318214Y-107146294D01*
X133318214Y-107146294D02*
X133222976Y-107098675D01*
X133222976Y-107098675D02*
X133127738Y-107003437D01*
X133127738Y-107003437D02*
X133080119Y-106860580D01*
X133080119Y-106860580D02*
X133080119Y-106765342D01*
X133080119Y-106765342D02*
X133127738Y-106622485D01*
X133127738Y-106622485D02*
X133175357Y-106574866D01*
X133508690Y-106003437D02*
X133461071Y-106098675D01*
X133461071Y-106098675D02*
X133413452Y-106146294D01*
X133413452Y-106146294D02*
X133318214Y-106193913D01*
X133318214Y-106193913D02*
X133270595Y-106193913D01*
X133270595Y-106193913D02*
X133175357Y-106146294D01*
X133175357Y-106146294D02*
X133127738Y-106098675D01*
X133127738Y-106098675D02*
X133080119Y-106003437D01*
X133080119Y-106003437D02*
X133080119Y-105812961D01*
X133080119Y-105812961D02*
X133127738Y-105717723D01*
X133127738Y-105717723D02*
X133175357Y-105670104D01*
X133175357Y-105670104D02*
X133270595Y-105622485D01*
X133270595Y-105622485D02*
X133318214Y-105622485D01*
X133318214Y-105622485D02*
X133413452Y-105670104D01*
X133413452Y-105670104D02*
X133461071Y-105717723D01*
X133461071Y-105717723D02*
X133508690Y-105812961D01*
X133508690Y-105812961D02*
X133508690Y-106003437D01*
X133508690Y-106003437D02*
X133556309Y-106098675D01*
X133556309Y-106098675D02*
X133603928Y-106146294D01*
X133603928Y-106146294D02*
X133699166Y-106193913D01*
X133699166Y-106193913D02*
X133889642Y-106193913D01*
X133889642Y-106193913D02*
X133984880Y-106146294D01*
X133984880Y-106146294D02*
X134032500Y-106098675D01*
X134032500Y-106098675D02*
X134080119Y-106003437D01*
X134080119Y-106003437D02*
X134080119Y-105812961D01*
X134080119Y-105812961D02*
X134032500Y-105717723D01*
X134032500Y-105717723D02*
X133984880Y-105670104D01*
X133984880Y-105670104D02*
X133889642Y-105622485D01*
X133889642Y-105622485D02*
X133699166Y-105622485D01*
X133699166Y-105622485D02*
X133603928Y-105670104D01*
X133603928Y-105670104D02*
X133556309Y-105717723D01*
X133556309Y-105717723D02*
X133508690Y-105812961D01*
X159250766Y-97047819D02*
X159250766Y-97762104D01*
X159250766Y-97762104D02*
X159203147Y-97904961D01*
X159203147Y-97904961D02*
X159107909Y-98000200D01*
X159107909Y-98000200D02*
X158965052Y-98047819D01*
X158965052Y-98047819D02*
X158869814Y-98047819D01*
X159679338Y-97143057D02*
X159726957Y-97095438D01*
X159726957Y-97095438D02*
X159822195Y-97047819D01*
X159822195Y-97047819D02*
X160060290Y-97047819D01*
X160060290Y-97047819D02*
X160155528Y-97095438D01*
X160155528Y-97095438D02*
X160203147Y-97143057D01*
X160203147Y-97143057D02*
X160250766Y-97238295D01*
X160250766Y-97238295D02*
X160250766Y-97333533D01*
X160250766Y-97333533D02*
X160203147Y-97476390D01*
X160203147Y-97476390D02*
X159631719Y-98047819D01*
X159631719Y-98047819D02*
X160250766Y-98047819D01*
%TO.C,JP1*%
X138798340Y-116501954D02*
X139505447Y-116501954D01*
X138232654Y-117067640D02*
X138798340Y-116501954D01*
X139505447Y-116501954D02*
X142051031Y-119047539D01*
X138232654Y-117774747D02*
X138232654Y-117067640D01*
X142051031Y-119047539D02*
X142051031Y-119754645D01*
X140778239Y-120320331D02*
X138232654Y-117774747D01*
X142051031Y-119754645D02*
X141485345Y-120320331D01*
X141485345Y-120320331D02*
X140778239Y-120320331D01*
D11*
%TO.C,C10*%
X130357714Y-103258652D02*
X130357714Y-101836148D01*
X132177714Y-103258652D02*
X132177714Y-101836148D01*
D10*
%TO.C,U6*%
X136195700Y-98471000D02*
X152695700Y-98471000D01*
X136195700Y-99221000D02*
X136195700Y-98471000D01*
X136195700Y-115221000D02*
X136195700Y-115971000D01*
X136195700Y-115971000D02*
X152695700Y-115971000D01*
X152695700Y-98471000D02*
X152695700Y-99221000D01*
X152695700Y-115971000D02*
X152695700Y-115221000D01*
D11*
%TO.C,J1*%
X155680000Y-123060000D02*
X154350000Y-123060000D01*
X153080000Y-123060000D02*
X130160000Y-123060000D01*
X155680000Y-124390000D02*
X155680000Y-123060000D01*
X155680000Y-125660000D02*
X153080000Y-125660000D01*
X153080000Y-125660000D02*
X153080000Y-123060000D01*
X155680000Y-128260000D02*
X155680000Y-125660000D01*
X155680000Y-128260000D02*
X130160000Y-128260000D01*
X130160000Y-128260000D02*
X130160000Y-123060000D01*
%TO.C,C8*%
X132788700Y-103388952D02*
X132788700Y-102866448D01*
X134258700Y-103388952D02*
X134258700Y-102866448D01*
%TO.C,J2*%
X158254100Y-101633000D02*
X158254100Y-124553000D01*
X158254100Y-101633000D02*
X160914100Y-101633000D01*
X158254100Y-124553000D02*
X160914100Y-124553000D01*
X159584100Y-99033000D02*
X160914100Y-99033000D01*
X160914100Y-99033000D02*
X160914100Y-100363000D01*
X160914100Y-101633000D02*
X160914100Y-124553000D01*
%TD*%
M02*
