M48
; DRILL file {KiCad 7.0.6} date Mon Sep  4 00:35:47 2023
; FORMAT={-:-/ absolute / inch / decimal}
; #@! TF.CreationDate,2023-09-04T00:35:47+02:00
; #@! TF.GenerationSoftware,Kicad,Pcbnew,7.0.6
; #@! TF.FileFunction,Plated,1,2,PTH
FMAT,2
INCH
; #@! TA.AperFunction,Plated,PTH,ViaDrill
T1C0.0315
; #@! TA.AperFunction,Plated,PTH,ComponentDrill
T2C0.0315
; #@! TA.AperFunction,Plated,PTH,ComponentDrill
T3C0.0394
%
G90
G05
T1
X5.168Y-4.1965
X5.488Y-4.4181
X5.5907Y-4.3394
X5.6328Y-3.7133
X5.8168Y-3.8633
X5.8168Y-3.9753
X5.9288Y-3.8873
X6.0808Y-3.796
X6.0928Y-4.5453
X6.1148Y-4.6293
X6.2168Y-3.668
T2
X5.482Y-4.6265
X5.5528Y-4.6972
T3
X5.1768Y-4.8972
X5.1768Y-4.9972
X5.2768Y-4.8972
X5.2768Y-4.9972
X5.3768Y-4.8972
X5.3768Y-4.9972
X5.4768Y-4.8972
X5.4768Y-4.9972
X5.5768Y-4.8972
X5.5768Y-4.9972
X5.6768Y-4.8972
X5.6768Y-4.9972
X5.7768Y-4.8972
X5.7768Y-4.9972
X5.8768Y-4.8972
X5.8768Y-4.9972
X5.9768Y-4.8972
X5.9768Y-4.9972
X6.0768Y-4.8972
X6.0768Y-4.9972
X6.2828Y-3.9513
X6.2828Y-4.0513
X6.2828Y-4.1513
X6.2828Y-4.2513
X6.2828Y-4.3513
X6.2828Y-4.4513
X6.2828Y-4.5513
X6.2828Y-4.6513
X6.2828Y-4.7513
X6.2828Y-4.8513
T0
M30
