%TF.GenerationSoftware,KiCad,Pcbnew,7.0.6*%
%TF.CreationDate,2023-09-04T00:35:45+02:00*%
%TF.ProjectId,pqunit,7071756e-6974-42e6-9b69-6361645f7063,rev?*%
%TF.SameCoordinates,Original*%
%TF.FileFunction,Copper,L2,Bot*%
%TF.FilePolarity,Positive*%
%FSLAX46Y46*%
G04 Gerber Fmt 4.6, Leading zero omitted, Abs format (unit mm)*
G04 Created by KiCad (PCBNEW 7.0.6) date 2023-09-04 00:35:45*
%MOMM*%
%LPD*%
G01*
G04 APERTURE LIST*
G04 Aperture macros list*
%AMRoundRect*
0 Rectangle with rounded corners*
0 $1 Rounding radius*
0 $2 $3 $4 $5 $6 $7 $8 $9 X,Y pos of 4 corners*
0 Add a 4 corners polygon primitive as box body*
4,1,4,$2,$3,$4,$5,$6,$7,$8,$9,$2,$3,0*
0 Add four circle primitives for the rounded corners*
1,1,$1+$1,$2,$3*
1,1,$1+$1,$4,$5*
1,1,$1+$1,$6,$7*
1,1,$1+$1,$8,$9*
0 Add four rect primitives between the rounded corners*
20,1,$1+$1,$2,$3,$4,$5,0*
20,1,$1+$1,$4,$5,$6,$7,0*
20,1,$1+$1,$6,$7,$8,$9,0*
20,1,$1+$1,$8,$9,$2,$3,0*%
G04 Aperture macros list end*
%TA.AperFunction,ComponentPad*%
%ADD10C,1.400000*%
%TD*%
%TA.AperFunction,ComponentPad*%
%ADD11R,1.700000X1.700000*%
%TD*%
%TA.AperFunction,ComponentPad*%
%ADD12O,1.700000X1.700000*%
%TD*%
%TA.AperFunction,SMDPad,CuDef*%
%ADD13RoundRect,0.250000X-0.650000X0.412500X-0.650000X-0.412500X0.650000X-0.412500X0.650000X0.412500X0*%
%TD*%
%TA.AperFunction,SMDPad,CuDef*%
%ADD14RoundRect,0.250000X-0.450000X0.350000X-0.450000X-0.350000X0.450000X-0.350000X0.450000X0.350000X0*%
%TD*%
%TA.AperFunction,SMDPad,CuDef*%
%ADD15RoundRect,0.250000X-0.475000X0.337500X-0.475000X-0.337500X0.475000X-0.337500X0.475000X0.337500X0*%
%TD*%
%TA.AperFunction,SMDPad,CuDef*%
%ADD16R,1.600000X0.550000*%
%TD*%
%TA.AperFunction,SMDPad,CuDef*%
%ADD17R,0.550000X1.600000*%
%TD*%
%TA.AperFunction,SMDPad,CuDef*%
%ADD18R,4.500000X2.000000*%
%TD*%
%TA.AperFunction,SMDPad,CuDef*%
%ADD19R,2.209800X0.609600*%
%TD*%
%TA.AperFunction,SMDPad,CuDef*%
%ADD20RoundRect,0.250000X-0.337500X-0.475000X0.337500X-0.475000X0.337500X0.475000X-0.337500X0.475000X0*%
%TD*%
%TA.AperFunction,SMDPad,CuDef*%
%ADD21RoundRect,0.250000X0.475000X-0.337500X0.475000X0.337500X-0.475000X0.337500X-0.475000X-0.337500X0*%
%TD*%
%TA.AperFunction,ViaPad*%
%ADD22C,1.600000*%
%TD*%
%TA.AperFunction,Conductor*%
%ADD23C,0.330200*%
%TD*%
G04 APERTURE END LIST*
D10*
%TO.P,JP1,1,A*%
%TO.N,+3V3*%
X139243817Y-117513117D03*
%TO.P,JP1,2,B*%
%TO.N,3V3_Bus*%
X141039868Y-119309168D03*
%TD*%
D11*
%TO.P,J1,1,SDA*%
%TO.N,RS485_SDA*%
X154350000Y-124390000D03*
D12*
%TO.P,J1,2,GND*%
%TO.N,GND*%
X154350000Y-126930000D03*
%TO.P,J1,3,SDB*%
%TO.N,RS485_SDB*%
X151810000Y-124390000D03*
%TO.P,J1,4,V1*%
%TO.N,unconnected-(J1-V1-Pad4)*%
X151810000Y-126930000D03*
%TO.P,J1,5,VBat*%
%TO.N,unconnected-(J1-VBat-Pad5)*%
X149270000Y-124390000D03*
%TO.P,J1,6,5V*%
%TO.N,unconnected-(J1-5V-Pad6)*%
X149270000Y-126930000D03*
%TO.P,J1,7,3V3*%
%TO.N,3V3_Bus*%
X146730000Y-124390000D03*
%TO.P,J1,8,GND*%
%TO.N,GND*%
X146730000Y-126930000D03*
%TO.P,J1,9,V2*%
%TO.N,unconnected-(J1-V2-Pad9)*%
X144190000Y-124390000D03*
%TO.P,J1,10,V3*%
%TO.N,unconnected-(J1-V3-Pad10)*%
X144190000Y-126930000D03*
%TO.P,J1,11,SDL*%
%TO.N,I2C_SDA*%
X141650000Y-124390000D03*
%TO.P,J1,12,GND*%
%TO.N,GND*%
X141650000Y-126930000D03*
%TO.P,J1,13,SCK*%
%TO.N,I2C_SCL*%
X139110000Y-124390000D03*
%TO.P,J1,14,S1_5V*%
%TO.N,unconnected-(J1-S1_5V-Pad14)*%
X139110000Y-126930000D03*
%TO.P,J1,15,S2_5V*%
%TO.N,unconnected-(J1-S2_5V-Pad15)*%
X136570000Y-124390000D03*
%TO.P,J1,16,S1_3V3*%
%TO.N,unconnected-(J1-S1_3V3-Pad16)*%
X136570000Y-126930000D03*
%TO.P,J1,17,S2_3V3*%
%TO.N,unconnected-(J1-S2_3V3-Pad17)*%
X134030000Y-124390000D03*
%TO.P,J1,18,GND*%
%TO.N,GND*%
X134030000Y-126930000D03*
%TO.P,J1,19,PPS*%
%TO.N,unconnected-(J1-PPS-Pad19)*%
X131490000Y-124390000D03*
%TO.P,J1,20,V4*%
%TO.N,unconnected-(J1-V4-Pad20)*%
X131490000Y-126930000D03*
%TD*%
D11*
%TO.P,J2,1,Pin_1*%
%TO.N,SPI_MISO*%
X159584100Y-100363000D03*
D12*
%TO.P,J2,2,Pin_2*%
%TO.N,SPI_MOSI*%
X159584100Y-102903000D03*
%TO.P,J2,3,Pin_3*%
%TO.N,SPI_SCK*%
X159584100Y-105443000D03*
%TO.P,J2,4,Pin_4*%
%TO.N,RS485_NRE*%
X159584100Y-107983000D03*
%TO.P,J2,5,Pin_5*%
%TO.N,RS485_DE*%
X159584100Y-110523000D03*
%TO.P,J2,6,Pin_6*%
%TO.N,MCU_NRESET*%
X159584100Y-113063000D03*
%TO.P,J2,7,Pin_7*%
%TO.N,MCU_RX*%
X159584100Y-115603000D03*
%TO.P,J2,8,Pin_8*%
%TO.N,MCU_TX*%
X159584100Y-118143000D03*
%TO.P,J2,9,Pin_9*%
%TO.N,+3V3*%
X159584100Y-120683000D03*
%TO.P,J2,10,Pin_10*%
%TO.N,GND*%
X159584100Y-123223000D03*
%TD*%
D13*
%TO.P,C1,1*%
%TO.N,+3V3*%
X137740100Y-100533200D03*
%TO.P,C1,2*%
%TO.N,GND*%
X137740100Y-103658200D03*
%TD*%
%TO.P,C2,1*%
%TO.N,+3V3*%
X135047700Y-100533200D03*
%TO.P,C2,2*%
%TO.N,GND*%
X135047700Y-103658200D03*
%TD*%
D14*
%TO.P,R4,1*%
%TO.N,Net-(U1-PD1(TXD))*%
X147290500Y-109557800D03*
%TO.P,R4,2*%
%TO.N,MCU_TX*%
X147290500Y-111557800D03*
%TD*%
D15*
%TO.P,C5,1*%
%TO.N,+3V3*%
X139975300Y-100431600D03*
%TO.P,C5,2*%
%TO.N,GND*%
X139975300Y-102506600D03*
%TD*%
D16*
%TO.P,U1,1,PD3(INT1)*%
%TO.N,RF_DIO1*%
X144068000Y-102350000D03*
%TO.P,U1,2,PD4(XCK/T0)*%
%TO.N,RF_DIO2*%
X144068000Y-101550000D03*
%TO.P,U1,3,GND*%
%TO.N,GND*%
X144068000Y-100750000D03*
%TO.P,U1,4,VCC*%
%TO.N,+3V3*%
X144068000Y-99950000D03*
%TO.P,U1,5,GND*%
%TO.N,GND*%
X144068000Y-99150000D03*
%TO.P,U1,6,VCC*%
%TO.N,+3V3*%
X144068000Y-98350000D03*
%TO.P,U1,7,PB6(XTAL1/TOSC1)*%
%TO.N,Net-(U1-PB6(XTAL1{slash}TOSC1))*%
X144068000Y-97550000D03*
%TO.P,U1,8,PB7(XTAL2/TOSC2)*%
%TO.N,Net-(U1-PB7(XTAL2{slash}TOSC2))*%
X144068000Y-96750000D03*
D17*
%TO.P,U1,9,PD5(T1)*%
%TO.N,unconnected-(U1-PD5(T1)-Pad9)*%
X145518000Y-95300000D03*
%TO.P,U1,10,PD6(AIN0)*%
%TO.N,unconnected-(U1-PD6(AIN0)-Pad10)*%
X146318000Y-95300000D03*
%TO.P,U1,11,PD7(AIN0)*%
%TO.N,unconnected-(U1-PD7(AIN0)-Pad11)*%
X147118000Y-95300000D03*
%TO.P,U1,12,PB0(ICP)*%
%TO.N,RF_NRESET*%
X147918000Y-95300000D03*
%TO.P,U1,13,PB1(OC1A)*%
%TO.N,RF_NSS*%
X148718000Y-95300000D03*
%TO.P,U1,14,PB2(SS/OC1B)*%
%TO.N,unconnected-(U1-PB2(SS{slash}OC1B)-Pad14)*%
X149518000Y-95300000D03*
%TO.P,U1,15,PB3(MOSI/OC2)*%
%TO.N,SPI_MOSI*%
X150318000Y-95300000D03*
%TO.P,U1,16,PB4(MISO)*%
%TO.N,SPI_MISO*%
X151118000Y-95300000D03*
D16*
%TO.P,U1,17,PB5(SCK)*%
%TO.N,SPI_SCK*%
X152568000Y-96750000D03*
%TO.P,U1,18,AVCC*%
%TO.N,+3V3*%
X152568000Y-97550000D03*
%TO.P,U1,19,ADC6*%
%TO.N,unconnected-(U1-ADC6-Pad19)*%
X152568000Y-98350000D03*
%TO.P,U1,20,AREF*%
%TO.N,Net-(U1-AREF)*%
X152568000Y-99150000D03*
%TO.P,U1,21,GND*%
%TO.N,GND*%
X152568000Y-99950000D03*
%TO.P,U1,22,ADC7*%
%TO.N,unconnected-(U1-ADC7-Pad22)*%
X152568000Y-100750000D03*
%TO.P,U1,23,PC0(ADC0)*%
%TO.N,unconnected-(U1-PC0(ADC0)-Pad23)*%
X152568000Y-101550000D03*
%TO.P,U1,24,PC1(ADC1)*%
%TO.N,RF_DIO0*%
X152568000Y-102350000D03*
D17*
%TO.P,U1,25,PC2(ADC2)*%
%TO.N,RS485_NRE*%
X151118000Y-103800000D03*
%TO.P,U1,26,PC3(ADC3)*%
%TO.N,RS485_DE*%
X150318000Y-103800000D03*
%TO.P,U1,27,PC4(ADC4/SDA)*%
%TO.N,I2C_SDA*%
X149518000Y-103800000D03*
%TO.P,U1,28,PC5(ADC5/SCL)*%
%TO.N,I2C_SCL*%
X148718000Y-103800000D03*
%TO.P,U1,29,PC6/~{RESET}*%
%TO.N,MCU_NRESET*%
X147918000Y-103800000D03*
%TO.P,U1,30,PD0(RXD)*%
%TO.N,Net-(U1-PD0(RXD))*%
X147118000Y-103800000D03*
%TO.P,U1,31,PD1(TXD)*%
%TO.N,Net-(U1-PD1(TXD))*%
X146318000Y-103800000D03*
%TO.P,U1,32,PD2(INT0)*%
%TO.N,unconnected-(U1-PD2(INT0)-Pad32)*%
X145518000Y-103800000D03*
%TD*%
D18*
%TO.P,Y1,2,2*%
%TO.N,Net-(U1-PB7(XTAL2{slash}TOSC2))*%
X139289500Y-95791000D03*
%TO.P,Y1,1,1*%
%TO.N,Net-(U1-PB6(XTAL1{slash}TOSC1))*%
X130789500Y-95791000D03*
%TD*%
D19*
%TO.P,U5,1,RO*%
%TO.N,MCU_RX*%
X152116500Y-115145800D03*
%TO.P,U5,2,~{RE}*%
%TO.N,RS485_NRE*%
X152116500Y-116415800D03*
%TO.P,U5,3,DE*%
%TO.N,RS485_DE*%
X152116500Y-117685800D03*
%TO.P,U5,4,DI*%
%TO.N,MCU_TX*%
X152116500Y-118955800D03*
%TO.P,U5,5,GND*%
%TO.N,GND*%
X146884100Y-118955800D03*
%TO.P,U5,6,A*%
%TO.N,RS485_SDA*%
X146884100Y-117685800D03*
%TO.P,U5,7,B*%
%TO.N,RS485_SDB*%
X146884100Y-116415800D03*
%TO.P,U5,8,VCC*%
%TO.N,+3V3*%
X146884100Y-115145800D03*
%TD*%
D20*
%TO.P,C4,2*%
%TO.N,GND*%
X156782300Y-98653600D03*
%TO.P,C4,1*%
%TO.N,Net-(U1-AREF)*%
X154707300Y-98653600D03*
%TD*%
D21*
%TO.P,C9,1*%
%TO.N,+3V3*%
X144140900Y-115268900D03*
%TO.P,C9,2*%
%TO.N,GND*%
X144140900Y-113193900D03*
%TD*%
D14*
%TO.P,R3,1*%
%TO.N,Net-(U1-PD0(RXD))*%
X152116500Y-109573800D03*
%TO.P,R3,2*%
%TO.N,MCU_RX*%
X152116500Y-111573800D03*
%TD*%
D22*
%TO.N,GND*%
X154453300Y-96418400D03*
%TO.N,+3V3*%
X131267714Y-106590614D03*
%TO.N,I2C_SDA*%
X147747700Y-100972600D03*
%TO.N,I2C_SCL*%
X147747700Y-98127800D03*
%TO.N,RF_DIO1*%
X142004500Y-110221000D03*
%TO.N,RF_DIO2*%
X139394900Y-112221000D03*
%TO.N,RF_NSS*%
X157907700Y-93167200D03*
%TO.N,RF_NRESET*%
X143074100Y-94317800D03*
%TO.N,RF_DIO0*%
X150592500Y-98737400D03*
%TO.N,RS485_NRE*%
X154758100Y-115450600D03*
%TO.N,RS485_DE*%
X155316900Y-117584200D03*
%TD*%
D23*
%TO.N,+3V3*%
X133066500Y-100533200D02*
X135047700Y-100533200D01*
X131339300Y-102260400D02*
X133066500Y-100533200D01*
X131339300Y-106519028D02*
X131339300Y-102260400D01*
X131267714Y-106590614D02*
X131339300Y-106519028D01*
X140456900Y-99950000D02*
X144068000Y-99950000D01*
X139975300Y-100431600D02*
X140456900Y-99950000D01*
X139873700Y-100533200D02*
X139975300Y-100431600D01*
X137740100Y-100533200D02*
X139873700Y-100533200D01*
X135047700Y-100533200D02*
X137740100Y-100533200D01*
%TO.N,RF_DIO2*%
X143022500Y-101550000D02*
X144068000Y-101550000D01*
X139394900Y-105177600D02*
X143022500Y-101550000D01*
X139394900Y-112221000D02*
X139394900Y-105177600D01*
%TO.N,GND*%
X153666900Y-99950000D02*
X153894500Y-100177600D01*
X152568000Y-99950000D02*
X153666900Y-99950000D01*
%TO.N,SPI_SCK*%
X152568000Y-95865300D02*
X152568000Y-96750000D01*
X153234100Y-95199200D02*
X152568000Y-95865300D01*
X155367700Y-95199200D02*
X153234100Y-95199200D01*
X157856900Y-104698800D02*
X157856900Y-97688400D01*
X158601100Y-105443000D02*
X157856900Y-104698800D01*
X157856900Y-97688400D02*
X155367700Y-95199200D01*
X159584100Y-105443000D02*
X158601100Y-105443000D01*
%TO.N,SPI_MISO*%
X152133200Y-94284800D02*
X151118000Y-95300000D01*
X158110900Y-96621600D02*
X155774100Y-94284800D01*
X160396900Y-99550200D02*
X160396900Y-98044000D01*
X155774100Y-94284800D02*
X152133200Y-94284800D01*
X159584100Y-100363000D02*
X160396900Y-99550200D01*
X160396900Y-98044000D02*
X158974500Y-96621600D01*
X158974500Y-96621600D02*
X158110900Y-96621600D01*
%TO.N,SPI_MOSI*%
X150318000Y-94094800D02*
X150318000Y-95300000D01*
X150991600Y-93421200D02*
X150318000Y-94094800D01*
X156129700Y-93421200D02*
X150991600Y-93421200D01*
X159714600Y-95532900D02*
X158241400Y-95532900D01*
X162073300Y-97891600D02*
X159714600Y-95532900D01*
X159888900Y-102903000D02*
X162073300Y-100718600D01*
X162073300Y-100718600D02*
X162073300Y-97891600D01*
X158241400Y-95532900D02*
X156129700Y-93421200D01*
X159584100Y-102903000D02*
X159888900Y-102903000D01*
%TO.N,RF_NSS*%
X148718000Y-94194800D02*
X148718000Y-95300000D01*
X150456800Y-92456000D02*
X148718000Y-94194800D01*
X157907700Y-93167200D02*
X157196500Y-92456000D01*
X157196500Y-92456000D02*
X150456800Y-92456000D01*
%TO.N,Net-(U1-AREF)*%
X154441700Y-99150000D02*
X152568000Y-99150000D01*
%TO.N,MCU_TX*%
X157247300Y-118143000D02*
X159584100Y-118143000D01*
X156434500Y-118955800D02*
X157247300Y-118143000D01*
X152116500Y-118955800D02*
X156434500Y-118955800D01*
%TO.N,MCU_RX*%
X157653700Y-115603000D02*
X159584100Y-115603000D01*
X155824900Y-113774200D02*
X157653700Y-115603000D01*
X153488100Y-113774200D02*
X155824900Y-113774200D01*
X152116500Y-115145800D02*
X153488100Y-113774200D01*
%TO.N,MCU_NRESET*%
X157907700Y-113063000D02*
X159584100Y-113063000D01*
X152319700Y-107475000D02*
X157907700Y-113063000D01*
X150592500Y-107475000D02*
X152319700Y-107475000D01*
X147918000Y-104800500D02*
X150592500Y-107475000D01*
X147918000Y-103800000D02*
X147918000Y-104800500D01*
%TO.N,RS485_DE*%
X157044100Y-110523000D02*
X159584100Y-110523000D01*
X152319700Y-105798600D02*
X157044100Y-110523000D01*
X151111400Y-105798600D02*
X152319700Y-105798600D01*
X150318000Y-103800000D02*
X150318000Y-105005200D01*
%TO.N,RS485_NRE*%
X151118000Y-103800000D02*
X151997500Y-103800000D01*
X151997500Y-103800000D02*
X156180500Y-107983000D01*
%TO.N,RS485_DE*%
X150318000Y-105005200D02*
X151111400Y-105798600D01*
%TO.N,RS485_NRE*%
X156180500Y-107983000D02*
X159584100Y-107983000D01*
%TO.N,I2C_SCL*%
X148658100Y-102534900D02*
X148718000Y-102594800D01*
X148718000Y-102594800D02*
X148718000Y-103800000D01*
X146426900Y-102090200D02*
X146871600Y-102534900D01*
X146426900Y-99448600D02*
X146426900Y-102090200D01*
X147747700Y-98127800D02*
X146426900Y-99448600D01*
X146871600Y-102534900D02*
X148658100Y-102534900D01*
%TO.N,I2C_SDA*%
X149518000Y-101930100D02*
X149518000Y-103800000D01*
X148560500Y-100972600D02*
X149518000Y-101930100D01*
X147747700Y-100972600D02*
X148560500Y-100972600D01*
%TO.N,RS485_NRE*%
X154758100Y-115450600D02*
X153792900Y-116415800D01*
X153792900Y-116415800D02*
X152116500Y-116415800D01*
%TO.N,RS485_DE*%
X155215300Y-117685800D02*
X152116500Y-117685800D01*
X155316900Y-117584200D02*
X155215300Y-117685800D01*
%TO.N,RS485_SDA*%
X154350000Y-123322900D02*
X154350000Y-124390000D01*
X148408100Y-121851400D02*
X152878500Y-121851400D01*
X146985700Y-120429000D02*
X148408100Y-121851400D01*
X144394900Y-119260600D02*
X145563300Y-120429000D01*
X145563300Y-120429000D02*
X146985700Y-120429000D01*
X144394900Y-118447800D02*
X144394900Y-119260600D01*
X152878500Y-121851400D02*
X154350000Y-123322900D01*
X145156900Y-117685800D02*
X144394900Y-118447800D01*
X146884100Y-117685800D02*
X145156900Y-117685800D01*
%TO.N,RS485_SDB*%
X151810000Y-123678500D02*
X151810000Y-124390000D01*
X150948100Y-122816600D02*
X151810000Y-123678500D01*
X147849300Y-122816600D02*
X150948100Y-122816600D01*
X146426900Y-121394200D02*
X147849300Y-122816600D01*
X143074100Y-119514600D02*
X144953700Y-121394200D01*
X144953700Y-121394200D02*
X146426900Y-121394200D01*
X143074100Y-118092200D02*
X143074100Y-119514600D01*
X144750500Y-116415800D02*
X143074100Y-118092200D01*
X146884100Y-116415800D02*
X144750500Y-116415800D01*
%TO.N,GND*%
X144068000Y-99150000D02*
X142927900Y-99150000D01*
X142927900Y-99150000D02*
X142921700Y-99143800D01*
X144068000Y-100750000D02*
X142921700Y-100750000D01*
%TO.N,+3V3*%
X146817800Y-96705400D02*
X145173200Y-98350000D01*
X135657300Y-117533400D02*
X139223534Y-117533400D01*
X131288500Y-113164600D02*
X135657300Y-117533400D01*
X141011583Y-117513117D02*
X142312100Y-116212600D01*
X151462800Y-97550000D02*
X150618200Y-96705400D01*
X145563300Y-99651800D02*
X145265100Y-99950000D01*
X145563300Y-98740100D02*
X145563300Y-99651800D01*
X131288500Y-106611400D02*
X131288500Y-113164600D01*
X145173200Y-98350000D02*
X145563300Y-98740100D01*
X139223534Y-117533400D02*
X139243817Y-117513117D01*
X131267714Y-106590614D02*
X131288500Y-106611400D01*
X145173200Y-98350000D02*
X144068000Y-98350000D01*
X143430800Y-115093900D02*
X144140900Y-115093900D01*
X144242500Y-115145800D02*
X146884100Y-115145800D01*
X152568000Y-97550000D02*
X151462800Y-97550000D01*
X150618200Y-96705400D02*
X146817800Y-96705400D01*
X145265100Y-99950000D02*
X144068000Y-99950000D01*
X142210500Y-116314200D02*
X143430800Y-115093900D01*
X139243817Y-117513117D02*
X141011583Y-117513117D01*
%TO.N,MCU_TX*%
X147290500Y-111557800D02*
X149982900Y-114250200D01*
X150694100Y-118955800D02*
X152116500Y-118955800D01*
X149982900Y-118244600D02*
X150694100Y-118955800D01*
X149982900Y-114250200D02*
X149982900Y-118244600D01*
%TO.N,MCU_RX*%
X152116500Y-111573800D02*
X152116500Y-115145800D01*
%TO.N,Net-(U1-PD0(RXD))*%
X147118000Y-106083300D02*
X147118000Y-103800000D01*
X152116500Y-109573800D02*
X150608500Y-109573800D01*
X150608500Y-109573800D02*
X147118000Y-106083300D01*
%TO.N,Net-(U1-PD1(TXD))*%
X147290500Y-109557800D02*
X145461700Y-107729000D01*
X146318000Y-105005200D02*
X146318000Y-103800000D01*
X145461700Y-105861500D02*
X146318000Y-105005200D01*
X145461700Y-107729000D02*
X145461700Y-105861500D01*
%TO.N,RF_DIO1*%
X142004500Y-110221000D02*
X143226500Y-108999000D01*
X143226500Y-103191500D02*
X144068000Y-102350000D01*
X143226500Y-108999000D02*
X143226500Y-103191500D01*
%TO.N,Net-(U1-PB6(XTAL1{slash}TOSC1))*%
X140026100Y-98229400D02*
X131593300Y-98229400D01*
X130789500Y-97425600D02*
X130789500Y-95791000D01*
X131593300Y-98229400D02*
X130789500Y-97425600D01*
X144068000Y-97550000D02*
X140705500Y-97550000D01*
X140705500Y-97550000D02*
X140026100Y-98229400D01*
%TO.N,Net-(U1-PB7(XTAL2{slash}TOSC2))*%
X144068000Y-96750000D02*
X143109000Y-95791000D01*
X143109000Y-95791000D02*
X139289500Y-95791000D01*
%TO.N,RF_NRESET*%
X143937700Y-93454200D02*
X147277400Y-93454200D01*
X147918000Y-94094800D02*
X147918000Y-95300000D01*
X147277400Y-93454200D02*
X147918000Y-94094800D01*
X143074100Y-94317800D02*
X143937700Y-93454200D01*
%TO.N,RF_DIO0*%
X150592500Y-101579700D02*
X151362800Y-102350000D01*
X150592500Y-98737400D02*
X150592500Y-101579700D01*
X151362800Y-102350000D02*
X152568000Y-102350000D01*
%TO.N,3V3_Bus*%
X144191700Y-122461000D02*
X141039868Y-119309168D01*
X146730000Y-123424500D02*
X145766500Y-122461000D01*
X145766500Y-122461000D02*
X144191700Y-122461000D01*
X146730000Y-124390000D02*
X146730000Y-123424500D01*
%TD*%
%TA.AperFunction,Conductor*%
%TO.N,GND*%
G36*
X125867145Y-90780185D02*
G01*
X125912900Y-90832989D01*
X125922222Y-90862969D01*
X125930628Y-90910646D01*
X125929311Y-90922448D01*
X125936343Y-90945629D01*
X125938072Y-90952866D01*
X125949899Y-91019940D01*
X125978162Y-91097592D01*
X125978991Y-91110639D01*
X125987128Y-91125862D01*
X125994292Y-91141905D01*
X126009776Y-91184448D01*
X126009777Y-91184449D01*
X126058578Y-91268974D01*
X126062055Y-91283309D01*
X126071792Y-91295173D01*
X126083326Y-91311838D01*
X126097307Y-91336053D01*
X126100414Y-91340491D01*
X126100038Y-91340754D01*
X126109371Y-91354560D01*
X126111254Y-91358082D01*
X126129702Y-91374661D01*
X126168914Y-91421393D01*
X126175484Y-91436406D01*
X126185928Y-91444977D01*
X126202254Y-91461126D01*
X126209837Y-91470163D01*
X126218872Y-91477744D01*
X126235020Y-91494070D01*
X126239146Y-91499098D01*
X126258606Y-91511085D01*
X126305337Y-91550297D01*
X126315234Y-91565172D01*
X126325438Y-91570627D01*
X126339245Y-91579961D01*
X126339509Y-91579586D01*
X126343945Y-91582692D01*
X126368163Y-91596675D01*
X126384824Y-91608206D01*
X126391770Y-91613906D01*
X126411025Y-91621421D01*
X126495547Y-91670221D01*
X126495551Y-91670222D01*
X126495555Y-91670225D01*
X126538103Y-91685711D01*
X126554143Y-91692874D01*
X126564334Y-91698321D01*
X126582407Y-91701836D01*
X126660062Y-91730101D01*
X126727145Y-91741929D01*
X126734379Y-91743657D01*
X126752543Y-91749167D01*
X126769350Y-91749370D01*
X126832468Y-91760500D01*
X126832472Y-91760500D01*
X126922041Y-91760500D01*
X126928121Y-91760799D01*
X126964302Y-91764362D01*
X126987096Y-91760500D01*
X149908210Y-91760500D01*
X149975249Y-91780185D01*
X150021004Y-91832989D01*
X150030948Y-91902147D01*
X150001923Y-91965703D01*
X150001022Y-91966731D01*
X149973157Y-91998182D01*
X149970591Y-92000908D01*
X148455681Y-93515817D01*
X148394358Y-93549302D01*
X148324666Y-93544318D01*
X148280319Y-93515817D01*
X147896858Y-93132357D01*
X147763577Y-92999076D01*
X147761026Y-92996365D01*
X147748608Y-92982348D01*
X147722016Y-92952332D01*
X147710637Y-92944478D01*
X147673594Y-92918907D01*
X147670578Y-92916688D01*
X147624272Y-92880410D01*
X147624270Y-92880409D01*
X147624269Y-92880408D01*
X147624265Y-92880406D01*
X147624263Y-92880405D01*
X147615997Y-92876684D01*
X147596457Y-92865663D01*
X147588991Y-92860510D01*
X147588992Y-92860510D01*
X147533977Y-92839645D01*
X147530517Y-92838212D01*
X147476875Y-92814070D01*
X147476876Y-92814070D01*
X147467947Y-92812434D01*
X147446337Y-92806409D01*
X147437861Y-92803194D01*
X147437856Y-92803193D01*
X147379437Y-92796099D01*
X147375736Y-92795536D01*
X147317886Y-92784935D01*
X147317879Y-92784935D01*
X147259157Y-92788487D01*
X147255413Y-92788600D01*
X143959692Y-92788600D01*
X143955948Y-92788487D01*
X143897220Y-92784935D01*
X143897213Y-92784935D01*
X143858258Y-92792073D01*
X143839353Y-92795537D01*
X143835664Y-92796099D01*
X143777241Y-92803193D01*
X143768757Y-92806411D01*
X143747153Y-92812433D01*
X143738234Y-92814067D01*
X143738227Y-92814070D01*
X143684574Y-92838216D01*
X143681115Y-92839649D01*
X143626107Y-92860510D01*
X143626106Y-92860511D01*
X143618646Y-92865661D01*
X143599104Y-92876683D01*
X143590832Y-92880406D01*
X143590828Y-92880408D01*
X143544507Y-92916697D01*
X143541494Y-92918914D01*
X143493084Y-92952331D01*
X143454066Y-92996372D01*
X143451499Y-92999098D01*
X143444195Y-93006402D01*
X143382872Y-93039887D01*
X143324422Y-93038496D01*
X143300797Y-93032166D01*
X143300793Y-93032165D01*
X143300792Y-93032165D01*
X143187445Y-93022248D01*
X143074101Y-93012332D01*
X143074098Y-93012332D01*
X142847413Y-93032164D01*
X142847402Y-93032166D01*
X142627611Y-93091058D01*
X142627602Y-93091061D01*
X142421367Y-93187231D01*
X142421365Y-93187232D01*
X142234958Y-93317754D01*
X142074054Y-93478658D01*
X141943532Y-93665065D01*
X141943531Y-93665067D01*
X141847361Y-93871302D01*
X141847358Y-93871311D01*
X141788466Y-94091102D01*
X141788464Y-94091112D01*
X141780332Y-94184059D01*
X141754879Y-94249127D01*
X141698287Y-94290105D01*
X141643550Y-94296539D01*
X141587373Y-94290500D01*
X141587365Y-94290500D01*
X136991629Y-94290500D01*
X136991623Y-94290501D01*
X136932016Y-94296908D01*
X136797171Y-94347202D01*
X136797164Y-94347206D01*
X136681955Y-94433452D01*
X136681952Y-94433455D01*
X136595706Y-94548664D01*
X136595702Y-94548671D01*
X136545408Y-94683517D01*
X136541314Y-94721600D01*
X136539001Y-94743123D01*
X136539000Y-94743135D01*
X136539000Y-96838870D01*
X136539001Y-96838876D01*
X136545408Y-96898483D01*
X136595702Y-97033328D01*
X136595706Y-97033335D01*
X136681952Y-97148544D01*
X136681955Y-97148547D01*
X136797164Y-97234793D01*
X136797171Y-97234797D01*
X136932017Y-97285091D01*
X136932016Y-97285091D01*
X136938944Y-97285835D01*
X136991627Y-97291500D01*
X139723337Y-97291499D01*
X139790376Y-97311184D01*
X139836131Y-97363987D01*
X139846075Y-97433146D01*
X139817050Y-97496702D01*
X139811020Y-97503178D01*
X139786720Y-97527479D01*
X139725398Y-97560966D01*
X139699037Y-97563800D01*
X131920363Y-97563800D01*
X131853324Y-97544115D01*
X131832682Y-97527481D01*
X131808381Y-97503180D01*
X131774896Y-97441857D01*
X131779880Y-97372165D01*
X131821752Y-97316232D01*
X131887216Y-97291815D01*
X131896062Y-97291499D01*
X133087371Y-97291499D01*
X133087372Y-97291499D01*
X133146983Y-97285091D01*
X133281831Y-97234796D01*
X133397046Y-97148546D01*
X133483296Y-97033331D01*
X133533591Y-96898483D01*
X133540000Y-96838873D01*
X133539999Y-94743128D01*
X133533591Y-94683517D01*
X133526801Y-94665313D01*
X133483297Y-94548671D01*
X133483293Y-94548664D01*
X133397047Y-94433455D01*
X133397044Y-94433452D01*
X133281835Y-94347206D01*
X133281828Y-94347202D01*
X133146982Y-94296908D01*
X133146983Y-94296908D01*
X133087383Y-94290501D01*
X133087381Y-94290500D01*
X133087373Y-94290500D01*
X133087364Y-94290500D01*
X128491629Y-94290500D01*
X128491623Y-94290501D01*
X128432016Y-94296908D01*
X128297171Y-94347202D01*
X128297164Y-94347206D01*
X128181955Y-94433452D01*
X128181952Y-94433455D01*
X128095706Y-94548664D01*
X128095702Y-94548671D01*
X128045408Y-94683517D01*
X128041314Y-94721600D01*
X128039001Y-94743123D01*
X128039000Y-94743135D01*
X128039000Y-96838870D01*
X128039001Y-96838876D01*
X128045408Y-96898483D01*
X128095702Y-97033328D01*
X128095706Y-97033335D01*
X128181952Y-97148544D01*
X128181955Y-97148547D01*
X128297164Y-97234793D01*
X128297171Y-97234797D01*
X128432017Y-97285091D01*
X128432016Y-97285091D01*
X128438944Y-97285835D01*
X128491627Y-97291500D01*
X129999067Y-97291499D01*
X130066106Y-97311184D01*
X130111861Y-97363987D01*
X130122841Y-97422984D01*
X130120234Y-97466078D01*
X130120235Y-97466083D01*
X130130836Y-97523936D01*
X130131399Y-97527637D01*
X130138493Y-97586056D01*
X130138494Y-97586061D01*
X130141709Y-97594537D01*
X130147734Y-97616147D01*
X130149370Y-97625075D01*
X130173512Y-97678717D01*
X130174945Y-97682177D01*
X130195810Y-97737191D01*
X130200963Y-97744657D01*
X130211984Y-97764197D01*
X130215705Y-97772463D01*
X130215710Y-97772472D01*
X130251988Y-97818778D01*
X130254207Y-97821794D01*
X130279778Y-97858837D01*
X130287632Y-97870216D01*
X130331665Y-97909226D01*
X130334376Y-97911777D01*
X130742299Y-98319700D01*
X131107097Y-98684498D01*
X131109664Y-98687224D01*
X131148684Y-98731268D01*
X131197091Y-98764681D01*
X131200107Y-98766900D01*
X131246431Y-98803193D01*
X131248703Y-98804215D01*
X131254696Y-98806913D01*
X131274251Y-98817941D01*
X131281708Y-98823089D01*
X131336715Y-98843950D01*
X131340172Y-98845382D01*
X131393824Y-98869529D01*
X131393825Y-98869529D01*
X131393827Y-98869530D01*
X131402742Y-98871163D01*
X131424364Y-98877191D01*
X131432841Y-98880406D01*
X131491252Y-98887498D01*
X131494956Y-98888062D01*
X131509040Y-98890642D01*
X131552817Y-98898665D01*
X131552818Y-98898664D01*
X131552819Y-98898665D01*
X131611547Y-98895113D01*
X131615291Y-98895000D01*
X140004113Y-98895000D01*
X140007857Y-98895113D01*
X140066580Y-98898665D01*
X140066580Y-98898664D01*
X140066583Y-98898665D01*
X140124457Y-98888059D01*
X140128149Y-98887498D01*
X140142332Y-98885775D01*
X140186559Y-98880406D01*
X140195040Y-98877189D01*
X140216655Y-98871163D01*
X140225573Y-98869530D01*
X140279265Y-98845364D01*
X140282651Y-98843962D01*
X140337692Y-98823089D01*
X140345150Y-98817940D01*
X140364706Y-98806911D01*
X140367731Y-98805549D01*
X140372969Y-98803192D01*
X140419302Y-98766891D01*
X140422267Y-98764709D01*
X140470716Y-98731268D01*
X140509736Y-98687222D01*
X140512270Y-98684529D01*
X140944880Y-98251918D01*
X141006204Y-98218434D01*
X141032562Y-98215600D01*
X142643500Y-98215600D01*
X142710539Y-98235285D01*
X142756294Y-98288089D01*
X142767500Y-98339600D01*
X142767500Y-98672869D01*
X142767501Y-98672876D01*
X142773908Y-98732483D01*
X142824202Y-98867328D01*
X142824206Y-98867335D01*
X142910451Y-98982543D01*
X142910452Y-98982544D01*
X142910454Y-98982546D01*
X143001541Y-99050734D01*
X143043411Y-99106666D01*
X143048395Y-99176358D01*
X143014910Y-99237681D01*
X143001543Y-99249263D01*
X142987650Y-99259664D01*
X142922187Y-99284084D01*
X142913336Y-99284400D01*
X140478887Y-99284400D01*
X140475143Y-99284287D01*
X140416420Y-99280735D01*
X140416413Y-99280735D01*
X140377458Y-99287873D01*
X140358553Y-99291337D01*
X140354864Y-99291899D01*
X140296441Y-99298993D01*
X140287957Y-99302211D01*
X140266353Y-99308233D01*
X140257434Y-99309867D01*
X140257423Y-99309871D01*
X140206752Y-99332676D01*
X140155862Y-99343600D01*
X139450298Y-99343600D01*
X139450280Y-99343601D01*
X139347503Y-99354100D01*
X139347500Y-99354101D01*
X139180968Y-99409285D01*
X139180963Y-99409287D01*
X139031644Y-99501388D01*
X139018476Y-99514556D01*
X138957152Y-99548039D01*
X138887460Y-99543053D01*
X138865564Y-99530708D01*
X138864903Y-99531780D01*
X138858757Y-99527989D01*
X138858756Y-99527988D01*
X138735760Y-99452124D01*
X138709436Y-99435887D01*
X138709431Y-99435885D01*
X138641672Y-99413432D01*
X138542897Y-99380701D01*
X138542895Y-99380700D01*
X138440110Y-99370200D01*
X137040098Y-99370200D01*
X137040081Y-99370201D01*
X136937303Y-99380700D01*
X136937300Y-99380701D01*
X136770768Y-99435885D01*
X136770763Y-99435887D01*
X136621442Y-99527989D01*
X136497388Y-99652043D01*
X136492907Y-99657711D01*
X136491064Y-99656253D01*
X136447480Y-99695449D01*
X136378516Y-99706664D01*
X136314437Y-99678815D01*
X136295639Y-99657120D01*
X136294893Y-99657711D01*
X136290411Y-99652043D01*
X136166357Y-99527989D01*
X136166356Y-99527988D01*
X136043360Y-99452124D01*
X136017036Y-99435887D01*
X136017031Y-99435885D01*
X135949272Y-99413432D01*
X135850497Y-99380701D01*
X135850495Y-99380700D01*
X135747710Y-99370200D01*
X134347698Y-99370200D01*
X134347681Y-99370201D01*
X134244903Y-99380700D01*
X134244900Y-99380701D01*
X134078368Y-99435885D01*
X134078363Y-99435887D01*
X133929042Y-99527989D01*
X133804989Y-99652042D01*
X133791613Y-99673728D01*
X133724495Y-99782546D01*
X133709095Y-99807513D01*
X133706603Y-99805976D01*
X133669222Y-99848439D01*
X133603004Y-99867600D01*
X133088492Y-99867600D01*
X133084748Y-99867487D01*
X133026020Y-99863934D01*
X133026012Y-99863935D01*
X132968158Y-99874537D01*
X132964456Y-99875100D01*
X132906039Y-99882194D01*
X132906037Y-99882194D01*
X132897554Y-99885411D01*
X132875956Y-99891432D01*
X132867029Y-99893068D01*
X132867026Y-99893069D01*
X132813376Y-99917214D01*
X132809919Y-99918646D01*
X132754910Y-99939509D01*
X132754908Y-99939510D01*
X132747437Y-99944667D01*
X132727907Y-99955681D01*
X132719631Y-99959407D01*
X132719629Y-99959408D01*
X132673309Y-99995697D01*
X132670293Y-99997916D01*
X132621889Y-100031327D01*
X132621881Y-100031334D01*
X132582858Y-100075381D01*
X132580291Y-100078107D01*
X130884199Y-101774198D01*
X130881473Y-101776765D01*
X130837430Y-101815784D01*
X130804011Y-101864199D01*
X130801792Y-101867215D01*
X130765507Y-101913530D01*
X130761783Y-101921805D01*
X130750767Y-101941337D01*
X130745611Y-101948806D01*
X130745611Y-101948807D01*
X130724746Y-102003820D01*
X130723314Y-102007278D01*
X130699171Y-102060924D01*
X130699167Y-102060934D01*
X130697533Y-102069853D01*
X130691511Y-102091457D01*
X130688293Y-102099941D01*
X130681199Y-102158364D01*
X130680636Y-102162065D01*
X130670035Y-102219913D01*
X130670035Y-102219917D01*
X130673587Y-102278642D01*
X130673700Y-102282386D01*
X130673700Y-105354552D01*
X130654015Y-105421591D01*
X130618432Y-105455538D01*
X130619415Y-105456941D01*
X130614981Y-105460045D01*
X130614980Y-105460046D01*
X130605276Y-105466841D01*
X130428572Y-105590568D01*
X130267668Y-105751472D01*
X130137146Y-105937879D01*
X130137145Y-105937881D01*
X130040975Y-106144116D01*
X130040972Y-106144125D01*
X129982080Y-106363916D01*
X129982078Y-106363927D01*
X129962246Y-106590612D01*
X129962246Y-106590615D01*
X129982078Y-106817300D01*
X129982080Y-106817311D01*
X130040972Y-107037102D01*
X130040975Y-107037111D01*
X130137145Y-107243346D01*
X130137146Y-107243348D01*
X130267668Y-107429755D01*
X130428572Y-107590659D01*
X130570023Y-107689703D01*
X130613648Y-107744279D01*
X130622900Y-107791278D01*
X130622900Y-113142612D01*
X130622787Y-113146356D01*
X130619235Y-113205079D01*
X130619235Y-113205083D01*
X130629836Y-113262936D01*
X130630399Y-113266637D01*
X130637493Y-113325056D01*
X130637494Y-113325061D01*
X130640709Y-113333537D01*
X130646734Y-113355147D01*
X130648370Y-113364075D01*
X130672512Y-113417717D01*
X130673945Y-113421177D01*
X130694810Y-113476191D01*
X130699963Y-113483657D01*
X130710984Y-113503197D01*
X130714705Y-113511463D01*
X130714710Y-113511472D01*
X130750988Y-113557778D01*
X130753207Y-113560794D01*
X130778778Y-113597837D01*
X130786632Y-113609216D01*
X130827177Y-113645136D01*
X130830665Y-113648226D01*
X130833376Y-113650777D01*
X133021002Y-115838403D01*
X135171097Y-117988498D01*
X135173664Y-117991224D01*
X135212684Y-118035268D01*
X135261097Y-118068685D01*
X135264114Y-118070905D01*
X135296335Y-118096149D01*
X135310431Y-118107192D01*
X135318694Y-118110911D01*
X135338247Y-118121939D01*
X135345706Y-118127088D01*
X135345707Y-118127088D01*
X135345708Y-118127089D01*
X135400732Y-118147956D01*
X135404170Y-118149381D01*
X135457827Y-118173530D01*
X135466742Y-118175163D01*
X135488364Y-118181191D01*
X135496841Y-118184406D01*
X135555252Y-118191498D01*
X135558956Y-118192062D01*
X135573040Y-118194642D01*
X135616817Y-118202665D01*
X135616818Y-118202664D01*
X135616819Y-118202665D01*
X135675543Y-118199113D01*
X135679287Y-118199000D01*
X138195674Y-118199000D01*
X138262713Y-118218685D01*
X138294628Y-118248273D01*
X138352836Y-118325353D01*
X138352840Y-118325357D01*
X138352842Y-118325359D01*
X138517254Y-118475240D01*
X138517256Y-118475242D01*
X138706412Y-118592362D01*
X138706413Y-118592362D01*
X138706416Y-118592364D01*
X138913877Y-118672735D01*
X139132574Y-118713617D01*
X139132576Y-118713617D01*
X139355058Y-118713617D01*
X139355060Y-118713617D01*
X139573757Y-118672735D01*
X139781218Y-118592364D01*
X139807507Y-118576086D01*
X139874865Y-118557530D01*
X139941565Y-118578337D01*
X139986427Y-118631902D01*
X139995208Y-118701217D01*
X139983784Y-118736784D01*
X139915645Y-118873624D01*
X139915637Y-118873644D01*
X139854753Y-119087630D01*
X139854752Y-119087632D01*
X139834225Y-119309167D01*
X139834225Y-119309168D01*
X139854752Y-119530703D01*
X139854753Y-119530705D01*
X139915637Y-119744691D01*
X139915643Y-119744706D01*
X140014806Y-119943851D01*
X140014811Y-119943859D01*
X140148888Y-120121406D01*
X140313305Y-120271291D01*
X140313307Y-120271293D01*
X140502463Y-120388413D01*
X140502464Y-120388413D01*
X140502467Y-120388415D01*
X140709928Y-120468786D01*
X140928625Y-120509668D01*
X140928627Y-120509668D01*
X141151110Y-120509668D01*
X141151111Y-120509668D01*
X141211517Y-120498375D01*
X141281028Y-120505404D01*
X141321981Y-120532582D01*
X143705505Y-122916105D01*
X143708057Y-122918817D01*
X143726889Y-122940074D01*
X143756611Y-123003307D01*
X143747427Y-123072570D01*
X143702255Y-123125874D01*
X143686479Y-123134683D01*
X143512171Y-123215964D01*
X143512169Y-123215965D01*
X143318597Y-123351505D01*
X143151505Y-123518597D01*
X143021575Y-123704158D01*
X142966998Y-123747783D01*
X142897500Y-123754977D01*
X142835145Y-123723454D01*
X142818425Y-123704158D01*
X142688494Y-123518597D01*
X142521402Y-123351506D01*
X142521395Y-123351501D01*
X142327834Y-123215967D01*
X142327830Y-123215965D01*
X142286143Y-123196526D01*
X142113663Y-123116097D01*
X142113659Y-123116096D01*
X142113655Y-123116094D01*
X141885413Y-123054938D01*
X141885403Y-123054936D01*
X141650001Y-123034341D01*
X141649999Y-123034341D01*
X141414596Y-123054936D01*
X141414586Y-123054938D01*
X141186344Y-123116094D01*
X141186335Y-123116098D01*
X140972171Y-123215964D01*
X140972169Y-123215965D01*
X140778597Y-123351505D01*
X140611505Y-123518597D01*
X140481575Y-123704158D01*
X140426998Y-123747783D01*
X140357500Y-123754977D01*
X140295145Y-123723454D01*
X140278425Y-123704158D01*
X140148494Y-123518597D01*
X139981402Y-123351506D01*
X139981395Y-123351501D01*
X139787834Y-123215967D01*
X139787830Y-123215965D01*
X139746143Y-123196526D01*
X139573663Y-123116097D01*
X139573659Y-123116096D01*
X139573655Y-123116094D01*
X139345413Y-123054938D01*
X139345403Y-123054936D01*
X139110001Y-123034341D01*
X139109999Y-123034341D01*
X138874596Y-123054936D01*
X138874586Y-123054938D01*
X138646344Y-123116094D01*
X138646335Y-123116098D01*
X138432171Y-123215964D01*
X138432169Y-123215965D01*
X138238597Y-123351505D01*
X138071505Y-123518597D01*
X137941575Y-123704158D01*
X137886998Y-123747783D01*
X137817500Y-123754977D01*
X137755145Y-123723454D01*
X137738425Y-123704158D01*
X137608494Y-123518597D01*
X137441402Y-123351506D01*
X137441395Y-123351501D01*
X137247834Y-123215967D01*
X137247830Y-123215965D01*
X137206143Y-123196526D01*
X137033663Y-123116097D01*
X137033659Y-123116096D01*
X137033655Y-123116094D01*
X136805413Y-123054938D01*
X136805403Y-123054936D01*
X136570001Y-123034341D01*
X136569999Y-123034341D01*
X136334596Y-123054936D01*
X136334586Y-123054938D01*
X136106344Y-123116094D01*
X136106335Y-123116098D01*
X135892171Y-123215964D01*
X135892169Y-123215965D01*
X135698597Y-123351505D01*
X135531508Y-123518594D01*
X135401574Y-123704159D01*
X135346997Y-123747784D01*
X135277498Y-123754976D01*
X135215144Y-123723454D01*
X135198424Y-123704158D01*
X135068494Y-123518597D01*
X134901402Y-123351506D01*
X134901395Y-123351501D01*
X134707834Y-123215967D01*
X134707830Y-123215965D01*
X134666143Y-123196526D01*
X134493663Y-123116097D01*
X134493659Y-123116096D01*
X134493655Y-123116094D01*
X134265413Y-123054938D01*
X134265403Y-123054936D01*
X134030001Y-123034341D01*
X134029999Y-123034341D01*
X133794596Y-123054936D01*
X133794586Y-123054938D01*
X133566344Y-123116094D01*
X133566335Y-123116098D01*
X133352171Y-123215964D01*
X133352169Y-123215965D01*
X133158597Y-123351505D01*
X132991505Y-123518597D01*
X132861575Y-123704158D01*
X132806998Y-123747783D01*
X132737500Y-123754977D01*
X132675145Y-123723454D01*
X132658425Y-123704158D01*
X132528494Y-123518597D01*
X132361402Y-123351506D01*
X132361395Y-123351501D01*
X132167834Y-123215967D01*
X132167830Y-123215965D01*
X132126143Y-123196526D01*
X131953663Y-123116097D01*
X131953659Y-123116096D01*
X131953655Y-123116094D01*
X131725413Y-123054938D01*
X131725403Y-123054936D01*
X131490001Y-123034341D01*
X131489999Y-123034341D01*
X131254596Y-123054936D01*
X131254586Y-123054938D01*
X131026344Y-123116094D01*
X131026335Y-123116098D01*
X130812171Y-123215964D01*
X130812169Y-123215965D01*
X130618597Y-123351505D01*
X130451505Y-123518597D01*
X130315965Y-123712169D01*
X130315964Y-123712171D01*
X130216098Y-123926335D01*
X130216094Y-123926344D01*
X130154938Y-124154586D01*
X130154936Y-124154596D01*
X130134341Y-124389999D01*
X130134341Y-124390000D01*
X130154936Y-124625403D01*
X130154938Y-124625413D01*
X130216094Y-124853655D01*
X130216096Y-124853659D01*
X130216097Y-124853663D01*
X130220000Y-124862032D01*
X130315965Y-125067830D01*
X130315967Y-125067834D01*
X130424281Y-125222521D01*
X130451501Y-125261396D01*
X130451506Y-125261402D01*
X130618597Y-125428493D01*
X130618603Y-125428498D01*
X130804158Y-125558425D01*
X130847783Y-125613002D01*
X130854977Y-125682500D01*
X130823454Y-125744855D01*
X130804158Y-125761575D01*
X130618597Y-125891505D01*
X130451505Y-126058597D01*
X130315965Y-126252169D01*
X130315964Y-126252171D01*
X130216098Y-126466335D01*
X130216094Y-126466344D01*
X130154938Y-126694586D01*
X130154936Y-126694596D01*
X130134341Y-126929999D01*
X130134341Y-126930000D01*
X130154936Y-127165403D01*
X130154938Y-127165413D01*
X130216094Y-127393655D01*
X130216096Y-127393659D01*
X130216097Y-127393663D01*
X130220000Y-127402032D01*
X130315965Y-127607830D01*
X130315967Y-127607834D01*
X130424281Y-127762521D01*
X130451505Y-127801401D01*
X130618599Y-127968495D01*
X130715384Y-128036264D01*
X130812165Y-128104032D01*
X130812167Y-128104033D01*
X130812170Y-128104035D01*
X131026337Y-128203903D01*
X131254592Y-128265063D01*
X131442918Y-128281539D01*
X131489999Y-128285659D01*
X131490000Y-128285659D01*
X131490001Y-128285659D01*
X131529234Y-128282226D01*
X131725408Y-128265063D01*
X131953663Y-128203903D01*
X132167830Y-128104035D01*
X132361401Y-127968495D01*
X132528495Y-127801401D01*
X132664035Y-127607830D01*
X132763903Y-127393663D01*
X132825063Y-127165408D01*
X132845659Y-126930000D01*
X132825063Y-126694592D01*
X132763903Y-126466337D01*
X132664035Y-126252171D01*
X132658425Y-126244158D01*
X132528494Y-126058597D01*
X132361402Y-125891506D01*
X132361396Y-125891501D01*
X132175842Y-125761575D01*
X132132217Y-125706998D01*
X132125023Y-125637500D01*
X132156546Y-125575145D01*
X132175842Y-125558425D01*
X132198026Y-125542891D01*
X132361401Y-125428495D01*
X132528495Y-125261401D01*
X132658424Y-125075842D01*
X132713002Y-125032217D01*
X132782500Y-125025023D01*
X132844855Y-125056546D01*
X132861575Y-125075842D01*
X132991500Y-125261395D01*
X132991505Y-125261401D01*
X133158599Y-125428495D01*
X133255384Y-125496264D01*
X133352165Y-125564032D01*
X133352167Y-125564033D01*
X133352170Y-125564035D01*
X133566337Y-125663903D01*
X133794592Y-125725063D01*
X133971034Y-125740500D01*
X134029999Y-125745659D01*
X134030000Y-125745659D01*
X134030001Y-125745659D01*
X134088966Y-125740500D01*
X134265408Y-125725063D01*
X134493663Y-125663903D01*
X134707830Y-125564035D01*
X134901401Y-125428495D01*
X135068495Y-125261401D01*
X135198424Y-125075842D01*
X135253002Y-125032217D01*
X135322500Y-125025023D01*
X135384855Y-125056546D01*
X135401575Y-125075842D01*
X135531501Y-125261396D01*
X135531506Y-125261402D01*
X135698597Y-125428493D01*
X135698603Y-125428498D01*
X135884158Y-125558425D01*
X135927783Y-125613002D01*
X135934977Y-125682500D01*
X135903454Y-125744855D01*
X135884158Y-125761575D01*
X135698597Y-125891505D01*
X135531505Y-126058597D01*
X135395965Y-126252169D01*
X135395964Y-126252171D01*
X135296098Y-126466335D01*
X135296094Y-126466344D01*
X135234938Y-126694586D01*
X135234936Y-126694596D01*
X135214341Y-126929999D01*
X135214341Y-126930000D01*
X135234936Y-127165403D01*
X135234938Y-127165413D01*
X135296094Y-127393655D01*
X135296096Y-127393659D01*
X135296097Y-127393663D01*
X135300000Y-127402032D01*
X135395965Y-127607830D01*
X135395967Y-127607834D01*
X135504281Y-127762521D01*
X135531505Y-127801401D01*
X135698599Y-127968495D01*
X135795384Y-128036264D01*
X135892165Y-128104032D01*
X135892167Y-128104033D01*
X135892170Y-128104035D01*
X136106337Y-128203903D01*
X136334592Y-128265063D01*
X136522918Y-128281539D01*
X136569999Y-128285659D01*
X136570000Y-128285659D01*
X136570001Y-128285659D01*
X136609234Y-128282226D01*
X136805408Y-128265063D01*
X137033663Y-128203903D01*
X137247830Y-128104035D01*
X137441401Y-127968495D01*
X137608495Y-127801401D01*
X137738424Y-127615842D01*
X137793002Y-127572217D01*
X137862500Y-127565023D01*
X137924855Y-127596546D01*
X137941575Y-127615842D01*
X138071500Y-127801395D01*
X138071505Y-127801401D01*
X138238599Y-127968495D01*
X138335384Y-128036264D01*
X138432165Y-128104032D01*
X138432167Y-128104033D01*
X138432170Y-128104035D01*
X138646337Y-128203903D01*
X138874592Y-128265063D01*
X139062918Y-128281539D01*
X139109999Y-128285659D01*
X139110000Y-128285659D01*
X139110001Y-128285659D01*
X139149234Y-128282226D01*
X139345408Y-128265063D01*
X139573663Y-128203903D01*
X139787830Y-128104035D01*
X139981401Y-127968495D01*
X140148495Y-127801401D01*
X140284035Y-127607830D01*
X140383903Y-127393663D01*
X140445063Y-127165408D01*
X140465659Y-126930000D01*
X140445063Y-126694592D01*
X140383903Y-126466337D01*
X140284035Y-126252171D01*
X140278425Y-126244158D01*
X140148494Y-126058597D01*
X139981402Y-125891506D01*
X139981396Y-125891501D01*
X139795842Y-125761575D01*
X139752217Y-125706998D01*
X139745023Y-125637500D01*
X139776546Y-125575145D01*
X139795842Y-125558425D01*
X139818026Y-125542891D01*
X139981401Y-125428495D01*
X140148495Y-125261401D01*
X140278424Y-125075842D01*
X140333002Y-125032217D01*
X140402500Y-125025023D01*
X140464855Y-125056546D01*
X140481575Y-125075842D01*
X140611500Y-125261395D01*
X140611505Y-125261401D01*
X140778599Y-125428495D01*
X140875384Y-125496264D01*
X140972165Y-125564032D01*
X140972167Y-125564033D01*
X140972170Y-125564035D01*
X141186337Y-125663903D01*
X141414592Y-125725063D01*
X141591034Y-125740500D01*
X141649999Y-125745659D01*
X141650000Y-125745659D01*
X141650001Y-125745659D01*
X141708966Y-125740500D01*
X141885408Y-125725063D01*
X142113663Y-125663903D01*
X142327830Y-125564035D01*
X142521401Y-125428495D01*
X142688495Y-125261401D01*
X142818424Y-125075842D01*
X142873002Y-125032217D01*
X142942500Y-125025023D01*
X143004855Y-125056546D01*
X143021575Y-125075842D01*
X143151501Y-125261396D01*
X143151506Y-125261402D01*
X143318597Y-125428493D01*
X143318603Y-125428498D01*
X143504158Y-125558425D01*
X143547783Y-125613002D01*
X143554977Y-125682500D01*
X143523454Y-125744855D01*
X143504158Y-125761575D01*
X143318597Y-125891505D01*
X143151505Y-126058597D01*
X143015965Y-126252169D01*
X143015964Y-126252171D01*
X142916098Y-126466335D01*
X142916094Y-126466344D01*
X142854938Y-126694586D01*
X142854936Y-126694596D01*
X142834341Y-126929999D01*
X142834341Y-126930000D01*
X142854936Y-127165403D01*
X142854938Y-127165413D01*
X142916094Y-127393655D01*
X142916096Y-127393659D01*
X142916097Y-127393663D01*
X142920000Y-127402032D01*
X143015965Y-127607830D01*
X143015967Y-127607834D01*
X143124281Y-127762521D01*
X143151505Y-127801401D01*
X143318599Y-127968495D01*
X143415384Y-128036264D01*
X143512165Y-128104032D01*
X143512167Y-128104033D01*
X143512170Y-128104035D01*
X143726337Y-128203903D01*
X143954592Y-128265063D01*
X144142918Y-128281539D01*
X144189999Y-128285659D01*
X144190000Y-128285659D01*
X144190001Y-128285659D01*
X144229234Y-128282226D01*
X144425408Y-128265063D01*
X144653663Y-128203903D01*
X144867830Y-128104035D01*
X145061401Y-127968495D01*
X145228495Y-127801401D01*
X145364035Y-127607830D01*
X145463903Y-127393663D01*
X145525063Y-127165408D01*
X145545659Y-126930000D01*
X145525063Y-126694592D01*
X145463903Y-126466337D01*
X145364035Y-126252171D01*
X145358425Y-126244158D01*
X145228494Y-126058597D01*
X145061402Y-125891506D01*
X145061396Y-125891501D01*
X144875842Y-125761575D01*
X144832217Y-125706998D01*
X144825023Y-125637500D01*
X144856546Y-125575145D01*
X144875842Y-125558425D01*
X144898026Y-125542891D01*
X145061401Y-125428495D01*
X145228495Y-125261401D01*
X145358424Y-125075842D01*
X145413002Y-125032217D01*
X145482500Y-125025023D01*
X145544855Y-125056546D01*
X145561575Y-125075842D01*
X145691500Y-125261395D01*
X145691505Y-125261401D01*
X145858599Y-125428495D01*
X145955384Y-125496264D01*
X146052165Y-125564032D01*
X146052167Y-125564033D01*
X146052170Y-125564035D01*
X146266337Y-125663903D01*
X146494592Y-125725063D01*
X146671034Y-125740500D01*
X146729999Y-125745659D01*
X146730000Y-125745659D01*
X146730001Y-125745659D01*
X146788966Y-125740500D01*
X146965408Y-125725063D01*
X147193663Y-125663903D01*
X147407830Y-125564035D01*
X147601401Y-125428495D01*
X147768495Y-125261401D01*
X147898424Y-125075842D01*
X147953002Y-125032217D01*
X148022500Y-125025023D01*
X148084855Y-125056546D01*
X148101575Y-125075842D01*
X148231501Y-125261396D01*
X148231506Y-125261402D01*
X148398597Y-125428493D01*
X148398603Y-125428498D01*
X148584158Y-125558425D01*
X148627783Y-125613002D01*
X148634977Y-125682500D01*
X148603454Y-125744855D01*
X148584158Y-125761575D01*
X148398597Y-125891505D01*
X148231505Y-126058597D01*
X148095965Y-126252169D01*
X148095964Y-126252171D01*
X147996098Y-126466335D01*
X147996094Y-126466344D01*
X147934938Y-126694586D01*
X147934936Y-126694596D01*
X147914341Y-126929999D01*
X147914341Y-126930000D01*
X147934936Y-127165403D01*
X147934938Y-127165413D01*
X147996094Y-127393655D01*
X147996096Y-127393659D01*
X147996097Y-127393663D01*
X148000000Y-127402032D01*
X148095965Y-127607830D01*
X148095967Y-127607834D01*
X148204281Y-127762521D01*
X148231505Y-127801401D01*
X148398599Y-127968495D01*
X148495384Y-128036264D01*
X148592165Y-128104032D01*
X148592167Y-128104033D01*
X148592170Y-128104035D01*
X148806337Y-128203903D01*
X149034592Y-128265063D01*
X149222918Y-128281539D01*
X149269999Y-128285659D01*
X149270000Y-128285659D01*
X149270001Y-128285659D01*
X149309234Y-128282226D01*
X149505408Y-128265063D01*
X149733663Y-128203903D01*
X149947830Y-128104035D01*
X150141401Y-127968495D01*
X150308495Y-127801401D01*
X150438424Y-127615842D01*
X150493002Y-127572217D01*
X150562500Y-127565023D01*
X150624855Y-127596546D01*
X150641575Y-127615842D01*
X150771500Y-127801395D01*
X150771505Y-127801401D01*
X150938599Y-127968495D01*
X151035384Y-128036264D01*
X151132165Y-128104032D01*
X151132167Y-128104033D01*
X151132170Y-128104035D01*
X151346337Y-128203903D01*
X151574592Y-128265063D01*
X151762918Y-128281539D01*
X151809999Y-128285659D01*
X151810000Y-128285659D01*
X151810001Y-128285659D01*
X151849234Y-128282226D01*
X152045408Y-128265063D01*
X152273663Y-128203903D01*
X152487830Y-128104035D01*
X152681401Y-127968495D01*
X152848495Y-127801401D01*
X152984035Y-127607830D01*
X153083903Y-127393663D01*
X153145063Y-127165408D01*
X153165659Y-126930000D01*
X153145063Y-126694592D01*
X153083903Y-126466337D01*
X152984035Y-126252171D01*
X152978425Y-126244158D01*
X152848494Y-126058597D01*
X152681402Y-125891506D01*
X152681396Y-125891501D01*
X152495842Y-125761575D01*
X152452217Y-125706998D01*
X152445023Y-125637500D01*
X152476546Y-125575145D01*
X152495842Y-125558425D01*
X152518026Y-125542891D01*
X152681401Y-125428495D01*
X152803329Y-125306566D01*
X152864648Y-125273084D01*
X152934340Y-125278068D01*
X152990274Y-125319939D01*
X153007189Y-125350917D01*
X153056202Y-125482328D01*
X153056206Y-125482335D01*
X153142452Y-125597544D01*
X153142455Y-125597547D01*
X153257664Y-125683793D01*
X153257671Y-125683797D01*
X153392517Y-125734091D01*
X153392516Y-125734091D01*
X153399444Y-125734835D01*
X153452127Y-125740500D01*
X155247872Y-125740499D01*
X155307483Y-125734091D01*
X155442331Y-125683796D01*
X155557546Y-125597546D01*
X155643796Y-125482331D01*
X155694091Y-125347483D01*
X155700500Y-125287873D01*
X155700499Y-123492128D01*
X155694091Y-123432517D01*
X155692810Y-123429083D01*
X155643797Y-123297671D01*
X155643793Y-123297664D01*
X155557547Y-123182455D01*
X155557544Y-123182452D01*
X155442335Y-123096206D01*
X155442328Y-123096202D01*
X155307482Y-123045908D01*
X155307483Y-123045908D01*
X155247883Y-123039501D01*
X155247881Y-123039500D01*
X155247873Y-123039500D01*
X155247865Y-123039500D01*
X155032097Y-123039500D01*
X154965058Y-123019815D01*
X154925979Y-122979648D01*
X154923792Y-122976031D01*
X154887505Y-122929714D01*
X154885285Y-122926697D01*
X154877963Y-122916089D01*
X154851868Y-122878284D01*
X154807824Y-122839264D01*
X154805098Y-122836697D01*
X154485401Y-122517000D01*
X153364660Y-121396259D01*
X153362143Y-121393585D01*
X153323116Y-121349532D01*
X153311737Y-121341678D01*
X153274694Y-121316107D01*
X153271678Y-121313888D01*
X153225372Y-121277610D01*
X153225370Y-121277609D01*
X153225369Y-121277608D01*
X153225365Y-121277606D01*
X153225363Y-121277605D01*
X153217097Y-121273884D01*
X153197557Y-121262863D01*
X153190091Y-121257710D01*
X153190092Y-121257710D01*
X153135077Y-121236845D01*
X153131617Y-121235412D01*
X153077975Y-121211270D01*
X153077976Y-121211270D01*
X153069047Y-121209634D01*
X153047437Y-121203609D01*
X153038961Y-121200394D01*
X153038956Y-121200393D01*
X152980537Y-121193299D01*
X152976836Y-121192736D01*
X152918986Y-121182135D01*
X152918979Y-121182135D01*
X152860257Y-121185687D01*
X152856513Y-121185800D01*
X148735163Y-121185800D01*
X148668124Y-121166115D01*
X148647482Y-121149481D01*
X148181000Y-120682999D01*
X147471877Y-119973876D01*
X147469326Y-119971165D01*
X147430316Y-119927132D01*
X147418937Y-119919278D01*
X147381894Y-119893707D01*
X147378878Y-119891488D01*
X147332572Y-119855210D01*
X147332570Y-119855209D01*
X147332569Y-119855208D01*
X147332565Y-119855206D01*
X147332563Y-119855205D01*
X147324297Y-119851484D01*
X147304757Y-119840463D01*
X147297291Y-119835310D01*
X147297292Y-119835310D01*
X147242277Y-119814445D01*
X147238817Y-119813012D01*
X147185175Y-119788870D01*
X147185176Y-119788870D01*
X147176247Y-119787234D01*
X147154637Y-119781209D01*
X147146161Y-119777994D01*
X147146156Y-119777993D01*
X147087737Y-119770899D01*
X147084036Y-119770336D01*
X147026186Y-119759735D01*
X147026179Y-119759735D01*
X146967457Y-119763287D01*
X146963713Y-119763400D01*
X145890363Y-119763400D01*
X145823324Y-119743715D01*
X145802682Y-119727081D01*
X145096819Y-119021218D01*
X145063334Y-118959895D01*
X145060500Y-118933537D01*
X145060500Y-118774861D01*
X145080185Y-118707822D01*
X145096815Y-118687184D01*
X145353799Y-118430199D01*
X145415120Y-118396716D01*
X145484811Y-118401700D01*
X145515788Y-118418615D01*
X145536865Y-118434393D01*
X145536868Y-118434395D01*
X145536871Y-118434397D01*
X145671717Y-118484691D01*
X145671716Y-118484691D01*
X145678644Y-118485435D01*
X145731327Y-118491100D01*
X148036872Y-118491099D01*
X148096483Y-118484691D01*
X148231331Y-118434396D01*
X148346546Y-118348146D01*
X148432796Y-118232931D01*
X148483091Y-118098083D01*
X148489500Y-118038473D01*
X148489499Y-117333128D01*
X148483091Y-117273517D01*
X148432796Y-117138669D01*
X148422646Y-117125111D01*
X148398229Y-117059648D01*
X148413080Y-116991375D01*
X148422647Y-116976488D01*
X148424080Y-116974574D01*
X148432796Y-116962931D01*
X148483091Y-116828083D01*
X148489500Y-116768473D01*
X148489499Y-116063128D01*
X148483091Y-116003517D01*
X148432796Y-115868669D01*
X148422646Y-115855111D01*
X148398229Y-115789648D01*
X148413080Y-115721375D01*
X148422647Y-115706488D01*
X148432796Y-115692931D01*
X148483091Y-115558083D01*
X148489500Y-115498473D01*
X148489499Y-114793128D01*
X148483091Y-114733517D01*
X148447766Y-114638807D01*
X148432797Y-114598671D01*
X148432793Y-114598664D01*
X148346547Y-114483455D01*
X148346544Y-114483452D01*
X148231335Y-114397206D01*
X148231328Y-114397202D01*
X148096482Y-114346908D01*
X148096483Y-114346908D01*
X148036883Y-114340501D01*
X148036881Y-114340500D01*
X148036873Y-114340500D01*
X148036864Y-114340500D01*
X145731329Y-114340500D01*
X145731323Y-114340501D01*
X145671716Y-114346908D01*
X145536871Y-114397202D01*
X145536869Y-114397203D01*
X145459040Y-114455467D01*
X145393576Y-114479884D01*
X145384729Y-114480200D01*
X145277430Y-114480200D01*
X145210391Y-114460515D01*
X145189749Y-114443881D01*
X145084557Y-114338689D01*
X145084556Y-114338688D01*
X144973723Y-114270326D01*
X144935236Y-114246587D01*
X144935231Y-114246585D01*
X144889481Y-114231425D01*
X144768697Y-114191401D01*
X144768695Y-114191400D01*
X144665910Y-114180900D01*
X143615898Y-114180900D01*
X143615880Y-114180901D01*
X143513103Y-114191400D01*
X143513100Y-114191401D01*
X143346568Y-114246585D01*
X143346563Y-114246587D01*
X143197242Y-114338689D01*
X143073188Y-114462743D01*
X143073185Y-114462747D01*
X143011796Y-114562274D01*
X142988492Y-114589986D01*
X142986187Y-114592028D01*
X142947158Y-114636081D01*
X142944591Y-114638807D01*
X141711378Y-115872021D01*
X140772201Y-116811198D01*
X140710878Y-116844683D01*
X140684520Y-116847517D01*
X140307277Y-116847517D01*
X140240238Y-116827832D01*
X140208323Y-116798244D01*
X140200696Y-116788144D01*
X140134798Y-116700881D01*
X140134792Y-116700876D01*
X140134791Y-116700874D01*
X139970379Y-116550993D01*
X139970377Y-116550991D01*
X139781221Y-116433871D01*
X139781215Y-116433869D01*
X139573757Y-116353499D01*
X139355060Y-116312617D01*
X139132574Y-116312617D01*
X138913877Y-116353499D01*
X138790233Y-116401399D01*
X138706418Y-116433869D01*
X138706412Y-116433871D01*
X138517256Y-116550991D01*
X138517254Y-116550993D01*
X138352842Y-116700874D01*
X138352838Y-116700878D01*
X138263994Y-116818527D01*
X138207885Y-116860163D01*
X138165040Y-116867800D01*
X135984363Y-116867800D01*
X135917324Y-116848115D01*
X135896682Y-116831481D01*
X131990418Y-112925217D01*
X131956933Y-112863894D01*
X131954099Y-112837545D01*
X131954099Y-107762168D01*
X131973784Y-107695130D01*
X132006977Y-107660593D01*
X132106853Y-107590661D01*
X132267761Y-107429753D01*
X132398282Y-107243348D01*
X132494453Y-107037110D01*
X132553349Y-106817306D01*
X132573182Y-106590614D01*
X132553349Y-106363922D01*
X132494453Y-106144118D01*
X132398282Y-105937880D01*
X132267761Y-105751475D01*
X132267759Y-105751472D01*
X132106855Y-105590568D01*
X132057776Y-105556203D01*
X132014151Y-105501627D01*
X132004900Y-105454633D01*
X132004899Y-102587462D01*
X132024585Y-102520423D01*
X132041219Y-102499781D01*
X133305881Y-101235119D01*
X133367204Y-101201634D01*
X133393562Y-101198800D01*
X133603004Y-101198800D01*
X133670043Y-101218485D01*
X133706648Y-101260395D01*
X133709095Y-101258887D01*
X133712885Y-101265032D01*
X133712886Y-101265034D01*
X133804988Y-101414356D01*
X133929044Y-101538412D01*
X134078366Y-101630514D01*
X134244903Y-101685699D01*
X134347691Y-101696200D01*
X135747708Y-101696199D01*
X135850497Y-101685699D01*
X136017034Y-101630514D01*
X136166356Y-101538412D01*
X136290412Y-101414356D01*
X136290415Y-101414350D01*
X136294893Y-101408689D01*
X136296737Y-101410147D01*
X136340302Y-101370959D01*
X136409264Y-101359733D01*
X136473348Y-101387572D01*
X136492158Y-101409280D01*
X136492907Y-101408689D01*
X136497388Y-101414356D01*
X136621444Y-101538412D01*
X136770766Y-101630514D01*
X136937303Y-101685699D01*
X137040091Y-101696200D01*
X138440108Y-101696199D01*
X138542897Y-101685699D01*
X138709434Y-101630514D01*
X138858756Y-101538412D01*
X138964613Y-101432554D01*
X139025932Y-101399072D01*
X139095624Y-101404056D01*
X139117387Y-101414699D01*
X139180959Y-101453910D01*
X139180960Y-101453910D01*
X139180966Y-101453914D01*
X139347503Y-101509099D01*
X139450291Y-101519600D01*
X140500308Y-101519599D01*
X140500316Y-101519598D01*
X140500319Y-101519598D01*
X140556602Y-101513848D01*
X140603097Y-101509099D01*
X140769634Y-101453914D01*
X140918956Y-101361812D01*
X141043012Y-101237756D01*
X141135114Y-101088434D01*
X141190299Y-100921897D01*
X141200800Y-100819109D01*
X141200800Y-100739599D01*
X141220485Y-100672561D01*
X141273289Y-100626806D01*
X141324800Y-100615600D01*
X142913336Y-100615600D01*
X142980375Y-100635285D01*
X142987638Y-100640326D01*
X143001538Y-100650731D01*
X143043409Y-100706663D01*
X143048395Y-100776355D01*
X143014911Y-100837679D01*
X143001539Y-100849266D01*
X142975760Y-100868564D01*
X142916398Y-100892393D01*
X142862040Y-100898994D01*
X142853557Y-100902211D01*
X142831953Y-100908233D01*
X142823034Y-100909867D01*
X142823024Y-100909871D01*
X142769378Y-100934014D01*
X142765920Y-100935446D01*
X142710907Y-100956311D01*
X142710906Y-100956311D01*
X142703437Y-100961467D01*
X142683905Y-100972483D01*
X142675630Y-100976207D01*
X142629314Y-101012492D01*
X142626300Y-101014710D01*
X142577884Y-101048131D01*
X142538866Y-101092172D01*
X142536299Y-101094898D01*
X138939798Y-104691399D01*
X138937072Y-104693966D01*
X138893031Y-104732984D01*
X138859610Y-104781400D01*
X138857392Y-104784414D01*
X138821107Y-104830730D01*
X138817383Y-104839005D01*
X138806367Y-104858537D01*
X138801211Y-104866006D01*
X138801211Y-104866007D01*
X138780346Y-104921020D01*
X138778914Y-104924478D01*
X138754771Y-104978124D01*
X138754767Y-104978134D01*
X138753133Y-104987053D01*
X138747111Y-105008657D01*
X138743893Y-105017141D01*
X138736799Y-105075564D01*
X138736236Y-105079265D01*
X138725635Y-105137113D01*
X138725635Y-105137117D01*
X138729187Y-105195842D01*
X138729300Y-105199586D01*
X138729300Y-111034889D01*
X138709615Y-111101928D01*
X138676424Y-111136464D01*
X138555756Y-111220956D01*
X138394854Y-111381858D01*
X138264332Y-111568265D01*
X138264331Y-111568267D01*
X138168161Y-111774502D01*
X138168158Y-111774511D01*
X138109266Y-111994302D01*
X138109264Y-111994313D01*
X138089432Y-112220998D01*
X138089432Y-112221001D01*
X138109264Y-112447686D01*
X138109266Y-112447697D01*
X138168158Y-112667488D01*
X138168161Y-112667497D01*
X138264331Y-112873732D01*
X138264332Y-112873734D01*
X138394854Y-113060141D01*
X138555758Y-113221045D01*
X138581268Y-113238907D01*
X138742166Y-113351568D01*
X138948404Y-113447739D01*
X139168208Y-113506635D01*
X139314467Y-113519431D01*
X139394898Y-113526468D01*
X139394900Y-113526468D01*
X139394902Y-113526468D01*
X139451572Y-113521509D01*
X139621592Y-113506635D01*
X139841396Y-113447739D01*
X140047634Y-113351568D01*
X140234039Y-113221047D01*
X140394947Y-113060139D01*
X140525468Y-112873734D01*
X140621639Y-112667496D01*
X140680535Y-112447692D01*
X140700368Y-112221000D01*
X140697795Y-112191596D01*
X140694701Y-112156230D01*
X140680535Y-111994308D01*
X140621639Y-111774504D01*
X140525468Y-111568266D01*
X140394947Y-111381861D01*
X140394945Y-111381858D01*
X140234043Y-111220956D01*
X140193069Y-111192266D01*
X140113376Y-111136464D01*
X140069752Y-111081887D01*
X140060500Y-111034889D01*
X140060500Y-105504662D01*
X140080185Y-105437623D01*
X140096814Y-105416986D01*
X142349219Y-103164580D01*
X142410542Y-103131096D01*
X142480234Y-103136080D01*
X142536167Y-103177952D01*
X142560584Y-103243416D01*
X142560900Y-103252262D01*
X142560900Y-108671936D01*
X142541215Y-108738975D01*
X142524581Y-108759618D01*
X142374595Y-108909603D01*
X142313272Y-108943087D01*
X142254822Y-108941696D01*
X142231197Y-108935366D01*
X142231193Y-108935365D01*
X142231192Y-108935365D01*
X142117845Y-108925448D01*
X142004501Y-108915532D01*
X142004498Y-108915532D01*
X141777813Y-108935364D01*
X141777802Y-108935366D01*
X141558011Y-108994258D01*
X141558002Y-108994261D01*
X141351767Y-109090431D01*
X141351765Y-109090432D01*
X141165358Y-109220954D01*
X141004454Y-109381858D01*
X140873932Y-109568265D01*
X140873931Y-109568267D01*
X140777761Y-109774502D01*
X140777758Y-109774511D01*
X140718866Y-109994302D01*
X140718864Y-109994313D01*
X140699032Y-110220998D01*
X140699032Y-110221001D01*
X140718864Y-110447686D01*
X140718866Y-110447697D01*
X140777758Y-110667488D01*
X140777761Y-110667497D01*
X140873931Y-110873732D01*
X140873932Y-110873734D01*
X141004454Y-111060141D01*
X141165358Y-111221045D01*
X141165361Y-111221047D01*
X141351766Y-111351568D01*
X141558004Y-111447739D01*
X141777808Y-111506635D01*
X141939730Y-111520801D01*
X142004498Y-111526468D01*
X142004500Y-111526468D01*
X142004502Y-111526468D01*
X142061173Y-111521509D01*
X142231192Y-111506635D01*
X142450996Y-111447739D01*
X142657234Y-111351568D01*
X142843639Y-111221047D01*
X143004547Y-111060139D01*
X143135068Y-110873734D01*
X143231239Y-110667496D01*
X143290135Y-110447692D01*
X143309968Y-110221000D01*
X143309349Y-110213930D01*
X143297253Y-110075666D01*
X143290135Y-109994308D01*
X143284644Y-109973816D01*
X143283803Y-109970675D01*
X143285466Y-109900826D01*
X143315895Y-109850904D01*
X143681622Y-109485177D01*
X143684297Y-109482658D01*
X143728368Y-109443616D01*
X143761809Y-109395167D01*
X143763991Y-109392202D01*
X143800292Y-109345869D01*
X143804011Y-109337606D01*
X143815040Y-109318051D01*
X143815077Y-109317995D01*
X143820189Y-109310592D01*
X143841062Y-109255551D01*
X143842464Y-109252165D01*
X143866630Y-109198473D01*
X143868263Y-109189555D01*
X143874289Y-109167940D01*
X143877506Y-109159459D01*
X143884598Y-109101049D01*
X143885161Y-109097345D01*
X143886428Y-109090431D01*
X143895765Y-109039483D01*
X143892213Y-108980756D01*
X143892100Y-108977012D01*
X143892100Y-103518561D01*
X143911785Y-103451522D01*
X143928415Y-103430884D01*
X144197481Y-103161817D01*
X144258804Y-103128333D01*
X144285162Y-103125499D01*
X144618500Y-103125499D01*
X144685539Y-103145184D01*
X144731294Y-103197988D01*
X144742500Y-103249499D01*
X144742500Y-104647870D01*
X144742501Y-104647876D01*
X144748908Y-104707483D01*
X144799202Y-104842328D01*
X144799206Y-104842335D01*
X144885452Y-104957544D01*
X144885455Y-104957547D01*
X145000664Y-105043793D01*
X145000673Y-105043798D01*
X145065652Y-105068033D01*
X145121586Y-105109903D01*
X145146004Y-105175367D01*
X145131153Y-105243640D01*
X145110001Y-105271896D01*
X145006598Y-105375299D01*
X145003872Y-105377866D01*
X144959831Y-105416884D01*
X144926410Y-105465300D01*
X144924192Y-105468314D01*
X144887907Y-105514630D01*
X144884183Y-105522905D01*
X144873167Y-105542437D01*
X144868011Y-105549906D01*
X144868011Y-105549907D01*
X144847146Y-105604920D01*
X144845714Y-105608378D01*
X144821571Y-105662024D01*
X144821567Y-105662034D01*
X144819933Y-105670953D01*
X144813911Y-105692557D01*
X144810693Y-105701041D01*
X144803599Y-105759464D01*
X144803036Y-105763165D01*
X144792435Y-105821013D01*
X144792435Y-105821017D01*
X144795987Y-105879742D01*
X144796100Y-105883486D01*
X144796100Y-107707012D01*
X144795987Y-107710756D01*
X144792435Y-107769479D01*
X144792435Y-107769483D01*
X144803036Y-107827336D01*
X144803599Y-107831037D01*
X144810693Y-107889456D01*
X144810694Y-107889461D01*
X144813909Y-107897937D01*
X144819934Y-107919547D01*
X144821570Y-107928475D01*
X144845712Y-107982117D01*
X144847145Y-107985577D01*
X144868010Y-108040591D01*
X144873163Y-108048057D01*
X144884184Y-108067597D01*
X144887905Y-108075863D01*
X144887910Y-108075872D01*
X144924188Y-108122178D01*
X144926407Y-108125194D01*
X144959831Y-108173614D01*
X144959832Y-108173616D01*
X145003874Y-108212634D01*
X145006583Y-108215184D01*
X145551018Y-108759618D01*
X146053681Y-109262281D01*
X146087166Y-109323604D01*
X146090000Y-109349962D01*
X146090000Y-109957801D01*
X146090001Y-109957819D01*
X146100500Y-110060596D01*
X146100501Y-110060599D01*
X146155685Y-110227131D01*
X146155687Y-110227136D01*
X146247789Y-110376457D01*
X146341450Y-110470118D01*
X146374935Y-110531441D01*
X146369951Y-110601133D01*
X146341451Y-110645479D01*
X146247789Y-110739142D01*
X146155687Y-110888463D01*
X146155685Y-110888466D01*
X146155686Y-110888466D01*
X146100501Y-111055003D01*
X146100501Y-111055004D01*
X146100500Y-111055004D01*
X146090000Y-111157783D01*
X146090000Y-111957801D01*
X146090001Y-111957819D01*
X146100500Y-112060596D01*
X146100501Y-112060599D01*
X146143910Y-112191596D01*
X146155686Y-112227134D01*
X146247788Y-112376456D01*
X146371844Y-112500512D01*
X146521166Y-112592614D01*
X146687703Y-112647799D01*
X146790491Y-112658300D01*
X147398336Y-112658299D01*
X147465375Y-112677983D01*
X147486017Y-112694618D01*
X149280981Y-114489581D01*
X149314466Y-114550904D01*
X149317300Y-114577262D01*
X149317300Y-118222612D01*
X149317187Y-118226356D01*
X149313635Y-118285079D01*
X149313635Y-118285083D01*
X149324236Y-118342936D01*
X149324799Y-118346637D01*
X149331893Y-118405056D01*
X149331894Y-118405061D01*
X149335109Y-118413537D01*
X149341134Y-118435147D01*
X149342770Y-118444075D01*
X149366912Y-118497717D01*
X149368345Y-118501177D01*
X149389210Y-118556191D01*
X149394363Y-118563657D01*
X149405384Y-118583197D01*
X149409105Y-118591463D01*
X149409110Y-118591472D01*
X149445388Y-118637778D01*
X149447607Y-118640794D01*
X149481031Y-118689214D01*
X149481032Y-118689216D01*
X149525074Y-118728234D01*
X149527783Y-118730784D01*
X149884630Y-119087630D01*
X150207889Y-119410889D01*
X150210456Y-119413615D01*
X150249484Y-119457668D01*
X150297890Y-119491080D01*
X150300905Y-119493297D01*
X150302427Y-119494490D01*
X150347229Y-119529592D01*
X150347230Y-119529592D01*
X150347231Y-119529593D01*
X150355499Y-119533314D01*
X150375048Y-119544339D01*
X150382508Y-119549489D01*
X150437515Y-119570350D01*
X150440969Y-119571781D01*
X150494628Y-119595931D01*
X150503550Y-119597565D01*
X150525165Y-119603591D01*
X150533641Y-119606806D01*
X150583212Y-119612824D01*
X150592046Y-119613897D01*
X150595732Y-119614457D01*
X150637788Y-119622164D01*
X150689747Y-119644866D01*
X150769268Y-119704395D01*
X150769271Y-119704397D01*
X150904117Y-119754691D01*
X150904116Y-119754691D01*
X150911044Y-119755435D01*
X150963727Y-119761100D01*
X153269272Y-119761099D01*
X153328883Y-119754691D01*
X153463731Y-119704396D01*
X153541560Y-119646132D01*
X153607024Y-119621716D01*
X153615871Y-119621400D01*
X156412513Y-119621400D01*
X156416257Y-119621513D01*
X156474980Y-119625065D01*
X156474980Y-119625064D01*
X156474983Y-119625065D01*
X156532857Y-119614459D01*
X156536549Y-119613898D01*
X156550732Y-119612175D01*
X156594959Y-119606806D01*
X156603440Y-119603589D01*
X156625055Y-119597563D01*
X156633973Y-119595930D01*
X156687665Y-119571764D01*
X156691051Y-119570362D01*
X156746092Y-119549489D01*
X156753550Y-119544340D01*
X156773106Y-119533311D01*
X156776131Y-119531949D01*
X156781369Y-119529592D01*
X156827702Y-119493291D01*
X156830667Y-119491109D01*
X156879116Y-119457668D01*
X156918142Y-119413616D01*
X156920670Y-119410929D01*
X157486680Y-118844919D01*
X157548004Y-118811434D01*
X157574362Y-118808600D01*
X158336951Y-118808600D01*
X158403990Y-118828285D01*
X158438526Y-118861477D01*
X158449842Y-118877638D01*
X158524947Y-118984899D01*
X158545601Y-119014395D01*
X158545606Y-119014402D01*
X158712697Y-119181493D01*
X158712703Y-119181498D01*
X158898258Y-119311425D01*
X158941883Y-119366002D01*
X158949077Y-119435500D01*
X158917554Y-119497855D01*
X158898258Y-119514575D01*
X158712697Y-119644505D01*
X158545605Y-119811597D01*
X158410065Y-120005169D01*
X158410064Y-120005171D01*
X158310198Y-120219335D01*
X158310194Y-120219344D01*
X158249038Y-120447586D01*
X158249036Y-120447596D01*
X158228441Y-120682999D01*
X158228441Y-120683000D01*
X158249036Y-120918403D01*
X158249038Y-120918413D01*
X158310194Y-121146655D01*
X158310196Y-121146659D01*
X158310197Y-121146663D01*
X158389210Y-121316107D01*
X158410065Y-121360830D01*
X158410067Y-121360834D01*
X158434896Y-121396293D01*
X158545605Y-121554401D01*
X158712699Y-121721495D01*
X158809484Y-121789265D01*
X158906265Y-121857032D01*
X158906267Y-121857033D01*
X158906270Y-121857035D01*
X159120437Y-121956903D01*
X159348692Y-122018063D01*
X159537018Y-122034539D01*
X159584099Y-122038659D01*
X159584100Y-122038659D01*
X159584101Y-122038659D01*
X159623334Y-122035226D01*
X159819508Y-122018063D01*
X160047763Y-121956903D01*
X160261930Y-121857035D01*
X160455501Y-121721495D01*
X160622595Y-121554401D01*
X160758135Y-121360830D01*
X160858003Y-121146663D01*
X160919163Y-120918408D01*
X160939759Y-120683000D01*
X160919163Y-120447592D01*
X160858003Y-120219337D01*
X160758135Y-120005171D01*
X160735307Y-119972568D01*
X160622594Y-119811597D01*
X160455502Y-119644506D01*
X160455496Y-119644501D01*
X160269942Y-119514575D01*
X160226317Y-119459998D01*
X160219123Y-119390500D01*
X160250646Y-119328145D01*
X160269942Y-119311425D01*
X160292126Y-119295891D01*
X160455501Y-119181495D01*
X160622595Y-119014401D01*
X160758135Y-118820830D01*
X160858003Y-118606663D01*
X160919163Y-118378408D01*
X160939759Y-118143000D01*
X160938592Y-118129667D01*
X160930333Y-118035266D01*
X160919163Y-117907592D01*
X160858003Y-117679337D01*
X160758135Y-117465171D01*
X160682753Y-117357513D01*
X160622594Y-117271597D01*
X160455502Y-117104506D01*
X160455501Y-117104505D01*
X160293935Y-116991375D01*
X160269941Y-116974574D01*
X160226316Y-116919997D01*
X160219124Y-116850498D01*
X160250646Y-116788144D01*
X160269936Y-116771428D01*
X160455501Y-116641495D01*
X160622595Y-116474401D01*
X160758135Y-116280830D01*
X160858003Y-116066663D01*
X160919163Y-115838408D01*
X160939759Y-115603000D01*
X160919163Y-115367592D01*
X160858003Y-115139337D01*
X160758135Y-114925171D01*
X160752915Y-114917715D01*
X160622594Y-114731597D01*
X160455502Y-114564506D01*
X160455496Y-114564501D01*
X160269942Y-114434575D01*
X160226317Y-114379998D01*
X160219123Y-114310500D01*
X160250646Y-114248145D01*
X160269942Y-114231425D01*
X160327103Y-114191400D01*
X160455501Y-114101495D01*
X160622595Y-113934401D01*
X160758135Y-113740830D01*
X160858003Y-113526663D01*
X160919163Y-113298408D01*
X160939759Y-113063000D01*
X160919163Y-112827592D01*
X160860489Y-112608614D01*
X160858005Y-112599344D01*
X160858004Y-112599343D01*
X160858003Y-112599337D01*
X160758135Y-112385171D01*
X160752915Y-112377715D01*
X160622594Y-112191597D01*
X160455502Y-112024506D01*
X160455501Y-112024505D01*
X160269942Y-111894575D01*
X160269941Y-111894574D01*
X160226316Y-111839997D01*
X160219124Y-111770498D01*
X160250646Y-111708144D01*
X160269936Y-111691428D01*
X160455501Y-111561495D01*
X160622595Y-111394401D01*
X160758135Y-111200830D01*
X160858003Y-110986663D01*
X160919163Y-110758408D01*
X160939759Y-110523000D01*
X160919163Y-110287592D01*
X160858003Y-110059337D01*
X160758135Y-109845171D01*
X160752915Y-109837715D01*
X160622594Y-109651597D01*
X160455502Y-109484506D01*
X160455496Y-109484501D01*
X160269942Y-109354575D01*
X160226317Y-109299998D01*
X160219123Y-109230500D01*
X160250646Y-109168145D01*
X160269942Y-109151425D01*
X160357050Y-109090431D01*
X160455501Y-109021495D01*
X160622595Y-108854401D01*
X160758135Y-108660830D01*
X160858003Y-108446663D01*
X160919163Y-108218408D01*
X160939759Y-107983000D01*
X160919163Y-107747592D01*
X160858003Y-107519337D01*
X160758135Y-107305171D01*
X160752915Y-107297715D01*
X160622594Y-107111597D01*
X160455502Y-106944506D01*
X160455501Y-106944505D01*
X160333846Y-106859321D01*
X160269941Y-106814574D01*
X160226316Y-106759997D01*
X160219124Y-106690498D01*
X160250646Y-106628144D01*
X160269936Y-106611428D01*
X160455501Y-106481495D01*
X160622595Y-106314401D01*
X160758135Y-106120830D01*
X160858003Y-105906663D01*
X160919163Y-105678408D01*
X160939759Y-105443000D01*
X160919163Y-105207592D01*
X160861223Y-104991353D01*
X160858005Y-104979344D01*
X160858004Y-104979343D01*
X160858003Y-104979337D01*
X160758135Y-104765171D01*
X160749005Y-104752131D01*
X160622594Y-104571597D01*
X160455502Y-104404506D01*
X160455496Y-104404501D01*
X160269942Y-104274575D01*
X160226317Y-104219998D01*
X160219123Y-104150500D01*
X160250646Y-104088145D01*
X160269942Y-104071425D01*
X160401254Y-103979479D01*
X160455501Y-103941495D01*
X160622595Y-103774401D01*
X160758135Y-103580830D01*
X160858003Y-103366663D01*
X160919163Y-103138408D01*
X160939759Y-102903000D01*
X160935984Y-102859857D01*
X160949750Y-102791358D01*
X160971828Y-102761371D01*
X162528422Y-101204777D01*
X162531097Y-101202258D01*
X162575168Y-101163216D01*
X162608609Y-101114767D01*
X162610791Y-101111802D01*
X162647092Y-101065469D01*
X162650811Y-101057206D01*
X162661840Y-101037651D01*
X162661877Y-101037595D01*
X162666989Y-101030192D01*
X162687862Y-100975151D01*
X162689264Y-100971765D01*
X162713430Y-100918073D01*
X162715063Y-100909155D01*
X162721089Y-100887540D01*
X162724306Y-100879059D01*
X162731398Y-100820649D01*
X162731961Y-100816945D01*
X162736288Y-100793333D01*
X162742565Y-100759083D01*
X162740976Y-100732819D01*
X162739013Y-100700356D01*
X162738900Y-100696612D01*
X162738900Y-97913603D01*
X162739013Y-97909859D01*
X162742566Y-97851117D01*
X162731959Y-97793236D01*
X162731395Y-97789531D01*
X162729324Y-97772472D01*
X162724306Y-97731141D01*
X162721092Y-97722667D01*
X162715065Y-97701045D01*
X162713431Y-97692129D01*
X162708562Y-97681311D01*
X162689281Y-97638469D01*
X162687847Y-97635008D01*
X162684079Y-97625073D01*
X162666989Y-97580008D01*
X162661839Y-97572548D01*
X162650813Y-97552997D01*
X162647092Y-97544729D01*
X162610800Y-97498408D01*
X162608579Y-97495389D01*
X162575168Y-97446984D01*
X162531115Y-97407956D01*
X162528389Y-97405389D01*
X161490516Y-96367516D01*
X160200785Y-95077784D01*
X160198234Y-95075073D01*
X160183836Y-95058822D01*
X160154115Y-94995589D01*
X160163299Y-94926325D01*
X160208471Y-94873022D01*
X160275290Y-94852602D01*
X160329054Y-94864212D01*
X160490670Y-94939575D01*
X160490675Y-94939576D01*
X160490679Y-94939578D01*
X160515749Y-94946295D01*
X160525775Y-94948981D01*
X160528882Y-94949902D01*
X160532944Y-94951221D01*
X160532948Y-94951223D01*
X160540977Y-94953054D01*
X160702023Y-94996207D01*
X160743207Y-94999810D01*
X160751594Y-95001128D01*
X160788667Y-95009591D01*
X160820835Y-95006601D01*
X160920000Y-95015277D01*
X160965291Y-95011314D01*
X160973461Y-95011142D01*
X160976194Y-95011265D01*
X160976196Y-95011264D01*
X160981749Y-95011515D01*
X160981763Y-95011514D01*
X161011648Y-95012856D01*
X161041479Y-95004649D01*
X161137977Y-94996207D01*
X161185915Y-94983361D01*
X161193643Y-94981810D01*
X161195356Y-94981577D01*
X161198713Y-94981123D01*
X161198715Y-94981122D01*
X161200819Y-94980837D01*
X161200840Y-94980834D01*
X161231609Y-94976666D01*
X161258282Y-94963971D01*
X161314234Y-94948979D01*
X161349320Y-94939578D01*
X161349323Y-94939576D01*
X161349330Y-94939575D01*
X161398182Y-94916794D01*
X161405193Y-94914032D01*
X161412274Y-94911732D01*
X161412277Y-94911730D01*
X161414252Y-94911089D01*
X161414263Y-94911085D01*
X161441653Y-94902185D01*
X161464517Y-94885862D01*
X161547639Y-94847102D01*
X161595328Y-94813709D01*
X161601502Y-94809904D01*
X161610013Y-94805325D01*
X161610015Y-94805322D01*
X161612472Y-94804001D01*
X161614913Y-94802688D01*
X161614919Y-94802684D01*
X161635152Y-94791796D01*
X161653773Y-94772785D01*
X161726877Y-94721598D01*
X161771182Y-94677292D01*
X161776336Y-94672685D01*
X161785574Y-94665319D01*
X161785578Y-94665313D01*
X161789468Y-94662212D01*
X161790866Y-94661640D01*
X161794299Y-94658359D01*
X161806039Y-94648996D01*
X161820180Y-94628294D01*
X161881598Y-94566877D01*
X161920146Y-94511824D01*
X161924206Y-94506641D01*
X161932456Y-94497198D01*
X161935022Y-94495564D01*
X161940654Y-94487813D01*
X161948945Y-94478322D01*
X161958596Y-94456912D01*
X162007102Y-94387639D01*
X162037462Y-94322531D01*
X162040416Y-94316960D01*
X162041646Y-94314899D01*
X162044777Y-94309659D01*
X162048076Y-94306606D01*
X162054205Y-94293881D01*
X162059395Y-94285194D01*
X162064752Y-94264006D01*
X162099575Y-94189330D01*
X162100105Y-94187354D01*
X162105492Y-94167247D01*
X162119408Y-94115310D01*
X162121239Y-94109604D01*
X162122879Y-94105233D01*
X162126402Y-94100547D01*
X162131308Y-94082772D01*
X162133961Y-94075702D01*
X162135412Y-94055583D01*
X162148607Y-94006341D01*
X162156207Y-93977977D01*
X162163316Y-93896708D01*
X162164073Y-93891070D01*
X162167484Y-93872276D01*
X162167484Y-93872274D01*
X162169851Y-93859232D01*
X162168067Y-93846234D01*
X162168138Y-93843047D01*
X162168352Y-93839149D01*
X162175277Y-93760000D01*
X162168356Y-93680900D01*
X162168140Y-93676963D01*
X162168113Y-93675827D01*
X162168070Y-93673884D01*
X162170554Y-93664641D01*
X162164075Y-93628940D01*
X162163316Y-93623288D01*
X162156207Y-93542023D01*
X162135411Y-93464411D01*
X162135775Y-93449123D01*
X162131308Y-93437222D01*
X162127344Y-93422861D01*
X162122879Y-93414764D01*
X162121244Y-93410409D01*
X162119405Y-93404677D01*
X162099575Y-93330670D01*
X162064752Y-93255994D01*
X162062263Y-93239605D01*
X162054204Y-93226117D01*
X162049268Y-93215869D01*
X162044783Y-93210348D01*
X162040418Y-93203043D01*
X162037455Y-93197455D01*
X162007102Y-93132362D01*
X161958597Y-93063089D01*
X161952903Y-93046205D01*
X161940655Y-93032186D01*
X161936132Y-93025961D01*
X161932453Y-93022797D01*
X161924223Y-93013377D01*
X161920124Y-93008143D01*
X161881599Y-92953124D01*
X161868977Y-92940502D01*
X161820180Y-92891705D01*
X161811061Y-92875005D01*
X161794299Y-92861638D01*
X161791557Y-92859017D01*
X161789468Y-92857786D01*
X161776353Y-92847327D01*
X161771166Y-92842691D01*
X161726878Y-92798403D01*
X161726869Y-92798396D01*
X161653772Y-92747212D01*
X161641162Y-92731436D01*
X161601505Y-92710096D01*
X161595318Y-92706283D01*
X161547643Y-92672900D01*
X161464518Y-92634138D01*
X161448508Y-92620040D01*
X161405216Y-92605974D01*
X161398167Y-92603197D01*
X161349332Y-92580426D01*
X161349330Y-92580425D01*
X161333693Y-92576235D01*
X161258273Y-92556025D01*
X161239119Y-92544349D01*
X161193640Y-92538188D01*
X161185909Y-92536636D01*
X161137985Y-92523794D01*
X161137971Y-92523792D01*
X161041472Y-92515350D01*
X161019575Y-92506784D01*
X160973463Y-92508856D01*
X160965271Y-92508682D01*
X160920006Y-92504723D01*
X160919997Y-92504723D01*
X160820820Y-92513399D01*
X160796749Y-92508561D01*
X160751593Y-92518870D01*
X160743191Y-92520190D01*
X160702020Y-92523793D01*
X160603179Y-92550277D01*
X160577623Y-92549668D01*
X160539030Y-92566169D01*
X160522381Y-92571927D01*
X160490667Y-92580425D01*
X160292361Y-92672898D01*
X160292357Y-92672900D01*
X160113121Y-92798402D01*
X159958402Y-92953121D01*
X159832900Y-93132357D01*
X159832898Y-93132361D01*
X159740426Y-93330668D01*
X159740422Y-93330677D01*
X159683793Y-93542020D01*
X159683793Y-93542024D01*
X159664723Y-93759997D01*
X159664723Y-93760002D01*
X159683793Y-93977975D01*
X159683793Y-93977979D01*
X159740422Y-94189322D01*
X159740424Y-94189326D01*
X159740425Y-94189330D01*
X159741805Y-94192289D01*
X159832897Y-94387638D01*
X159837309Y-94393939D01*
X159958402Y-94566877D01*
X159958405Y-94566880D01*
X159958406Y-94566881D01*
X160108336Y-94716811D01*
X160141821Y-94778134D01*
X160136837Y-94847826D01*
X160094965Y-94903759D01*
X160029501Y-94928176D01*
X159976686Y-94920435D01*
X159971180Y-94918347D01*
X159967718Y-94916913D01*
X159914074Y-94892770D01*
X159914076Y-94892770D01*
X159905147Y-94891134D01*
X159883537Y-94885109D01*
X159875061Y-94881894D01*
X159875056Y-94881893D01*
X159816637Y-94874799D01*
X159812936Y-94874236D01*
X159755086Y-94863635D01*
X159755079Y-94863635D01*
X159696357Y-94867187D01*
X159692613Y-94867300D01*
X158568462Y-94867300D01*
X158501423Y-94847615D01*
X158480781Y-94830981D01*
X158261215Y-94611414D01*
X158227730Y-94550091D01*
X158232714Y-94480399D01*
X158274586Y-94424466D01*
X158316805Y-94403958D01*
X158354183Y-94393943D01*
X158354188Y-94393940D01*
X158354196Y-94393939D01*
X158560434Y-94297768D01*
X158746839Y-94167247D01*
X158907747Y-94006339D01*
X159038268Y-93819934D01*
X159134439Y-93613696D01*
X159193335Y-93393892D01*
X159213168Y-93167200D01*
X159193335Y-92940508D01*
X159134439Y-92720704D01*
X159038268Y-92514466D01*
X158907747Y-92328061D01*
X158907745Y-92328058D01*
X158746841Y-92167154D01*
X158560434Y-92036632D01*
X158560432Y-92036631D01*
X158483824Y-92000908D01*
X158475189Y-91996881D01*
X158422751Y-91950709D01*
X158403599Y-91883516D01*
X158423815Y-91816635D01*
X158476980Y-91771300D01*
X158527595Y-91760500D01*
X158852903Y-91760500D01*
X158868477Y-91765073D01*
X158911878Y-91760799D01*
X158917958Y-91760500D01*
X159007528Y-91760500D01*
X159007532Y-91760500D01*
X159070646Y-91749371D01*
X159082445Y-91750687D01*
X159105617Y-91743658D01*
X159112843Y-91741931D01*
X159179938Y-91730101D01*
X159179943Y-91730099D01*
X159179944Y-91730099D01*
X159218880Y-91715927D01*
X159257589Y-91701837D01*
X159270637Y-91701008D01*
X159285852Y-91692876D01*
X159301893Y-91685712D01*
X159344445Y-91670225D01*
X159428973Y-91621421D01*
X159443309Y-91617943D01*
X159455172Y-91608208D01*
X159471825Y-91596681D01*
X159496055Y-91582692D01*
X159496060Y-91582687D01*
X159500491Y-91579586D01*
X159500755Y-91579964D01*
X159514566Y-91570623D01*
X159518087Y-91568740D01*
X159534657Y-91550300D01*
X159581395Y-91511083D01*
X159596406Y-91504514D01*
X159604975Y-91494073D01*
X159621128Y-91477744D01*
X159630163Y-91470163D01*
X159637745Y-91461126D01*
X159654073Y-91444975D01*
X159659100Y-91440849D01*
X159671081Y-91421398D01*
X159710298Y-91374660D01*
X159725171Y-91364765D01*
X159730623Y-91354566D01*
X159739964Y-91340755D01*
X159739586Y-91340491D01*
X159742687Y-91336061D01*
X159742687Y-91336060D01*
X159742692Y-91336055D01*
X159756681Y-91311825D01*
X159768208Y-91295172D01*
X159773904Y-91288230D01*
X159781422Y-91268973D01*
X159798084Y-91240115D01*
X159830225Y-91184445D01*
X159845712Y-91141893D01*
X159852876Y-91125852D01*
X159858319Y-91115668D01*
X159861838Y-91097589D01*
X159890099Y-91019944D01*
X159890100Y-91019940D01*
X159890101Y-91019938D01*
X159901931Y-90952843D01*
X159903658Y-90945617D01*
X159909166Y-90927459D01*
X159909370Y-90910649D01*
X159917778Y-90862965D01*
X159948805Y-90800364D01*
X160008753Y-90764474D01*
X160039894Y-90760500D01*
X160918378Y-90760500D01*
X160921619Y-90760584D01*
X161053628Y-90767503D01*
X161237027Y-90777803D01*
X161243212Y-90778465D01*
X161395647Y-90802608D01*
X161558194Y-90830226D01*
X161563811Y-90831453D01*
X161716693Y-90872418D01*
X161809122Y-90899046D01*
X161871724Y-90917082D01*
X161876759Y-90918769D01*
X162026183Y-90976127D01*
X162174007Y-91037358D01*
X162178412Y-91039388D01*
X162244180Y-91072899D01*
X162321921Y-91112511D01*
X162376514Y-91142683D01*
X162461480Y-91189641D01*
X162465215Y-91191882D01*
X162539487Y-91240115D01*
X162600872Y-91279980D01*
X162651032Y-91315570D01*
X162730764Y-91372142D01*
X162733886Y-91374510D01*
X162858748Y-91475621D01*
X162861034Y-91477567D01*
X162891188Y-91504514D01*
X162978669Y-91582692D01*
X162978721Y-91582738D01*
X162981248Y-91585128D01*
X163094870Y-91698750D01*
X163097260Y-91701277D01*
X163202431Y-91818964D01*
X163204383Y-91821258D01*
X163237158Y-91861732D01*
X163305480Y-91946102D01*
X163307862Y-91949243D01*
X163400019Y-92079127D01*
X163453758Y-92161875D01*
X163488106Y-92214767D01*
X163490364Y-92218531D01*
X163567488Y-92358078D01*
X163640604Y-92501575D01*
X163642643Y-92505997D01*
X163703877Y-92653829D01*
X163761221Y-92803217D01*
X163762916Y-92808273D01*
X163807579Y-92963297D01*
X163848541Y-93116171D01*
X163849778Y-93121835D01*
X163877394Y-93284369D01*
X163901530Y-93436758D01*
X163902196Y-93442985D01*
X163912509Y-93626617D01*
X163919415Y-93758377D01*
X163919500Y-93761623D01*
X163919500Y-129758376D01*
X163919415Y-129761622D01*
X163912509Y-129893382D01*
X163902196Y-130077013D01*
X163901530Y-130083240D01*
X163877394Y-130235630D01*
X163849778Y-130398163D01*
X163848541Y-130403827D01*
X163807579Y-130556702D01*
X163762916Y-130711725D01*
X163761221Y-130716781D01*
X163703877Y-130866170D01*
X163642643Y-131014001D01*
X163640604Y-131018423D01*
X163567488Y-131161921D01*
X163490364Y-131301467D01*
X163488097Y-131305246D01*
X163400019Y-131440872D01*
X163307862Y-131570755D01*
X163305480Y-131573896D01*
X163204385Y-131698738D01*
X163202431Y-131701034D01*
X163097260Y-131818721D01*
X163094870Y-131821248D01*
X162981248Y-131934870D01*
X162978721Y-131937260D01*
X162861034Y-132042431D01*
X162858738Y-132044385D01*
X162733896Y-132145480D01*
X162730755Y-132147862D01*
X162600872Y-132240019D01*
X162465246Y-132328097D01*
X162461467Y-132330364D01*
X162321921Y-132407488D01*
X162178423Y-132480604D01*
X162174001Y-132482643D01*
X162026170Y-132543877D01*
X161876781Y-132601221D01*
X161871725Y-132602916D01*
X161716702Y-132647579D01*
X161563827Y-132688541D01*
X161558163Y-132689778D01*
X161395630Y-132717394D01*
X161243240Y-132741530D01*
X161237013Y-132742196D01*
X161053382Y-132752509D01*
X160921622Y-132759415D01*
X160918376Y-132759500D01*
X124921624Y-132759500D01*
X124918378Y-132759415D01*
X124786617Y-132752509D01*
X124602985Y-132742196D01*
X124596758Y-132741530D01*
X124444369Y-132717394D01*
X124281835Y-132689778D01*
X124276171Y-132688541D01*
X124123297Y-132647579D01*
X123968273Y-132602916D01*
X123963217Y-132601221D01*
X123813829Y-132543877D01*
X123665997Y-132482643D01*
X123661575Y-132480604D01*
X123518078Y-132407488D01*
X123378531Y-132330364D01*
X123374767Y-132328106D01*
X123321875Y-132293758D01*
X123239127Y-132240019D01*
X123109243Y-132147862D01*
X123106102Y-132145480D01*
X122981260Y-132044385D01*
X122978964Y-132042431D01*
X122861277Y-131937260D01*
X122858750Y-131934870D01*
X122745128Y-131821248D01*
X122742738Y-131818721D01*
X122637567Y-131701034D01*
X122635613Y-131698738D01*
X122596848Y-131650867D01*
X122534510Y-131573886D01*
X122532136Y-131570755D01*
X122439980Y-131440872D01*
X122407406Y-131390715D01*
X122351882Y-131305215D01*
X122349641Y-131301480D01*
X122314241Y-131237428D01*
X122272511Y-131161921D01*
X122232899Y-131084180D01*
X122199388Y-131018412D01*
X122197358Y-131014007D01*
X122136122Y-130866170D01*
X122078769Y-130716759D01*
X122077082Y-130711724D01*
X122032420Y-130556702D01*
X122020404Y-130511858D01*
X121991453Y-130403811D01*
X121990226Y-130398194D01*
X121962601Y-130235606D01*
X121938465Y-130083212D01*
X121937803Y-130077027D01*
X121927490Y-129893382D01*
X121920584Y-129761620D01*
X121920542Y-129760002D01*
X123664723Y-129760002D01*
X123683793Y-129977975D01*
X123683793Y-129977979D01*
X123740422Y-130189322D01*
X123740424Y-130189326D01*
X123740425Y-130189330D01*
X123759402Y-130230026D01*
X123832897Y-130387638D01*
X123844233Y-130403827D01*
X123958402Y-130566877D01*
X124113123Y-130721598D01*
X124292361Y-130847102D01*
X124490670Y-130939575D01*
X124490675Y-130939576D01*
X124490679Y-130939578D01*
X124515749Y-130946295D01*
X124525775Y-130948981D01*
X124528882Y-130949902D01*
X124532944Y-130951221D01*
X124532948Y-130951223D01*
X124540977Y-130953054D01*
X124702023Y-130996207D01*
X124743207Y-130999810D01*
X124751594Y-131001128D01*
X124788667Y-131009591D01*
X124820835Y-131006601D01*
X124920000Y-131015277D01*
X124965291Y-131011314D01*
X124973461Y-131011142D01*
X124976194Y-131011265D01*
X124976196Y-131011264D01*
X124981749Y-131011515D01*
X124981763Y-131011514D01*
X125011648Y-131012856D01*
X125041479Y-131004649D01*
X125137977Y-130996207D01*
X125185915Y-130983361D01*
X125193643Y-130981810D01*
X125195356Y-130981577D01*
X125198713Y-130981123D01*
X125198715Y-130981122D01*
X125200819Y-130980837D01*
X125200840Y-130980834D01*
X125231609Y-130976666D01*
X125258282Y-130963971D01*
X125314234Y-130948979D01*
X125349320Y-130939578D01*
X125349323Y-130939576D01*
X125349330Y-130939575D01*
X125398182Y-130916794D01*
X125405193Y-130914032D01*
X125412274Y-130911732D01*
X125412277Y-130911730D01*
X125414252Y-130911089D01*
X125414263Y-130911085D01*
X125441653Y-130902185D01*
X125464517Y-130885862D01*
X125547639Y-130847102D01*
X125595328Y-130813709D01*
X125601502Y-130809904D01*
X125610013Y-130805325D01*
X125610015Y-130805322D01*
X125612472Y-130804001D01*
X125614913Y-130802688D01*
X125614919Y-130802684D01*
X125635152Y-130791796D01*
X125653773Y-130772785D01*
X125726877Y-130721598D01*
X125771182Y-130677292D01*
X125776336Y-130672685D01*
X125785574Y-130665319D01*
X125785578Y-130665313D01*
X125789468Y-130662212D01*
X125790866Y-130661640D01*
X125794299Y-130658359D01*
X125806039Y-130648996D01*
X125820180Y-130628294D01*
X125881598Y-130566877D01*
X125920146Y-130511824D01*
X125924206Y-130506641D01*
X125932456Y-130497198D01*
X125935022Y-130495564D01*
X125940654Y-130487813D01*
X125948945Y-130478322D01*
X125958596Y-130456912D01*
X126007102Y-130387639D01*
X126037462Y-130322531D01*
X126040416Y-130316960D01*
X126041646Y-130314899D01*
X126044777Y-130309659D01*
X126048076Y-130306606D01*
X126054205Y-130293881D01*
X126059395Y-130285194D01*
X126064752Y-130264006D01*
X126099575Y-130189330D01*
X126100105Y-130187354D01*
X126101181Y-130183333D01*
X126119408Y-130115310D01*
X126121239Y-130109604D01*
X126122879Y-130105233D01*
X126126402Y-130100547D01*
X126131308Y-130082772D01*
X126133961Y-130075702D01*
X126135412Y-130055583D01*
X126156205Y-129977983D01*
X126156206Y-129977979D01*
X126156207Y-129977977D01*
X126163316Y-129896708D01*
X126164073Y-129891070D01*
X126167484Y-129872276D01*
X126167484Y-129872274D01*
X126169851Y-129859232D01*
X126168067Y-129846234D01*
X126168138Y-129843047D01*
X126168352Y-129839149D01*
X126175277Y-129760002D01*
X159664723Y-129760002D01*
X159683793Y-129977975D01*
X159683793Y-129977979D01*
X159740422Y-130189322D01*
X159740424Y-130189326D01*
X159740425Y-130189330D01*
X159759402Y-130230026D01*
X159832897Y-130387638D01*
X159844233Y-130403827D01*
X159958402Y-130566877D01*
X160113123Y-130721598D01*
X160292361Y-130847102D01*
X160490670Y-130939575D01*
X160490675Y-130939576D01*
X160490679Y-130939578D01*
X160515749Y-130946295D01*
X160525775Y-130948981D01*
X160528882Y-130949902D01*
X160532944Y-130951221D01*
X160532948Y-130951223D01*
X160540977Y-130953054D01*
X160702023Y-130996207D01*
X160743207Y-130999810D01*
X160751594Y-131001128D01*
X160788667Y-131009591D01*
X160820835Y-131006601D01*
X160920000Y-131015277D01*
X160965291Y-131011314D01*
X160973461Y-131011142D01*
X160976194Y-131011265D01*
X160976196Y-131011264D01*
X160981749Y-131011515D01*
X160981763Y-131011514D01*
X161011648Y-131012856D01*
X161041479Y-131004649D01*
X161137977Y-130996207D01*
X161185915Y-130983361D01*
X161193643Y-130981810D01*
X161195356Y-130981577D01*
X161198713Y-130981123D01*
X161198715Y-130981122D01*
X161200819Y-130980837D01*
X161200840Y-130980834D01*
X161231609Y-130976666D01*
X161258282Y-130963971D01*
X161314234Y-130948979D01*
X161349320Y-130939578D01*
X161349323Y-130939576D01*
X161349330Y-130939575D01*
X161398182Y-130916794D01*
X161405193Y-130914032D01*
X161412274Y-130911732D01*
X161412277Y-130911730D01*
X161414252Y-130911089D01*
X161414263Y-130911085D01*
X161441653Y-130902185D01*
X161464517Y-130885862D01*
X161547639Y-130847102D01*
X161595328Y-130813709D01*
X161601502Y-130809904D01*
X161610013Y-130805325D01*
X161610015Y-130805322D01*
X161612472Y-130804001D01*
X161614913Y-130802688D01*
X161614919Y-130802684D01*
X161635152Y-130791796D01*
X161653773Y-130772785D01*
X161726877Y-130721598D01*
X161771182Y-130677292D01*
X161776336Y-130672685D01*
X161785574Y-130665319D01*
X161785578Y-130665313D01*
X161789468Y-130662212D01*
X161790866Y-130661640D01*
X161794299Y-130658359D01*
X161806039Y-130648996D01*
X161820180Y-130628294D01*
X161881598Y-130566877D01*
X161920146Y-130511824D01*
X161924206Y-130506641D01*
X161932456Y-130497198D01*
X161935022Y-130495564D01*
X161940654Y-130487813D01*
X161948945Y-130478322D01*
X161958596Y-130456912D01*
X162007102Y-130387639D01*
X162037462Y-130322531D01*
X162040416Y-130316960D01*
X162041646Y-130314899D01*
X162044777Y-130309659D01*
X162048076Y-130306606D01*
X162054205Y-130293881D01*
X162059395Y-130285194D01*
X162064752Y-130264006D01*
X162099575Y-130189330D01*
X162100105Y-130187354D01*
X162101181Y-130183333D01*
X162119408Y-130115310D01*
X162121239Y-130109604D01*
X162122879Y-130105233D01*
X162126402Y-130100547D01*
X162131308Y-130082772D01*
X162133961Y-130075702D01*
X162135412Y-130055583D01*
X162156205Y-129977983D01*
X162156206Y-129977979D01*
X162156207Y-129977977D01*
X162163316Y-129896708D01*
X162164073Y-129891070D01*
X162167484Y-129872276D01*
X162167484Y-129872274D01*
X162169851Y-129859232D01*
X162168067Y-129846234D01*
X162168138Y-129843047D01*
X162168352Y-129839149D01*
X162175277Y-129760000D01*
X162168356Y-129680900D01*
X162168140Y-129676963D01*
X162168113Y-129675827D01*
X162168070Y-129673884D01*
X162170554Y-129664641D01*
X162164075Y-129628940D01*
X162163316Y-129623288D01*
X162156207Y-129542023D01*
X162135411Y-129464411D01*
X162135775Y-129449123D01*
X162131308Y-129437222D01*
X162127344Y-129422861D01*
X162122879Y-129414764D01*
X162121244Y-129410409D01*
X162119405Y-129404677D01*
X162099575Y-129330670D01*
X162064752Y-129255994D01*
X162062263Y-129239605D01*
X162054204Y-129226117D01*
X162049268Y-129215869D01*
X162044783Y-129210348D01*
X162040418Y-129203043D01*
X162037455Y-129197455D01*
X162007102Y-129132362D01*
X161958597Y-129063089D01*
X161952903Y-129046205D01*
X161940655Y-129032186D01*
X161936132Y-129025961D01*
X161932453Y-129022797D01*
X161924223Y-129013377D01*
X161920124Y-129008143D01*
X161881599Y-128953124D01*
X161881596Y-128953121D01*
X161820180Y-128891705D01*
X161811061Y-128875005D01*
X161794299Y-128861638D01*
X161791557Y-128859017D01*
X161789468Y-128857786D01*
X161776353Y-128847327D01*
X161771166Y-128842691D01*
X161726878Y-128798403D01*
X161726869Y-128798396D01*
X161653772Y-128747212D01*
X161641162Y-128731436D01*
X161601505Y-128710096D01*
X161595318Y-128706283D01*
X161547643Y-128672900D01*
X161464518Y-128634138D01*
X161448508Y-128620040D01*
X161405216Y-128605974D01*
X161398167Y-128603197D01*
X161349332Y-128580426D01*
X161349330Y-128580425D01*
X161333693Y-128576235D01*
X161258273Y-128556025D01*
X161239119Y-128544349D01*
X161193640Y-128538188D01*
X161185909Y-128536636D01*
X161137985Y-128523794D01*
X161137971Y-128523792D01*
X161041472Y-128515350D01*
X161019575Y-128506784D01*
X160973463Y-128508856D01*
X160965271Y-128508682D01*
X160920006Y-128504723D01*
X160919997Y-128504723D01*
X160820820Y-128513399D01*
X160796749Y-128508561D01*
X160751593Y-128518870D01*
X160743191Y-128520190D01*
X160702020Y-128523793D01*
X160603179Y-128550277D01*
X160577623Y-128549668D01*
X160539030Y-128566169D01*
X160522381Y-128571927D01*
X160490667Y-128580425D01*
X160292361Y-128672898D01*
X160292357Y-128672900D01*
X160113121Y-128798402D01*
X159958402Y-128953121D01*
X159832900Y-129132357D01*
X159832898Y-129132361D01*
X159740426Y-129330668D01*
X159740422Y-129330677D01*
X159683793Y-129542020D01*
X159683793Y-129542024D01*
X159664723Y-129759997D01*
X159664723Y-129760002D01*
X126175277Y-129760002D01*
X126175277Y-129760000D01*
X126168356Y-129680900D01*
X126168140Y-129676963D01*
X126168113Y-129675827D01*
X126168070Y-129673884D01*
X126170554Y-129664641D01*
X126164075Y-129628940D01*
X126163316Y-129623288D01*
X126156207Y-129542023D01*
X126135411Y-129464411D01*
X126135775Y-129449123D01*
X126131308Y-129437222D01*
X126127344Y-129422861D01*
X126122879Y-129414764D01*
X126121244Y-129410409D01*
X126119405Y-129404677D01*
X126099575Y-129330670D01*
X126064752Y-129255994D01*
X126062263Y-129239605D01*
X126054204Y-129226117D01*
X126049268Y-129215869D01*
X126044783Y-129210348D01*
X126040418Y-129203043D01*
X126037455Y-129197455D01*
X126007102Y-129132362D01*
X125958597Y-129063089D01*
X125952903Y-129046205D01*
X125940655Y-129032186D01*
X125936132Y-129025961D01*
X125932453Y-129022797D01*
X125924223Y-129013377D01*
X125920124Y-129008143D01*
X125881599Y-128953124D01*
X125881596Y-128953121D01*
X125820180Y-128891705D01*
X125811061Y-128875005D01*
X125794299Y-128861638D01*
X125791557Y-128859017D01*
X125789468Y-128857786D01*
X125776353Y-128847327D01*
X125771166Y-128842691D01*
X125726878Y-128798403D01*
X125726869Y-128798396D01*
X125653772Y-128747212D01*
X125641162Y-128731436D01*
X125601505Y-128710096D01*
X125595318Y-128706283D01*
X125547643Y-128672900D01*
X125464518Y-128634138D01*
X125448508Y-128620040D01*
X125405216Y-128605974D01*
X125398167Y-128603197D01*
X125349332Y-128580426D01*
X125349330Y-128580425D01*
X125333693Y-128576235D01*
X125258273Y-128556025D01*
X125239119Y-128544349D01*
X125193640Y-128538188D01*
X125185909Y-128536636D01*
X125137985Y-128523794D01*
X125137971Y-128523792D01*
X125041472Y-128515350D01*
X125019575Y-128506784D01*
X124973463Y-128508856D01*
X124965271Y-128508682D01*
X124920006Y-128504723D01*
X124919997Y-128504723D01*
X124820820Y-128513399D01*
X124796749Y-128508561D01*
X124751593Y-128518870D01*
X124743191Y-128520190D01*
X124702020Y-128523793D01*
X124603179Y-128550277D01*
X124577623Y-128549668D01*
X124539030Y-128566169D01*
X124522381Y-128571927D01*
X124490667Y-128580425D01*
X124292361Y-128672898D01*
X124292357Y-128672900D01*
X124113121Y-128798402D01*
X123958402Y-128953121D01*
X123832900Y-129132357D01*
X123832898Y-129132361D01*
X123740426Y-129330668D01*
X123740422Y-129330677D01*
X123683793Y-129542020D01*
X123683793Y-129542024D01*
X123664723Y-129759997D01*
X123664723Y-129760002D01*
X121920542Y-129760002D01*
X121920500Y-129758377D01*
X121920500Y-93761622D01*
X121920542Y-93760002D01*
X123664723Y-93760002D01*
X123683793Y-93977975D01*
X123683793Y-93977979D01*
X123740422Y-94189322D01*
X123740424Y-94189326D01*
X123740425Y-94189330D01*
X123741805Y-94192289D01*
X123832897Y-94387638D01*
X123837309Y-94393939D01*
X123958402Y-94566877D01*
X124113123Y-94721598D01*
X124292361Y-94847102D01*
X124490670Y-94939575D01*
X124490675Y-94939576D01*
X124490679Y-94939578D01*
X124515749Y-94946295D01*
X124525775Y-94948981D01*
X124528882Y-94949902D01*
X124532944Y-94951221D01*
X124532948Y-94951223D01*
X124540977Y-94953054D01*
X124702023Y-94996207D01*
X124743207Y-94999810D01*
X124751594Y-95001128D01*
X124788667Y-95009591D01*
X124820835Y-95006601D01*
X124920000Y-95015277D01*
X124965291Y-95011314D01*
X124973461Y-95011142D01*
X124976194Y-95011265D01*
X124976196Y-95011264D01*
X124981749Y-95011515D01*
X124981763Y-95011514D01*
X125011648Y-95012856D01*
X125041479Y-95004649D01*
X125137977Y-94996207D01*
X125185915Y-94983361D01*
X125193643Y-94981810D01*
X125195356Y-94981577D01*
X125198713Y-94981123D01*
X125198715Y-94981122D01*
X125200819Y-94980837D01*
X125200840Y-94980834D01*
X125231609Y-94976666D01*
X125258282Y-94963971D01*
X125314234Y-94948979D01*
X125349320Y-94939578D01*
X125349323Y-94939576D01*
X125349330Y-94939575D01*
X125398182Y-94916794D01*
X125405193Y-94914032D01*
X125412274Y-94911732D01*
X125412277Y-94911730D01*
X125414252Y-94911089D01*
X125414263Y-94911085D01*
X125441653Y-94902185D01*
X125464517Y-94885862D01*
X125547639Y-94847102D01*
X125595328Y-94813709D01*
X125601502Y-94809904D01*
X125610013Y-94805325D01*
X125610015Y-94805322D01*
X125612472Y-94804001D01*
X125614913Y-94802688D01*
X125614919Y-94802684D01*
X125635152Y-94791796D01*
X125653773Y-94772785D01*
X125726877Y-94721598D01*
X125771182Y-94677292D01*
X125776336Y-94672685D01*
X125785574Y-94665319D01*
X125785578Y-94665313D01*
X125789468Y-94662212D01*
X125790866Y-94661640D01*
X125794299Y-94658359D01*
X125806039Y-94648996D01*
X125820180Y-94628294D01*
X125881598Y-94566877D01*
X125920146Y-94511824D01*
X125924206Y-94506641D01*
X125932456Y-94497198D01*
X125935022Y-94495564D01*
X125940654Y-94487813D01*
X125948945Y-94478322D01*
X125958596Y-94456912D01*
X126007102Y-94387639D01*
X126037462Y-94322531D01*
X126040416Y-94316960D01*
X126041646Y-94314899D01*
X126044777Y-94309659D01*
X126048076Y-94306606D01*
X126054205Y-94293881D01*
X126059395Y-94285194D01*
X126064752Y-94264006D01*
X126099575Y-94189330D01*
X126100105Y-94187354D01*
X126105492Y-94167247D01*
X126119408Y-94115310D01*
X126121239Y-94109604D01*
X126122879Y-94105233D01*
X126126402Y-94100547D01*
X126131308Y-94082772D01*
X126133961Y-94075702D01*
X126135412Y-94055583D01*
X126148607Y-94006341D01*
X126156207Y-93977977D01*
X126163316Y-93896708D01*
X126164073Y-93891070D01*
X126167484Y-93872276D01*
X126167484Y-93872274D01*
X126169851Y-93859232D01*
X126168067Y-93846234D01*
X126168138Y-93843047D01*
X126168352Y-93839149D01*
X126175277Y-93760000D01*
X126168356Y-93680900D01*
X126168140Y-93676963D01*
X126168113Y-93675827D01*
X126168070Y-93673884D01*
X126170554Y-93664641D01*
X126164075Y-93628940D01*
X126163316Y-93623288D01*
X126156207Y-93542023D01*
X126135411Y-93464411D01*
X126135775Y-93449123D01*
X126131308Y-93437222D01*
X126127344Y-93422861D01*
X126122879Y-93414764D01*
X126121244Y-93410409D01*
X126119405Y-93404677D01*
X126099575Y-93330670D01*
X126064752Y-93255994D01*
X126062263Y-93239605D01*
X126054204Y-93226117D01*
X126049268Y-93215869D01*
X126044783Y-93210348D01*
X126040418Y-93203043D01*
X126037455Y-93197455D01*
X126007102Y-93132362D01*
X125958597Y-93063089D01*
X125952903Y-93046205D01*
X125940655Y-93032186D01*
X125936132Y-93025961D01*
X125932453Y-93022797D01*
X125924223Y-93013377D01*
X125920124Y-93008143D01*
X125881599Y-92953124D01*
X125868977Y-92940502D01*
X125820180Y-92891705D01*
X125811061Y-92875005D01*
X125794299Y-92861638D01*
X125791557Y-92859017D01*
X125789468Y-92857786D01*
X125776353Y-92847327D01*
X125771166Y-92842691D01*
X125726878Y-92798403D01*
X125726869Y-92798396D01*
X125653772Y-92747212D01*
X125641162Y-92731436D01*
X125601505Y-92710096D01*
X125595318Y-92706283D01*
X125547643Y-92672900D01*
X125464518Y-92634138D01*
X125448508Y-92620040D01*
X125405216Y-92605974D01*
X125398167Y-92603197D01*
X125349332Y-92580426D01*
X125349330Y-92580425D01*
X125333693Y-92576235D01*
X125258273Y-92556025D01*
X125239119Y-92544349D01*
X125193640Y-92538188D01*
X125185909Y-92536636D01*
X125137985Y-92523794D01*
X125137971Y-92523792D01*
X125041472Y-92515350D01*
X125019575Y-92506784D01*
X124973463Y-92508856D01*
X124965271Y-92508682D01*
X124920006Y-92504723D01*
X124919997Y-92504723D01*
X124820820Y-92513399D01*
X124796749Y-92508561D01*
X124751593Y-92518870D01*
X124743191Y-92520190D01*
X124702020Y-92523793D01*
X124603179Y-92550277D01*
X124577623Y-92549668D01*
X124539030Y-92566169D01*
X124522381Y-92571927D01*
X124490667Y-92580425D01*
X124292361Y-92672898D01*
X124292357Y-92672900D01*
X124113121Y-92798402D01*
X123958402Y-92953121D01*
X123832900Y-93132357D01*
X123832898Y-93132361D01*
X123740426Y-93330668D01*
X123740422Y-93330677D01*
X123683793Y-93542020D01*
X123683793Y-93542024D01*
X123664723Y-93759997D01*
X123664723Y-93760002D01*
X121920542Y-93760002D01*
X121920585Y-93758376D01*
X121927497Y-93626486D01*
X121937803Y-93442968D01*
X121938464Y-93436791D01*
X121962611Y-93284331D01*
X121967426Y-93255995D01*
X121990227Y-93121796D01*
X121991451Y-93116196D01*
X122032425Y-92963279D01*
X122077083Y-92808268D01*
X122078764Y-92803254D01*
X122136127Y-92653815D01*
X122197366Y-92505972D01*
X122199379Y-92501606D01*
X122272511Y-92358078D01*
X122289102Y-92328058D01*
X122349655Y-92218494D01*
X122351867Y-92214808D01*
X122439980Y-92079127D01*
X122495479Y-92000908D01*
X122532154Y-91949220D01*
X122534486Y-91946143D01*
X122635655Y-91821209D01*
X122637537Y-91818998D01*
X122742773Y-91701239D01*
X122745092Y-91698787D01*
X122858787Y-91585092D01*
X122861239Y-91582773D01*
X122978998Y-91477537D01*
X122981209Y-91475655D01*
X123106143Y-91374486D01*
X123109220Y-91372154D01*
X123219182Y-91294130D01*
X123239127Y-91279980D01*
X123256076Y-91268973D01*
X123374808Y-91191867D01*
X123378494Y-91189655D01*
X123518078Y-91112511D01*
X123539003Y-91101849D01*
X123661606Y-91039379D01*
X123665972Y-91037366D01*
X123813815Y-90976127D01*
X123963254Y-90918764D01*
X123968268Y-90917083D01*
X124123279Y-90872425D01*
X124276196Y-90831451D01*
X124281796Y-90830227D01*
X124444284Y-90802618D01*
X124596791Y-90778464D01*
X124602968Y-90777803D01*
X124786566Y-90767493D01*
X124918380Y-90760584D01*
X124921622Y-90760500D01*
X125800106Y-90760500D01*
X125867145Y-90780185D01*
G37*
%TD.AperFunction*%
%TA.AperFunction,Conductor*%
G36*
X155107676Y-95884485D02*
G01*
X155128318Y-95901119D01*
X157154981Y-97927782D01*
X157188466Y-97989105D01*
X157191300Y-98015463D01*
X157191300Y-104676812D01*
X157191187Y-104680556D01*
X157187635Y-104739279D01*
X157187635Y-104739283D01*
X157198236Y-104797136D01*
X157198799Y-104800837D01*
X157205893Y-104859256D01*
X157205894Y-104859261D01*
X157209109Y-104867737D01*
X157215134Y-104889347D01*
X157216770Y-104898275D01*
X157240912Y-104951917D01*
X157242345Y-104955377D01*
X157263210Y-105010391D01*
X157268363Y-105017857D01*
X157279384Y-105037397D01*
X157283105Y-105045663D01*
X157283110Y-105045672D01*
X157319388Y-105091978D01*
X157321607Y-105094994D01*
X157342480Y-105125232D01*
X157355032Y-105143416D01*
X157397641Y-105181165D01*
X157399074Y-105182434D01*
X157401783Y-105184984D01*
X157759237Y-105542437D01*
X158114889Y-105898089D01*
X158117456Y-105900815D01*
X158156484Y-105944868D01*
X158204898Y-105978285D01*
X158207908Y-105980500D01*
X158254229Y-106016792D01*
X158254230Y-106016792D01*
X158254231Y-106016793D01*
X158262499Y-106020514D01*
X158282048Y-106031539D01*
X158289508Y-106036689D01*
X158289509Y-106036689D01*
X158289510Y-106036690D01*
X158341183Y-106056287D01*
X158396886Y-106098464D01*
X158409590Y-106119813D01*
X158410062Y-106120825D01*
X158410065Y-106120831D01*
X158545601Y-106314395D01*
X158545606Y-106314402D01*
X158712697Y-106481493D01*
X158712703Y-106481498D01*
X158898258Y-106611425D01*
X158941883Y-106666002D01*
X158949077Y-106735500D01*
X158917554Y-106797855D01*
X158898258Y-106814575D01*
X158712697Y-106944505D01*
X158545606Y-107111596D01*
X158438527Y-107264523D01*
X158383950Y-107308148D01*
X158336952Y-107317400D01*
X156507563Y-107317400D01*
X156440524Y-107297715D01*
X156419882Y-107281081D01*
X154455591Y-105316790D01*
X152483676Y-103344875D01*
X152481142Y-103342183D01*
X152471876Y-103331723D01*
X152442156Y-103268493D01*
X152451340Y-103199229D01*
X152496512Y-103145926D01*
X152563332Y-103125506D01*
X152564693Y-103125499D01*
X153415871Y-103125499D01*
X153415872Y-103125499D01*
X153475483Y-103119091D01*
X153610331Y-103068796D01*
X153725546Y-102982546D01*
X153811796Y-102867331D01*
X153862091Y-102732483D01*
X153868500Y-102672873D01*
X153868499Y-102027128D01*
X153862091Y-101967517D01*
X153862089Y-101967513D01*
X153861632Y-101963255D01*
X153861632Y-101936745D01*
X153862089Y-101932486D01*
X153862091Y-101932483D01*
X153868500Y-101872873D01*
X153868499Y-101227128D01*
X153862091Y-101167517D01*
X153862089Y-101167513D01*
X153861632Y-101163255D01*
X153861632Y-101136745D01*
X153862089Y-101132486D01*
X153862091Y-101132483D01*
X153868500Y-101072873D01*
X153868499Y-100427128D01*
X153862091Y-100367517D01*
X153844318Y-100319866D01*
X153811797Y-100232671D01*
X153811793Y-100232664D01*
X153737529Y-100133461D01*
X153725546Y-100117454D01*
X153634457Y-100049265D01*
X153592588Y-99993333D01*
X153587604Y-99923641D01*
X153621089Y-99862318D01*
X153634464Y-99850730D01*
X153648358Y-99840330D01*
X153713823Y-99815916D01*
X153722664Y-99815600D01*
X154037053Y-99815600D01*
X154076056Y-99821893D01*
X154217003Y-99868599D01*
X154319791Y-99879100D01*
X155094808Y-99879099D01*
X155094816Y-99879098D01*
X155094819Y-99879098D01*
X155151102Y-99873348D01*
X155197597Y-99868599D01*
X155364134Y-99813414D01*
X155513456Y-99721312D01*
X155637512Y-99597256D01*
X155729614Y-99447934D01*
X155784799Y-99281397D01*
X155795300Y-99178609D01*
X155795299Y-98128592D01*
X155784799Y-98025803D01*
X155729614Y-97859266D01*
X155637512Y-97709944D01*
X155513456Y-97585888D01*
X155379361Y-97503178D01*
X155364136Y-97493787D01*
X155364131Y-97493785D01*
X155362662Y-97493298D01*
X155197597Y-97438601D01*
X155197595Y-97438600D01*
X155094810Y-97428100D01*
X154319798Y-97428100D01*
X154319780Y-97428101D01*
X154217003Y-97438600D01*
X154217000Y-97438601D01*
X154050463Y-97493787D01*
X154044896Y-97496383D01*
X153975817Y-97506870D01*
X153912036Y-97478345D01*
X153873800Y-97419866D01*
X153868499Y-97383997D01*
X153868499Y-97227129D01*
X153868499Y-97227128D01*
X153862091Y-97167517D01*
X153862089Y-97167513D01*
X153861632Y-97163255D01*
X153861632Y-97136745D01*
X153862089Y-97132486D01*
X153862091Y-97132483D01*
X153868500Y-97072873D01*
X153868499Y-96427128D01*
X153862091Y-96367517D01*
X153811796Y-96232669D01*
X153811795Y-96232668D01*
X153811793Y-96232664D01*
X153725547Y-96117456D01*
X153725548Y-96117456D01*
X153725546Y-96117454D01*
X153686287Y-96088065D01*
X153644418Y-96032133D01*
X153639434Y-95962441D01*
X153672919Y-95901118D01*
X153734242Y-95867634D01*
X153760600Y-95864800D01*
X155040637Y-95864800D01*
X155107676Y-95884485D01*
G37*
%TD.AperFunction*%
%TD*%
M02*
