%TF.GenerationSoftware,KiCad,Pcbnew,7.0.6*%
%TF.CreationDate,2023-09-04T00:35:45+02:00*%
%TF.ProjectId,pqunit,7071756e-6974-42e6-9b69-6361645f7063,rev?*%
%TF.SameCoordinates,Original*%
%TF.FileFunction,Soldermask,Top*%
%TF.FilePolarity,Negative*%
%FSLAX46Y46*%
G04 Gerber Fmt 4.6, Leading zero omitted, Abs format (unit mm)*
G04 Created by KiCad (PCBNEW 7.0.6) date 2023-09-04 00:35:45*
%MOMM*%
%LPD*%
G01*
G04 APERTURE LIST*
G04 Aperture macros list*
%AMRoundRect*
0 Rectangle with rounded corners*
0 $1 Rounding radius*
0 $2 $3 $4 $5 $6 $7 $8 $9 X,Y pos of 4 corners*
0 Add a 4 corners polygon primitive as box body*
4,1,4,$2,$3,$4,$5,$6,$7,$8,$9,$2,$3,0*
0 Add four circle primitives for the rounded corners*
1,1,$1+$1,$2,$3*
1,1,$1+$1,$4,$5*
1,1,$1+$1,$6,$7*
1,1,$1+$1,$8,$9*
0 Add four rect primitives between the rounded corners*
20,1,$1+$1,$2,$3,$4,$5,0*
20,1,$1+$1,$4,$5,$6,$7,0*
20,1,$1+$1,$6,$7,$8,$9,0*
20,1,$1+$1,$8,$9,$2,$3,0*%
G04 Aperture macros list end*
%ADD10C,1.400000*%
%ADD11RoundRect,0.250000X0.650000X-0.412500X0.650000X0.412500X-0.650000X0.412500X-0.650000X-0.412500X0*%
%ADD12R,2.000000X1.500000*%
%ADD13R,1.700000X1.700000*%
%ADD14O,1.700000X1.700000*%
%ADD15RoundRect,0.250000X0.475000X-0.337500X0.475000X0.337500X-0.475000X0.337500X-0.475000X-0.337500X0*%
G04 APERTURE END LIST*
D10*
%TO.C,JP1*%
X139243817Y-117513117D03*
X141039868Y-119309168D03*
%TD*%
D11*
%TO.C,C10*%
X131267714Y-104109900D03*
X131267714Y-100984900D03*
%TD*%
D12*
%TO.C,U6*%
X136445700Y-100221000D03*
X136445700Y-102221000D03*
X136445700Y-104221000D03*
X136445700Y-106221000D03*
X136445700Y-108221000D03*
X136445700Y-110221000D03*
X136445700Y-112221000D03*
X136445700Y-114221000D03*
X152445700Y-114221000D03*
X152445700Y-112221000D03*
X152445700Y-110221000D03*
X152445700Y-108221000D03*
X152445700Y-106221000D03*
X152445700Y-104221000D03*
X152445700Y-102221000D03*
X152445700Y-100221000D03*
%TD*%
D13*
%TO.C,J1*%
X154350000Y-124390000D03*
D14*
X154350000Y-126930000D03*
X151810000Y-124390000D03*
X151810000Y-126930000D03*
X149270000Y-124390000D03*
X149270000Y-126930000D03*
X146730000Y-124390000D03*
X146730000Y-126930000D03*
X144190000Y-124390000D03*
X144190000Y-126930000D03*
X141650000Y-124390000D03*
X141650000Y-126930000D03*
X139110000Y-124390000D03*
X139110000Y-126930000D03*
X136570000Y-124390000D03*
X136570000Y-126930000D03*
X134030000Y-124390000D03*
X134030000Y-126930000D03*
X131490000Y-124390000D03*
X131490000Y-126930000D03*
%TD*%
D15*
%TO.C,C8*%
X133523700Y-104165200D03*
X133523700Y-102090200D03*
%TD*%
D13*
%TO.C,J2*%
X159584100Y-100363000D03*
D14*
X159584100Y-102903000D03*
X159584100Y-105443000D03*
X159584100Y-107983000D03*
X159584100Y-110523000D03*
X159584100Y-113063000D03*
X159584100Y-115603000D03*
X159584100Y-118143000D03*
X159584100Y-120683000D03*
X159584100Y-123223000D03*
%TD*%
M02*
