%TF.GenerationSoftware,KiCad,Pcbnew,7.0.6*%
%TF.CreationDate,2023-09-04T00:35:45+02:00*%
%TF.ProjectId,pqunit,7071756e-6974-42e6-9b69-6361645f7063,rev?*%
%TF.SameCoordinates,Original*%
%TF.FileFunction,Legend,Bot*%
%TF.FilePolarity,Positive*%
%FSLAX46Y46*%
G04 Gerber Fmt 4.6, Leading zero omitted, Abs format (unit mm)*
G04 Created by KiCad (PCBNEW 7.0.6) date 2023-09-04 00:35:45*
%MOMM*%
%LPD*%
G01*
G04 APERTURE LIST*
%ADD10C,0.150000*%
%ADD11C,0.120000*%
%ADD12C,0.203200*%
G04 APERTURE END LIST*
D10*
X137805166Y-105948180D02*
X137852785Y-105995800D01*
X137852785Y-105995800D02*
X137995642Y-106043419D01*
X137995642Y-106043419D02*
X138090880Y-106043419D01*
X138090880Y-106043419D02*
X138233737Y-105995800D01*
X138233737Y-105995800D02*
X138328975Y-105900561D01*
X138328975Y-105900561D02*
X138376594Y-105805323D01*
X138376594Y-105805323D02*
X138424213Y-105614847D01*
X138424213Y-105614847D02*
X138424213Y-105471990D01*
X138424213Y-105471990D02*
X138376594Y-105281514D01*
X138376594Y-105281514D02*
X138328975Y-105186276D01*
X138328975Y-105186276D02*
X138233737Y-105091038D01*
X138233737Y-105091038D02*
X138090880Y-105043419D01*
X138090880Y-105043419D02*
X137995642Y-105043419D01*
X137995642Y-105043419D02*
X137852785Y-105091038D01*
X137852785Y-105091038D02*
X137805166Y-105138657D01*
X136852785Y-106043419D02*
X137424213Y-106043419D01*
X137138499Y-106043419D02*
X137138499Y-105043419D01*
X137138499Y-105043419D02*
X137233737Y-105186276D01*
X137233737Y-105186276D02*
X137328975Y-105281514D01*
X137328975Y-105281514D02*
X137424213Y-105329133D01*
X135214366Y-106023580D02*
X135261985Y-106071200D01*
X135261985Y-106071200D02*
X135404842Y-106118819D01*
X135404842Y-106118819D02*
X135500080Y-106118819D01*
X135500080Y-106118819D02*
X135642937Y-106071200D01*
X135642937Y-106071200D02*
X135738175Y-105975961D01*
X135738175Y-105975961D02*
X135785794Y-105880723D01*
X135785794Y-105880723D02*
X135833413Y-105690247D01*
X135833413Y-105690247D02*
X135833413Y-105547390D01*
X135833413Y-105547390D02*
X135785794Y-105356914D01*
X135785794Y-105356914D02*
X135738175Y-105261676D01*
X135738175Y-105261676D02*
X135642937Y-105166438D01*
X135642937Y-105166438D02*
X135500080Y-105118819D01*
X135500080Y-105118819D02*
X135404842Y-105118819D01*
X135404842Y-105118819D02*
X135261985Y-105166438D01*
X135261985Y-105166438D02*
X135214366Y-105214057D01*
X134833413Y-105214057D02*
X134785794Y-105166438D01*
X134785794Y-105166438D02*
X134690556Y-105118819D01*
X134690556Y-105118819D02*
X134452461Y-105118819D01*
X134452461Y-105118819D02*
X134357223Y-105166438D01*
X134357223Y-105166438D02*
X134309604Y-105214057D01*
X134309604Y-105214057D02*
X134261985Y-105309295D01*
X134261985Y-105309295D02*
X134261985Y-105404533D01*
X134261985Y-105404533D02*
X134309604Y-105547390D01*
X134309604Y-105547390D02*
X134881032Y-106118819D01*
X134881032Y-106118819D02*
X134261985Y-106118819D01*
X147427666Y-108267619D02*
X147760999Y-107791428D01*
X147999094Y-108267619D02*
X147999094Y-107267619D01*
X147999094Y-107267619D02*
X147618142Y-107267619D01*
X147618142Y-107267619D02*
X147522904Y-107315238D01*
X147522904Y-107315238D02*
X147475285Y-107362857D01*
X147475285Y-107362857D02*
X147427666Y-107458095D01*
X147427666Y-107458095D02*
X147427666Y-107600952D01*
X147427666Y-107600952D02*
X147475285Y-107696190D01*
X147475285Y-107696190D02*
X147522904Y-107743809D01*
X147522904Y-107743809D02*
X147618142Y-107791428D01*
X147618142Y-107791428D02*
X147999094Y-107791428D01*
X146570523Y-107600952D02*
X146570523Y-108267619D01*
X146808618Y-107220000D02*
X147046713Y-107934285D01*
X147046713Y-107934285D02*
X146427666Y-107934285D01*
X140141966Y-104956780D02*
X140189585Y-105004400D01*
X140189585Y-105004400D02*
X140332442Y-105052019D01*
X140332442Y-105052019D02*
X140427680Y-105052019D01*
X140427680Y-105052019D02*
X140570537Y-105004400D01*
X140570537Y-105004400D02*
X140665775Y-104909161D01*
X140665775Y-104909161D02*
X140713394Y-104813923D01*
X140713394Y-104813923D02*
X140761013Y-104623447D01*
X140761013Y-104623447D02*
X140761013Y-104480590D01*
X140761013Y-104480590D02*
X140713394Y-104290114D01*
X140713394Y-104290114D02*
X140665775Y-104194876D01*
X140665775Y-104194876D02*
X140570537Y-104099638D01*
X140570537Y-104099638D02*
X140427680Y-104052019D01*
X140427680Y-104052019D02*
X140332442Y-104052019D01*
X140332442Y-104052019D02*
X140189585Y-104099638D01*
X140189585Y-104099638D02*
X140141966Y-104147257D01*
X139237204Y-104052019D02*
X139713394Y-104052019D01*
X139713394Y-104052019D02*
X139761013Y-104528209D01*
X139761013Y-104528209D02*
X139713394Y-104480590D01*
X139713394Y-104480590D02*
X139618156Y-104432971D01*
X139618156Y-104432971D02*
X139380061Y-104432971D01*
X139380061Y-104432971D02*
X139284823Y-104480590D01*
X139284823Y-104480590D02*
X139237204Y-104528209D01*
X139237204Y-104528209D02*
X139189585Y-104623447D01*
X139189585Y-104623447D02*
X139189585Y-104861542D01*
X139189585Y-104861542D02*
X139237204Y-104956780D01*
X139237204Y-104956780D02*
X139284823Y-105004400D01*
X139284823Y-105004400D02*
X139380061Y-105052019D01*
X139380061Y-105052019D02*
X139618156Y-105052019D01*
X139618156Y-105052019D02*
X139713394Y-105004400D01*
X139713394Y-105004400D02*
X139761013Y-104956780D01*
X149079904Y-105054819D02*
X149079904Y-105864342D01*
X149079904Y-105864342D02*
X149032285Y-105959580D01*
X149032285Y-105959580D02*
X148984666Y-106007200D01*
X148984666Y-106007200D02*
X148889428Y-106054819D01*
X148889428Y-106054819D02*
X148698952Y-106054819D01*
X148698952Y-106054819D02*
X148603714Y-106007200D01*
X148603714Y-106007200D02*
X148556095Y-105959580D01*
X148556095Y-105959580D02*
X148508476Y-105864342D01*
X148508476Y-105864342D02*
X148508476Y-105054819D01*
X147508476Y-106054819D02*
X148079904Y-106054819D01*
X147794190Y-106054819D02*
X147794190Y-105054819D01*
X147794190Y-105054819D02*
X147889428Y-105197676D01*
X147889428Y-105197676D02*
X147984666Y-105292914D01*
X147984666Y-105292914D02*
X148079904Y-105340533D01*
X127243490Y-95838228D02*
X127243490Y-96314419D01*
X127576823Y-95314419D02*
X127243490Y-95838228D01*
X127243490Y-95838228D02*
X126910157Y-95314419D01*
X126053014Y-96314419D02*
X126624442Y-96314419D01*
X126338728Y-96314419D02*
X126338728Y-95314419D01*
X126338728Y-95314419D02*
X126433966Y-95457276D01*
X126433966Y-95457276D02*
X126529204Y-95552514D01*
X126529204Y-95552514D02*
X126624442Y-95600133D01*
X150211404Y-120061619D02*
X150211404Y-120871142D01*
X150211404Y-120871142D02*
X150163785Y-120966380D01*
X150163785Y-120966380D02*
X150116166Y-121014000D01*
X150116166Y-121014000D02*
X150020928Y-121061619D01*
X150020928Y-121061619D02*
X149830452Y-121061619D01*
X149830452Y-121061619D02*
X149735214Y-121014000D01*
X149735214Y-121014000D02*
X149687595Y-120966380D01*
X149687595Y-120966380D02*
X149639976Y-120871142D01*
X149639976Y-120871142D02*
X149639976Y-120061619D01*
X148687595Y-120061619D02*
X149163785Y-120061619D01*
X149163785Y-120061619D02*
X149211404Y-120537809D01*
X149211404Y-120537809D02*
X149163785Y-120490190D01*
X149163785Y-120490190D02*
X149068547Y-120442571D01*
X149068547Y-120442571D02*
X148830452Y-120442571D01*
X148830452Y-120442571D02*
X148735214Y-120490190D01*
X148735214Y-120490190D02*
X148687595Y-120537809D01*
X148687595Y-120537809D02*
X148639976Y-120633047D01*
X148639976Y-120633047D02*
X148639976Y-120871142D01*
X148639976Y-120871142D02*
X148687595Y-120966380D01*
X148687595Y-120966380D02*
X148735214Y-121014000D01*
X148735214Y-121014000D02*
X148830452Y-121061619D01*
X148830452Y-121061619D02*
X149068547Y-121061619D01*
X149068547Y-121061619D02*
X149163785Y-121014000D01*
X149163785Y-121014000D02*
X149211404Y-120966380D01*
X158875780Y-98436133D02*
X158923400Y-98388514D01*
X158923400Y-98388514D02*
X158971019Y-98245657D01*
X158971019Y-98245657D02*
X158971019Y-98150419D01*
X158971019Y-98150419D02*
X158923400Y-98007562D01*
X158923400Y-98007562D02*
X158828161Y-97912324D01*
X158828161Y-97912324D02*
X158732923Y-97864705D01*
X158732923Y-97864705D02*
X158542447Y-97817086D01*
X158542447Y-97817086D02*
X158399590Y-97817086D01*
X158399590Y-97817086D02*
X158209114Y-97864705D01*
X158209114Y-97864705D02*
X158113876Y-97912324D01*
X158113876Y-97912324D02*
X158018638Y-98007562D01*
X158018638Y-98007562D02*
X157971019Y-98150419D01*
X157971019Y-98150419D02*
X157971019Y-98245657D01*
X157971019Y-98245657D02*
X158018638Y-98388514D01*
X158018638Y-98388514D02*
X158066257Y-98436133D01*
X158304352Y-99293276D02*
X158971019Y-99293276D01*
X157923400Y-99055181D02*
X158637685Y-98817086D01*
X158637685Y-98817086D02*
X158637685Y-99436133D01*
X144358366Y-117486580D02*
X144405985Y-117534200D01*
X144405985Y-117534200D02*
X144548842Y-117581819D01*
X144548842Y-117581819D02*
X144644080Y-117581819D01*
X144644080Y-117581819D02*
X144786937Y-117534200D01*
X144786937Y-117534200D02*
X144882175Y-117438961D01*
X144882175Y-117438961D02*
X144929794Y-117343723D01*
X144929794Y-117343723D02*
X144977413Y-117153247D01*
X144977413Y-117153247D02*
X144977413Y-117010390D01*
X144977413Y-117010390D02*
X144929794Y-116819914D01*
X144929794Y-116819914D02*
X144882175Y-116724676D01*
X144882175Y-116724676D02*
X144786937Y-116629438D01*
X144786937Y-116629438D02*
X144644080Y-116581819D01*
X144644080Y-116581819D02*
X144548842Y-116581819D01*
X144548842Y-116581819D02*
X144405985Y-116629438D01*
X144405985Y-116629438D02*
X144358366Y-116677057D01*
X143882175Y-117581819D02*
X143691699Y-117581819D01*
X143691699Y-117581819D02*
X143596461Y-117534200D01*
X143596461Y-117534200D02*
X143548842Y-117486580D01*
X143548842Y-117486580D02*
X143453604Y-117343723D01*
X143453604Y-117343723D02*
X143405985Y-117153247D01*
X143405985Y-117153247D02*
X143405985Y-116772295D01*
X143405985Y-116772295D02*
X143453604Y-116677057D01*
X143453604Y-116677057D02*
X143501223Y-116629438D01*
X143501223Y-116629438D02*
X143596461Y-116581819D01*
X143596461Y-116581819D02*
X143786937Y-116581819D01*
X143786937Y-116581819D02*
X143882175Y-116629438D01*
X143882175Y-116629438D02*
X143929794Y-116677057D01*
X143929794Y-116677057D02*
X143977413Y-116772295D01*
X143977413Y-116772295D02*
X143977413Y-117010390D01*
X143977413Y-117010390D02*
X143929794Y-117105628D01*
X143929794Y-117105628D02*
X143882175Y-117153247D01*
X143882175Y-117153247D02*
X143786937Y-117200866D01*
X143786937Y-117200866D02*
X143596461Y-117200866D01*
X143596461Y-117200866D02*
X143501223Y-117153247D01*
X143501223Y-117153247D02*
X143453604Y-117105628D01*
X143453604Y-117105628D02*
X143405985Y-117010390D01*
X152253666Y-108283619D02*
X152586999Y-107807428D01*
X152825094Y-108283619D02*
X152825094Y-107283619D01*
X152825094Y-107283619D02*
X152444142Y-107283619D01*
X152444142Y-107283619D02*
X152348904Y-107331238D01*
X152348904Y-107331238D02*
X152301285Y-107378857D01*
X152301285Y-107378857D02*
X152253666Y-107474095D01*
X152253666Y-107474095D02*
X152253666Y-107616952D01*
X152253666Y-107616952D02*
X152301285Y-107712190D01*
X152301285Y-107712190D02*
X152348904Y-107759809D01*
X152348904Y-107759809D02*
X152444142Y-107807428D01*
X152444142Y-107807428D02*
X152825094Y-107807428D01*
X151920332Y-107283619D02*
X151301285Y-107283619D01*
X151301285Y-107283619D02*
X151634618Y-107664571D01*
X151634618Y-107664571D02*
X151491761Y-107664571D01*
X151491761Y-107664571D02*
X151396523Y-107712190D01*
X151396523Y-107712190D02*
X151348904Y-107759809D01*
X151348904Y-107759809D02*
X151301285Y-107855047D01*
X151301285Y-107855047D02*
X151301285Y-108093142D01*
X151301285Y-108093142D02*
X151348904Y-108188380D01*
X151348904Y-108188380D02*
X151396523Y-108236000D01*
X151396523Y-108236000D02*
X151491761Y-108283619D01*
X151491761Y-108283619D02*
X151777475Y-108283619D01*
X151777475Y-108283619D02*
X151872713Y-108236000D01*
X151872713Y-108236000D02*
X151920332Y-108188380D01*
D11*
%TO.C,C1*%
X138650100Y-101384448D02*
X138650100Y-102806952D01*
X136830100Y-101384448D02*
X136830100Y-102806952D01*
%TO.C,C2*%
X135957700Y-101384448D02*
X135957700Y-102806952D01*
X134137700Y-101384448D02*
X134137700Y-102806952D01*
%TO.C,R4*%
X148025500Y-110330736D02*
X148025500Y-110784864D01*
X146555500Y-110330736D02*
X146555500Y-110784864D01*
%TO.C,C5*%
X140710300Y-101207848D02*
X140710300Y-101730352D01*
X139240300Y-101207848D02*
X139240300Y-101730352D01*
D10*
%TO.C,U1*%
X144693000Y-95925000D02*
X144693000Y-96250000D01*
X144693000Y-95925000D02*
X145018000Y-95925000D01*
X144693000Y-102950000D02*
X143268000Y-102950000D01*
X144693000Y-103175000D02*
X144693000Y-102950000D01*
X144693000Y-103175000D02*
X145018000Y-103175000D01*
X151943000Y-95925000D02*
X151618000Y-95925000D01*
X151943000Y-95925000D02*
X151943000Y-96250000D01*
X151943000Y-103175000D02*
X151618000Y-103175000D01*
X151943000Y-103175000D02*
X151943000Y-102850000D01*
D11*
%TO.C,Y1*%
X140939500Y-98341000D02*
X128339500Y-98341000D01*
X128339500Y-98341000D02*
X128339500Y-93241000D01*
X128339500Y-93241000D02*
X140939500Y-93241000D01*
D12*
%TO.C,U5*%
X150634500Y-115247400D02*
G75*
G03*
X150634500Y-115247400I-143600J0D01*
G01*
D11*
%TO.C,C4*%
X155483548Y-99388600D02*
X156006052Y-99388600D01*
X155483548Y-97918600D02*
X156006052Y-97918600D01*
%TO.C,C9*%
X143405900Y-114492652D02*
X143405900Y-113970148D01*
X144875900Y-114492652D02*
X144875900Y-113970148D01*
%TO.C,R3*%
X152851500Y-110346736D02*
X152851500Y-110800864D01*
X151381500Y-110346736D02*
X151381500Y-110800864D01*
%TD*%
M02*
